<svg width="156" height="115" viewBox="0 0 156 115" fill="none" xmlns="http://www.w3.org/2000/svg">
<rect x="2" y="2" width="152" height="111" rx="6" stroke="#757575" stroke-width="4" stroke-miterlimit="0" stroke-linecap="round"/>
<path d="M38.929 42.1662H36.9347C36.858 41.7401 36.7152 41.3651 36.5064 41.0412C36.2976 40.7173 36.042 40.4425 35.7394 40.2166C35.4368 39.9908 35.0981 39.8203 34.7231 39.7053C34.3523 39.5902 33.9581 39.5327 33.5405 39.5327C32.7863 39.5327 32.1108 39.7223 31.5143 40.1016C30.9219 40.4808 30.4532 41.0369 30.108 41.7699C29.7671 42.5028 29.5966 43.3977 29.5966 44.4545C29.5966 45.5199 29.7671 46.419 30.108 47.152C30.4532 47.8849 30.9241 48.4389 31.5206 48.8139C32.1172 49.1889 32.7884 49.3764 33.5341 49.3764C33.9475 49.3764 34.3395 49.321 34.7103 49.2102C35.0853 49.0952 35.4241 48.9268 35.7266 48.7053C36.0292 48.4837 36.2849 48.2131 36.4937 47.8935C36.7067 47.5696 36.8537 47.1989 36.9347 46.7812L38.929 46.7876C38.8225 47.4311 38.6158 48.0234 38.309 48.5646C38.0064 49.1016 37.6165 49.5661 37.1393 49.9581C36.6662 50.3459 36.125 50.6463 35.5157 50.8594C34.9063 51.0724 34.2415 51.179 33.5214 51.179C32.3878 51.179 31.3779 50.9105 30.4915 50.3736C29.6052 49.8324 28.9063 49.0589 28.3949 48.0533C27.8878 47.0476 27.6343 45.848 27.6343 44.4545C27.6343 43.0568 27.89 41.8572 28.4013 40.8558C28.9127 39.8501 29.6116 39.0788 30.4979 38.5419C31.3843 38.0007 32.3921 37.7301 33.5214 37.7301C34.216 37.7301 34.8637 37.8303 35.4645 38.0305C36.0697 38.2266 36.613 38.5163 37.0945 38.8999C37.576 39.2791 37.9745 39.7436 38.2898 40.2933C38.6052 40.8388 38.8182 41.4631 38.929 42.1662ZM42.6543 37.9091V51H40.7431V37.9091H42.6543ZM44.8295 51V41.1818H46.7407V51H44.8295ZM45.7947 39.6669C45.4623 39.6669 45.1768 39.5561 44.9382 39.3345C44.7038 39.1087 44.5866 38.8402 44.5866 38.5291C44.5866 38.2138 44.7038 37.9453 44.9382 37.7237C45.1768 37.4979 45.4623 37.3849 45.7947 37.3849C46.1271 37.3849 46.4105 37.4979 46.6448 37.7237C46.8835 37.9453 47.0028 38.2138 47.0028 38.5291C47.0028 38.8402 46.8835 39.1087 46.6448 39.3345C46.4105 39.5561 46.1271 39.6669 45.7947 39.6669ZM53.0516 51.1982C52.1013 51.1982 51.2831 50.983 50.597 50.5526C49.9152 50.1179 49.3911 49.5192 49.0246 48.7564C48.6581 47.9936 48.4749 47.12 48.4749 46.1357C48.4749 45.1385 48.6624 44.2585 49.0374 43.4957C49.4124 42.7287 49.9408 42.13 50.6226 41.6996C51.3044 41.2692 52.1077 41.054 53.0324 41.054C53.7781 41.054 54.4429 41.1925 55.0267 41.4695C55.6105 41.7422 56.0814 42.1257 56.4394 42.62C56.8016 43.1143 57.0168 43.6918 57.085 44.3523H55.2249C55.1226 43.892 54.8882 43.4957 54.5217 43.1634C54.1595 42.831 53.6737 42.6648 53.0644 42.6648C52.5317 42.6648 52.0651 42.8054 51.6645 43.0866C51.2682 43.3636 50.9592 43.7599 50.7377 44.2756C50.5161 44.7869 50.4053 45.392 50.4053 46.0909C50.4053 46.8068 50.5139 47.4247 50.7313 47.9446C50.9486 48.4645 51.2554 48.8672 51.6517 49.1527C52.0523 49.4382 52.5232 49.581 53.0644 49.581C53.4266 49.581 53.7547 49.5149 54.0487 49.3828C54.347 49.2464 54.5963 49.0526 54.7966 48.8011C55.0011 48.5497 55.1439 48.2472 55.2249 47.8935H57.085C57.0168 48.5284 56.8101 49.0952 56.4649 49.5938C56.1198 50.0923 55.6574 50.4844 55.0779 50.7699C54.5026 51.0554 53.8271 51.1982 53.0516 51.1982ZM60.4906 47.6697L60.4778 45.3366H60.8102L64.7222 41.1818H67.0105L62.5489 45.9119H62.2484L60.4906 47.6697ZM58.7328 51V37.9091H60.644V51H58.7328ZM64.9331 51L61.4175 46.3338L62.7342 44.9979L67.279 51H64.9331ZM74.6352 45.1705V51H72.724V37.9091H74.6097V42.7798H74.7311C74.9612 42.2514 75.3128 41.8317 75.7858 41.5206C76.2588 41.2095 76.8767 41.054 77.6395 41.054C78.3128 41.054 78.9009 41.1925 79.4037 41.4695C79.9108 41.7464 80.3028 42.1598 80.5798 42.7095C80.8611 43.255 81.0017 43.9368 81.0017 44.755V51H79.0905V44.9851C79.0905 44.2649 78.9051 43.7067 78.5344 43.3104C78.1636 42.9098 77.648 42.7095 76.9875 42.7095C76.5358 42.7095 76.131 42.8054 75.773 42.9972C75.4193 43.1889 75.1402 43.4702 74.9357 43.8409C74.7354 44.2074 74.6352 44.6506 74.6352 45.1705ZM87.3877 51.1982C86.4203 51.1982 85.5872 50.9915 84.8884 50.5781C84.1938 50.1605 83.6568 49.5746 83.2776 48.8203C82.9026 48.0618 82.7151 47.1733 82.7151 46.1548C82.7151 45.1491 82.9026 44.2628 83.2776 43.4957C83.6568 42.7287 84.1853 42.13 84.8628 41.6996C85.5446 41.2692 86.3415 41.054 87.2534 41.054C87.8074 41.054 88.3443 41.1456 88.8642 41.3288C89.3841 41.5121 89.8507 41.7997 90.2641 42.1918C90.6774 42.5838 91.0034 43.093 91.2421 43.7195C91.4807 44.3416 91.6 45.098 91.6 45.9886V46.6662H83.7953V45.2344H89.7272C89.7272 44.7315 89.6249 44.2862 89.4203 43.8984C89.2158 43.5064 88.9282 43.1974 88.5574 42.9716C88.1909 42.7457 87.7605 42.6328 87.2662 42.6328C86.7293 42.6328 86.2605 42.7649 85.86 43.0291C85.4637 43.2891 85.1568 43.63 84.9395 44.0518C84.7265 44.4695 84.6199 44.9233 84.6199 45.4134V46.532C84.6199 47.1882 84.735 47.7464 84.9651 48.2067C85.1995 48.6669 85.5255 49.0185 85.9431 49.2614C86.3607 49.5 86.8486 49.6193 87.4068 49.6193C87.7691 49.6193 88.0993 49.5682 88.3976 49.4659C88.6959 49.3594 88.9537 49.2017 89.1711 48.9929C89.3884 48.7841 89.5546 48.5263 89.6696 48.2195L91.4786 48.5455C91.3337 49.0781 91.0738 49.5447 90.6988 49.9453C90.328 50.3416 89.8614 50.6506 89.2989 50.8722C88.7407 51.0895 88.1036 51.1982 87.3877 51.1982ZM93.3246 51V41.1818H95.1719V42.7415H95.2742C95.4531 42.2131 95.7685 41.7976 96.2202 41.495C96.6762 41.1882 97.1918 41.0348 97.7671 41.0348C97.8864 41.0348 98.027 41.0391 98.1889 41.0476C98.3551 41.0561 98.4851 41.0668 98.5789 41.0795V42.9077C98.5022 42.8864 98.3658 42.8629 98.1698 42.8374C97.9737 42.8075 97.7777 42.7926 97.5817 42.7926C97.13 42.7926 96.7273 42.8885 96.3736 43.0803C96.0242 43.2678 95.7472 43.5298 95.5426 43.8665C95.3381 44.1989 95.2358 44.5781 95.2358 45.0043V51H93.3246ZM103.717 51.1982C102.749 51.1982 101.916 50.9915 101.217 50.5781C100.523 50.1605 99.9859 49.5746 99.6067 48.8203C99.2317 48.0618 99.0442 47.1733 99.0442 46.1548C99.0442 45.1491 99.2317 44.2628 99.6067 43.4957C99.9859 42.7287 100.514 42.13 101.192 41.6996C101.874 41.2692 102.671 41.054 103.583 41.054C104.137 41.054 104.673 41.1456 105.193 41.3288C105.713 41.5121 106.18 41.7997 106.593 42.1918C107.007 42.5838 107.333 43.093 107.571 43.7195C107.81 44.3416 107.929 45.098 107.929 45.9886V46.6662H100.124V45.2344H106.056C106.056 44.7315 105.954 44.2862 105.749 43.8984C105.545 43.5064 105.257 43.1974 104.887 42.9716C104.52 42.7457 104.09 42.6328 103.595 42.6328C103.058 42.6328 102.59 42.7649 102.189 43.0291C101.793 43.2891 101.486 43.63 101.269 44.0518C101.056 44.4695 100.949 44.9233 100.949 45.4134V46.532C100.949 47.1882 101.064 47.7464 101.294 48.2067C101.529 48.6669 101.855 49.0185 102.272 49.2614C102.69 49.5 103.178 49.6193 103.736 49.6193C104.098 49.6193 104.428 49.5682 104.727 49.4659C105.025 49.3594 105.283 49.2017 105.5 48.9929C105.717 48.7841 105.884 48.5263 105.999 48.2195L107.808 48.5455C107.663 49.0781 107.403 49.5447 107.028 49.9453C106.657 50.3416 106.19 50.6506 105.628 50.8722C105.07 51.0895 104.433 51.1982 103.717 51.1982ZM118.604 41.1818V42.7159H113.242V41.1818H118.604ZM114.68 38.8295H116.591V48.1172C116.591 48.4879 116.646 48.767 116.757 48.9545C116.868 49.1378 117.011 49.2635 117.185 49.3317C117.364 49.3956 117.558 49.4276 117.767 49.4276C117.921 49.4276 118.055 49.4169 118.17 49.3956C118.285 49.3743 118.374 49.3572 118.438 49.3445L118.783 50.9233C118.673 50.9659 118.515 51.0085 118.31 51.0511C118.106 51.098 117.85 51.1236 117.543 51.1278C117.041 51.1364 116.572 51.0469 116.137 50.8594C115.702 50.6719 115.351 50.3821 115.082 49.9901C114.814 49.598 114.68 49.1058 114.68 48.5135V38.8295ZM124.353 51.1982C123.432 51.1982 122.629 50.9872 121.943 50.5653C121.257 50.1435 120.724 49.5533 120.345 48.7947C119.966 48.0362 119.776 47.1499 119.776 46.1357C119.776 45.1172 119.966 44.2266 120.345 43.4638C120.724 42.701 121.257 42.1087 121.943 41.6868C122.629 41.2649 123.432 41.054 124.353 41.054C125.273 41.054 126.077 41.2649 126.763 41.6868C127.449 42.1087 127.981 42.701 128.361 43.4638C128.74 44.2266 128.93 45.1172 128.93 46.1357C128.93 47.1499 128.74 48.0362 128.361 48.7947C127.981 49.5533 127.449 50.1435 126.763 50.5653C126.077 50.9872 125.273 51.1982 124.353 51.1982ZM124.359 49.5938C124.956 49.5938 125.45 49.4361 125.842 49.1207C126.234 48.8054 126.524 48.3857 126.711 47.8615C126.903 47.3374 126.999 46.7599 126.999 46.1293C126.999 45.5028 126.903 44.9276 126.711 44.4034C126.524 43.875 126.234 43.451 125.842 43.1314C125.45 42.8118 124.956 42.652 124.359 42.652C123.758 42.652 123.26 42.8118 122.863 43.1314C122.471 43.451 122.18 43.875 121.988 44.4034C121.8 44.9276 121.707 45.5028 121.707 46.1293C121.707 46.7599 121.8 47.3374 121.988 47.8615C122.18 48.3857 122.471 48.8054 122.863 49.1207C123.26 49.4361 123.758 49.5938 124.359 49.5938ZM48.4333 78.2173C47.8112 78.2173 47.2487 78.1023 46.7458 77.8722C46.243 77.6378 45.8445 77.299 45.5505 76.8558C45.2607 76.4126 45.1158 75.8693 45.1158 75.2259C45.1158 74.6719 45.2224 74.2159 45.4355 73.858C45.6485 73.5 45.9362 73.2166 46.2984 73.0078C46.6606 72.799 47.0654 72.6413 47.5129 72.5348C47.9603 72.4283 48.4163 72.3473 48.8808 72.2919C49.4688 72.2237 49.9461 72.1683 50.3126 72.1257C50.6791 72.0788 50.9454 72.0043 51.1116 71.902C51.2778 71.7997 51.3609 71.6335 51.3609 71.4034V71.3587C51.3609 70.8004 51.2032 70.3679 50.8879 70.0611C50.5768 69.7543 50.1123 69.6009 49.4944 69.6009C48.8509 69.6009 48.3438 69.7436 47.9731 70.0291C47.6066 70.3104 47.3531 70.6236 47.2124 70.9688L45.4163 70.5597C45.6293 69.9631 45.9404 69.4815 46.3495 69.1151C46.7629 68.7443 47.238 68.4759 47.7749 68.3097C48.3119 68.1392 48.8765 68.054 49.4688 68.054C49.8609 68.054 50.2764 68.1009 50.7153 68.1946C51.1585 68.2841 51.5718 68.4503 51.9553 68.6932C52.3431 68.9361 52.6606 69.2834 52.9078 69.7351C53.1549 70.1825 53.2785 70.7642 53.2785 71.4801V78H51.412V76.6577H51.3353C51.2117 76.9048 51.0264 77.1477 50.7792 77.3864C50.532 77.625 50.2146 77.8232 49.8268 77.9808C49.439 78.1385 48.9745 78.2173 48.4333 78.2173ZM48.8488 76.6832C49.3772 76.6832 49.8289 76.5788 50.2039 76.37C50.5832 76.1612 50.8708 75.8885 51.0668 75.5518C51.2671 75.2109 51.3673 74.8466 51.3673 74.4588V73.1932C51.2991 73.2614 51.167 73.3253 50.971 73.3849C50.7792 73.4403 50.5597 73.4893 50.3126 73.532C50.0654 73.5703 49.8247 73.6065 49.5903 73.6406C49.3559 73.6705 49.1599 73.696 49.0022 73.7173C48.6315 73.7642 48.2927 73.843 47.9859 73.9538C47.6833 74.0646 47.4404 74.2244 47.2572 74.4332C47.0782 74.6378 46.9887 74.9105 46.9887 75.2514C46.9887 75.7244 47.1634 76.0824 47.5129 76.3253C47.8623 76.5639 48.3076 76.6832 48.8488 76.6832ZM59.1035 78.1918C58.3109 78.1918 57.6035 77.9893 56.9814 77.5845C56.3635 77.1754 55.8777 76.5937 55.524 75.8395C55.1746 75.081 54.9999 74.1712 54.9999 73.1101C54.9999 72.049 55.1767 71.1413 55.5304 70.3871C55.8884 69.6328 56.3784 69.0554 57.0006 68.6548C57.6227 68.2543 58.328 68.054 59.1163 68.054C59.7257 68.054 60.2158 68.1562 60.5865 68.3608C60.9615 68.5611 61.2513 68.7955 61.4558 69.0639C61.6646 69.3324 61.8266 69.5689 61.9416 69.7734H62.0567V64.9091H63.9679V78H62.1014V76.4723H61.9416C61.8266 76.6811 61.6604 76.9197 61.443 77.1882C61.23 77.4567 60.9359 77.6911 60.5609 77.8913C60.1859 78.0916 59.7001 78.1918 59.1035 78.1918ZM59.5254 76.5618C60.0751 76.5618 60.5396 76.4169 60.9189 76.1271C61.3024 75.8331 61.5922 75.4261 61.7882 74.9062C61.9885 74.3864 62.0886 73.7812 62.0886 73.0909C62.0886 72.4091 61.9906 71.8125 61.7946 71.3011C61.5986 70.7898 61.3109 70.3913 60.9317 70.1058C60.5524 69.8203 60.0837 69.6776 59.5254 69.6776C58.9501 69.6776 58.4707 69.8267 58.0872 70.125C57.7037 70.4233 57.4139 70.8303 57.2179 71.3459C57.0261 71.8615 56.9303 72.4432 56.9303 73.0909C56.9303 73.7472 57.0283 74.3374 57.2243 74.8615C57.4203 75.3857 57.7101 75.8011 58.0936 76.108C58.4814 76.4105 58.9587 76.5618 59.5254 76.5618ZM69.9751 78.1918C69.1825 78.1918 68.4751 77.9893 67.853 77.5845C67.2351 77.1754 66.7493 76.5937 66.3956 75.8395C66.0462 75.081 65.8714 74.1712 65.8714 73.1101C65.8714 72.049 66.0483 71.1413 66.402 70.3871C66.7599 69.6328 67.25 69.0554 67.8721 68.6548C68.4943 68.2543 69.1996 68.054 69.9879 68.054C70.5973 68.054 71.0873 68.1562 71.4581 68.3608C71.8331 68.5611 72.1229 68.7955 72.3274 69.0639C72.5362 69.3324 72.6981 69.5689 72.8132 69.7734H72.9283V64.9091H74.8395V78H72.973V76.4723H72.8132C72.6981 76.6811 72.5319 76.9197 72.3146 77.1882C72.1015 77.4567 71.8075 77.6911 71.4325 77.8913C71.0575 78.0916 70.5717 78.1918 69.9751 78.1918ZM70.397 76.5618C70.9467 76.5618 71.4112 76.4169 71.7905 76.1271C72.174 75.8331 72.4638 75.4261 72.6598 74.9062C72.8601 74.3864 72.9602 73.7812 72.9602 73.0909C72.9602 72.4091 72.8622 71.8125 72.6662 71.3011C72.4702 70.7898 72.1825 70.3913 71.8033 70.1058C71.424 69.8203 70.9552 69.6776 70.397 69.6776C69.8217 69.6776 69.3423 69.8267 68.9588 70.125C68.5753 70.4233 68.2855 70.8303 68.0895 71.3459C67.8977 71.8615 67.8018 72.4432 67.8018 73.0909C67.8018 73.7472 67.8998 74.3374 68.0959 74.8615C68.2919 75.3857 68.5817 75.8011 68.9652 76.108C69.353 76.4105 69.8302 76.5618 70.397 76.5618ZM87.7584 73.9283V68.1818H89.676V78H87.7968V76.2997H87.6945C87.4686 76.8239 87.1064 77.2607 86.6078 77.6101C86.1135 77.9553 85.4978 78.1278 84.7605 78.1278C84.1299 78.1278 83.5716 77.9893 83.0858 77.7124C82.6043 77.4311 82.225 77.0156 81.948 76.4659C81.6753 75.9162 81.539 75.2365 81.539 74.4268V68.1818H83.4502V74.1967C83.4502 74.8658 83.6355 75.3984 84.0063 75.7947C84.377 76.1911 84.8586 76.3892 85.4509 76.3892C85.8088 76.3892 86.1647 76.2997 86.5184 76.1207C86.8763 75.9418 87.1725 75.6712 87.4068 75.3089C87.6455 74.9467 87.7627 74.4865 87.7584 73.9283ZM93.7593 72.1705V78H91.848V68.1818H93.6826V69.7798H93.804C94.0299 69.2599 94.3835 68.8423 94.8651 68.527C95.3509 68.2116 95.9624 68.054 96.6996 68.054C97.3686 68.054 97.9546 68.1946 98.4574 68.4759C98.9602 68.7528 99.3502 69.1662 99.6272 69.7159C99.9041 70.2656 100.043 70.9453 100.043 71.755V78H98.1314V71.9851C98.1314 71.2734 97.946 70.7173 97.5753 70.3168C97.2046 69.9119 96.6953 69.7095 96.0476 69.7095C95.6044 69.7095 95.2102 69.8054 94.8651 69.9972C94.5242 70.1889 94.2536 70.4702 94.0533 70.8409C93.8573 71.2074 93.7593 71.6506 93.7593 72.1705ZM102.21 78V68.1818H104.121V78H102.21ZM103.175 66.6669C102.843 66.6669 102.557 66.5561 102.319 66.3345C102.084 66.1087 101.967 65.8402 101.967 65.5291C101.967 65.2138 102.084 64.9453 102.319 64.7237C102.557 64.4979 102.843 64.3849 103.175 64.3849C103.507 64.3849 103.791 64.4979 104.025 64.7237C104.264 64.9453 104.383 65.2138 104.383 65.5291C104.383 65.8402 104.264 66.1087 104.025 66.3345C103.791 66.5561 103.507 66.6669 103.175 66.6669ZM110.879 68.1818V69.7159H105.516V68.1818H110.879ZM106.955 65.8295H108.866V75.1172C108.866 75.4879 108.921 75.767 109.032 75.9545C109.143 76.1378 109.286 76.2635 109.46 76.3317C109.639 76.3956 109.833 76.4276 110.042 76.4276C110.195 76.4276 110.33 76.4169 110.445 76.3956C110.56 76.3743 110.649 76.3572 110.713 76.3445L111.058 77.9233C110.948 77.9659 110.79 78.0085 110.585 78.0511C110.381 78.098 110.125 78.1236 109.818 78.1278C109.315 78.1364 108.847 78.0469 108.412 77.8594C107.977 77.6719 107.626 77.3821 107.357 76.9901C107.089 76.598 106.955 76.1058 106.955 75.5135V65.8295Z" fill="black" fill-opacity="0.8"/>
</svg>
