<svg width="357" height="54" viewBox="0 0 357 54" fill="none" xmlns="http://www.w3.org/2000/svg">
<rect width="357" height="54" rx="21.6" fill="#DEAD00"/>
<path d="M52.8673 21.5909V32.5H51.2214V21.5909H52.8673ZM56.3992 27.642V32.5H54.8065V24.3182H56.3353V25.6499H56.4365C56.6247 25.2166 56.9195 24.8686 57.3207 24.6058C57.7256 24.343 58.2351 24.2116 58.8495 24.2116C59.407 24.2116 59.8953 24.3288 60.3143 24.5632C60.7334 24.794 61.0583 25.1385 61.2891 25.5966C61.5199 26.0547 61.6354 26.6211 61.6354 27.2958V32.5H60.0427V27.4876C60.0427 26.8945 59.8882 26.4311 59.5793 26.0973C59.2703 25.7599 58.8459 25.5913 58.3062 25.5913C57.9369 25.5913 57.6084 25.6712 57.3207 25.831C57.0366 25.9908 56.8111 26.2251 56.6442 26.5341C56.4809 26.8395 56.3992 27.2088 56.3992 27.642ZM70.9003 24.3182V25.5966H66.4312V24.3182H70.9003ZM67.6297 22.358H69.2224V30.0977C69.2224 30.4066 69.2686 30.6392 69.3609 30.7955C69.4533 30.9482 69.5722 31.0529 69.7178 31.1097C69.867 31.163 70.0285 31.1896 70.2025 31.1896C70.3304 31.1896 70.4422 31.1808 70.5381 31.163C70.634 31.1452 70.7086 31.131 70.7618 31.1204L71.0495 32.4361C70.9572 32.4716 70.8258 32.5071 70.6553 32.5426C70.4849 32.5817 70.2718 32.603 70.0161 32.6065C69.5971 32.6136 69.2065 32.5391 68.8442 32.3828C68.482 32.2266 68.1891 31.9851 67.9653 31.6584C67.7416 31.3317 67.6297 30.9215 67.6297 30.4279V22.358ZM74.1006 27.642V32.5H72.5079V21.5909H74.0793V25.6499H74.1805C74.3723 25.2095 74.6652 24.8597 75.0594 24.6005C75.4536 24.3413 75.9685 24.2116 76.6042 24.2116C77.1652 24.2116 77.6553 24.3271 78.0743 24.5579C78.4969 24.7887 78.8236 25.1332 79.0545 25.5913C79.2888 26.0458 79.406 26.614 79.406 27.2958V32.5H77.8133V27.4876C77.8133 26.8874 77.6589 26.4222 77.3499 26.092C77.041 25.7582 76.6113 25.5913 76.0608 25.5913C75.6844 25.5913 75.3471 25.6712 75.0488 25.831C74.754 25.9908 74.5214 26.2251 74.351 26.5341C74.1841 26.8395 74.1006 27.2088 74.1006 27.642ZM81.2014 32.5V24.3182H82.7941V32.5H81.2014ZM82.0057 23.0558C81.7287 23.0558 81.4908 22.9634 81.2919 22.7788C81.0966 22.5906 80.999 22.3668 80.999 22.1076C80.999 21.8448 81.0966 21.6211 81.2919 21.4364C81.4908 21.2482 81.7287 21.1541 82.0057 21.1541C82.2827 21.1541 82.5188 21.2482 82.7142 21.4364C82.913 21.6211 83.0124 21.8448 83.0124 22.1076C83.0124 22.3668 82.913 22.5906 82.7142 22.7788C82.5188 22.9634 82.2827 23.0558 82.0057 23.0558ZM90.7378 26.3157L89.2942 26.5714C89.2339 26.3867 89.138 26.2109 89.0066 26.044C88.8787 25.8771 88.7047 25.7404 88.4846 25.6339C88.2644 25.5273 87.9892 25.4741 87.6589 25.4741C87.2079 25.4741 86.8315 25.5753 86.5297 25.7777C86.2278 25.9766 86.0769 26.234 86.0769 26.5501C86.0769 26.8235 86.1781 27.0437 86.3805 27.2106C86.5829 27.3775 86.9096 27.5142 87.3606 27.6207L88.6603 27.919C89.4132 28.093 89.9743 28.3612 90.3436 28.7234C90.7129 29.0856 90.8976 29.5561 90.8976 30.1349C90.8976 30.625 90.7555 31.0618 90.4714 31.4453C90.1909 31.8253 89.7985 32.1236 89.2942 32.3402C88.7935 32.5568 88.2129 32.6651 87.5524 32.6651C86.6362 32.6651 85.8887 32.4698 85.3098 32.0792C84.731 31.685 84.3759 31.1257 84.2445 30.4013L85.7839 30.1669C85.8798 30.5682 86.0769 30.8718 86.3752 31.0778C86.6735 31.2802 87.0623 31.3814 87.5417 31.3814C88.0638 31.3814 88.481 31.2731 88.7935 31.0565C89.106 30.8363 89.2623 30.5682 89.2623 30.2521C89.2623 29.9964 89.1664 29.7816 88.9746 29.6076C88.7864 29.4336 88.497 29.3022 88.1064 29.2134L86.7214 28.9098C85.9579 28.7358 85.3933 28.4588 85.0275 28.0788C84.6653 27.6989 84.4842 27.2177 84.4842 26.6353C84.4842 26.1523 84.6191 25.7298 84.889 25.3675C85.1589 25.0053 85.5318 24.723 86.0076 24.5206C86.4835 24.3146 87.0286 24.2116 87.6429 24.2116C88.5272 24.2116 89.2232 24.4034 89.731 24.7869C90.2388 25.1669 90.5744 25.6765 90.7378 26.3157ZM99.3888 35.7386C98.739 35.7386 98.1797 35.6534 97.7109 35.483C97.2457 35.3125 96.8658 35.087 96.571 34.8065C96.2763 34.5259 96.0561 34.2188 95.9105 33.8849L97.2795 33.3203C97.3753 33.4766 97.5032 33.6417 97.663 33.8157C97.8263 33.9933 98.0465 34.1442 98.3235 34.2685C98.604 34.3928 98.9645 34.4549 99.4048 34.4549C100.009 34.4549 100.507 34.3075 100.902 34.0128C101.296 33.7216 101.493 33.2564 101.493 32.6172V31.0085H101.392C101.296 31.1825 101.157 31.3761 100.976 31.5891C100.799 31.8022 100.554 31.9869 100.241 32.1431C99.9286 32.2994 99.522 32.3775 99.0213 32.3775C98.375 32.3775 97.7926 32.2266 97.2741 31.9247C96.7592 31.6193 96.3508 31.1701 96.049 30.5771C95.7507 29.9805 95.6016 29.2472 95.6016 28.3771C95.6016 27.5071 95.7489 26.7614 96.0437 26.1399C96.342 25.5185 96.7503 25.0426 97.2688 24.7124C97.7873 24.3786 98.375 24.2116 99.0319 24.2116C99.5398 24.2116 99.9499 24.2969 100.262 24.4673C100.575 24.6342 100.818 24.8295 100.992 25.0533C101.17 25.277 101.306 25.4741 101.402 25.6445H101.52V24.3182H103.08V32.6811C103.08 33.3842 102.917 33.9613 102.59 34.4123C102.263 34.8633 101.821 35.1971 101.264 35.4137C100.71 35.6303 100.085 35.7386 99.3888 35.7386ZM99.3729 31.0565C99.831 31.0565 100.218 30.9499 100.534 30.7369C100.854 30.5202 101.095 30.2113 101.259 29.81C101.425 29.4052 101.509 28.9205 101.509 28.3558C101.509 27.8054 101.427 27.3207 101.264 26.9016C101.1 26.4826 100.861 26.1559 100.545 25.9215C100.229 25.6836 99.8381 25.5646 99.3729 25.5646C98.8935 25.5646 98.494 25.6889 98.1743 25.9375C97.8547 26.1825 97.6133 26.5163 97.4499 26.9389C97.2901 27.3615 97.2102 27.8338 97.2102 28.3558C97.2102 28.892 97.2919 29.3626 97.4552 29.7674C97.6186 30.1722 97.8601 30.4883 98.1797 30.7156C98.5028 30.9428 98.9006 31.0565 99.3729 31.0565ZM104.886 32.5V24.3182H106.426V25.6179H106.511C106.66 25.1776 106.923 24.8313 107.299 24.5792C107.679 24.3235 108.109 24.1957 108.588 24.1957C108.688 24.1957 108.805 24.1992 108.94 24.2063C109.078 24.2134 109.187 24.2223 109.265 24.233V25.7564C109.201 25.7386 109.087 25.7191 108.924 25.6978C108.761 25.6729 108.597 25.6605 108.434 25.6605C108.057 25.6605 107.722 25.7404 107.427 25.9002C107.136 26.0565 106.905 26.2749 106.735 26.5554C106.564 26.8324 106.479 27.1484 106.479 27.5036V32.5H104.886ZM113.466 32.6651C112.699 32.6651 112.03 32.4893 111.458 32.1378C110.887 31.7862 110.443 31.2944 110.127 30.6623C109.811 30.0302 109.653 29.2915 109.653 28.4464C109.653 27.5977 109.811 26.8555 110.127 26.2198C110.443 25.5842 110.887 25.0906 111.458 24.739C112.03 24.3874 112.699 24.2116 113.466 24.2116C114.234 24.2116 114.903 24.3874 115.475 24.739C116.046 25.0906 116.49 25.5842 116.806 26.2198C117.122 26.8555 117.28 27.5977 117.28 28.4464C117.28 29.2915 117.122 30.0302 116.806 30.6623C116.49 31.2944 116.046 31.7862 115.475 32.1378C114.903 32.4893 114.234 32.6651 113.466 32.6651ZM113.472 31.3281C113.969 31.3281 114.381 31.1967 114.708 30.9339C115.034 30.6712 115.276 30.3214 115.432 29.8846C115.592 29.4478 115.672 28.9666 115.672 28.4411C115.672 27.919 115.592 27.4396 115.432 27.0028C115.276 26.5625 115.034 26.2092 114.708 25.9428C114.381 25.6765 113.969 25.5433 113.472 25.5433C112.971 25.5433 112.556 25.6765 112.225 25.9428C111.899 26.2092 111.655 26.5625 111.496 27.0028C111.339 27.4396 111.261 27.919 111.261 28.4411C111.261 28.9666 111.339 29.4478 111.496 29.8846C111.655 30.3214 111.899 30.6712 112.225 30.9339C112.556 31.1967 112.971 31.3281 113.472 31.3281ZM123.911 29.1069V24.3182H125.509V32.5H123.943V31.0831H123.858C123.67 31.5199 123.368 31.8839 122.952 32.1751C122.54 32.4627 122.027 32.6065 121.413 32.6065C120.887 32.6065 120.422 32.4911 120.017 32.2603C119.616 32.0259 119.3 31.6797 119.069 31.2216C118.842 30.7635 118.728 30.1971 118.728 29.5224V24.3182H120.321V29.3306C120.321 29.8881 120.475 30.332 120.784 30.6623C121.093 30.9925 121.495 31.1577 121.988 31.1577C122.286 31.1577 122.583 31.0831 122.878 30.9339C123.176 30.7848 123.423 30.5593 123.618 30.2575C123.817 29.9556 123.915 29.5721 123.911 29.1069ZM127.319 35.5682V24.3182H128.875V25.6445H129.008C129.1 25.4741 129.233 25.277 129.407 25.0533C129.581 24.8295 129.823 24.6342 130.132 24.4673C130.441 24.2969 130.849 24.2116 131.357 24.2116C132.017 24.2116 132.607 24.3786 133.125 24.7124C133.644 25.0462 134.05 25.5273 134.345 26.1559C134.643 26.7844 134.792 27.5408 134.792 28.4251C134.792 29.3093 134.645 30.0675 134.35 30.6996C134.056 31.3281 133.651 31.8129 133.136 32.1538C132.621 32.4911 132.033 32.6598 131.373 32.6598C130.876 32.6598 130.469 32.5763 130.153 32.4094C129.84 32.2425 129.595 32.0472 129.418 31.8235C129.24 31.5998 129.104 31.4009 129.008 31.2269H128.912V35.5682H127.319ZM128.88 28.4091C128.88 28.9844 128.963 29.4886 129.13 29.9219C129.297 30.3551 129.539 30.6942 129.855 30.9393C130.171 31.1808 130.558 31.3015 131.016 31.3015C131.492 31.3015 131.889 31.1754 132.209 30.9233C132.529 30.6676 132.77 30.3214 132.933 29.8846C133.1 29.4478 133.184 28.956 133.184 28.4091C133.184 27.8693 133.102 27.3846 132.939 26.9549C132.779 26.5252 132.537 26.1861 132.214 25.9375C131.895 25.6889 131.495 25.5646 131.016 25.5646C130.554 25.5646 130.164 25.6836 129.844 25.9215C129.528 26.1594 129.288 26.4915 129.125 26.9176C128.962 27.3437 128.88 27.8409 128.88 28.4091ZM138.319 31.0085L138.239 31.5891C138.186 32.0153 138.095 32.4592 137.967 32.9208C137.843 33.386 137.714 33.8175 137.579 34.2152C137.447 34.6129 137.339 34.929 137.254 35.1634H136.124C136.171 34.9432 136.234 34.6449 136.316 34.2685C136.398 33.8956 136.478 33.4783 136.556 33.0167C136.634 32.555 136.693 32.0845 136.732 31.6051L136.785 31.0085H138.319ZM144.709 35.5682C144.471 35.5682 144.254 35.5487 144.059 35.5096C143.864 35.4741 143.718 35.435 143.622 35.3924L144.006 34.0874C144.297 34.1655 144.556 34.1992 144.783 34.1886C145.011 34.1779 145.211 34.0927 145.385 33.9329C145.563 33.7731 145.719 33.5121 145.854 33.1499L146.051 32.6065L143.058 24.3182H144.762L146.834 30.6676H146.919L148.992 24.3182H150.701L147.33 33.592C147.173 34.0181 146.975 34.3786 146.733 34.6733C146.492 34.9716 146.204 35.1953 145.87 35.3445C145.536 35.4936 145.149 35.5682 144.709 35.5682ZM155.036 32.6651C154.269 32.6651 153.6 32.4893 153.028 32.1378C152.456 31.7862 152.013 31.2944 151.696 30.6623C151.38 30.0302 151.222 29.2915 151.222 28.4464C151.222 27.5977 151.38 26.8555 151.696 26.2198C152.013 25.5842 152.456 25.0906 153.028 24.739C153.6 24.3874 154.269 24.2116 155.036 24.2116C155.803 24.2116 156.473 24.3874 157.044 24.739C157.616 25.0906 158.06 25.5842 158.376 26.2198C158.692 26.8555 158.85 27.5977 158.85 28.4464C158.85 29.2915 158.692 30.0302 158.376 30.6623C158.06 31.2944 157.616 31.7862 157.044 32.1378C156.473 32.4893 155.803 32.6651 155.036 32.6651ZM155.042 31.3281C155.539 31.3281 155.951 31.1967 156.277 30.9339C156.604 30.6712 156.846 30.3214 157.002 29.8846C157.162 29.4478 157.242 28.9666 157.242 28.4411C157.242 27.919 157.162 27.4396 157.002 27.0028C156.846 26.5625 156.604 26.2092 156.277 25.9428C155.951 25.6765 155.539 25.5433 155.042 25.5433C154.541 25.5433 154.125 25.6765 153.795 25.9428C153.468 26.2092 153.225 26.5625 153.065 27.0028C152.909 27.4396 152.831 27.919 152.831 28.4411C152.831 28.9666 152.909 29.4478 153.065 29.8846C153.225 30.3214 153.468 30.6712 153.795 30.9339C154.125 31.1967 154.541 31.3281 155.042 31.3281ZM165.481 29.1069V24.3182H167.079V32.5H165.513V31.0831H165.428C165.239 31.5199 164.938 31.8839 164.522 32.1751C164.11 32.4627 163.597 32.6065 162.983 32.6065C162.457 32.6065 161.992 32.4911 161.587 32.2603C161.186 32.0259 160.87 31.6797 160.639 31.2216C160.412 30.7635 160.298 30.1971 160.298 29.5224V24.3182H161.891V29.3306C161.891 29.8881 162.045 30.332 162.354 30.6623C162.663 30.9925 163.064 31.1577 163.558 31.1577C163.856 31.1577 164.153 31.0831 164.448 30.9339C164.746 30.7848 164.993 30.5593 165.188 30.2575C165.387 29.9556 165.484 29.5721 165.481 29.1069ZM178.66 26.3157L177.216 26.5714C177.156 26.3867 177.06 26.2109 176.929 26.044C176.801 25.8771 176.627 25.7404 176.406 25.6339C176.186 25.5273 175.911 25.4741 175.581 25.4741C175.13 25.4741 174.753 25.5753 174.452 25.7777C174.15 25.9766 173.999 26.234 173.999 26.5501C173.999 26.8235 174.1 27.0437 174.302 27.2106C174.505 27.3775 174.832 27.5142 175.283 27.6207L176.582 27.919C177.335 28.093 177.896 28.3612 178.266 28.7234C178.635 29.0856 178.819 29.5561 178.819 30.1349C178.819 30.625 178.677 31.0618 178.393 31.4453C178.113 31.8253 177.72 32.1236 177.216 32.3402C176.715 32.5568 176.135 32.6651 175.474 32.6651C174.558 32.6651 173.811 32.4698 173.232 32.0792C172.653 31.685 172.298 31.1257 172.166 30.4013L173.706 30.1669C173.802 30.5682 173.999 30.8718 174.297 31.0778C174.595 31.2802 174.984 31.3814 175.464 31.3814C175.986 31.3814 176.403 31.2731 176.715 31.0565C177.028 30.8363 177.184 30.5682 177.184 30.2521C177.184 29.9964 177.088 29.7816 176.897 29.6076C176.708 29.4336 176.419 29.3022 176.028 29.2134L174.643 28.9098C173.88 28.7358 173.315 28.4588 172.949 28.0788C172.587 27.6989 172.406 27.2177 172.406 26.6353C172.406 26.1523 172.541 25.7298 172.811 25.3675C173.081 25.0053 173.454 24.723 173.93 24.5206C174.405 24.3146 174.951 24.2116 175.565 24.2116C176.449 24.2116 177.145 24.4034 177.653 24.7869C178.161 25.1669 178.496 25.6765 178.66 26.3157ZM181.833 27.642V32.5H180.241V21.5909H181.812V25.6499H181.913C182.105 25.2095 182.398 24.8597 182.792 24.6005C183.186 24.3413 183.701 24.2116 184.337 24.2116C184.898 24.2116 185.388 24.3271 185.807 24.5579C186.23 24.7887 186.556 25.1332 186.787 25.5913C187.022 26.0458 187.139 26.614 187.139 27.2958V32.5H185.546V27.4876C185.546 26.8874 185.392 26.4222 185.083 26.092C184.774 25.7582 184.344 25.5913 183.794 25.5913C183.417 25.5913 183.08 25.6712 182.781 25.831C182.487 25.9908 182.254 26.2251 182.084 26.5341C181.917 26.8395 181.833 27.2088 181.833 27.642ZM192.38 32.6651C191.613 32.6651 190.944 32.4893 190.372 32.1378C189.801 31.7862 189.357 31.2944 189.041 30.6623C188.725 30.0302 188.567 29.2915 188.567 28.4464C188.567 27.5977 188.725 26.8555 189.041 26.2198C189.357 25.5842 189.801 25.0906 190.372 24.739C190.944 24.3874 191.613 24.2116 192.38 24.2116C193.147 24.2116 193.817 24.3874 194.389 24.739C194.96 25.0906 195.404 25.5842 195.72 26.2198C196.036 26.8555 196.194 27.5977 196.194 28.4464C196.194 29.2915 196.036 30.0302 195.72 30.6623C195.404 31.2944 194.96 31.7862 194.389 32.1378C193.817 32.4893 193.147 32.6651 192.38 32.6651ZM192.386 31.3281C192.883 31.3281 193.295 31.1967 193.622 30.9339C193.948 30.6712 194.19 30.3214 194.346 29.8846C194.506 29.4478 194.586 28.9666 194.586 28.4411C194.586 27.919 194.506 27.4396 194.346 27.0028C194.19 26.5625 193.948 26.2092 193.622 25.9428C193.295 25.6765 192.883 25.5433 192.386 25.5433C191.885 25.5433 191.47 25.6765 191.139 25.9428C190.813 26.2092 190.569 26.5625 190.41 27.0028C190.253 27.4396 190.175 27.919 190.175 28.4411C190.175 28.9666 190.253 29.4478 190.41 29.8846C190.569 30.3214 190.813 30.6712 191.139 30.9339C191.47 31.1967 191.885 31.3281 192.386 31.3281ZM202.825 29.1069V24.3182H204.423V32.5H202.857V31.0831H202.772C202.584 31.5199 202.282 31.8839 201.866 32.1751C201.454 32.4627 200.941 32.6065 200.327 32.6065C199.801 32.6065 199.336 32.4911 198.931 32.2603C198.53 32.0259 198.214 31.6797 197.983 31.2216C197.756 30.7635 197.642 30.1971 197.642 29.5224V24.3182H199.235V29.3306C199.235 29.8881 199.389 30.332 199.698 30.6623C200.007 30.9925 200.408 31.1577 200.902 31.1577C201.2 31.1577 201.497 31.0831 201.792 30.9339C202.09 30.7848 202.337 30.5593 202.532 30.2575C202.731 29.9556 202.829 29.5721 202.825 29.1069ZM207.826 21.5909V32.5H206.233V21.5909H207.826ZM212.701 32.6598C212.041 32.6598 211.451 32.4911 210.933 32.1538C210.418 31.8129 210.013 31.3281 209.718 30.6996C209.427 30.0675 209.282 29.3093 209.282 28.4251C209.282 27.5408 209.429 26.7844 209.724 26.1559C210.022 25.5273 210.43 25.0462 210.949 24.7124C211.467 24.3786 212.055 24.2116 212.712 24.2116C213.22 24.2116 213.628 24.2969 213.937 24.4673C214.25 24.6342 214.491 24.8295 214.661 25.0533C214.835 25.277 214.97 25.4741 215.066 25.6445H215.162V21.5909H216.755V32.5H215.199V31.2269H215.066C214.97 31.4009 214.832 31.5998 214.651 31.8235C214.473 32.0472 214.228 32.2425 213.916 32.4094C213.603 32.5763 213.198 32.6598 212.701 32.6598ZM213.053 31.3015C213.511 31.3015 213.898 31.1808 214.214 30.9393C214.534 30.6942 214.775 30.3551 214.938 29.9219C215.105 29.4886 215.189 28.9844 215.189 28.4091C215.189 27.8409 215.107 27.3437 214.944 26.9176C214.78 26.4915 214.541 26.1594 214.225 25.9215C213.909 25.6836 213.518 25.5646 213.053 25.5646C212.573 25.5646 212.174 25.6889 211.854 25.9375C211.535 26.1861 211.293 26.5252 211.13 26.9549C210.97 27.3846 210.89 27.8693 210.89 28.4091C210.89 28.956 210.972 29.4478 211.135 29.8846C211.299 30.3214 211.54 30.6676 211.86 30.9233C212.183 31.1754 212.581 31.3015 213.053 31.3015ZM226.157 24.3182V25.5966H221.688V24.3182H226.157ZM222.886 22.358H224.479V30.0977C224.479 30.4066 224.525 30.6392 224.618 30.7955C224.71 30.9482 224.829 31.0529 224.974 31.1097C225.124 31.163 225.285 31.1896 225.459 31.1896C225.587 31.1896 225.699 31.1808 225.795 31.163C225.891 31.1452 225.965 31.131 226.019 31.1204L226.306 32.4361C226.214 32.4716 226.082 32.5071 225.912 32.5426C225.742 32.5817 225.528 32.603 225.273 32.6065C224.854 32.6136 224.463 32.5391 224.101 32.3828C223.739 32.2266 223.446 31.9851 223.222 31.6584C222.998 31.3317 222.886 30.9215 222.886 30.4279V22.358ZM229.97 32.6811C229.451 32.6811 228.983 32.5852 228.564 32.3935C228.145 32.1982 227.813 31.9158 227.568 31.5465C227.326 31.1772 227.205 30.7244 227.205 30.1882C227.205 29.7266 227.294 29.3466 227.472 29.0483C227.649 28.75 227.889 28.5138 228.191 28.3398C228.493 28.1658 228.83 28.0344 229.203 27.9457C229.576 27.8569 229.956 27.7894 230.343 27.7433C230.833 27.6864 231.231 27.6403 231.536 27.6048C231.841 27.5657 232.063 27.5036 232.202 27.4183C232.34 27.3331 232.409 27.1946 232.409 27.0028V26.9656C232.409 26.5004 232.278 26.1399 232.015 25.8842C231.756 25.6286 231.369 25.5007 230.854 25.5007C230.318 25.5007 229.895 25.6197 229.586 25.8576C229.281 26.092 229.07 26.353 228.952 26.6406L227.456 26.2997C227.633 25.8026 227.892 25.4013 228.233 25.0959C228.578 24.7869 228.974 24.5632 229.421 24.4247C229.869 24.2827 230.339 24.2116 230.833 24.2116C231.159 24.2116 231.506 24.2507 231.871 24.3288C232.241 24.4034 232.585 24.5419 232.905 24.7443C233.228 24.9467 233.493 25.2362 233.699 25.6126C233.905 25.9854 234.008 26.4702 234.008 27.0668V32.5H232.452V31.3814H232.388C232.285 31.5874 232.131 31.7898 231.925 31.9886C231.719 32.1875 231.454 32.3526 231.131 32.484C230.808 32.6154 230.421 32.6811 229.97 32.6811ZM230.316 31.4027C230.756 31.4027 231.133 31.3157 231.445 31.1417C231.761 30.9677 232.001 30.7404 232.164 30.4599C232.331 30.1758 232.415 29.8722 232.415 29.549V28.4943C232.358 28.5511 232.248 28.6044 232.085 28.6541C231.925 28.7003 231.742 28.7411 231.536 28.7766C231.33 28.8086 231.129 28.8388 230.934 28.8672C230.739 28.892 230.575 28.9134 230.444 28.9311C230.135 28.9702 229.853 29.0359 229.597 29.1282C229.345 29.2205 229.142 29.3537 228.99 29.5277C228.841 29.6982 228.766 29.9254 228.766 30.2095C228.766 30.6037 228.912 30.902 229.203 31.1044C229.494 31.3033 229.865 31.4027 230.316 31.4027ZM237.264 29.7248L237.253 27.7805H237.53L240.79 24.3182H242.697L238.979 28.2599H238.729L237.264 29.7248ZM235.799 32.5V21.5909H237.392V32.5H235.799ZM240.966 32.5L238.036 28.6115L239.133 27.4982L242.921 32.5H240.966ZM247.008 32.6651C246.202 32.6651 245.507 32.4929 244.925 32.1484C244.346 31.8004 243.899 31.3121 243.583 30.6836C243.27 30.0515 243.114 29.3111 243.114 28.4624C243.114 27.6243 243.27 26.8857 243.583 26.2464C243.899 25.6072 244.339 25.1083 244.904 24.7496C245.472 24.391 246.136 24.2116 246.896 24.2116C247.358 24.2116 247.805 24.288 248.238 24.4407C248.672 24.5934 249.06 24.8331 249.405 25.1598C249.749 25.4865 250.021 25.9109 250.22 26.4329C250.419 26.9513 250.518 27.5817 250.518 28.3239V28.8885H244.014V27.6953H248.957C248.957 27.2763 248.872 26.9052 248.702 26.582C248.531 26.2553 248.292 25.9979 247.983 25.8097C247.677 25.6214 247.319 25.5273 246.907 25.5273C246.459 25.5273 246.069 25.6374 245.735 25.8576C245.404 26.0742 245.149 26.3583 244.968 26.7099C244.79 27.0579 244.701 27.4361 244.701 27.8445V28.7766C244.701 29.3235 244.797 29.7887 244.989 30.1722C245.184 30.5558 245.456 30.8487 245.804 31.0511C246.152 31.25 246.559 31.3494 247.024 31.3494C247.326 31.3494 247.601 31.3068 247.849 31.2216C248.098 31.1328 248.313 31.0014 248.494 30.8274C248.675 30.6534 248.814 30.4386 248.909 30.1829L250.417 30.4545C250.296 30.8984 250.08 31.2873 249.767 31.6211C249.458 31.9513 249.069 32.2088 248.601 32.3935C248.135 32.5746 247.604 32.6651 247.008 32.6651ZM257.976 32.6811C257.458 32.6811 256.989 32.5852 256.57 32.3935C256.151 32.1982 255.819 31.9158 255.574 31.5465C255.332 31.1772 255.211 30.7244 255.211 30.1882C255.211 29.7266 255.3 29.3466 255.478 29.0483C255.655 28.75 255.895 28.5138 256.197 28.3398C256.499 28.1658 256.836 28.0344 257.209 27.9457C257.582 27.8569 257.962 27.7894 258.349 27.7433C258.839 27.6864 259.237 27.6403 259.542 27.6048C259.847 27.5657 260.069 27.5036 260.208 27.4183C260.346 27.3331 260.416 27.1946 260.416 27.0028V26.9656C260.416 26.5004 260.284 26.1399 260.021 25.8842C259.762 25.6286 259.375 25.5007 258.86 25.5007C258.324 25.5007 257.901 25.6197 257.593 25.8576C257.287 26.092 257.076 26.353 256.959 26.6406L255.462 26.2997C255.639 25.8026 255.899 25.4013 256.24 25.0959C256.584 24.7869 256.98 24.5632 257.427 24.4247C257.875 24.2827 258.345 24.2116 258.839 24.2116C259.166 24.2116 259.512 24.2507 259.878 24.3288C260.247 24.4034 260.591 24.5419 260.911 24.7443C261.234 24.9467 261.499 25.2362 261.705 25.6126C261.911 25.9854 262.014 26.4702 262.014 27.0668V32.5H260.458V31.3814H260.394C260.291 31.5874 260.137 31.7898 259.931 31.9886C259.725 32.1875 259.46 32.3526 259.137 32.484C258.814 32.6154 258.427 32.6811 257.976 32.6811ZM258.322 31.4027C258.763 31.4027 259.139 31.3157 259.452 31.1417C259.768 30.9677 260.007 30.7404 260.171 30.4599C260.338 30.1758 260.421 29.8722 260.421 29.549V28.4943C260.364 28.5511 260.254 28.6044 260.091 28.6541C259.931 28.7003 259.748 28.7411 259.542 28.7766C259.336 28.8086 259.135 28.8388 258.94 28.8672C258.745 28.892 258.582 28.9134 258.45 28.9311C258.141 28.9702 257.859 29.0359 257.603 29.1282C257.351 29.2205 257.149 29.3537 256.996 29.5277C256.847 29.6982 256.772 29.9254 256.772 30.2095C256.772 30.6037 256.918 30.902 257.209 31.1044C257.5 31.3033 257.871 31.4027 258.322 31.4027ZM265.398 21.5909V32.5H263.805V21.5909H265.398ZM268.803 21.5909V32.5H267.21V21.5909H268.803ZM279.438 29.1069V24.3182H281.036V32.5H279.47V31.0831H279.385C279.197 31.5199 278.895 31.8839 278.48 32.1751C278.068 32.4627 277.554 32.6065 276.94 32.6065C276.415 32.6065 275.949 32.4911 275.545 32.2603C275.143 32.0259 274.827 31.6797 274.596 31.2216C274.369 30.7635 274.255 30.1971 274.255 29.5224V24.3182H275.848V29.3306C275.848 29.8881 276.003 30.332 276.312 30.6623C276.621 30.9925 277.022 31.1577 277.515 31.1577C277.814 31.1577 278.11 31.0831 278.405 30.9339C278.703 30.7848 278.95 30.5593 279.145 30.2575C279.344 29.9556 279.442 29.5721 279.438 29.1069ZM284.439 27.642V32.5H282.846V24.3182H284.375V25.6499H284.476C284.665 25.2166 284.959 24.8686 285.361 24.6058C285.765 24.343 286.275 24.2116 286.889 24.2116C287.447 24.2116 287.935 24.3288 288.354 24.5632C288.773 24.794 289.098 25.1385 289.329 25.5966C289.56 26.0547 289.675 26.6211 289.675 27.2958V32.5H288.083V27.4876C288.083 26.8945 287.928 26.4311 287.619 26.0973C287.31 25.7599 286.886 25.5913 286.346 25.5913C285.977 25.5913 285.648 25.6712 285.361 25.831C285.076 25.9908 284.851 26.2251 284.684 26.5341C284.521 26.8395 284.439 27.2088 284.439 27.642ZM291.481 32.5V24.3182H293.074V32.5H291.481ZM292.286 23.0558C292.009 23.0558 291.771 22.9634 291.572 22.7788C291.376 22.5906 291.279 22.3668 291.279 22.1076C291.279 21.8448 291.376 21.6211 291.572 21.4364C291.771 21.2482 292.009 21.1541 292.286 21.1541C292.563 21.1541 292.799 21.2482 292.994 21.4364C293.193 21.6211 293.292 21.8448 293.292 22.1076C293.292 22.3668 293.193 22.5906 292.994 22.7788C292.799 22.9634 292.563 23.0558 292.286 23.0558ZM298.706 24.3182V25.5966H294.237V24.3182H298.706ZM295.435 22.358H297.028V30.0977C297.028 30.4066 297.074 30.6392 297.166 30.7955C297.259 30.9482 297.378 31.0529 297.523 31.1097C297.672 31.163 297.834 31.1896 298.008 31.1896C298.136 31.1896 298.248 31.1808 298.344 31.163C298.439 31.1452 298.514 31.131 298.567 31.1204L298.855 32.4361C298.763 32.4716 298.631 32.5071 298.461 32.5426C298.29 32.5817 298.077 32.603 297.822 32.6065C297.403 32.6136 297.012 32.5391 296.65 32.3828C296.288 32.2266 295.995 31.9851 295.771 31.6584C295.547 31.3317 295.435 30.9215 295.435 30.4279V22.358ZM306.137 26.3157L304.693 26.5714C304.633 26.3867 304.537 26.2109 304.406 26.044C304.278 25.8771 304.104 25.7404 303.884 25.6339C303.663 25.5273 303.388 25.4741 303.058 25.4741C302.607 25.4741 302.231 25.5753 301.929 25.7777C301.627 25.9766 301.476 26.234 301.476 26.5501C301.476 26.8235 301.577 27.0437 301.78 27.2106C301.982 27.3775 302.309 27.5142 302.76 27.6207L304.059 27.919C304.812 28.093 305.373 28.3612 305.743 28.7234C306.112 29.0856 306.297 29.5561 306.297 30.1349C306.297 30.625 306.155 31.0618 305.87 31.4453C305.59 31.8253 305.198 32.1236 304.693 32.3402C304.193 32.5568 303.612 32.6651 302.951 32.6651C302.035 32.6651 301.288 32.4698 300.709 32.0792C300.13 31.685 299.775 31.1257 299.644 30.4013L301.183 30.1669C301.279 30.5682 301.476 30.8718 301.774 31.0778C302.073 31.2802 302.461 31.3814 302.941 31.3814C303.463 31.3814 303.88 31.2731 304.193 31.0565C304.505 30.8363 304.661 30.5682 304.661 30.2521C304.661 29.9964 304.565 29.7816 304.374 29.6076C304.185 29.4336 303.896 29.3022 303.505 29.2134L302.12 28.9098C301.357 28.7358 300.792 28.4588 300.427 28.0788C300.064 27.6989 299.883 27.2177 299.883 26.6353C299.883 26.1523 300.018 25.7298 300.288 25.3675C300.558 25.0053 300.931 24.723 301.407 24.5206C301.883 24.3146 302.428 24.2116 303.042 24.2116C303.926 24.2116 304.622 24.4034 305.13 24.7869C305.638 25.1669 305.973 25.6765 306.137 26.3157Z" fill="black" fill-opacity="0.8"/>
</svg>
