<svg width="357" height="54" viewBox="0 0 357 54" fill="none" xmlns="http://www.w3.org/2000/svg">
<rect width="357" height="54" rx="21.6" fill="#DEAD00"/>
<path d="M55.8331 20.4091V33.5H53.8579V20.4091H55.8331ZM59.5387 28.642V33.5H57.946V25.3182H59.4747V26.6499H59.5759C59.7642 26.2166 60.0589 25.8686 60.4602 25.6058C60.865 25.343 61.3746 25.2116 61.9889 25.2116C62.5465 25.2116 63.0347 25.3288 63.4538 25.5632C63.8728 25.794 64.1977 26.1385 64.4286 26.5966C64.6594 27.0547 64.7748 27.6211 64.7748 28.2958V33.5H63.1821V28.4876C63.1821 27.8945 63.0276 27.4311 62.7187 27.0973C62.4097 26.7599 61.9854 26.5913 61.4456 26.5913C61.0763 26.5913 60.7478 26.6712 60.4602 26.831C60.1761 26.9908 59.9506 27.2251 59.7837 27.5341C59.6203 27.8395 59.5387 28.2088 59.5387 28.642ZM74.0398 25.3182V26.5966H69.5707V25.3182H74.0398ZM70.7692 23.358H72.3619V31.0977C72.3619 31.4066 72.408 31.6392 72.5004 31.7955C72.5927 31.9482 72.7117 32.0529 72.8573 32.1097C73.0064 32.163 73.168 32.1896 73.342 32.1896C73.4698 32.1896 73.5817 32.1808 73.6776 32.163C73.7735 32.1452 73.848 32.131 73.9013 32.1204L74.1889 33.4361C74.0966 33.4716 73.9652 33.5071 73.7948 33.5426C73.6243 33.5817 73.4112 33.603 73.1556 33.6065C72.7365 33.6136 72.3459 33.5391 71.9837 33.3828C71.6215 33.2266 71.3285 32.9851 71.1048 32.6584C70.8811 32.3317 70.7692 31.9215 70.7692 31.4279V23.358ZM77.2401 28.642V33.5H75.6474V22.5909H77.2188V26.6499H77.32C77.5117 26.2095 77.8047 25.8597 78.1989 25.6005C78.593 25.3413 79.108 25.2116 79.7436 25.2116C80.3047 25.2116 80.7947 25.3271 81.2138 25.5579C81.6364 25.7887 81.9631 26.1332 82.1939 26.5913C82.4283 27.0458 82.5455 27.614 82.5455 28.2958V33.5H80.9528V28.4876C80.9528 27.8874 80.7983 27.4222 80.4893 27.092C80.1804 26.7582 79.7507 26.5913 79.2003 26.5913C78.8239 26.5913 78.4865 26.6712 78.1882 26.831C77.8935 26.9908 77.6609 27.2251 77.4904 27.5341C77.3235 27.8395 77.2401 28.2088 77.2401 28.642ZM84.3408 33.5V25.3182H85.9335V33.5H84.3408ZM85.1451 24.0558C84.8682 24.0558 84.6302 23.9634 84.4314 23.7788C84.2361 23.5906 84.1384 23.3668 84.1384 23.1076C84.1384 22.8448 84.2361 22.6211 84.4314 22.4364C84.6302 22.2482 84.8682 22.1541 85.1451 22.1541C85.4221 22.1541 85.6583 22.2482 85.8536 22.4364C86.0525 22.6211 86.1519 22.8448 86.1519 23.1076C86.1519 23.3668 86.0525 23.5906 85.8536 23.7788C85.6583 23.9634 85.4221 24.0558 85.1451 24.0558ZM93.8772 27.3157L92.4337 27.5714C92.3733 27.3867 92.2774 27.2109 92.146 27.044C92.0182 26.8771 91.8442 26.7404 91.624 26.6339C91.4038 26.5273 91.1286 26.4741 90.7984 26.4741C90.3474 26.4741 89.9709 26.5753 89.6691 26.7777C89.3673 26.9766 89.2163 27.234 89.2163 27.5501C89.2163 27.8235 89.3175 28.0437 89.52 28.2106C89.7224 28.3775 90.0491 28.5142 90.5001 28.6207L91.7998 28.919C92.5526 29.093 93.1137 29.3612 93.483 29.7234C93.8523 30.0856 94.037 30.5561 94.037 31.1349C94.037 31.625 93.895 32.0618 93.6109 32.4453C93.3303 32.8253 92.9379 33.1236 92.4337 33.3402C91.933 33.5568 91.3523 33.6651 90.6918 33.6651C89.7756 33.6651 89.0281 33.4698 88.4493 33.0792C87.8705 32.685 87.5153 32.1257 87.3839 31.4013L88.9234 31.1669C89.0192 31.5682 89.2163 31.8718 89.5146 32.0778C89.8129 32.2802 90.2018 32.3814 90.6812 32.3814C91.2032 32.3814 91.6205 32.2731 91.933 32.0565C92.2455 31.8363 92.4017 31.5682 92.4017 31.2521C92.4017 30.9964 92.3058 30.7816 92.1141 30.6076C91.9259 30.4336 91.6364 30.3022 91.2458 30.2134L89.8609 29.9098C89.0974 29.7358 88.5327 29.4588 88.167 29.0788C87.8048 28.6989 87.6236 28.2177 87.6236 27.6353C87.6236 27.1523 87.7586 26.7298 88.0285 26.3675C88.2984 26.0053 88.6712 25.723 89.1471 25.5206C89.6229 25.3146 90.168 25.2116 90.7824 25.2116C91.6666 25.2116 92.3626 25.4034 92.8705 25.7869C93.3783 26.1669 93.7138 26.6765 93.8772 27.3157ZM102.528 36.7386C101.878 36.7386 101.319 36.6534 100.85 36.483C100.385 36.3125 100.005 36.087 99.7105 35.8065C99.4157 35.5259 99.1955 35.2188 99.0499 34.8849L100.419 34.3203C100.515 34.4766 100.643 34.6417 100.802 34.8157C100.966 34.9933 101.186 35.1442 101.463 35.2685C101.743 35.3928 102.104 35.4549 102.544 35.4549C103.148 35.4549 103.647 35.3075 104.041 35.0128C104.435 34.7216 104.632 34.2564 104.632 33.6172V32.0085H104.531C104.435 32.1825 104.297 32.3761 104.116 32.5891C103.938 32.8022 103.693 32.9869 103.381 33.1431C103.068 33.2994 102.661 33.3775 102.161 33.3775C101.514 33.3775 100.932 33.2266 100.414 32.9247C99.8987 32.6193 99.4903 32.1701 99.1884 31.5771C98.8901 30.9805 98.741 30.2472 98.741 29.3771C98.741 28.5071 98.8884 27.7614 99.1831 27.1399C99.4814 26.5185 99.8898 26.0426 100.408 25.7124C100.927 25.3786 101.514 25.2116 102.171 25.2116C102.679 25.2116 103.089 25.2969 103.402 25.4673C103.714 25.6342 103.958 25.8295 104.132 26.0533C104.309 26.277 104.446 26.4741 104.542 26.6445H104.659V25.3182H106.22V33.6811C106.22 34.3842 106.056 34.9613 105.73 35.4123C105.403 35.8633 104.961 36.1971 104.403 36.4137C103.849 36.6303 103.224 36.7386 102.528 36.7386ZM102.512 32.0565C102.97 32.0565 103.357 31.9499 103.674 31.7369C103.993 31.5202 104.235 31.2113 104.398 30.81C104.565 30.4052 104.648 29.9205 104.648 29.3558C104.648 28.8054 104.567 28.3207 104.403 27.9016C104.24 27.4826 104 27.1559 103.684 26.9215C103.368 26.6836 102.977 26.5646 102.512 26.5646C102.033 26.5646 101.633 26.6889 101.314 26.9375C100.994 27.1825 100.753 27.5163 100.589 27.9389C100.43 28.3615 100.35 28.8338 100.35 29.3558C100.35 29.892 100.431 30.3626 100.595 30.7674C100.758 31.1722 101 31.4883 101.319 31.7156C101.642 31.9428 102.04 32.0565 102.512 32.0565ZM108.026 33.5V25.3182H109.565V26.6179H109.65C109.799 26.1776 110.062 25.8313 110.439 25.5792C110.819 25.3235 111.248 25.1957 111.728 25.1957C111.827 25.1957 111.944 25.1992 112.079 25.2063C112.218 25.2134 112.326 25.2223 112.404 25.233V26.7564C112.34 26.7386 112.227 26.7191 112.063 26.6978C111.9 26.6729 111.737 26.6605 111.573 26.6605C111.197 26.6605 110.861 26.7404 110.567 26.9002C110.275 27.0565 110.045 27.2749 109.874 27.5554C109.704 27.8324 109.618 28.1484 109.618 28.5036V33.5H108.026ZM116.606 33.6651C115.839 33.6651 115.17 33.4893 114.598 33.1378C114.026 32.7862 113.582 32.2944 113.266 31.6623C112.95 31.0302 112.792 30.2915 112.792 29.4464C112.792 28.5977 112.95 27.8555 113.266 27.2198C113.582 26.5842 114.026 26.0906 114.598 25.739C115.17 25.3874 115.839 25.2116 116.606 25.2116C117.373 25.2116 118.042 25.3874 118.614 25.739C119.186 26.0906 119.63 26.5842 119.946 27.2198C120.262 27.8555 120.42 28.5977 120.42 29.4464C120.42 30.2915 120.262 31.0302 119.946 31.6623C119.63 32.2944 119.186 32.7862 118.614 33.1378C118.042 33.4893 117.373 33.6651 116.606 33.6651ZM116.611 32.3281C117.108 32.3281 117.52 32.1967 117.847 31.9339C118.174 31.6712 118.415 31.3214 118.571 30.8846C118.731 30.4478 118.811 29.9666 118.811 29.4411C118.811 28.919 118.731 28.4396 118.571 28.0028C118.415 27.5625 118.174 27.2092 117.847 26.9428C117.52 26.6765 117.108 26.5433 116.611 26.5433C116.111 26.5433 115.695 26.6765 115.365 26.9428C115.038 27.2092 114.795 27.5625 114.635 28.0028C114.479 28.4396 114.401 28.919 114.401 29.4411C114.401 29.9666 114.479 30.4478 114.635 30.8846C114.795 31.3214 115.038 31.6712 115.365 31.9339C115.695 32.1967 116.111 32.3281 116.611 32.3281ZM127.051 30.1069V25.3182H128.649V33.5H127.082V32.0831H126.997C126.809 32.5199 126.507 32.8839 126.092 33.1751C125.68 33.4627 125.167 33.6065 124.552 33.6065C124.027 33.6065 123.562 33.4911 123.157 33.2603C122.755 33.0259 122.439 32.6797 122.209 32.2216C121.981 31.7635 121.868 31.1971 121.868 30.5224V25.3182H123.46V30.3306C123.46 30.8881 123.615 31.332 123.924 31.6623C124.233 31.9925 124.634 32.1577 125.128 32.1577C125.426 32.1577 125.722 32.0831 126.017 31.9339C126.315 31.7848 126.562 31.5593 126.758 31.2575C126.956 30.9556 127.054 30.5721 127.051 30.1069ZM130.459 36.5682V25.3182H132.014V26.6445H132.147C132.239 26.4741 132.373 26.277 132.547 26.0533C132.721 25.8295 132.962 25.6342 133.271 25.4673C133.58 25.2969 133.988 25.2116 134.496 25.2116C135.157 25.2116 135.746 25.3786 136.265 25.7124C136.783 26.0462 137.19 26.5273 137.484 27.1559C137.783 27.7844 137.932 28.5408 137.932 29.4251C137.932 30.3093 137.785 31.0675 137.49 31.6996C137.195 32.3281 136.79 32.8129 136.275 33.1538C135.76 33.4911 135.173 33.6598 134.512 33.6598C134.015 33.6598 133.608 33.5763 133.292 33.4094C132.98 33.2425 132.735 33.0472 132.557 32.8235C132.38 32.5998 132.243 32.4009 132.147 32.2269H132.051V36.5682H130.459ZM132.019 29.4091C132.019 29.9844 132.103 30.4886 132.27 30.9219C132.437 31.3551 132.678 31.6942 132.994 31.9393C133.31 32.1808 133.697 32.3015 134.155 32.3015C134.631 32.3015 135.029 32.1754 135.348 31.9233C135.668 31.6676 135.91 31.3214 136.073 30.8846C136.24 30.4478 136.323 29.956 136.323 29.4091C136.323 28.8693 136.242 28.3846 136.078 27.9549C135.918 27.5252 135.677 27.1861 135.354 26.9375C135.034 26.6889 134.635 26.5646 134.155 26.5646C133.694 26.5646 133.303 26.6836 132.983 26.9215C132.667 27.1594 132.428 27.4915 132.264 27.9176C132.101 28.3437 132.019 28.8409 132.019 29.4091ZM141.458 32.0085L141.379 32.5891C141.325 33.0153 141.235 33.4592 141.107 33.9208C140.983 34.386 140.853 34.8175 140.718 35.2152C140.587 35.6129 140.478 35.929 140.393 36.1634H139.264C139.31 35.9432 139.374 35.6449 139.456 35.2685C139.537 34.8956 139.617 34.4783 139.695 34.0167C139.773 33.555 139.832 33.0845 139.871 32.6051L139.924 32.0085H141.458ZM147.848 36.5682C147.61 36.5682 147.394 36.5487 147.198 36.5096C147.003 36.4741 146.858 36.435 146.762 36.3924L147.145 35.0874C147.436 35.1655 147.696 35.1992 147.923 35.1886C148.15 35.1779 148.351 35.0927 148.525 34.9329C148.702 34.7731 148.859 34.5121 148.994 34.1499L149.191 33.6065L146.197 25.3182H147.902L149.974 31.6676H150.059L152.131 25.3182H153.841L150.469 34.592C150.313 35.0181 150.114 35.3786 149.872 35.6733C149.631 35.9716 149.343 36.1953 149.01 36.3445C148.676 36.4936 148.289 36.5682 147.848 36.5682ZM158.176 33.6651C157.409 33.6651 156.739 33.4893 156.168 33.1378C155.596 32.7862 155.152 32.2944 154.836 31.6623C154.52 31.0302 154.362 30.2915 154.362 29.4464C154.362 28.5977 154.52 27.8555 154.836 27.2198C155.152 26.5842 155.596 26.0906 156.168 25.739C156.739 25.3874 157.409 25.2116 158.176 25.2116C158.943 25.2116 159.612 25.3874 160.184 25.739C160.756 26.0906 161.2 26.5842 161.516 27.2198C161.832 27.8555 161.99 28.5977 161.99 29.4464C161.99 30.2915 161.832 31.0302 161.516 31.6623C161.2 32.2944 160.756 32.7862 160.184 33.1378C159.612 33.4893 158.943 33.6651 158.176 33.6651ZM158.181 32.3281C158.678 32.3281 159.09 32.1967 159.417 31.9339C159.744 31.6712 159.985 31.3214 160.141 30.8846C160.301 30.4478 160.381 29.9666 160.381 29.4411C160.381 28.919 160.301 28.4396 160.141 28.0028C159.985 27.5625 159.744 27.2092 159.417 26.9428C159.09 26.6765 158.678 26.5433 158.181 26.5433C157.68 26.5433 157.265 26.6765 156.935 26.9428C156.608 27.2092 156.365 27.5625 156.205 28.0028C156.049 28.4396 155.97 28.919 155.97 29.4411C155.97 29.9666 156.049 30.4478 156.205 30.8846C156.365 31.3214 156.608 31.6712 156.935 31.9339C157.265 32.1967 157.68 32.3281 158.181 32.3281ZM168.62 30.1069V25.3182H170.218V33.5H168.652V32.0831H168.567C168.379 32.5199 168.077 32.8839 167.662 33.1751C167.25 33.4627 166.736 33.6065 166.122 33.6065C165.597 33.6065 165.131 33.4911 164.727 33.2603C164.325 33.0259 164.009 32.6797 163.778 32.2216C163.551 31.7635 163.437 31.1971 163.437 30.5224V25.3182H165.03V30.3306C165.03 30.8881 165.185 31.332 165.494 31.6623C165.803 31.9925 166.204 32.1577 166.697 32.1577C166.996 32.1577 167.292 32.0831 167.587 31.9339C167.885 31.7848 168.132 31.5593 168.327 31.2575C168.526 30.9556 168.624 30.5721 168.62 30.1069ZM181.799 27.3157L180.356 27.5714C180.295 27.3867 180.199 27.2109 180.068 27.044C179.94 26.8771 179.766 26.7404 179.546 26.6339C179.326 26.5273 179.051 26.4741 178.72 26.4741C178.269 26.4741 177.893 26.5753 177.591 26.7777C177.289 26.9766 177.138 27.234 177.138 27.5501C177.138 27.8235 177.239 28.0437 177.442 28.2106C177.644 28.3775 177.971 28.5142 178.422 28.6207L179.722 28.919C180.475 29.093 181.036 29.3612 181.405 29.7234C181.774 30.0856 181.959 30.5561 181.959 31.1349C181.959 31.625 181.817 32.0618 181.533 32.4453C181.252 32.8253 180.86 33.1236 180.356 33.3402C179.855 33.5568 179.274 33.6651 178.614 33.6651C177.698 33.6651 176.95 33.4698 176.371 33.0792C175.792 32.685 175.437 32.1257 175.306 31.4013L176.845 31.1669C176.941 31.5682 177.138 31.8718 177.437 32.0778C177.735 32.2802 178.124 32.3814 178.603 32.3814C179.125 32.3814 179.542 32.2731 179.855 32.0565C180.167 31.8363 180.324 31.5682 180.324 31.2521C180.324 30.9964 180.228 30.7816 180.036 30.6076C179.848 30.4336 179.558 30.3022 179.168 30.2134L177.783 29.9098C177.019 29.7358 176.455 29.4588 176.089 29.0788C175.727 28.6989 175.546 28.2177 175.546 27.6353C175.546 27.1523 175.681 26.7298 175.95 26.3675C176.22 26.0053 176.593 25.723 177.069 25.5206C177.545 25.3146 178.09 25.2116 178.704 25.2116C179.589 25.2116 180.285 25.4034 180.792 25.7869C181.3 26.1669 181.636 26.6765 181.799 27.3157ZM184.973 28.642V33.5H183.38V22.5909H184.951V26.6499H185.053C185.244 26.2095 185.537 25.8597 185.932 25.6005C186.326 25.3413 186.841 25.2116 187.476 25.2116C188.037 25.2116 188.527 25.3271 188.946 25.5579C189.369 25.7887 189.696 26.1332 189.927 26.5913C190.161 27.0458 190.278 27.614 190.278 28.2958V33.5H188.685V28.4876C188.685 27.8874 188.531 27.4222 188.222 27.092C187.913 26.7582 187.483 26.5913 186.933 26.5913C186.557 26.5913 186.219 26.6712 185.921 26.831C185.626 26.9908 185.394 27.2251 185.223 27.5341C185.056 27.8395 184.973 28.2088 184.973 28.642ZM195.52 33.6651C194.753 33.6651 194.083 33.4893 193.512 33.1378C192.94 32.7862 192.496 32.2944 192.18 31.6623C191.864 31.0302 191.706 30.2915 191.706 29.4464C191.706 28.5977 191.864 27.8555 192.18 27.2198C192.496 26.5842 192.94 26.0906 193.512 25.739C194.083 25.3874 194.753 25.2116 195.52 25.2116C196.287 25.2116 196.956 25.3874 197.528 25.739C198.1 26.0906 198.544 26.5842 198.86 27.2198C199.176 27.8555 199.334 28.5977 199.334 29.4464C199.334 30.2915 199.176 31.0302 198.86 31.6623C198.544 32.2944 198.1 32.7862 197.528 33.1378C196.956 33.4893 196.287 33.6651 195.52 33.6651ZM195.525 32.3281C196.022 32.3281 196.434 32.1967 196.761 31.9339C197.088 31.6712 197.329 31.3214 197.485 30.8846C197.645 30.4478 197.725 29.9666 197.725 29.4411C197.725 28.919 197.645 28.4396 197.485 28.0028C197.329 27.5625 197.088 27.2092 196.761 26.9428C196.434 26.6765 196.022 26.5433 195.525 26.5433C195.025 26.5433 194.609 26.6765 194.279 26.9428C193.952 27.2092 193.709 27.5625 193.549 28.0028C193.393 28.4396 193.315 28.919 193.315 29.4411C193.315 29.9666 193.393 30.4478 193.549 30.8846C193.709 31.3214 193.952 31.6712 194.279 31.9339C194.609 32.1967 195.025 32.3281 195.525 32.3281ZM205.964 30.1069V25.3182H207.562V33.5H205.996V32.0831H205.911C205.723 32.5199 205.421 32.8839 205.006 33.1751C204.594 33.4627 204.081 33.6065 203.466 33.6065C202.941 33.6065 202.475 33.4911 202.071 33.2603C201.669 33.0259 201.353 32.6797 201.122 32.2216C200.895 31.7635 200.782 31.1971 200.782 30.5224V25.3182H202.374V30.3306C202.374 30.8881 202.529 31.332 202.838 31.6623C203.147 31.9925 203.548 32.1577 204.042 32.1577C204.34 32.1577 204.636 32.0831 204.931 31.9339C205.229 31.7848 205.476 31.5593 205.672 31.2575C205.87 30.9556 205.968 30.5721 205.964 30.1069ZM210.965 22.5909V33.5H209.372V22.5909H210.965ZM215.841 33.6598C215.18 33.6598 214.591 33.4911 214.072 33.1538C213.557 32.8129 213.152 32.3281 212.858 31.6996C212.567 31.0675 212.421 30.3093 212.421 29.4251C212.421 28.5408 212.568 27.7844 212.863 27.1559C213.161 26.5273 213.57 26.0462 214.088 25.7124C214.607 25.3786 215.194 25.2116 215.851 25.2116C216.359 25.2116 216.768 25.2969 217.076 25.4673C217.389 25.6342 217.63 25.8295 217.801 26.0533C217.975 26.277 218.11 26.4741 218.206 26.6445H218.302V22.5909H219.894V33.5H218.339V32.2269H218.206C218.11 32.4009 217.971 32.5998 217.79 32.8235C217.613 33.0472 217.368 33.2425 217.055 33.4094C216.743 33.5763 216.338 33.6598 215.841 33.6598ZM216.192 32.3015C216.65 32.3015 217.037 32.1808 217.353 31.9393C217.673 31.6942 217.915 31.3551 218.078 30.9219C218.245 30.4886 218.328 29.9844 218.328 29.4091C218.328 28.8409 218.247 28.3437 218.083 27.9176C217.92 27.4915 217.68 27.1594 217.364 26.9215C217.048 26.6836 216.657 26.5646 216.192 26.5646C215.713 26.5646 215.313 26.6889 214.994 26.9375C214.674 27.1861 214.433 27.5252 214.269 27.9549C214.11 28.3846 214.03 28.8693 214.03 29.4091C214.03 29.956 214.111 30.4478 214.275 30.8846C214.438 31.3214 214.679 31.6676 214.999 31.9233C215.322 32.1754 215.72 32.3015 216.192 32.3015ZM229.296 25.3182V26.5966H224.827V25.3182H229.296ZM226.026 23.358H227.619V31.0977C227.619 31.4066 227.665 31.6392 227.757 31.7955C227.849 31.9482 227.968 32.0529 228.114 32.1097C228.263 32.163 228.425 32.1896 228.599 32.1896C228.727 32.1896 228.838 32.1808 228.934 32.163C229.03 32.1452 229.105 32.131 229.158 32.1204L229.446 33.4361C229.353 33.4716 229.222 33.5071 229.051 33.5426C228.881 33.5817 228.668 33.603 228.412 33.6065C227.993 33.6136 227.603 33.5391 227.24 33.3828C226.878 33.2266 226.585 32.9851 226.361 32.6584C226.138 32.3317 226.026 31.9215 226.026 31.4279V23.358ZM233.109 33.6811C232.591 33.6811 232.122 33.5852 231.703 33.3935C231.284 33.1982 230.952 32.9158 230.707 32.5465C230.465 32.1772 230.345 31.7244 230.345 31.1882C230.345 30.7266 230.434 30.3466 230.611 30.0483C230.789 29.75 231.028 29.5138 231.33 29.3398C231.632 29.1658 231.969 29.0344 232.342 28.9457C232.715 28.8569 233.095 28.7894 233.482 28.7433C233.972 28.6864 234.37 28.6403 234.675 28.6048C234.981 28.5657 235.203 28.5036 235.341 28.4183C235.48 28.3331 235.549 28.1946 235.549 28.0028V27.9656C235.549 27.5004 235.418 27.1399 235.155 26.8842C234.896 26.6286 234.508 26.5007 233.994 26.5007C233.457 26.5007 233.035 26.6197 232.726 26.8576C232.42 27.092 232.209 27.353 232.092 27.6406L230.595 27.2997C230.773 26.8026 231.032 26.4013 231.373 26.0959C231.717 25.7869 232.113 25.5632 232.561 25.4247C233.008 25.2827 233.479 25.2116 233.972 25.2116C234.299 25.2116 234.645 25.2507 235.011 25.3288C235.38 25.4034 235.725 25.5419 236.044 25.7443C236.367 25.9467 236.632 26.2362 236.838 26.6126C237.044 26.9854 237.147 27.4702 237.147 28.0668V33.5H235.592V32.3814H235.528C235.425 32.5874 235.27 32.7898 235.064 32.9886C234.858 33.1875 234.594 33.3526 234.271 33.484C233.947 33.6154 233.56 33.6811 233.109 33.6811ZM233.456 32.4027C233.896 32.4027 234.272 32.3157 234.585 32.1417C234.901 31.9677 235.141 31.7404 235.304 31.4599C235.471 31.1758 235.554 30.8722 235.554 30.549V29.4943C235.497 29.5511 235.387 29.6044 235.224 29.6541C235.064 29.7003 234.881 29.7411 234.675 29.7766C234.469 29.8086 234.269 29.8388 234.073 29.8672C233.878 29.892 233.715 29.9134 233.583 29.9311C233.274 29.9702 232.992 30.0359 232.736 30.1282C232.484 30.2205 232.282 30.3537 232.129 30.5277C231.98 30.6982 231.905 30.9254 231.905 31.2095C231.905 31.6037 232.051 31.902 232.342 32.1044C232.633 32.3033 233.005 32.4027 233.456 32.4027ZM240.403 30.7248L240.393 28.7805H240.669L243.929 25.3182H245.836L242.118 29.2599H241.868L240.403 30.7248ZM238.938 33.5V22.5909H240.531V33.5H238.938ZM244.105 33.5L241.176 29.6115L242.273 28.4982L246.06 33.5H244.105ZM250.147 33.6651C249.341 33.6651 248.647 33.4929 248.065 33.1484C247.486 32.8004 247.038 32.3121 246.722 31.6836C246.41 31.0515 246.253 30.3111 246.253 29.4624C246.253 28.6243 246.41 27.8857 246.722 27.2464C247.038 26.6072 247.479 26.1083 248.043 25.7496C248.611 25.391 249.275 25.2116 250.035 25.2116C250.497 25.2116 250.945 25.288 251.378 25.4407C251.811 25.5934 252.2 25.8331 252.544 26.1598C252.889 26.4865 253.16 26.9109 253.359 27.4329C253.558 27.9513 253.658 28.5817 253.658 29.3239V29.8885H247.154V28.6953H252.097C252.097 28.2763 252.012 27.9052 251.841 27.582C251.671 27.2553 251.431 26.9979 251.122 26.8097C250.817 26.6214 250.458 26.5273 250.046 26.5273C249.599 26.5273 249.208 26.6374 248.874 26.8576C248.544 27.0742 248.288 27.3583 248.107 27.7099C247.93 28.0579 247.841 28.4361 247.841 28.8445V29.7766C247.841 30.3235 247.937 30.7887 248.128 31.1722C248.324 31.5558 248.595 31.8487 248.943 32.0511C249.291 32.25 249.698 32.3494 250.163 32.3494C250.465 32.3494 250.74 32.3068 250.989 32.2216C251.237 32.1328 251.452 32.0014 251.633 31.8274C251.815 31.6534 251.953 31.4386 252.049 31.1829L253.556 31.4545C253.436 31.8984 253.219 32.2873 252.907 32.6211C252.598 32.9513 252.209 33.2088 251.74 33.3935C251.275 33.5746 250.744 33.6651 250.147 33.6651ZM258.484 31.3693V30.0376L263.198 22.5909H264.248V24.5511H263.582L260.21 29.8885V29.9737H266.671V31.3693H258.484ZM263.656 33.5V30.9645L263.667 30.3572V22.5909H265.228V33.5H263.656ZM277.042 30.1069V25.3182H278.64V33.5H277.073V32.0831H276.988C276.8 32.5199 276.498 32.8839 276.083 33.1751C275.671 33.4627 275.158 33.6065 274.543 33.6065C274.018 33.6065 273.553 33.4911 273.148 33.2603C272.746 33.0259 272.43 32.6797 272.2 32.2216C271.972 31.7635 271.859 31.1971 271.859 30.5224V25.3182H273.451V30.3306C273.451 30.8881 273.606 31.332 273.915 31.6623C274.224 31.9925 274.625 32.1577 275.119 32.1577C275.417 32.1577 275.713 32.0831 276.008 31.9339C276.306 31.7848 276.553 31.5593 276.749 31.2575C276.947 30.9556 277.045 30.5721 277.042 30.1069ZM282.042 28.642V33.5H280.45V25.3182H281.978V26.6499H282.079C282.268 26.2166 282.562 25.8686 282.964 25.6058C283.369 25.343 283.878 25.2116 284.492 25.2116C285.05 25.2116 285.538 25.3288 285.957 25.5632C286.376 25.794 286.701 26.1385 286.932 26.5966C287.163 27.0547 287.278 27.6211 287.278 28.2958V33.5H285.686V28.4876C285.686 27.8945 285.531 27.4311 285.222 27.0973C284.913 26.7599 284.489 26.5913 283.949 26.5913C283.58 26.5913 283.251 26.6712 282.964 26.831C282.68 26.9908 282.454 27.2251 282.287 27.5341C282.124 27.8395 282.042 28.2088 282.042 28.642ZM289.084 33.5V25.3182H290.677V33.5H289.084ZM289.889 24.0558C289.612 24.0558 289.374 23.9634 289.175 23.7788C288.98 23.5906 288.882 23.3668 288.882 23.1076C288.882 22.8448 288.98 22.6211 289.175 22.4364C289.374 22.2482 289.612 22.1541 289.889 22.1541C290.166 22.1541 290.402 22.2482 290.597 22.4364C290.796 22.6211 290.895 22.8448 290.895 23.1076C290.895 23.3668 290.796 23.5906 290.597 23.7788C290.402 23.9634 290.166 24.0558 289.889 24.0558ZM296.309 25.3182V26.5966H291.84V25.3182H296.309ZM293.038 23.358H294.631V31.0977C294.631 31.4066 294.677 31.6392 294.77 31.7955C294.862 31.9482 294.981 32.0529 295.126 32.1097C295.276 32.163 295.437 32.1896 295.611 32.1896C295.739 32.1896 295.851 32.1808 295.947 32.163C296.043 32.1452 296.117 32.131 296.17 32.1204L296.458 33.4361C296.366 33.4716 296.234 33.5071 296.064 33.5426C295.893 33.5817 295.68 33.603 295.425 33.6065C295.006 33.6136 294.615 33.5391 294.253 33.3828C293.891 33.2266 293.598 32.9851 293.374 32.6584C293.15 32.3317 293.038 31.9215 293.038 31.4279V23.358ZM303.74 27.3157L302.296 27.5714C302.236 27.3867 302.14 27.2109 302.009 27.044C301.881 26.8771 301.707 26.7404 301.487 26.6339C301.267 26.5273 300.991 26.4741 300.661 26.4741C300.21 26.4741 299.834 26.5753 299.532 26.7777C299.23 26.9766 299.079 27.234 299.079 27.5501C299.079 27.8235 299.18 28.0437 299.383 28.2106C299.585 28.3775 299.912 28.5142 300.363 28.6207L301.663 28.919C302.415 29.093 302.976 29.3612 303.346 29.7234C303.715 30.0856 303.9 30.5561 303.9 31.1349C303.9 31.625 303.758 32.0618 303.474 32.4453C303.193 32.8253 302.801 33.1236 302.296 33.3402C301.796 33.5568 301.215 33.6651 300.555 33.6651C299.638 33.6651 298.891 33.4698 298.312 33.0792C297.733 32.685 297.378 32.1257 297.247 31.4013L298.786 31.1669C298.882 31.5682 299.079 31.8718 299.377 32.0778C299.676 32.2802 300.065 32.3814 300.544 32.3814C301.066 32.3814 301.483 32.2731 301.796 32.0565C302.108 31.8363 302.264 31.5682 302.264 31.2521C302.264 30.9964 302.169 30.7816 301.977 30.6076C301.789 30.4336 301.499 30.3022 301.109 30.2134L299.724 29.9098C298.96 29.7358 298.396 29.4588 298.03 29.0788C297.668 28.6989 297.486 28.2177 297.486 27.6353C297.486 27.1523 297.621 26.7298 297.891 26.3675C298.161 26.0053 298.534 25.723 299.01 25.5206C299.486 25.3146 300.031 25.2116 300.645 25.2116C301.529 25.2116 302.225 25.4034 302.733 25.7869C303.241 26.1669 303.577 26.6765 303.74 27.3157Z" fill="black" fill-opacity="0.8"/>
</svg>
