<svg width="155" height="36" viewBox="0 0 155 36" fill="none" xmlns="http://www.w3.org/2000/svg">
<rect x="2" y="2" width="151" height="32" rx="12.8" stroke="#E6E6E6" stroke-width="4" stroke-miterlimit="0" stroke-linecap="round"/>
<path d="M40.7726 17.0788L39.0404 17.3857C38.9679 17.1641 38.8529 16.9531 38.6952 16.7528C38.5418 16.5526 38.333 16.3885 38.0688 16.2607C37.8046 16.1328 37.4743 16.0689 37.078 16.0689C36.5368 16.0689 36.0851 16.1903 35.7229 16.4332C35.3607 16.6719 35.1796 16.9808 35.1796 17.3601C35.1796 17.6882 35.301 17.9524 35.5439 18.1527C35.7868 18.353 36.1789 18.517 36.7201 18.6449L38.2797 19.0028C39.1831 19.2116 39.8564 19.5334 40.2996 19.968C40.7428 20.4027 40.9644 20.9673 40.9644 21.6619C40.9644 22.25 40.7939 22.7741 40.453 23.2344C40.1164 23.6903 39.6455 24.0483 39.0404 24.3082C38.4395 24.5682 37.7428 24.6982 36.9502 24.6982C35.8507 24.6982 34.9537 24.4638 34.2591 23.995C33.5645 23.522 33.1384 22.8509 32.9807 21.9815L34.828 21.7003C34.9431 22.1818 35.1796 22.5462 35.5375 22.7933C35.8955 23.0362 36.3621 23.1577 36.9374 23.1577C37.5638 23.1577 38.0645 23.0277 38.4395 22.7678C38.8145 22.5036 39.002 22.1818 39.002 21.8026C39.002 21.4957 38.887 21.2379 38.6569 21.0291C38.431 20.8203 38.0837 20.6626 37.615 20.5561L35.953 20.1918C35.0368 19.983 34.3593 19.6506 33.9203 19.1946C33.4857 18.7386 33.2684 18.1612 33.2684 17.4624C33.2684 16.8828 33.4303 16.3757 33.7542 15.9411C34.078 15.5064 34.5255 15.1676 35.0965 14.9247C35.6675 14.6776 36.3216 14.554 37.0588 14.554C38.1199 14.554 38.9552 14.7841 39.5645 15.2443C40.1739 15.7003 40.5766 16.3118 40.7726 17.0788ZM46.8833 24.6982C45.916 24.6982 45.0829 24.4915 44.384 24.0781C43.6894 23.6605 43.1525 23.0746 42.7732 22.3203C42.3982 21.5618 42.2107 20.6733 42.2107 19.6548C42.2107 18.6491 42.3982 17.7628 42.7732 16.9957C43.1525 16.2287 43.6809 15.63 44.3584 15.1996C45.0403 14.7692 45.8371 14.554 46.7491 14.554C47.303 14.554 47.84 14.6456 48.3599 14.8288C48.8798 15.0121 49.3464 15.2997 49.7597 15.6918C50.1731 16.0838 50.4991 16.593 50.7377 17.2195C50.9763 17.8416 51.0957 18.598 51.0957 19.4886V20.1662H43.291V18.7344H49.2228C49.2228 18.2315 49.1205 17.7862 48.916 17.3984C48.7114 17.0064 48.4238 16.6974 48.053 16.4716C47.6866 16.2457 47.2562 16.1328 46.7619 16.1328C46.2249 16.1328 45.7562 16.2649 45.3556 16.5291C44.9593 16.7891 44.6525 17.13 44.4351 17.5518C44.2221 17.9695 44.1155 18.4233 44.1155 18.9134V20.032C44.1155 20.6882 44.2306 21.2464 44.4607 21.7067C44.6951 22.1669 45.0211 22.5185 45.4387 22.7614C45.8563 23 46.3442 23.1193 46.9025 23.1193C47.2647 23.1193 47.595 23.0682 47.8932 22.9659C48.1915 22.8594 48.4494 22.7017 48.6667 22.4929C48.884 22.2841 49.0502 22.0263 49.1653 21.7195L50.9742 22.0455C50.8293 22.5781 50.5694 23.0447 50.1944 23.4453C49.8236 23.8416 49.357 24.1506 48.7945 24.3722C48.2363 24.5895 47.5992 24.6982 46.8833 24.6982ZM55.6595 24.7173C55.0373 24.7173 54.4748 24.6023 53.972 24.3722C53.4691 24.1378 53.0707 23.799 52.7767 23.3558C52.4869 22.9126 52.342 22.3693 52.342 21.7259C52.342 21.1719 52.4485 20.7159 52.6616 20.358C52.8747 20 53.1623 19.7166 53.5245 19.5078C53.8867 19.299 54.2916 19.1413 54.739 19.0348C55.1865 18.9283 55.6424 18.8473 56.1069 18.7919C56.695 18.7237 57.1723 18.6683 57.5387 18.6257C57.9052 18.5788 58.1715 18.5043 58.3377 18.402C58.5039 18.2997 58.587 18.1335 58.587 17.9034V17.8587C58.587 17.3004 58.4294 16.8679 58.114 16.5611C57.8029 16.2543 57.3384 16.1009 56.7205 16.1009C56.0771 16.1009 55.57 16.2436 55.1992 16.5291C54.8328 16.8104 54.5792 17.1236 54.4386 17.4688L52.6424 17.0597C52.8555 16.4631 53.1666 15.9815 53.5757 15.6151C53.989 15.2443 54.4642 14.9759 55.0011 14.8097C55.538 14.6392 56.1026 14.554 56.695 14.554C57.087 14.554 57.5025 14.6009 57.9414 14.6946C58.3846 14.7841 58.798 14.9503 59.1815 15.1932C59.5693 15.4361 59.8867 15.7834 60.1339 16.2351C60.3811 16.6825 60.5046 17.2642 60.5046 17.9801V24.5H58.6382V23.1577H58.5615C58.4379 23.4048 58.2525 23.6477 58.0053 23.8864C57.7582 24.125 57.4407 24.3232 57.0529 24.4808C56.6651 24.6385 56.2007 24.7173 55.6595 24.7173ZM56.075 23.1832C56.6034 23.1832 57.0551 23.0788 57.4301 22.87C57.8093 22.6612 58.097 22.3885 58.293 22.0518C58.4933 21.7109 58.5934 21.3466 58.5934 20.9588V19.6932C58.5252 19.7614 58.3931 19.8253 58.1971 19.8849C58.0053 19.9403 57.7859 19.9893 57.5387 20.032C57.2916 20.0703 57.0508 20.1065 56.8164 20.1406C56.5821 20.1705 56.386 20.196 56.2284 20.2173C55.8576 20.2642 55.5188 20.343 55.212 20.4538C54.9095 20.5646 54.6666 20.7244 54.4833 20.9332C54.3044 21.1378 54.2149 21.4105 54.2149 21.7514C54.2149 22.2244 54.3896 22.5824 54.739 22.8253C55.0884 23.0639 55.5338 23.1832 56.075 23.1832ZM62.6363 24.5V14.6818H64.4836V16.2415H64.5858C64.7648 15.7131 65.0802 15.2976 65.5319 14.995C65.9878 14.6882 66.5035 14.5348 67.0787 14.5348C67.1981 14.5348 67.3387 14.5391 67.5006 14.5476C67.6668 14.5561 67.7968 14.5668 67.8905 14.5795V16.4077C67.8138 16.3864 67.6775 16.3629 67.4814 16.3374C67.2854 16.3075 67.0894 16.2926 66.8934 16.2926C66.4417 16.2926 66.039 16.3885 65.6853 16.5803C65.3358 16.7678 65.0589 17.0298 64.8543 17.3665C64.6498 17.6989 64.5475 18.0781 64.5475 18.5043V24.5H62.6363ZM72.9146 24.6982C71.9643 24.6982 71.1461 24.483 70.46 24.0526C69.7782 23.6179 69.2541 23.0192 68.8876 22.2564C68.5211 21.4936 68.3379 20.62 68.3379 19.6357C68.3379 18.6385 68.5254 17.7585 68.9004 16.9957C69.2754 16.2287 69.8038 15.63 70.4856 15.1996C71.1674 14.7692 71.9707 14.554 72.8954 14.554C73.6411 14.554 74.3059 14.6925 74.8897 14.9695C75.4735 15.2422 75.9444 15.6257 76.3023 16.12C76.6646 16.6143 76.8798 17.1918 76.9479 17.8523H75.0879C74.9856 17.392 74.7512 16.9957 74.3847 16.6634C74.0225 16.331 73.5367 16.1648 72.9273 16.1648C72.3947 16.1648 71.9281 16.3054 71.5275 16.5866C71.1312 16.8636 70.8222 17.2599 70.6006 17.7756C70.3791 18.2869 70.2683 18.892 70.2683 19.5909C70.2683 20.3068 70.3769 20.9247 70.5943 21.4446C70.8116 21.9645 71.1184 22.3672 71.5147 22.6527C71.9153 22.9382 72.3862 23.081 72.9273 23.081C73.2896 23.081 73.6177 23.0149 73.9117 22.8828C74.21 22.7464 74.4593 22.5526 74.6596 22.3011C74.8641 22.0497 75.0069 21.7472 75.0879 21.3935H76.9479C76.8798 22.0284 76.6731 22.5952 76.3279 23.0938C75.9827 23.5923 75.5204 23.9844 74.9408 24.2699C74.3656 24.5554 73.6901 24.6982 72.9146 24.6982ZM80.489 18.6705V24.5H78.5778V11.4091H80.4635V16.2798H80.5849C80.815 15.7514 81.1666 15.3317 81.6396 15.0206C82.1126 14.7095 82.7305 14.554 83.4933 14.554C84.1666 14.554 84.7546 14.6925 85.2575 14.9695C85.7646 15.2464 86.1566 15.6598 86.4336 16.2095C86.7149 16.755 86.8555 17.4368 86.8555 18.255V24.5H84.9443V18.4851C84.9443 17.7649 84.7589 17.2067 84.3882 16.8104C84.0174 16.4098 83.5018 16.2095 82.8413 16.2095C82.3896 16.2095 81.9848 16.3054 81.6268 16.4972C81.2731 16.6889 80.994 16.9702 80.7894 17.3409C80.5892 17.7074 80.489 18.1506 80.489 18.6705ZM93.495 24.5V11.4091H95.4062V16.2734H95.5213C95.6321 16.0689 95.7919 15.8324 96.0007 15.5639C96.2095 15.2955 96.4993 15.0611 96.87 14.8608C97.2407 14.6562 97.7308 14.554 98.3402 14.554C99.1328 14.554 99.8402 14.7543 100.462 15.1548C101.084 15.5554 101.572 16.1328 101.926 16.8871C102.284 17.6413 102.463 18.549 102.463 19.6101C102.463 20.6712 102.286 21.581 101.933 22.3395C101.579 23.0937 101.093 23.6754 100.475 24.0845C99.8572 24.4893 99.152 24.6918 98.3594 24.6918C97.7628 24.6918 97.2748 24.5916 96.8956 24.3913C96.5206 24.1911 96.2265 23.9567 96.0135 23.6882C95.8004 23.4197 95.6363 23.1811 95.5213 22.9723H95.3615V24.5H93.495ZM95.3679 19.5909C95.3679 20.2812 95.468 20.8864 95.6683 21.4062C95.8686 21.9261 96.1584 22.3331 96.5376 22.6271C96.9169 22.9169 97.3814 23.0618 97.9311 23.0618C98.5021 23.0618 98.9794 22.9105 99.3629 22.608C99.7464 22.3011 100.036 21.8857 100.232 21.3615C100.433 20.8374 100.533 20.2472 100.533 19.5909C100.533 18.9432 100.435 18.3615 100.239 17.8459C100.047 17.3303 99.7571 16.9233 99.3693 16.625C98.9858 16.3267 98.5064 16.1776 97.9311 16.1776C97.3771 16.1776 96.9084 16.3203 96.5248 16.6058C96.1456 16.8913 95.8579 17.2898 95.6619 17.8011C95.4659 18.3125 95.3679 18.9091 95.3679 19.5909ZM108.331 24.6982C107.41 24.6982 106.607 24.4872 105.921 24.0653C105.235 23.6435 104.702 23.0533 104.323 22.2947C103.944 21.5362 103.754 20.6499 103.754 19.6357C103.754 18.6172 103.944 17.7266 104.323 16.9638C104.702 16.201 105.235 15.6087 105.921 15.1868C106.607 14.7649 107.41 14.554 108.331 14.554C109.251 14.554 110.055 14.7649 110.741 15.1868C111.427 15.6087 111.959 16.201 112.339 16.9638C112.718 17.7266 112.908 18.6172 112.908 19.6357C112.908 20.6499 112.718 21.5362 112.339 22.2947C111.959 23.0533 111.427 23.6435 110.741 24.0653C110.055 24.4872 109.251 24.6982 108.331 24.6982ZM108.337 23.0938C108.934 23.0938 109.428 22.9361 109.82 22.6207C110.212 22.3054 110.502 21.8857 110.689 21.3615C110.881 20.8374 110.977 20.2599 110.977 19.6293C110.977 19.0028 110.881 18.4276 110.689 17.9034C110.502 17.375 110.212 16.951 109.82 16.6314C109.428 16.3118 108.934 16.152 108.337 16.152C107.736 16.152 107.238 16.3118 106.841 16.6314C106.449 16.951 106.158 17.375 105.966 17.9034C105.778 18.4276 105.685 19.0028 105.685 19.6293C105.685 20.2599 105.778 20.8374 105.966 21.3615C106.158 21.8857 106.449 22.3054 106.841 22.6207C107.238 22.9361 107.736 23.0938 108.337 23.0938ZM115.749 14.6818L117.916 18.5043L120.102 14.6818H122.192L119.13 19.5909L122.217 24.5H120.127L117.916 20.831L115.71 24.5H113.614L116.669 19.5909L113.652 14.6818H115.749Z" fill="black" fill-opacity="0.8"/>
</svg>
