<svg width="124" height="394" viewBox="0 0 124 394" fill="none" xmlns="http://www.w3.org/2000/svg">
<rect width="124" height="394" rx="49.6" fill="#E6E6E6"/>
<path d="M38.1685 41.5V28.4091H46.2864V30.1094H40.1436V34.098H45.7047V35.7919H40.1436V41.5H38.1685ZM48.1479 41.5V31.6818H50.0591V41.5H48.1479ZM49.1131 30.1669C48.7807 30.1669 48.4952 30.0561 48.2566 29.8345C48.0222 29.6087 47.905 29.3402 47.905 29.0291C47.905 28.7138 48.0222 28.4453 48.2566 28.2237C48.4952 27.9979 48.7807 27.8849 49.1131 27.8849C49.4455 27.8849 49.7289 27.9979 49.9633 28.2237C50.2019 28.4453 50.3212 28.7138 50.3212 29.0291C50.3212 29.3402 50.2019 29.6087 49.9633 29.8345C49.7289 30.0561 49.4455 30.1669 49.1131 30.1669ZM54.1276 28.4091V41.5H52.2163V28.4091H54.1276ZM60.8679 31.6818V33.2159H55.5049V31.6818H60.8679ZM56.9432 29.3295H58.8544V38.6172C58.8544 38.9879 58.9098 39.267 59.0206 39.4545C59.1314 39.6378 59.2741 39.7635 59.4488 39.8317C59.6278 39.8956 59.8217 39.9276 60.0305 39.9276C60.1839 39.9276 60.3182 39.9169 60.4332 39.8956C60.5483 39.8743 60.6378 39.8572 60.7017 39.8445L61.0468 41.4233C60.936 41.4659 60.7784 41.5085 60.5738 41.5511C60.3693 41.598 60.1136 41.6236 59.8068 41.6278C59.3039 41.6364 58.8352 41.5469 58.4005 41.3594C57.9659 41.1719 57.6143 40.8821 57.3459 40.4901C57.0774 40.098 56.9432 39.6058 56.9432 39.0135V29.3295ZM66.6941 41.6982C65.7268 41.6982 64.8937 41.4915 64.1948 41.0781C63.5002 40.6605 62.9633 40.0746 62.584 39.3203C62.209 38.5618 62.0215 37.6733 62.0215 36.6548C62.0215 35.6491 62.209 34.7628 62.584 33.9957C62.9633 33.2287 63.4917 32.63 64.1692 32.1996C64.8511 31.7692 65.6479 31.554 66.5599 31.554C67.1138 31.554 67.6508 31.6456 68.1707 31.8288C68.6905 32.0121 69.1572 32.2997 69.5705 32.6918C69.9839 33.0838 70.3099 33.593 70.5485 34.2195C70.7871 34.8416 70.9065 35.598 70.9065 36.4886V37.1662H63.1018V35.7344H69.0336C69.0336 35.2315 68.9313 34.7862 68.7268 34.3984C68.5222 34.0064 68.2346 33.6974 67.8638 33.4716C67.4974 33.2457 67.067 33.1328 66.5727 33.1328C66.0357 33.1328 65.567 33.2649 65.1664 33.5291C64.7701 33.7891 64.4633 34.13 64.2459 34.5518C64.0329 34.9695 63.9263 35.4233 63.9263 35.9134V37.032C63.9263 37.6882 64.0414 38.2464 64.2715 38.7067C64.5059 39.1669 64.8319 39.5185 65.2495 39.7614C65.6671 40 66.155 40.1193 66.7133 40.1193C67.0755 40.1193 67.4057 40.0682 67.704 39.9659C68.0023 39.8594 68.2602 39.7017 68.4775 39.4929C68.6948 39.2841 68.861 39.0263 68.9761 38.7195L70.785 39.0455C70.6401 39.5781 70.3802 40.0447 70.0052 40.4453C69.6344 40.8416 69.1678 41.1506 68.6053 41.3722C68.0471 41.5895 67.41 41.6982 66.6941 41.6982ZM72.613 41.5V31.6818H74.4603V33.2415H74.5626C74.7416 32.7131 75.0569 32.2976 75.5086 31.995C75.9646 31.6882 76.4802 31.5348 77.0555 31.5348C77.1748 31.5348 77.3154 31.5391 77.4774 31.5476C77.6436 31.5561 77.7735 31.5668 77.8673 31.5795V33.4077C77.7906 33.3864 77.6542 33.3629 77.4582 33.3374C77.2622 33.3075 77.0661 33.2926 76.8701 33.2926C76.4184 33.2926 76.0157 33.3885 75.662 33.5803C75.3126 33.7678 75.0356 34.0298 74.8311 34.3665C74.6265 34.6989 74.5242 35.0781 74.5242 35.5043V41.5H72.613ZM80.3665 41.6214C80.017 41.6214 79.7166 41.4979 79.4652 41.2507C79.2138 40.9993 79.088 40.6967 79.088 40.343C79.088 39.9936 79.2138 39.6953 79.4652 39.4482C79.7166 39.1967 80.017 39.071 80.3665 39.071C80.7159 39.071 81.0163 39.1967 81.2677 39.4482C81.5192 39.6953 81.6449 39.9936 81.6449 40.343C81.6449 40.5774 81.5852 40.7926 81.4659 40.9886C81.3508 41.1804 81.1974 41.3338 81.0057 41.4489C80.8139 41.5639 80.6008 41.6214 80.3665 41.6214ZM80.3665 34.4751C80.017 34.4751 79.7166 34.3494 79.4652 34.098C79.2138 33.8466 79.088 33.5462 79.088 33.1967C79.088 32.8473 79.2138 32.549 79.4652 32.3018C79.7166 32.0504 80.017 31.9247 80.3665 31.9247C80.7159 31.9247 81.0163 32.0504 81.2677 32.3018C81.5192 32.549 81.6449 32.8473 81.6449 33.1967C81.6449 33.4311 81.5852 33.6463 81.4659 33.8423C81.3508 34.0341 81.1974 34.1875 81.0057 34.3026C80.8139 34.4176 80.6008 34.4751 80.3665 34.4751ZM46.1871 82.4091V95.5H44.2759V82.4091H46.1871ZM52.5758 95.6982C51.6085 95.6982 50.7754 95.4915 50.0766 95.0781C49.382 94.6605 48.845 94.0746 48.4658 93.3203C48.0908 92.5618 47.9033 91.6733 47.9033 90.6548C47.9033 89.6491 48.0908 88.7628 48.4658 87.9957C48.845 87.2287 49.3734 86.63 50.051 86.1996C50.7328 85.7692 51.5297 85.554 52.4416 85.554C52.9956 85.554 53.5325 85.6456 54.0524 85.8288C54.5723 86.0121 55.0389 86.2997 55.4523 86.6918C55.8656 87.0838 56.1916 87.593 56.4302 88.2195C56.6689 88.8416 56.7882 89.598 56.7882 90.4886V91.1662H48.9835V89.7344H54.9153C54.9153 89.2315 54.8131 88.7862 54.6085 88.3984C54.404 88.0064 54.1163 87.6974 53.7456 87.4716C53.3791 87.2457 52.9487 87.1328 52.4544 87.1328C51.9175 87.1328 51.4487 87.2649 51.0481 87.5291C50.6518 87.7891 50.345 88.13 50.1277 88.5518C49.9146 88.9695 49.8081 89.4233 49.8081 89.9134V91.032C49.8081 91.6882 49.9231 92.2464 50.1533 92.7067C50.3876 93.1669 50.7136 93.5185 51.1312 93.7614C51.5489 94 52.0368 94.1193 52.595 94.1193C52.9572 94.1193 53.2875 94.0682 53.5858 93.9659C53.8841 93.8594 54.1419 93.7017 54.3592 93.4929C54.5766 93.2841 54.7427 93.0263 54.8578 92.7195L56.6668 93.0455C56.5219 93.5781 56.2619 94.0447 55.8869 94.4453C55.5162 94.8416 55.0496 95.1506 54.4871 95.3722C53.9288 95.5895 53.2918 95.6982 52.5758 95.6982ZM66.6127 85.6818L63.0523 95.5H61.0068L57.4401 85.6818H59.4919L61.9784 93.2372H62.0807L64.5608 85.6818H66.6127ZM71.8924 95.6982C70.925 95.6982 70.0919 95.4915 69.3931 95.0781C68.6985 94.6605 68.1615 94.0746 67.7823 93.3203C67.4073 92.5618 67.2198 91.6733 67.2198 90.6548C67.2198 89.6491 67.4073 88.7628 67.7823 87.9957C68.1615 87.2287 68.69 86.63 69.3675 86.1996C70.0493 85.7692 70.8462 85.554 71.7581 85.554C72.3121 85.554 72.849 85.6456 73.3689 85.8288C73.8888 86.0121 74.3554 86.2997 74.7688 86.6918C75.1821 87.0838 75.5081 87.593 75.7468 88.2195C75.9854 88.8416 76.1047 89.598 76.1047 90.4886V91.1662H68.3V89.7344H74.2319C74.2319 89.2315 74.1296 88.7862 73.925 88.3984C73.7205 88.0064 73.4329 87.6974 73.0621 87.4716C72.6956 87.2457 72.2652 87.1328 71.7709 87.1328C71.234 87.1328 70.7652 87.2649 70.3647 87.5291C69.9684 87.7891 69.6615 88.13 69.4442 88.5518C69.2312 88.9695 69.1246 89.4233 69.1246 89.9134V91.032C69.1246 91.6882 69.2397 92.2464 69.4698 92.7067C69.7042 93.1669 70.0302 93.5185 70.4478 93.7614C70.8654 94 71.3533 94.1193 71.9115 94.1193C72.2738 94.1193 72.604 94.0682 72.9023 93.9659C73.2006 93.8594 73.4584 93.7017 73.6758 93.4929C73.8931 93.2841 74.0593 93.0263 74.1743 92.7195L75.9833 93.0455C75.8384 93.5781 75.5785 94.0447 75.2035 94.4453C74.8327 94.8416 74.3661 95.1506 73.8036 95.3722C73.2454 95.5895 72.6083 95.6982 71.8924 95.6982ZM79.7225 82.4091V95.5H77.8113V82.4091H79.7225ZM47.6532 139.848C47.585 139.243 47.3038 138.774 46.8095 138.442C46.3152 138.105 45.693 137.937 44.943 137.937C44.4061 137.937 43.9416 138.022 43.5495 138.192C43.1575 138.359 42.8528 138.589 42.6355 138.883C42.4224 139.173 42.3159 139.503 42.3159 139.874C42.3159 140.185 42.3883 140.453 42.5332 140.679C42.6823 140.905 42.8762 141.094 43.1149 141.248C43.3578 141.397 43.6177 141.523 43.8947 141.625C44.1717 141.723 44.438 141.804 44.6937 141.868L45.9721 142.2C46.3897 142.303 46.818 142.441 47.2569 142.616C47.6958 142.79 48.1028 143.021 48.4778 143.306C48.8528 143.592 49.1554 143.945 49.3855 144.367C49.6198 144.789 49.737 145.294 49.737 145.882C49.737 146.624 49.5453 147.282 49.1617 147.857C48.7825 148.433 48.2306 148.886 47.5062 149.219C46.786 149.551 45.9146 149.717 44.8919 149.717C43.9117 149.717 43.0637 149.562 42.3478 149.251C41.6319 148.94 41.0716 148.499 40.6667 147.928C40.2619 147.352 40.0382 146.67 39.9956 145.882H41.9771C42.0154 146.355 42.1689 146.749 42.4373 147.065C42.71 147.376 43.0573 147.608 43.4792 147.761C43.9054 147.911 44.372 147.985 44.8791 147.985C45.4373 147.985 45.9338 147.898 46.3684 147.723C46.8073 147.544 47.1525 147.297 47.4039 146.982C47.6554 146.662 47.7811 146.289 47.7811 145.863C47.7811 145.475 47.6703 145.158 47.4487 144.911C47.2314 144.663 46.9352 144.459 46.5602 144.297C46.1894 144.135 45.7697 143.992 45.301 143.869L43.7541 143.447C42.7058 143.161 41.8748 142.741 41.2612 142.188C40.6518 141.634 40.3471 140.901 40.3471 139.989C40.3471 139.234 40.5517 138.576 40.9608 138.013C41.3698 137.451 41.9238 137.014 42.6227 136.703C43.3216 136.388 44.1099 136.23 44.9877 136.23C45.8741 136.23 46.6561 136.386 47.3336 136.697C48.0154 137.008 48.5524 137.436 48.9444 137.982C49.3365 138.523 49.541 139.145 49.5581 139.848H47.6532ZM51.6833 149.5V136.409H59.8907V138.109H53.6584V142.098H59.4624V143.792H53.6584V147.8H59.9674V149.5H51.6833ZM62.115 136.409H64.512L68.6796 146.585H68.833L73.0007 136.409H75.3977V149.5H73.5184V140.027H73.397L69.5362 149.481H67.9765L64.1157 140.021H63.9943V149.5H62.115V136.409ZM82.6429 136.409V149.5H80.6614V138.391H80.5847L77.4526 140.436V138.544L80.7189 136.409H82.6429ZM46.3876 193.848C46.3194 193.243 46.0382 192.774 45.5439 192.442C45.0495 192.105 44.4274 191.937 43.6774 191.937C43.1404 191.937 42.676 192.022 42.2839 192.192C41.8919 192.359 41.5872 192.589 41.3698 192.883C41.1568 193.173 41.0502 193.503 41.0502 193.874C41.0502 194.185 41.1227 194.453 41.2676 194.679C41.4167 194.905 41.6106 195.094 41.8492 195.248C42.0921 195.397 42.3521 195.523 42.6291 195.625C42.9061 195.723 43.1724 195.804 43.4281 195.868L44.7065 196.2C45.1241 196.303 45.5524 196.441 45.9913 196.616C46.4302 196.79 46.8372 197.021 47.2122 197.306C47.5872 197.592 47.8897 197.945 48.1198 198.367C48.3542 198.789 48.4714 199.294 48.4714 199.882C48.4714 200.624 48.2796 201.282 47.8961 201.857C47.5169 202.433 46.965 202.886 46.2406 203.219C45.5204 203.551 44.649 203.717 43.6262 203.717C42.6461 203.717 41.7981 203.562 41.0822 203.251C40.3663 202.94 39.8059 202.499 39.4011 201.928C38.9963 201.352 38.7725 200.67 38.7299 199.882H40.7115C40.7498 200.355 40.9032 200.749 41.1717 201.065C41.4444 201.376 41.7917 201.608 42.2136 201.761C42.6397 201.911 43.1064 201.985 43.6135 201.985C44.1717 201.985 44.6681 201.898 45.1028 201.723C45.5417 201.544 45.8869 201.297 46.1383 200.982C46.3897 200.662 46.5154 200.289 46.5154 199.863C46.5154 199.475 46.4046 199.158 46.1831 198.911C45.9657 198.663 45.6696 198.459 45.2946 198.297C44.9238 198.135 44.5041 197.992 44.0353 197.869L42.4885 197.447C41.4402 197.161 40.6092 196.741 39.9956 196.188C39.3862 195.634 39.0815 194.901 39.0815 193.989C39.0815 193.234 39.286 192.576 39.6951 192.013C40.1042 191.451 40.6582 191.014 41.3571 190.703C42.0559 190.388 42.8443 190.23 43.7221 190.23C44.6085 190.23 45.3904 190.386 46.068 190.697C46.7498 191.008 47.2867 191.436 47.6788 191.982C48.0708 192.523 48.2754 193.145 48.2924 193.848H46.3876ZM50.4177 203.5V190.409H58.6251V192.109H52.3928V196.098H58.1968V197.792H52.3928V201.8H58.7018V203.5H50.4177ZM60.8494 190.409H63.2464L67.414 200.585H67.5674L71.735 190.409H74.132V203.5H72.2528V194.027H72.1313L68.2705 203.481H66.7109L62.8501 194.021H62.7286V203.5H60.8494V190.409ZM76.4107 203.5V202.068L80.8404 197.479C81.3134 196.98 81.7033 196.543 82.0101 196.168C82.3212 195.789 82.5534 195.429 82.7069 195.088C82.8603 194.747 82.937 194.385 82.937 194.001C82.937 193.567 82.8347 193.192 82.6302 192.876C82.4256 192.557 82.1465 192.312 81.7928 192.141C81.4391 191.967 81.0407 191.879 80.5975 191.879C80.1287 191.879 79.7196 191.975 79.3702 192.167C79.0208 192.359 78.7523 192.629 78.5648 192.979C78.3773 193.328 78.2836 193.737 78.2836 194.206H76.3979C76.3979 193.409 76.5811 192.712 76.9476 192.116C77.3141 191.519 77.8169 191.057 78.4561 190.729C79.0954 190.396 79.8219 190.23 80.6358 190.23C81.4583 190.23 82.1827 190.394 82.8091 190.722C83.4398 191.046 83.932 191.489 84.2857 192.052C84.6394 192.61 84.8162 193.241 84.8162 193.944C84.8162 194.43 84.7246 194.905 84.5414 195.369C84.3624 195.834 84.0492 196.352 83.6017 196.923C83.1543 197.489 82.5321 198.178 81.7353 198.987L79.1337 201.71V201.806H85.0272V203.5H76.4107ZM54.3305 248.666H52.3362C52.2595 248.24 52.1167 247.865 51.9079 247.541C51.6991 247.217 51.4434 246.942 51.1409 246.717C50.8383 246.491 50.4996 246.32 50.1246 246.205C49.7538 246.09 49.3596 246.033 48.942 246.033C48.1878 246.033 47.5123 246.222 46.9157 246.602C46.3234 246.981 45.8547 247.537 45.5095 248.27C45.1686 249.003 44.9981 249.898 44.9981 250.955C44.9981 252.02 45.1686 252.919 45.5095 253.652C45.8547 254.385 46.3255 254.939 46.9221 255.314C47.5187 255.689 48.1899 255.876 48.9356 255.876C49.349 255.876 49.741 255.821 50.1118 255.71C50.4868 255.595 50.8255 255.427 51.1281 255.205C51.4307 254.984 51.6863 254.713 51.8951 254.393C52.1082 254.07 52.2552 253.699 52.3362 253.281L54.3305 253.288C54.224 253.931 54.0173 254.523 53.7105 255.065C53.4079 255.602 53.018 256.066 52.5407 256.458C52.0677 256.846 51.5265 257.146 50.9172 257.359C50.3078 257.572 49.643 257.679 48.9228 257.679C47.7893 257.679 46.7794 257.411 45.893 256.874C45.0067 256.332 44.3078 255.559 43.7964 254.553C43.2893 253.548 43.0358 252.348 43.0358 250.955C43.0358 249.557 43.2915 248.357 43.8028 247.356C44.3142 246.35 45.013 245.579 45.8994 245.042C46.7858 244.501 47.7936 244.23 48.9228 244.23C49.6174 244.23 50.2652 244.33 50.866 244.531C51.4711 244.727 52.0145 245.016 52.496 245.4C52.9775 245.779 53.376 246.244 53.6913 246.793C54.0067 247.339 54.2197 247.963 54.3305 248.666ZM60.2622 257.698C59.3418 257.698 58.5385 257.487 57.8524 257.065C57.1663 256.643 56.6337 256.053 56.2544 255.295C55.8751 254.536 55.6855 253.65 55.6855 252.636C55.6855 251.617 55.8751 250.727 56.2544 249.964C56.6337 249.201 57.1663 248.609 57.8524 248.187C58.5385 247.765 59.3418 247.554 60.2622 247.554C61.1827 247.554 61.9859 247.765 62.672 248.187C63.3581 248.609 63.8908 249.201 64.27 249.964C64.6493 250.727 64.8389 251.617 64.8389 252.636C64.8389 253.65 64.6493 254.536 64.27 255.295C63.8908 256.053 63.3581 256.643 62.672 257.065C61.9859 257.487 61.1827 257.698 60.2622 257.698ZM60.2686 256.094C60.8652 256.094 61.3595 255.936 61.7516 255.621C62.1436 255.305 62.4334 254.886 62.6209 254.362C62.8126 253.837 62.9085 253.26 62.9085 252.629C62.9085 252.003 62.8126 251.428 62.6209 250.903C62.4334 250.375 62.1436 249.951 61.7516 249.631C61.3595 249.312 60.8652 249.152 60.2686 249.152C59.6678 249.152 59.1692 249.312 58.7729 249.631C58.3808 249.951 58.0889 250.375 57.8972 250.903C57.7097 251.428 57.6159 252.003 57.6159 252.629C57.6159 253.26 57.7097 253.837 57.8972 254.362C58.0889 254.886 58.3808 255.305 58.7729 255.621C59.1692 255.936 59.6678 256.094 60.2686 256.094ZM66.5583 257.5V247.682H68.4056V249.241H68.5078C68.6868 248.713 69.0022 248.298 69.4539 247.995C69.9098 247.688 70.4255 247.535 71.0007 247.535C71.1201 247.535 71.2607 247.539 71.4226 247.548C71.5888 247.556 71.7188 247.567 71.8125 247.58V249.408C71.7358 249.386 71.5995 249.363 71.4034 249.337C71.2074 249.308 71.0114 249.293 70.8154 249.293C70.3637 249.293 69.961 249.388 69.6073 249.58C69.2578 249.768 68.9809 250.03 68.7763 250.366C68.5718 250.699 68.4695 251.078 68.4695 251.504V257.5H66.5583ZM76.9324 257.698C75.9651 257.698 75.132 257.491 74.4332 257.078C73.7386 256.661 73.2016 256.075 72.8224 255.32C72.4474 254.562 72.2599 253.673 72.2599 252.655C72.2599 251.649 72.4474 250.763 72.8224 249.996C73.2016 249.229 73.73 248.63 74.4076 248.2C75.0894 247.769 75.8863 247.554 76.7982 247.554C77.3522 247.554 77.8891 247.646 78.409 247.829C78.9289 248.012 79.3955 248.3 79.8089 248.692C80.2222 249.084 80.5482 249.593 80.7868 250.219C81.0255 250.842 81.1448 251.598 81.1448 252.489V253.166H73.3401V251.734H79.2719C79.2719 251.232 79.1697 250.786 78.9651 250.398C78.7606 250.006 78.4729 249.697 78.1022 249.472C77.7357 249.246 77.3053 249.133 76.811 249.133C76.2741 249.133 75.8053 249.265 75.4047 249.529C75.0084 249.789 74.7016 250.13 74.4843 250.552C74.2712 250.969 74.1647 251.423 74.1647 251.913V253.032C74.1647 253.688 74.2797 254.246 74.5099 254.707C74.7442 255.167 75.0702 255.518 75.4878 255.761C75.9055 256 76.3934 256.119 76.9516 256.119C77.3138 256.119 77.6441 256.068 77.9424 255.966C78.2407 255.859 78.4985 255.702 78.7158 255.493C78.9332 255.284 79.0993 255.026 79.2144 254.719L81.0234 255.045C80.8785 255.578 80.6185 256.045 80.2435 256.445C79.8728 256.842 79.4062 257.151 78.8437 257.372C78.2854 257.589 77.6484 257.698 76.9324 257.698ZM22.2563 311.5V298.409H30.3742V300.109H24.2315V304.098H29.7925V305.792H24.2315V311.5H22.2563ZM35.6507 311.698C34.7303 311.698 33.927 311.487 33.2409 311.065C32.5549 310.643 32.0222 310.053 31.6429 309.295C31.2637 308.536 31.074 307.65 31.074 306.636C31.074 305.617 31.2637 304.727 31.6429 303.964C32.0222 303.201 32.5549 302.609 33.2409 302.187C33.927 301.765 34.7303 301.554 35.6507 301.554C36.5712 301.554 37.3745 301.765 38.0605 302.187C38.7466 302.609 39.2793 303.201 39.6585 303.964C40.0378 304.727 40.2274 305.617 40.2274 306.636C40.2274 307.65 40.0378 308.536 39.6585 309.295C39.2793 310.053 38.7466 310.643 38.0605 311.065C37.3745 311.487 36.5712 311.698 35.6507 311.698ZM35.6571 310.094C36.2537 310.094 36.748 309.936 37.1401 309.621C37.5321 309.305 37.8219 308.886 38.0094 308.362C38.2012 307.837 38.297 307.26 38.297 306.629C38.297 306.003 38.2012 305.428 38.0094 304.903C37.8219 304.375 37.5321 303.951 37.1401 303.631C36.748 303.312 36.2537 303.152 35.6571 303.152C35.0563 303.152 34.5577 303.312 34.1614 303.631C33.7693 303.951 33.4774 304.375 33.2857 304.903C33.0982 305.428 33.0044 306.003 33.0044 306.629C33.0044 307.26 33.0982 307.837 33.2857 308.362C33.4774 308.886 33.7693 309.305 34.1614 309.621C34.5577 309.936 35.0563 310.094 35.6571 310.094ZM48.1662 307.428V301.682H50.0839V311.5H48.2046V309.8H48.1023C47.8765 310.324 47.5143 310.761 47.0157 311.11C46.5214 311.455 45.9056 311.628 45.1684 311.628C44.5377 311.628 43.9795 311.489 43.4937 311.212C43.0121 310.931 42.6329 310.516 42.3559 309.966C42.0831 309.416 41.9468 308.737 41.9468 307.927V301.682H43.858V307.697C43.858 308.366 44.0434 308.898 44.4141 309.295C44.7849 309.691 45.2664 309.889 45.8587 309.889C46.2167 309.889 46.5725 309.8 46.9262 309.621C47.2841 309.442 47.5803 309.171 47.8147 308.809C48.0533 308.447 48.1705 307.987 48.1662 307.428ZM54.1491 305.67V311.5H52.2379V301.682H54.0724V303.28H54.1938C54.4197 302.76 54.7734 302.342 55.2549 302.027C55.7407 301.712 56.3522 301.554 57.0894 301.554C57.7585 301.554 58.3444 301.695 58.8472 301.976C59.3501 302.253 59.74 302.666 60.017 303.216C60.294 303.766 60.4325 304.445 60.4325 305.255V311.5H58.5212V305.485C58.5212 304.773 58.3359 304.217 57.9651 303.817C57.5944 303.412 57.0852 303.21 56.4374 303.21C55.9943 303.21 55.6001 303.305 55.2549 303.497C54.914 303.689 54.6434 303.97 54.4431 304.341C54.2471 304.707 54.1491 305.151 54.1491 305.67ZM66.2571 311.692C65.4645 311.692 64.7571 311.489 64.1349 311.085C63.517 310.675 63.0313 310.094 62.6776 309.339C62.3281 308.581 62.1534 307.671 62.1534 306.61C62.1534 305.549 62.3303 304.641 62.6839 303.887C63.0419 303.133 63.532 302.555 64.1541 302.155C64.7763 301.754 65.4815 301.554 66.2699 301.554C66.8793 301.554 67.3693 301.656 67.7401 301.861C68.1151 302.061 68.4048 302.295 68.6094 302.564C68.8182 302.832 68.9801 303.069 69.0952 303.273H69.2102V298.409H71.1214V311.5H69.255V309.972H69.0952C68.9801 310.181 68.8139 310.42 68.5966 310.688C68.3835 310.957 68.0895 311.191 67.7145 311.391C67.3395 311.592 66.8537 311.692 66.2571 311.692ZM66.679 310.062C67.2287 310.062 67.6932 309.917 68.0724 309.627C68.456 309.333 68.7457 308.926 68.9418 308.406C69.142 307.886 69.2422 307.281 69.2422 306.591C69.2422 305.909 69.1442 305.312 68.9482 304.801C68.7521 304.29 68.4645 303.891 68.0852 303.606C67.706 303.32 67.2372 303.178 66.679 303.178C66.1037 303.178 65.6243 303.327 65.2408 303.625C64.8572 303.923 64.5675 304.33 64.3714 304.846C64.1797 305.362 64.0838 305.943 64.0838 306.591C64.0838 307.247 64.1818 307.837 64.3778 308.362C64.5739 308.886 64.8636 309.301 65.2472 309.608C65.6349 309.911 66.1122 310.062 66.679 310.062ZM76.2925 311.717C75.6703 311.717 75.1078 311.602 74.605 311.372C74.1022 311.138 73.7037 310.799 73.4097 310.356C73.1199 309.913 72.975 309.369 72.975 308.726C72.975 308.172 73.0816 307.716 73.2946 307.358C73.5077 307 73.7953 306.717 74.1576 306.508C74.5198 306.299 74.9246 306.141 75.372 306.035C75.8195 305.928 76.2755 305.847 76.7399 305.792C77.328 305.724 77.8053 305.668 78.1718 305.626C78.5382 305.579 78.8046 305.504 78.9708 305.402C79.137 305.3 79.2201 305.134 79.2201 304.903V304.859C79.2201 304.3 79.0624 303.868 78.747 303.561C78.436 303.254 77.9715 303.101 77.3536 303.101C76.7101 303.101 76.203 303.244 75.8323 303.529C75.4658 303.81 75.2122 304.124 75.0716 304.469L73.2755 304.06C73.4885 303.463 73.7996 302.982 74.2087 302.615C74.622 302.244 75.0972 301.976 75.6341 301.81C76.171 301.639 76.7357 301.554 77.328 301.554C77.7201 301.554 78.1355 301.601 78.5745 301.695C79.0176 301.784 79.431 301.95 79.8145 302.193C80.2023 302.436 80.5198 302.783 80.7669 303.235C81.0141 303.683 81.1377 304.264 81.1377 304.98V311.5H79.2712V310.158H79.1945C79.0709 310.405 78.8855 310.648 78.6384 310.886C78.3912 311.125 78.0737 311.323 77.686 311.481C77.2982 311.638 76.8337 311.717 76.2925 311.717ZM76.708 310.183C77.2364 310.183 77.6881 310.079 78.0631 309.87C78.4424 309.661 78.73 309.388 78.926 309.052C79.1263 308.711 79.2264 308.347 79.2264 307.959V306.693C79.1583 306.761 79.0262 306.825 78.8301 306.885C78.6384 306.94 78.4189 306.989 78.1718 307.032C77.9246 307.07 77.6838 307.107 77.4495 307.141C77.2151 307.17 77.0191 307.196 76.8614 307.217C76.4907 307.264 76.1519 307.343 75.8451 307.454C75.5425 307.565 75.2996 307.724 75.1164 307.933C74.9374 308.138 74.8479 308.411 74.8479 308.751C74.8479 309.224 75.0226 309.582 75.372 309.825C75.7215 310.064 76.1668 310.183 76.708 310.183ZM87.8524 301.682V303.216H82.4895V301.682H87.8524ZM83.9277 299.33H85.8389V308.617C85.8389 308.988 85.8943 309.267 86.0051 309.455C86.1159 309.638 86.2586 309.763 86.4334 309.832C86.6123 309.896 86.8062 309.928 87.015 309.928C87.1684 309.928 87.3027 309.917 87.4177 309.896C87.5328 309.874 87.6223 309.857 87.6862 309.844L88.0314 311.423C87.9206 311.466 87.7629 311.509 87.5584 311.551C87.3538 311.598 87.0981 311.624 86.7913 311.628C86.2885 311.636 85.8197 311.547 85.3851 311.359C84.9504 311.172 84.5988 310.882 84.3304 310.49C84.0619 310.098 83.9277 309.606 83.9277 309.013V299.33ZM89.5526 311.5V301.682H91.4638V311.5H89.5526ZM90.5178 300.167C90.1854 300.167 89.8999 300.056 89.6612 299.835C89.4269 299.609 89.3097 299.34 89.3097 299.029C89.3097 298.714 89.4269 298.445 89.6612 298.224C89.8999 297.998 90.1854 297.885 90.5178 297.885C90.8501 297.885 91.1335 297.998 91.3679 298.224C91.6065 298.445 91.7259 298.714 91.7259 299.029C91.7259 299.34 91.6065 299.609 91.3679 299.835C91.1335 300.056 90.8501 300.167 90.5178 300.167ZM97.7566 311.698C96.8362 311.698 96.0329 311.487 95.3468 311.065C94.6608 310.643 94.1281 310.053 93.7488 309.295C93.3696 308.536 93.1799 307.65 93.1799 306.636C93.1799 305.617 93.3696 304.727 93.7488 303.964C94.1281 303.201 94.6608 302.609 95.3468 302.187C96.0329 301.765 96.8362 301.554 97.7566 301.554C98.6771 301.554 99.4804 301.765 100.166 302.187C100.853 302.609 101.385 303.201 101.764 303.964C102.144 304.727 102.333 305.617 102.333 306.636C102.333 307.65 102.144 308.536 101.764 309.295C101.385 310.053 100.853 310.643 100.166 311.065C99.4804 311.487 98.6771 311.698 97.7566 311.698ZM97.763 310.094C98.3596 310.094 98.8539 309.936 99.246 309.621C99.638 309.305 99.9278 308.886 100.115 308.362C100.307 307.837 100.403 307.26 100.403 306.629C100.403 306.003 100.307 305.428 100.115 304.903C99.9278 304.375 99.638 303.951 99.246 303.631C98.8539 303.312 98.3596 303.152 97.763 303.152C97.1622 303.152 96.6636 303.312 96.2673 303.631C95.8753 303.951 95.5833 304.375 95.3916 304.903C95.2041 305.428 95.1103 306.003 95.1103 306.629C95.1103 307.26 95.2041 307.837 95.3916 308.362C95.5833 308.886 95.8753 309.305 96.2673 309.621C96.6636 309.936 97.1622 310.094 97.763 310.094ZM59.8171 332.67V338.5H57.9059V328.682H59.7404V330.28H59.8619C60.0877 329.76 60.4414 329.342 60.9229 329.027C61.4087 328.712 62.0202 328.554 62.7575 328.554C63.4265 328.554 64.0124 328.695 64.5153 328.976C65.0181 329.253 65.408 329.666 65.685 330.216C65.962 330.766 66.1005 331.445 66.1005 332.255V338.5H64.1893V332.485C64.1893 331.773 64.0039 331.217 63.6332 330.817C63.2624 330.412 62.7532 330.21 62.1055 330.21C61.6623 330.21 61.2681 330.305 60.9229 330.497C60.582 330.689 60.3114 330.97 60.1112 331.341C59.9151 331.707 59.8171 332.151 59.8171 332.67ZM57.3116 365.621C56.9621 365.621 56.6617 365.498 56.4103 365.251C56.1589 364.999 56.0331 364.697 56.0331 364.343C56.0331 363.994 56.1589 363.695 56.4103 363.448C56.6617 363.197 56.9621 363.071 57.3116 363.071C57.661 363.071 57.9614 363.197 58.2128 363.448C58.4643 363.695 58.59 363.994 58.59 364.343C58.59 364.577 58.5303 364.793 58.411 364.989C58.2959 365.18 58.1425 365.334 57.9508 365.449C57.759 365.564 57.5459 365.621 57.3116 365.621ZM61.9952 365.621C61.6458 365.621 61.3453 365.498 61.0939 365.251C60.8425 364.999 60.7168 364.697 60.7168 364.343C60.7168 363.994 60.8425 363.695 61.0939 363.448C61.3453 363.197 61.6458 363.071 61.9952 363.071C62.3446 363.071 62.6451 363.197 62.8965 363.448C63.1479 363.695 63.2736 363.994 63.2736 364.343C63.2736 364.577 63.214 364.793 63.0946 364.989C62.9796 365.18 62.8262 365.334 62.6344 365.449C62.4426 365.564 62.2296 365.621 61.9952 365.621ZM66.6789 365.621C66.3294 365.621 66.029 365.498 65.7776 365.251C65.5262 364.999 65.4005 364.697 65.4005 364.343C65.4005 363.994 65.5262 363.695 65.7776 363.448C66.029 363.197 66.3294 363.071 66.6789 363.071C67.0283 363.071 67.3287 363.197 67.5801 363.448C67.8316 363.695 67.9573 363.994 67.9573 364.343C67.9573 364.577 67.8976 364.793 67.7783 364.989C67.6632 365.18 67.5098 365.334 67.3181 365.449C67.1263 365.564 66.9132 365.621 66.6789 365.621ZM71.7957 365.621C71.4463 365.621 71.1458 365.498 70.8944 365.251C70.643 364.999 70.5173 364.697 70.5173 364.343C70.5173 363.994 70.643 363.695 70.8944 363.448C71.1458 363.197 71.4463 363.071 71.7957 363.071C72.1451 363.071 72.4456 363.197 72.697 363.448C72.9484 363.695 73.0741 363.994 73.0741 364.343C73.0741 364.577 73.0144 364.793 72.8951 364.989C72.7801 365.18 72.6267 365.334 72.4349 365.449C72.2431 365.564 72.0301 365.621 71.7957 365.621ZM76.5706 365.621C76.2211 365.621 75.9207 365.498 75.6693 365.251C75.4179 364.999 75.2921 364.697 75.2921 364.343C75.2921 363.994 75.4179 363.695 75.6693 363.448C75.9207 363.197 76.2211 363.071 76.5706 363.071C76.92 363.071 77.2204 363.197 77.4718 363.448C77.7233 363.695 77.849 363.994 77.849 364.343C77.849 364.577 77.7893 364.793 77.67 364.989C77.5549 365.18 77.4015 365.334 77.2098 365.449C77.018 365.564 76.8049 365.621 76.5706 365.621ZM81.3518 365.621C81.0024 365.621 80.7019 365.498 80.4505 365.251C80.1991 364.999 80.0734 364.697 80.0734 364.343C80.0734 363.994 80.1991 363.695 80.4505 363.448C80.7019 363.197 81.0024 363.071 81.3518 363.071C81.7012 363.071 82.0017 363.197 82.2531 363.448C82.5045 363.695 82.6302 363.994 82.6302 364.343C82.6302 364.577 82.5706 364.793 82.4512 364.989C82.3362 365.18 82.1828 365.334 81.991 365.449C81.7992 365.564 81.5862 365.621 81.3518 365.621Z" fill="black" fill-opacity="0.8"/>
</svg>
