<svg width="156" height="41" viewBox="0 0 156 41" fill="none" xmlns="http://www.w3.org/2000/svg">
<rect x="2" y="2" width="152" height="37" rx="14.8" fill="#14AE5C" stroke="#108B4A" stroke-width="4" stroke-miterlimit="0" stroke-linecap="round"/>
<path d="M45.2456 17.848C45.1774 17.2429 44.8962 16.7741 44.4019 16.4418C43.9076 16.1051 43.2854 15.9368 42.5354 15.9368C41.9985 15.9368 41.534 16.022 41.1419 16.1925C40.7499 16.3587 40.4452 16.5888 40.2279 16.8828C40.0148 17.1726 39.9083 17.5028 39.9083 17.8736C39.9083 18.1847 39.9807 18.4531 40.1256 18.679C40.2747 18.9048 40.4686 19.0945 40.7073 19.2479C40.9502 19.397 41.2101 19.5227 41.4871 19.625C41.7641 19.723 42.0304 19.804 42.2861 19.8679L43.5645 20.2003C43.9821 20.3026 44.4104 20.4411 44.8493 20.6158C45.2882 20.7905 45.6952 21.0206 46.0702 21.3061C46.4452 21.5916 46.7478 21.9453 46.9779 22.3672C47.2122 22.7891 47.3294 23.294 47.3294 23.8821C47.3294 24.6236 47.1377 25.282 46.7541 25.8572C46.3749 26.4325 45.823 26.8864 45.0986 27.2188C44.3784 27.5511 43.507 27.7173 42.4843 27.7173C41.5041 27.7173 40.6561 27.5618 39.9402 27.2507C39.2243 26.9396 38.6639 26.4986 38.2591 25.9276C37.8543 25.3523 37.6306 24.6705 37.588 23.8821H39.5695C39.6078 24.3551 39.7612 24.7493 40.0297 25.0646C40.3024 25.3757 40.6497 25.608 41.0716 25.7614C41.4978 25.9105 41.9644 25.9851 42.4715 25.9851C43.0297 25.9851 43.5262 25.8977 43.9608 25.723C44.3997 25.544 44.7449 25.2969 44.9963 24.9815C45.2478 24.6619 45.3735 24.2891 45.3735 23.8629C45.3735 23.4751 45.2627 23.1577 45.0411 22.9105C44.8237 22.6634 44.5276 22.4588 44.1526 22.2969C43.7818 22.1349 43.3621 21.9922 42.8934 21.8686L41.3465 21.4467C40.2982 21.1612 39.4672 20.7415 38.8536 20.1875C38.2442 19.6335 37.9395 18.9006 37.9395 17.9886C37.9395 17.2344 38.1441 16.576 38.5532 16.0135C38.9622 15.451 39.5162 15.0142 40.2151 14.7031C40.9139 14.3878 41.7023 14.2301 42.5801 14.2301C43.4665 14.2301 44.2485 14.3857 44.926 14.6967C45.6078 15.0078 46.1448 15.4361 46.5368 15.9815C46.9289 16.5227 47.1334 17.1449 47.1505 17.848H45.2456ZM51.9975 27.7173C51.3754 27.7173 50.8129 27.6023 50.31 27.3722C49.8072 27.1378 49.4088 26.799 49.1147 26.3558C48.8249 25.9126 48.6801 25.3693 48.6801 24.7259C48.6801 24.1719 48.7866 23.7159 48.9997 23.358C49.2127 23 49.5004 22.7166 49.8626 22.5078C50.2248 22.299 50.6296 22.1413 51.0771 22.0348C51.5245 21.9283 51.9805 21.8473 52.445 21.7919C53.033 21.7237 53.5103 21.6683 53.8768 21.6257C54.2433 21.5788 54.5096 21.5043 54.6758 21.402C54.842 21.2997 54.9251 21.1335 54.9251 20.9034V20.8587C54.9251 20.3004 54.7674 19.8679 54.4521 19.5611C54.141 19.2543 53.6765 19.1009 53.0586 19.1009C52.4151 19.1009 51.908 19.2436 51.5373 19.5291C51.1708 19.8104 50.9173 20.1236 50.7766 20.4688L48.9805 20.0597C49.1936 19.4631 49.5046 18.9815 49.9137 18.6151C50.3271 18.2443 50.8022 17.9759 51.3391 17.8097C51.8761 17.6392 52.4407 17.554 53.033 17.554C53.4251 17.554 53.8406 17.6009 54.2795 17.6946C54.7227 17.7841 55.136 17.9503 55.5195 18.1932C55.9073 18.4361 56.2248 18.7834 56.472 19.2351C56.7191 19.6825 56.8427 20.2642 56.8427 20.9801V27.5H54.9762V26.1577H54.8995C54.7759 26.4048 54.5906 26.6477 54.3434 26.8864C54.0963 27.125 53.7788 27.3232 53.391 27.4808C53.0032 27.6385 52.5387 27.7173 51.9975 27.7173ZM52.413 26.1832C52.9414 26.1832 53.3931 26.0788 53.7681 25.87C54.1474 25.6612 54.435 25.3885 54.6311 25.0518C54.8313 24.7109 54.9315 24.3466 54.9315 23.9588V22.6932C54.8633 22.7614 54.7312 22.8253 54.5352 22.8849C54.3434 22.9403 54.124 22.9893 53.8768 23.032C53.6296 23.0703 53.3889 23.1065 53.1545 23.1406C52.9201 23.1705 52.7241 23.196 52.5664 23.2173C52.1957 23.2642 51.8569 23.343 51.5501 23.4538C51.2475 23.5646 51.0046 23.7244 50.8214 23.9332C50.6424 24.1378 50.5529 24.4105 50.5529 24.7514C50.5529 25.2244 50.7276 25.5824 51.0771 25.8253C51.4265 26.0639 51.8718 26.1832 52.413 26.1832ZM67.0399 17.6818L63.4795 27.5H61.4341L57.8673 17.6818H59.9192L62.4057 25.2372H62.508L64.9881 17.6818H67.0399ZM72.3376 27.6982C71.3703 27.6982 70.5372 27.4915 69.8383 27.0781C69.1437 26.6605 68.6068 26.0746 68.2275 25.3203C67.8525 24.5618 67.665 23.6733 67.665 22.6548C67.665 21.6491 67.8525 20.7628 68.2275 19.9957C68.6068 19.2287 69.1352 18.63 69.8128 18.1996C70.4946 17.7692 71.2915 17.554 72.2034 17.554C72.7574 17.554 73.2943 17.6456 73.8142 17.8288C74.3341 18.0121 74.8007 18.2997 75.2141 18.6918C75.6274 19.0838 75.9534 19.593 76.192 20.2195C76.4307 20.8416 76.55 21.598 76.55 22.4886V23.1662H68.7453V21.7344H74.6771C74.6771 21.2315 74.5748 20.7862 74.3703 20.3984C74.1658 20.0064 73.8781 19.6974 73.5074 19.4716C73.1409 19.2457 72.7105 19.1328 72.2162 19.1328C71.6793 19.1328 71.2105 19.2649 70.8099 19.5291C70.4136 19.7891 70.1068 20.13 69.8895 20.5518C69.6764 20.9695 69.5699 21.4233 69.5699 21.9134V23.032C69.5699 23.6882 69.6849 24.2464 69.915 24.7067C70.1494 25.1669 70.4754 25.5185 70.893 25.7614C71.3106 26 71.7986 26.1193 72.3568 26.1193C72.719 26.1193 73.0493 26.0682 73.3476 25.9659C73.6459 25.8594 73.9037 25.7017 74.121 25.4929C74.3383 25.2841 74.5045 25.0263 74.6196 24.7195L76.4285 25.0455C76.2837 25.5781 76.0237 26.0447 75.6487 26.4453C75.278 26.8416 74.8114 27.1506 74.2489 27.3722C73.6906 27.5895 73.0535 27.6982 72.3376 27.6982ZM85.4995 27.7173C84.8773 27.7173 84.3148 27.6023 83.812 27.3722C83.3091 27.1378 82.9107 26.799 82.6167 26.3558C82.3269 25.9126 82.182 25.3693 82.182 24.7259C82.182 24.1719 82.2885 23.7159 82.5016 23.358C82.7147 23 83.0023 22.7166 83.3645 22.5078C83.7267 22.299 84.1316 22.1413 84.579 22.0348C85.0265 21.9283 85.4824 21.8473 85.9469 21.7919C86.535 21.7237 87.0123 21.6683 87.3787 21.6257C87.7452 21.5788 88.0115 21.5043 88.1777 21.402C88.3439 21.2997 88.427 21.1335 88.427 20.9034V20.8587C88.427 20.3004 88.2694 19.8679 87.954 19.5611C87.6429 19.2543 87.1784 19.1009 86.5605 19.1009C85.9171 19.1009 85.41 19.2436 85.0392 19.5291C84.6728 19.8104 84.4192 20.1236 84.2786 20.4688L82.4824 20.0597C82.6955 19.4631 83.0066 18.9815 83.4157 18.6151C83.829 18.2443 84.3042 17.9759 84.8411 17.8097C85.378 17.6392 85.9426 17.554 86.535 17.554C86.927 17.554 87.3425 17.6009 87.7814 17.6946C88.2246 17.7841 88.638 17.9503 89.0215 18.1932C89.4093 18.4361 89.7267 18.7834 89.9739 19.2351C90.2211 19.6825 90.3446 20.2642 90.3446 20.9801V27.5H88.4782V26.1577H88.4015C88.2779 26.4048 88.0925 26.6477 87.8453 26.8864C87.5982 27.125 87.2807 27.3232 86.8929 27.4808C86.5051 27.6385 86.0407 27.7173 85.4995 27.7173ZM85.915 26.1832C86.4434 26.1832 86.8951 26.0788 87.2701 25.87C87.6493 25.6612 87.937 25.3885 88.133 25.0518C88.3333 24.7109 88.4334 24.3466 88.4334 23.9588V22.6932C88.3652 22.7614 88.2331 22.8253 88.0371 22.8849C87.8453 22.9403 87.6259 22.9893 87.3787 23.032C87.1316 23.0703 86.8908 23.1065 86.6564 23.1406C86.4221 23.1705 86.226 23.196 86.0684 23.2173C85.6976 23.2642 85.3588 23.343 85.052 23.4538C84.7495 23.5646 84.5066 23.7244 84.3233 23.9332C84.1444 24.1378 84.0549 24.4105 84.0549 24.7514C84.0549 25.2244 84.2296 25.5824 84.579 25.8253C84.9284 26.0639 85.3738 26.1832 85.915 26.1832ZM99.8515 20.0788L98.1193 20.3857C98.0468 20.1641 97.9318 19.9531 97.7741 19.7528C97.6207 19.5526 97.4119 19.3885 97.1477 19.2607C96.8835 19.1328 96.5532 19.0689 96.1569 19.0689C95.6157 19.0689 95.164 19.1903 94.8018 19.4332C94.4396 19.6719 94.2585 19.9808 94.2585 20.3601C94.2585 20.6882 94.3799 20.9524 94.6228 21.1527C94.8657 21.353 95.2578 21.517 95.799 21.6449L97.3586 22.0028C98.262 22.2116 98.9353 22.5334 99.3785 22.968C99.8217 23.4027 100.043 23.9673 100.043 24.6619C100.043 25.25 99.8728 25.7741 99.5319 26.2344C99.1953 26.6903 98.7244 27.0483 98.1193 27.3082C97.5184 27.5682 96.8217 27.6982 96.0291 27.6982C94.9296 27.6982 94.0326 27.4638 93.338 26.995C92.6434 26.522 92.2173 25.8509 92.0596 24.9815L93.9069 24.7003C94.022 25.1818 94.2585 25.5462 94.6164 25.7933C94.9744 26.0362 95.441 26.1577 96.0163 26.1577C96.6427 26.1577 97.1434 26.0277 97.5184 25.7678C97.8934 25.5036 98.0809 25.1818 98.0809 24.8026C98.0809 24.4957 97.9659 24.2379 97.7358 24.0291C97.5099 23.8203 97.1626 23.6626 96.6938 23.5561L95.0319 23.1918C94.1157 22.983 93.4382 22.6506 92.9992 22.1946C92.5646 21.7386 92.3473 21.1612 92.3473 20.4624C92.3473 19.8828 92.5092 19.3757 92.8331 18.9411C93.1569 18.5064 93.6044 18.1676 94.1754 17.9247C94.7464 17.6776 95.4005 17.554 96.1377 17.554C97.1988 17.554 98.034 17.7841 98.6434 18.2443C99.2528 18.7003 99.6555 19.3118 99.8515 20.0788ZM107.376 27.6214C107.026 27.6214 106.726 27.4979 106.474 27.2507C106.223 26.9993 106.097 26.6967 106.097 26.343C106.097 25.9936 106.223 25.6953 106.474 25.4482C106.726 25.1967 107.026 25.071 107.376 25.071C107.725 25.071 108.025 25.1967 108.277 25.4482C108.528 25.6953 108.654 25.9936 108.654 26.343C108.654 26.5774 108.594 26.7926 108.475 26.9886C108.36 27.1804 108.207 27.3338 108.015 27.4489C107.823 27.5639 107.61 27.6214 107.376 27.6214ZM112.077 27.6214C111.728 27.6214 111.427 27.4979 111.176 27.2507C110.925 26.9993 110.799 26.6967 110.799 26.343C110.799 25.9936 110.925 25.6953 111.176 25.4482C111.427 25.1967 111.728 25.071 112.077 25.071C112.427 25.071 112.727 25.1967 112.979 25.4482C113.23 25.6953 113.356 25.9936 113.356 26.343C113.356 26.5774 113.296 26.7926 113.177 26.9886C113.062 27.1804 112.908 27.3338 112.716 27.4489C112.525 27.5639 112.312 27.6214 112.077 27.6214ZM116.779 27.6214C116.429 27.6214 116.129 27.4979 115.878 27.2507C115.626 26.9993 115.5 26.6967 115.5 26.343C115.5 25.9936 115.626 25.6953 115.878 25.4482C116.129 25.1967 116.429 25.071 116.779 25.071C117.128 25.071 117.429 25.1967 117.68 25.4482C117.932 25.6953 118.057 25.9936 118.057 26.343C118.057 26.5774 117.998 26.7926 117.878 26.9886C117.763 27.1804 117.61 27.3338 117.418 27.4489C117.226 27.5639 117.013 27.6214 116.779 27.6214Z" fill="white"/>
</svg>
