<svg width="357" height="54" viewBox="0 0 357 54" fill="none" xmlns="http://www.w3.org/2000/svg">
<rect width="357" height="54" rx="21.6" fill="#DEAD00"/>
<path d="M126.102 24.0078C126.042 23.4496 125.791 23.0149 125.347 22.7038C124.908 22.3928 124.337 22.2372 123.634 22.2372C123.14 22.2372 122.716 22.3118 122.362 22.4609C122.009 22.6101 121.738 22.8125 121.55 23.0682C121.363 23.3239 121.267 23.6158 121.263 23.9439C121.263 24.2166 121.325 24.4531 121.448 24.6534C121.576 24.8537 121.749 25.0241 121.966 25.1648C122.183 25.3011 122.424 25.4162 122.688 25.5099C122.952 25.6037 123.219 25.6825 123.487 25.7464L124.715 26.0533C125.209 26.1683 125.684 26.3239 126.14 26.5199C126.6 26.7159 127.011 26.9631 127.374 27.2614C127.74 27.5597 128.03 27.9197 128.243 28.3416C128.456 28.7635 128.563 29.2578 128.563 29.8246C128.563 30.5916 128.367 31.267 127.974 31.8509C127.582 32.4304 127.016 32.8842 126.274 33.2124C125.537 33.5362 124.644 33.6982 123.596 33.6982C122.577 33.6982 121.693 33.5405 120.943 33.2251C120.197 32.9098 119.614 32.4496 119.192 31.8445C118.774 31.2393 118.548 30.5021 118.514 29.6328H120.847C120.881 30.0888 121.022 30.468 121.269 30.7706C121.516 31.0732 121.838 31.299 122.234 31.4482C122.635 31.5973 123.082 31.6719 123.577 31.6719C124.092 31.6719 124.544 31.5952 124.932 31.4418C125.324 31.2841 125.631 31.0668 125.852 30.7898C126.074 30.5085 126.187 30.1804 126.191 29.8054C126.187 29.4645 126.087 29.1832 125.891 28.9616C125.695 28.7358 125.42 28.5483 125.066 28.3991C124.717 28.2457 124.308 28.1094 123.839 27.9901L122.349 27.6065C121.271 27.3295 120.419 26.9098 119.793 26.3473C119.171 25.7805 118.859 25.0284 118.859 24.0909C118.859 23.3196 119.068 22.6442 119.486 22.0646C119.908 21.4851 120.481 21.0355 121.205 20.7159C121.93 20.392 122.75 20.2301 123.666 20.2301C124.595 20.2301 125.409 20.392 126.108 20.7159C126.811 21.0355 127.363 21.4808 127.764 22.0518C128.164 22.6186 128.371 23.2706 128.384 24.0078H126.102ZM134.525 33.6918C133.541 33.6918 132.691 33.4872 131.975 33.0781C131.263 32.6648 130.715 32.081 130.332 31.3267C129.948 30.5682 129.757 29.6754 129.757 28.6484C129.757 27.6385 129.948 26.7521 130.332 25.9893C130.72 25.2223 131.261 24.6257 131.955 24.1996C132.65 23.7692 133.466 23.554 134.404 23.554C135.009 23.554 135.58 23.652 136.117 23.848C136.658 24.0398 137.135 24.3381 137.548 24.7429C137.966 25.1477 138.294 25.6634 138.533 26.2898C138.771 26.9119 138.891 27.6534 138.891 28.5142V29.2237H130.843V27.6641H136.673C136.669 27.2209 136.573 26.8267 136.385 26.4815C136.198 26.1321 135.936 25.8572 135.599 25.657C135.267 25.4567 134.879 25.3565 134.436 25.3565C133.963 25.3565 133.547 25.4716 133.189 25.7017C132.831 25.9276 132.552 26.2259 132.352 26.5966C132.156 26.9631 132.056 27.3658 132.051 27.8047V29.1662C132.051 29.7372 132.156 30.2273 132.365 30.6364C132.573 31.0412 132.865 31.3523 133.24 31.5696C133.615 31.7827 134.054 31.8892 134.557 31.8892C134.894 31.8892 135.198 31.8423 135.471 31.7486C135.744 31.6506 135.98 31.5078 136.181 31.3203C136.381 31.1328 136.532 30.9006 136.634 30.6236L138.795 30.8665C138.659 31.4375 138.399 31.9361 138.015 32.3622C137.636 32.7841 137.15 33.1122 136.558 33.3466C135.965 33.5767 135.288 33.6918 134.525 33.6918ZM142.766 20.4091V33.5H140.452V20.4091H142.766ZM149.096 33.6918C148.112 33.6918 147.262 33.4872 146.546 33.0781C145.834 32.6648 145.287 32.081 144.903 31.3267C144.52 30.5682 144.328 29.6754 144.328 28.6484C144.328 27.6385 144.52 26.7521 144.903 25.9893C145.291 25.2223 145.832 24.6257 146.527 24.1996C147.221 23.7692 148.037 23.554 148.975 23.554C149.58 23.554 150.151 23.652 150.688 23.848C151.229 24.0398 151.706 24.3381 152.12 24.7429C152.537 25.1477 152.865 25.6634 153.104 26.2898C153.343 26.9119 153.462 27.6534 153.462 28.5142V29.2237H145.414V27.6641H151.244C151.24 27.2209 151.144 26.8267 150.956 26.4815C150.769 26.1321 150.507 25.8572 150.17 25.657C149.838 25.4567 149.45 25.3565 149.007 25.3565C148.534 25.3565 148.118 25.4716 147.76 25.7017C147.402 25.9276 147.123 26.2259 146.923 26.5966C146.727 26.9631 146.627 27.3658 146.623 27.8047V29.1662C146.623 29.7372 146.727 30.2273 146.936 30.6364C147.145 31.0412 147.437 31.3523 147.812 31.5696C148.187 31.7827 148.625 31.8892 149.128 31.8892C149.465 31.8892 149.77 31.8423 150.042 31.7486C150.315 31.6506 150.552 31.5078 150.752 31.3203C150.952 31.1328 151.103 30.9006 151.206 30.6236L153.366 30.8665C153.23 31.4375 152.97 31.9361 152.586 32.3622C152.207 32.7841 151.721 33.1122 151.129 33.3466C150.537 33.5767 149.859 33.6918 149.096 33.6918ZM159.306 33.6918C158.326 33.6918 157.485 33.4766 156.781 33.0462C156.083 32.6158 155.544 32.0213 155.164 31.2628C154.789 30.5 154.602 29.6222 154.602 28.6293C154.602 27.6321 154.794 26.7521 155.177 25.9893C155.561 25.2223 156.102 24.6257 156.801 24.1996C157.504 23.7692 158.335 23.554 159.294 23.554C160.09 23.554 160.796 23.701 161.409 23.995C162.027 24.2848 162.519 24.696 162.886 25.2287C163.252 25.7571 163.461 26.375 163.512 27.0824H161.301C161.211 26.6094 160.998 26.2152 160.661 25.8999C160.329 25.5803 159.884 25.4205 159.325 25.4205C158.852 25.4205 158.437 25.5483 158.079 25.804C157.721 26.0554 157.442 26.4176 157.242 26.8906C157.046 27.3636 156.948 27.9304 156.948 28.5909C156.948 29.2599 157.046 29.8352 157.242 30.3168C157.438 30.794 157.713 31.1626 158.066 31.4226C158.424 31.6783 158.844 31.8061 159.325 31.8061C159.666 31.8061 159.971 31.7422 160.24 31.6143C160.512 31.4822 160.74 31.2926 160.924 31.0455C161.107 30.7983 161.232 30.4979 161.301 30.1442H163.512C163.457 30.8388 163.252 31.4545 162.899 31.9915C162.545 32.5241 162.063 32.9418 161.454 33.2443C160.845 33.5426 160.129 33.6918 159.306 33.6918ZM169.919 23.6818V25.4716H164.275V23.6818H169.919ZM165.668 21.3295H167.982V30.5469C167.982 30.858 168.029 31.0966 168.123 31.2628C168.221 31.4247 168.349 31.5355 168.506 31.5952C168.664 31.6548 168.839 31.6847 169.031 31.6847C169.175 31.6847 169.308 31.674 169.427 31.6527C169.55 31.6314 169.644 31.6122 169.708 31.5952L170.098 33.4041C169.974 33.4467 169.798 33.4936 169.567 33.5447C169.342 33.5959 169.065 33.6257 168.736 33.6342C168.157 33.6513 167.635 33.5639 167.17 33.3722C166.706 33.1761 166.337 32.8736 166.065 32.4645C165.796 32.0554 165.664 31.544 165.668 30.9304V21.3295ZM175.699 33.6918C174.715 33.6918 173.865 33.4872 173.149 33.0781C172.437 32.6648 171.89 32.081 171.506 31.3267C171.123 30.5682 170.931 29.6754 170.931 28.6484C170.931 27.6385 171.123 26.7521 171.506 25.9893C171.894 25.2223 172.435 24.6257 173.13 24.1996C173.824 23.7692 174.64 23.554 175.578 23.554C176.183 23.554 176.754 23.652 177.291 23.848C177.832 24.0398 178.309 24.3381 178.723 24.7429C179.14 25.1477 179.469 25.6634 179.707 26.2898C179.946 26.9119 180.065 27.6534 180.065 28.5142V29.2237H172.018V27.6641H177.847C177.843 27.2209 177.747 26.8267 177.559 26.4815C177.372 26.1321 177.11 25.8572 176.773 25.657C176.441 25.4567 176.053 25.3565 175.61 25.3565C175.137 25.3565 174.721 25.4716 174.363 25.7017C174.005 25.9276 173.726 26.2259 173.526 26.5966C173.33 26.9631 173.23 27.3658 173.226 27.8047V29.1662C173.226 29.7372 173.33 30.2273 173.539 30.6364C173.748 31.0412 174.04 31.3523 174.415 31.5696C174.79 31.7827 175.228 31.8892 175.731 31.8892C176.068 31.8892 176.373 31.8423 176.645 31.7486C176.918 31.6506 177.155 31.5078 177.355 31.3203C177.555 31.1328 177.706 30.9006 177.809 30.6236L179.969 30.8665C179.833 31.4375 179.573 31.9361 179.189 32.3622C178.81 32.7841 178.324 33.1122 177.732 33.3466C177.14 33.5767 176.462 33.6918 175.699 33.6918ZM185.27 33.6726C184.499 33.6726 183.808 33.4744 183.199 33.0781C182.59 32.6818 182.108 32.1065 181.755 31.3523C181.401 30.598 181.224 29.6818 181.224 28.6037C181.224 27.5128 181.403 26.5923 181.761 25.8423C182.123 25.0881 182.611 24.5192 183.225 24.1357C183.838 23.7479 184.522 23.554 185.277 23.554C185.852 23.554 186.325 23.652 186.696 23.848C187.066 24.0398 187.36 24.272 187.578 24.5447C187.795 24.8132 187.963 25.0668 188.083 25.3054H188.179V20.4091H190.499V33.5H188.223V31.9531H188.083C187.963 32.1918 187.791 32.4453 187.565 32.7138C187.339 32.978 187.041 33.2038 186.67 33.3913C186.299 33.5788 185.833 33.6726 185.27 33.6726ZM185.916 31.7741C186.406 31.7741 186.823 31.642 187.169 31.3778C187.514 31.1094 187.776 30.7365 187.955 30.2592C188.134 29.782 188.223 29.2259 188.223 28.5909C188.223 27.956 188.134 27.4041 187.955 26.9354C187.78 26.4666 187.52 26.1023 187.175 25.8423C186.834 25.5824 186.414 25.4524 185.916 25.4524C185.4 25.4524 184.97 25.5866 184.625 25.8551C184.279 26.1236 184.019 26.4943 183.845 26.9673C183.67 27.4403 183.583 27.9815 183.583 28.5909C183.583 29.2045 183.67 29.7521 183.845 30.2337C184.024 30.7109 184.286 31.0881 184.631 31.3651C184.98 31.6378 185.409 31.7741 185.916 31.7741ZM204.992 20.4091H207.363V28.9616C207.363 29.8991 207.142 30.7237 206.698 31.4354C206.26 32.147 205.642 32.7031 204.845 33.1037C204.048 33.5 203.117 33.6982 202.051 33.6982C200.982 33.6982 200.049 33.5 199.252 33.1037C198.455 32.7031 197.837 32.147 197.398 31.4354C196.959 30.7237 196.74 29.8991 196.74 28.9616V20.4091H199.111V28.7635C199.111 29.3089 199.23 29.7947 199.469 30.2209C199.712 30.647 200.053 30.9815 200.492 31.2244C200.931 31.4631 201.451 31.5824 202.051 31.5824C202.652 31.5824 203.172 31.4631 203.611 31.2244C204.054 30.9815 204.395 30.647 204.634 30.2209C204.872 29.7947 204.992 29.3089 204.992 28.7635V20.4091ZM211.757 27.7472V33.5H209.443V23.6818H211.654V25.3501H211.769C211.995 24.8004 212.355 24.3636 212.85 24.0398C213.348 23.7159 213.964 23.554 214.697 23.554C215.374 23.554 215.965 23.6989 216.467 23.9886C216.975 24.2784 217.367 24.6982 217.644 25.2479C217.925 25.7976 218.063 26.4645 218.059 27.2486V33.5H215.745V27.6065C215.745 26.9503 215.575 26.4368 215.234 26.0661C214.897 25.6953 214.431 25.5099 213.834 25.5099C213.429 25.5099 213.069 25.5994 212.754 25.7784C212.443 25.9531 212.198 26.2067 212.019 26.5391C211.844 26.8714 211.757 27.2741 211.757 27.7472ZM220.015 33.5V23.6818H222.329V33.5H220.015ZM221.179 22.2884C220.812 22.2884 220.497 22.1669 220.233 21.924C219.968 21.6768 219.836 21.3807 219.836 21.0355C219.836 20.6861 219.968 20.3899 220.233 20.147C220.497 19.8999 220.812 19.7763 221.179 19.7763C221.549 19.7763 221.865 19.8999 222.125 20.147C222.389 20.3899 222.521 20.6861 222.521 21.0355C222.521 21.3807 222.389 21.6768 222.125 21.924C221.865 22.1669 221.549 22.2884 221.179 22.2884ZM229.215 23.6818V25.4716H223.571V23.6818H229.215ZM224.965 21.3295H227.279V30.5469C227.279 30.858 227.325 31.0966 227.419 31.2628C227.517 31.4247 227.645 31.5355 227.803 31.5952C227.96 31.6548 228.135 31.6847 228.327 31.6847C228.472 31.6847 228.604 31.674 228.723 31.6527C228.847 31.6314 228.941 31.6122 229.004 31.5952L229.394 33.4041C229.271 33.4467 229.094 33.4936 228.864 33.5447C228.638 33.5959 228.361 33.6257 228.033 33.6342C227.453 33.6513 226.931 33.5639 226.467 33.3722C226.002 33.1761 225.634 32.8736 225.361 32.4645C225.093 32.0554 224.96 31.544 224.965 30.9304V21.3295ZM238.374 26.277L236.265 26.5071C236.205 26.294 236.1 26.0938 235.951 25.9062C235.806 25.7188 235.61 25.5675 235.363 25.4524C235.116 25.3374 234.814 25.2798 234.456 25.2798C233.974 25.2798 233.569 25.3842 233.241 25.593C232.917 25.8018 232.757 26.0724 232.762 26.4048C232.757 26.6903 232.862 26.9226 233.075 27.1016C233.292 27.2805 233.65 27.4276 234.149 27.5426L235.823 27.9006C236.752 28.1009 237.443 28.4183 237.894 28.853C238.35 29.2876 238.581 29.8565 238.585 30.5597C238.581 31.1776 238.399 31.723 238.041 32.196C237.688 32.6648 237.196 33.0312 236.565 33.2955C235.934 33.5597 235.21 33.6918 234.392 33.6918C233.19 33.6918 232.223 33.4403 231.49 32.9375C230.757 32.4304 230.32 31.7251 230.179 30.8217L232.436 30.6044C232.538 31.0476 232.755 31.3821 233.088 31.608C233.42 31.8338 233.853 31.9467 234.385 31.9467C234.935 31.9467 235.376 31.8338 235.708 31.608C236.045 31.3821 236.213 31.103 236.213 30.7706C236.213 30.4893 236.105 30.2571 235.887 30.0739C235.674 29.8906 235.342 29.75 234.89 29.652L233.216 29.3004C232.274 29.1044 231.577 28.7741 231.125 28.3097C230.674 27.8409 230.45 27.2486 230.454 26.5327C230.45 25.9276 230.614 25.4034 230.946 24.9602C231.283 24.5128 231.75 24.1676 232.346 23.9247C232.947 23.6776 233.64 23.554 234.424 23.554C235.574 23.554 236.48 23.799 237.14 24.2891C237.805 24.7791 238.216 25.4418 238.374 26.277Z" fill="black" fill-opacity="0.8"/>
</svg>
