<svg width="357" height="54" viewBox="0 0 357 54" fill="none" xmlns="http://www.w3.org/2000/svg">
<rect width="357" height="54" rx="21.6" fill="#DEAD00"/>
<path d="M127.004 23.848C126.936 23.2429 126.654 22.7741 126.16 22.4418C125.666 22.1051 125.043 21.9368 124.293 21.9368C123.757 21.9368 123.292 22.022 122.9 22.1925C122.508 22.3587 122.203 22.5888 121.986 22.8828C121.773 23.1726 121.666 23.5028 121.666 23.8736C121.666 24.1847 121.739 24.4531 121.884 24.679C122.033 24.9048 122.227 25.0945 122.465 25.2479C122.708 25.397 122.968 25.5227 123.245 25.625C123.522 25.723 123.788 25.804 124.044 25.8679L125.323 26.2003C125.74 26.3026 126.168 26.4411 126.607 26.6158C127.046 26.7905 127.453 27.0206 127.828 27.3061C128.203 27.5916 128.506 27.9453 128.736 28.3672C128.97 28.7891 129.087 29.294 129.087 29.8821C129.087 30.6236 128.896 31.282 128.512 31.8572C128.133 32.4325 127.581 32.8864 126.857 33.2188C126.137 33.5511 125.265 33.7173 124.242 33.7173C123.262 33.7173 122.414 33.5618 121.698 33.2507C120.982 32.9396 120.422 32.4986 120.017 31.9276C119.612 31.3523 119.389 30.6705 119.346 29.8821H121.328C121.366 30.3551 121.519 30.7493 121.788 31.0646C122.061 31.3757 122.408 31.608 122.83 31.7614C123.256 31.9105 123.722 31.9851 124.23 31.9851C124.788 31.9851 125.284 31.8977 125.719 31.723C126.158 31.544 126.503 31.2969 126.754 30.9815C127.006 30.6619 127.132 30.2891 127.132 29.8629C127.132 29.4751 127.021 29.1577 126.799 28.9105C126.582 28.6634 126.286 28.4588 125.911 28.2969C125.54 28.1349 125.12 27.9922 124.651 27.8686L123.105 27.4467C122.056 27.1612 121.225 26.7415 120.612 26.1875C120.002 25.6335 119.698 24.9006 119.698 23.9886C119.698 23.2344 119.902 22.576 120.311 22.0135C120.72 21.451 121.274 21.0142 121.973 20.7031C122.672 20.3878 123.46 20.2301 124.338 20.2301C125.225 20.2301 126.007 20.3857 126.684 20.6967C127.366 21.0078 127.903 21.4361 128.295 21.9815C128.687 22.5227 128.891 23.1449 128.909 23.848H127.004ZM135.13 33.6982C134.163 33.6982 133.329 33.4915 132.631 33.0781C131.936 32.6605 131.399 32.0746 131.02 31.3203C130.645 30.5618 130.457 29.6733 130.457 28.6548C130.457 27.6491 130.645 26.7628 131.02 25.9957C131.399 25.2287 131.927 24.63 132.605 24.1996C133.287 23.7692 134.084 23.554 134.996 23.554C135.55 23.554 136.087 23.6456 136.606 23.8288C137.126 24.0121 137.593 24.2997 138.006 24.6918C138.42 25.0838 138.746 25.593 138.984 26.2195C139.223 26.8416 139.342 27.598 139.342 28.4886V29.1662H131.538V27.7344H137.469C137.469 27.2315 137.367 26.7862 137.163 26.3984C136.958 26.0064 136.67 25.6974 136.3 25.4716C135.933 25.2457 135.503 25.1328 135.008 25.1328C134.472 25.1328 134.003 25.2649 133.602 25.5291C133.206 25.7891 132.899 26.13 132.682 26.5518C132.469 26.9695 132.362 27.4233 132.362 27.9134V29.032C132.362 29.6882 132.477 30.2464 132.707 30.7067C132.942 31.1669 133.268 31.5185 133.685 31.7614C134.103 32 134.591 32.1193 135.149 32.1193C135.511 32.1193 135.842 32.0682 136.14 31.9659C136.438 31.8594 136.696 31.7017 136.913 31.4929C137.131 31.2841 137.297 31.0263 137.412 30.7195L139.221 31.0455C139.076 31.5781 138.816 32.0447 138.441 32.4453C138.07 32.8416 137.604 33.1506 137.041 33.3722C136.483 33.5895 135.846 33.6982 135.13 33.6982ZM142.978 20.4091V33.5H141.067V20.4091H142.978ZM149.385 33.6982C148.417 33.6982 147.584 33.4915 146.885 33.0781C146.191 32.6605 145.654 32.0746 145.275 31.3203C144.9 30.5618 144.712 29.6733 144.712 28.6548C144.712 27.6491 144.9 26.7628 145.275 25.9957C145.654 25.2287 146.182 24.63 146.86 24.1996C147.542 23.7692 148.339 23.554 149.251 23.554C149.805 23.554 150.341 23.6456 150.861 23.8288C151.381 24.0121 151.848 24.2997 152.261 24.6918C152.675 25.0838 153.001 25.593 153.239 26.2195C153.478 26.8416 153.597 27.598 153.597 28.4886V29.1662H145.792V27.7344H151.724C151.724 27.2315 151.622 26.7862 151.417 26.3984C151.213 26.0064 150.925 25.6974 150.555 25.4716C150.188 25.2457 149.758 25.1328 149.263 25.1328C148.726 25.1328 148.258 25.2649 147.857 25.5291C147.461 25.7891 147.154 26.13 146.937 26.5518C146.724 26.9695 146.617 27.4233 146.617 27.9134V29.032C146.617 29.6882 146.732 30.2464 146.962 30.7067C147.197 31.1669 147.523 31.5185 147.94 31.7614C148.358 32 148.846 32.1193 149.404 32.1193C149.766 32.1193 150.096 32.0682 150.395 31.9659C150.693 31.8594 150.951 31.7017 151.168 31.4929C151.385 31.2841 151.552 31.0263 151.667 30.7195L153.476 31.0455C153.331 31.5781 153.071 32.0447 152.696 32.4453C152.325 32.8416 151.858 33.1506 151.296 33.3722C150.738 33.5895 150.101 33.6982 149.385 33.6982ZM159.457 33.6982C158.507 33.6982 157.689 33.483 157.003 33.0526C156.321 32.6179 155.797 32.0192 155.43 31.2564C155.064 30.4936 154.881 29.62 154.881 28.6357C154.881 27.6385 155.068 26.7585 155.443 25.9957C155.818 25.2287 156.347 24.63 157.028 24.1996C157.71 23.7692 158.513 23.554 159.438 23.554C160.184 23.554 160.849 23.6925 161.432 23.9695C162.016 24.2422 162.487 24.6257 162.845 25.12C163.207 25.6143 163.423 26.1918 163.491 26.8523H161.631C161.528 26.392 161.294 25.9957 160.928 25.6634C160.565 25.331 160.079 25.1648 159.47 25.1648C158.937 25.1648 158.471 25.3054 158.07 25.5866C157.674 25.8636 157.365 26.2599 157.143 26.7756C156.922 27.2869 156.811 27.892 156.811 28.5909C156.811 29.3068 156.92 29.9247 157.137 30.4446C157.354 30.9645 157.661 31.3672 158.057 31.6527C158.458 31.9382 158.929 32.081 159.47 32.081C159.832 32.081 160.16 32.0149 160.454 31.8828C160.753 31.7464 161.002 31.5526 161.202 31.3011C161.407 31.0497 161.55 30.7472 161.631 30.3935H163.491C163.423 31.0284 163.216 31.5952 162.871 32.0938C162.526 32.5923 162.063 32.9844 161.484 33.2699C160.908 33.5554 160.233 33.6982 159.457 33.6982ZM169.722 23.6818V25.2159H164.359V23.6818H169.722ZM165.797 21.3295H167.708V30.6172C167.708 30.9879 167.764 31.267 167.874 31.4545C167.985 31.6378 168.128 31.7635 168.303 31.8317C168.482 31.8956 168.676 31.9276 168.884 31.9276C169.038 31.9276 169.172 31.9169 169.287 31.8956C169.402 31.8743 169.492 31.8572 169.555 31.8445L169.901 33.4233C169.79 33.4659 169.632 33.5085 169.428 33.5511C169.223 33.598 168.967 33.6236 168.661 33.6278C168.158 33.6364 167.689 33.5469 167.254 33.3594C166.82 33.1719 166.468 32.8821 166.2 32.4901C165.931 32.098 165.797 31.6058 165.797 31.0135V21.3295ZM175.566 33.6982C174.599 33.6982 173.765 33.4915 173.067 33.0781C172.372 32.6605 171.835 32.0746 171.456 31.3203C171.081 30.5618 170.893 29.6733 170.893 28.6548C170.893 27.6491 171.081 26.7628 171.456 25.9957C171.835 25.2287 172.363 24.63 173.041 24.1996C173.723 23.7692 174.52 23.554 175.432 23.554C175.986 23.554 176.523 23.6456 177.042 23.8288C177.562 24.0121 178.029 24.2997 178.442 24.6918C178.856 25.0838 179.182 25.593 179.42 26.2195C179.659 26.8416 179.778 27.598 179.778 28.4886V29.1662H171.974V27.7344H177.905C177.905 27.2315 177.803 26.7862 177.599 26.3984C177.394 26.0064 177.106 25.6974 176.736 25.4716C176.369 25.2457 175.939 25.1328 175.444 25.1328C174.908 25.1328 174.439 25.2649 174.038 25.5291C173.642 25.7891 173.335 26.13 173.118 26.5518C172.905 26.9695 172.798 27.4233 172.798 27.9134V29.032C172.798 29.6882 172.913 30.2464 173.143 30.7067C173.378 31.1669 173.704 31.5185 174.121 31.7614C174.539 32 175.027 32.1193 175.585 32.1193C175.947 32.1193 176.278 32.0682 176.576 31.9659C176.874 31.8594 177.132 31.7017 177.349 31.4929C177.567 31.2841 177.733 31.0263 177.848 30.7195L179.657 31.0455C179.512 31.5781 179.252 32.0447 178.877 32.4453C178.506 32.8416 178.04 33.1506 177.477 33.3722C176.919 33.5895 176.282 33.6982 175.566 33.6982ZM185.178 33.6918C184.386 33.6918 183.678 33.4893 183.056 33.0845C182.438 32.6754 181.952 32.0937 181.599 31.3395C181.249 30.581 181.075 29.6712 181.075 28.6101C181.075 27.549 181.251 26.6413 181.605 25.8871C181.963 25.1328 182.453 24.5554 183.075 24.1548C183.697 23.7543 184.403 23.554 185.191 23.554C185.8 23.554 186.29 23.6562 186.661 23.8608C187.036 24.0611 187.326 24.2955 187.531 24.5639C187.739 24.8324 187.901 25.0689 188.016 25.2734H188.131V20.4091H190.043V33.5H188.176V31.9723H188.016C187.901 32.1811 187.735 32.4197 187.518 32.6882C187.305 32.9567 187.011 33.1911 186.636 33.3913C186.261 33.5916 185.775 33.6918 185.178 33.6918ZM185.6 32.0618C186.15 32.0618 186.614 31.9169 186.994 31.6271C187.377 31.3331 187.667 30.9261 187.863 30.4062C188.063 29.8864 188.163 29.2812 188.163 28.5909C188.163 27.9091 188.065 27.3125 187.869 26.8011C187.673 26.2898 187.386 25.8913 187.006 25.6058C186.627 25.3203 186.158 25.1776 185.6 25.1776C185.025 25.1776 184.545 25.3267 184.162 25.625C183.778 25.9233 183.489 26.3303 183.293 26.8459C183.101 27.3615 183.005 27.9432 183.005 28.5909C183.005 29.2472 183.103 29.8374 183.299 30.3615C183.495 30.8857 183.785 31.3011 184.168 31.608C184.556 31.9105 185.033 32.0618 185.6 32.0618ZM205.314 20.4091H207.295V29.0192C207.295 29.9354 207.08 30.7472 206.65 31.4545C206.219 32.1577 205.614 32.7116 204.834 33.1165C204.055 33.517 203.141 33.7173 202.092 33.7173C201.048 33.7173 200.136 33.517 199.356 33.1165C198.577 32.7116 197.971 32.1577 197.541 31.4545C197.111 30.7472 196.895 29.9354 196.895 29.0192V20.4091H198.871V28.8594C198.871 29.4517 199.001 29.978 199.261 30.4382C199.525 30.8984 199.898 31.2607 200.379 31.5249C200.861 31.7848 201.432 31.9148 202.092 31.9148C202.757 31.9148 203.33 31.7848 203.812 31.5249C204.297 31.2607 204.668 30.8984 204.924 30.4382C205.184 29.978 205.314 29.4517 205.314 28.8594V20.4091ZM211.529 27.6705V33.5H209.618V23.6818H211.452V25.2798H211.574C211.799 24.7599 212.153 24.3423 212.635 24.027C213.12 23.7116 213.732 23.554 214.469 23.554C215.138 23.554 215.724 23.6946 216.227 23.9759C216.73 24.2528 217.12 24.6662 217.397 25.2159C217.674 25.7656 217.812 26.4453 217.812 27.255V33.5H215.901V27.4851C215.901 26.7734 215.716 26.2173 215.345 25.8168C214.974 25.4119 214.465 25.2095 213.817 25.2095C213.374 25.2095 212.98 25.3054 212.635 25.4972C212.294 25.6889 212.023 25.9702 211.823 26.3409C211.627 26.7074 211.529 27.1506 211.529 27.6705ZM219.979 33.5V23.6818H221.891V33.5H219.979ZM220.945 22.1669C220.612 22.1669 220.327 22.0561 220.088 21.8345C219.854 21.6087 219.736 21.3402 219.736 21.0291C219.736 20.7138 219.854 20.4453 220.088 20.2237C220.327 19.9979 220.612 19.8849 220.945 19.8849C221.277 19.8849 221.56 19.9979 221.795 20.2237C222.033 20.4453 222.153 20.7138 222.153 21.0291C222.153 21.3402 222.033 21.6087 221.795 21.8345C221.56 22.0561 221.277 22.1669 220.945 22.1669ZM228.649 23.6818V25.2159H223.286V23.6818H228.649ZM224.724 21.3295H226.635V30.6172C226.635 30.9879 226.691 31.267 226.802 31.4545C226.912 31.6378 227.055 31.7635 227.23 31.8317C227.409 31.8956 227.603 31.9276 227.812 31.9276C227.965 31.9276 228.099 31.9169 228.214 31.8956C228.329 31.8743 228.419 31.8572 228.483 31.8445L228.828 33.4233C228.717 33.4659 228.559 33.5085 228.355 33.5511C228.15 33.598 227.895 33.6236 227.588 33.6278C227.085 33.6364 226.616 33.5469 226.182 33.3594C225.747 33.1719 225.395 32.8821 225.127 32.4901C224.858 32.098 224.724 31.6058 224.724 31.0135V21.3295ZM237.566 26.0788L235.834 26.3857C235.761 26.1641 235.646 25.9531 235.489 25.7528C235.335 25.5526 235.126 25.3885 234.862 25.2607C234.598 25.1328 234.268 25.0689 233.871 25.0689C233.33 25.0689 232.879 25.1903 232.516 25.4332C232.154 25.6719 231.973 25.9808 231.973 26.3601C231.973 26.6882 232.094 26.9524 232.337 27.1527C232.58 27.353 232.972 27.517 233.514 27.6449L235.073 28.0028C235.977 28.2116 236.65 28.5334 237.093 28.968C237.536 29.4027 237.758 29.9673 237.758 30.6619C237.758 31.25 237.587 31.7741 237.246 32.2344C236.91 32.6903 236.439 33.0483 235.834 33.3082C235.233 33.5682 234.536 33.6982 233.744 33.6982C232.644 33.6982 231.747 33.4638 231.053 32.995C230.358 32.522 229.932 31.8509 229.774 30.9815L231.621 30.7003C231.737 31.1818 231.973 31.5462 232.331 31.7933C232.689 32.0362 233.156 32.1577 233.731 32.1577C234.357 32.1577 234.858 32.0277 235.233 31.7678C235.608 31.5036 235.795 31.1818 235.795 30.8026C235.795 30.4957 235.68 30.2379 235.45 30.0291C235.224 29.8203 234.877 29.6626 234.408 29.5561L232.746 29.1918C231.83 28.983 231.153 28.6506 230.714 28.1946C230.279 27.7386 230.062 27.1612 230.062 26.4624C230.062 25.8828 230.224 25.3757 230.548 24.9411C230.871 24.5064 231.319 24.1676 231.89 23.9247C232.461 23.6776 233.115 23.554 233.852 23.554C234.913 23.554 235.749 23.7841 236.358 24.2443C236.967 24.7003 237.37 25.3118 237.566 26.0788Z" fill="black" fill-opacity="0.8"/>
</svg>
