<svg width="180" height="59" viewBox="0 0 180 59" fill="none" xmlns="http://www.w3.org/2000/svg">
<g clip-path="url(#clip0_8_2394)">
<path fill-rule="evenodd" clip-rule="evenodd" d="M46.7722 41.1607C42.3589 48.3915 34.6869 52.7059 26.2197 52.7059C17.7528 52.7059 10.0803 48.3915 5.6677 41.1605L1.04395 45.4366C3.62625 49.2996 7.08031 52.5462 11.1094 54.8715C15.6837 57.5127 20.9096 58.9091 26.2197 58.9091C31.5295 58.9091 36.7542 57.5127 41.3305 54.8715C45.2432 52.6133 48.7324 49.056 51.2893 45.3382L46.7722 41.1607Z" fill="#233881"/>
<path fill-rule="evenodd" clip-rule="evenodd" d="M6.18579 1.54448H46.2544V0.0225449H6.18579V1.54448Z" fill="#D5AB23"/>
<path fill-rule="evenodd" clip-rule="evenodd" d="M46.2544 16.0579C46.178 20.5261 47.2282 38.2584 26.2202 50.6647C5.21173 38.2584 6.26191 20.5261 6.18579 16.0579V1.54448H46.2544V16.0579Z" fill="#233881"/>
<path fill-rule="evenodd" clip-rule="evenodd" d="M8.83398 31.6315C11.377 37.8708 16.3775 44.8521 26.2202 50.6647C36.0631 44.8521 41.0636 37.8708 43.6061 31.6315L26.2197 15.553L8.83398 31.6315Z" fill="#D5AB23"/>
<path fill-rule="evenodd" clip-rule="evenodd" d="M22.9555 5.50715V13.2332C20.8813 12.4718 18.3803 13.0783 17.0532 14.0555C17.0532 11.5042 17.0532 8.952 17.0532 6.40121C18.2188 5.2657 20.9664 4.75855 22.9555 5.50715Z" fill="#FFFFFE"/>
<path fill-rule="evenodd" clip-rule="evenodd" d="M10.5798 5.52727V13.2533C12.6526 12.4921 15.1541 13.0987 16.4817 14.0759C16.4817 11.5244 16.4817 8.97212 16.4817 6.42157C15.3166 5.28606 12.5689 4.77867 10.5798 5.52727Z" fill="#FFFFFE"/>
<path fill-rule="evenodd" clip-rule="evenodd" d="M24.734 11.6553L24.717 11.6526C24.4203 11.6208 24.1941 11.6039 24.0399 11.5949V9.07491C24.1904 9.08388 24.4103 9.10036 24.7 9.13139L24.734 9.13236C25.3264 9.15903 25.4079 8.85697 25.4079 8.85697C25.2733 8.54448 24.9747 8.40339 24.734 8.38376L24.717 8.38182C24.4203 8.34982 24.1941 8.3326 24.0399 8.32339V6.19491H23.5158V13.9632C20.6612 13.3539 18.5034 13.6679 16.7662 14.9423C15.03 13.6679 12.8724 13.3544 10.0176 13.9632V6.19491H9.49347V8.32339C9.38341 8.32994 9.23795 8.34012 9.05371 8.35709V8.27806C9.05371 8.21891 9.00547 8.17067 8.93662 8.17115L8.22462 8.248C8.16741 8.25188 8.1228 8.29794 8.1228 8.35636V9.26715C8.1228 9.32654 8.17153 9.37454 8.24498 9.37261L8.95432 9.30327C9.00911 9.2977 9.05371 9.25042 9.05371 9.19467V9.10812C9.23795 9.09067 9.38365 9.08048 9.49347 9.07418V11.5949C9.38341 11.6015 9.23795 11.6116 9.05371 11.6291V11.5484C9.05371 11.4892 9.00547 11.4422 8.93662 11.4422L8.22462 11.5193C8.16741 11.5222 8.1228 11.5692 8.1228 11.6284V12.5375C8.1228 12.5968 8.17153 12.6453 8.24498 12.6439L8.95432 12.5721C9.00911 12.5685 9.05371 12.5219 9.05371 12.4652V12.3789C9.23795 12.3617 9.38365 12.3515 9.49347 12.3452V14.6201L9.81541 14.5455C12.7543 13.8604 14.9121 14.1564 16.6047 15.4766L16.7662 15.6041L16.9286 15.4766C18.6207 14.1564 20.779 13.8606 23.7184 14.5455L24.0399 14.6201V12.3459C24.1904 12.3547 24.4103 12.3712 24.7 12.4022L24.734 12.4036C25.3264 12.4303 25.4079 12.128 25.4079 12.128C25.2733 11.8158 24.9747 11.6747 24.734 11.6553Z" fill="#FFFFFE"/>
<path fill-rule="evenodd" clip-rule="evenodd" d="M9.91375 51.2815C9.63351 51.6441 9.16102 51.7023 8.65726 51.313C8.38648 51.104 8.21508 50.8795 8.11084 50.6933L8.37993 50.345C8.40005 50.319 8.43133 50.3202 8.46357 50.3498L8.62745 50.4948C8.63884 50.5035 8.64902 50.5205 8.63642 50.5428L8.52199 50.7028C8.63254 50.839 8.75472 50.961 8.84684 51.032C9.1089 51.2344 9.38211 51.303 9.56684 51.064C9.76466 50.8078 9.70696 50.6805 9.38575 50.1794C9.1569 49.8095 9.06187 49.4742 9.30866 49.1547C9.58672 48.7949 10.0449 48.767 10.5314 49.143C10.7099 49.2807 10.8665 49.4293 10.9964 49.5942L10.705 49.9714C10.6851 49.9973 10.6539 49.9961 10.6214 49.9665L10.4577 49.8216C10.4461 49.8126 10.4362 49.7956 10.449 49.7736L10.5632 49.6136C10.4922 49.5447 10.419 49.479 10.347 49.4235C10.0793 49.2167 9.80805 49.2046 9.6546 49.4034C9.4946 49.6107 9.55763 49.7789 9.84296 50.2247C10.1433 50.6865 10.1363 50.9937 9.91375 51.2815Z" fill="#FFFFFE"/>
<path fill-rule="evenodd" clip-rule="evenodd" d="M12.7045 53.3973C12.7203 53.4063 12.7241 53.4216 12.7152 53.4371L12.4897 53.8194L10.9699 52.9239C10.945 52.9091 10.9435 52.8829 10.9649 52.8533L11.0667 52.7023C11.0723 52.6931 11.0861 52.6841 11.1067 52.6921L11.2012 52.7394L12.3532 50.784L12.2599 50.7205C12.2378 50.7076 12.2412 50.68 12.2611 50.6538L12.3629 50.5025C12.3721 50.487 12.3869 50.4829 12.4027 50.4924L13.8691 51.3564L13.6439 51.7387C13.6291 51.7639 13.6029 51.7651 13.5736 51.7438L13.4221 51.6419C13.4129 51.6364 13.4041 51.6228 13.4121 51.6022L13.4594 51.5074L12.679 51.0478L12.2415 51.7903L13.1253 52.311L12.9552 52.5993L12.0715 52.0785L11.5898 52.8965L12.4233 53.3876L12.4868 53.2943C12.4999 53.2722 12.527 53.2756 12.5535 53.2955L12.7045 53.3973Z" fill="#FFFFFE"/>
<path fill-rule="evenodd" clip-rule="evenodd" d="M15.8868 54.8841C15.9035 54.8914 15.9093 54.9057 15.9023 54.9224L15.7263 55.3299L14.1062 54.6313C14.0795 54.6196 14.0749 54.5937 14.0926 54.5619L14.1745 54.3993C14.1789 54.3893 14.1915 54.3787 14.2128 54.384L14.3125 54.4192L15.2116 52.3348L15.111 52.2834C15.0875 52.2732 15.0875 52.2456 15.104 52.217L15.1859 52.0541C15.1932 52.0376 15.2075 52.0318 15.2242 52.039L16.7876 52.7132L16.6116 53.1207C16.6002 53.1476 16.5743 53.1522 16.5425 53.1345L16.3799 53.0526C16.3697 53.048 16.3592 53.0356 16.3646 53.0141L16.3995 52.9144L15.568 52.5556L15.2264 53.3474L16.1682 53.7537L16.0359 54.0611L15.0938 53.6545L14.7178 54.5265L15.6063 54.9098L15.6579 54.8092C15.6679 54.7857 15.6955 54.7857 15.7241 54.8022L15.8868 54.8841Z" fill="#FFFFFE"/>
<path fill-rule="evenodd" clip-rule="evenodd" d="M20.1987 53.7852C20.2266 53.793 20.2346 53.8179 20.2215 53.8519L20.1617 54.024C20.1585 54.0344 20.1476 54.0465 20.1258 54.0441L20.0225 54.0225L18.8836 54.6994L19.383 56.1998L19.486 56.2364C19.5107 56.2434 19.5141 56.2708 19.5018 56.3011L19.4421 56.4732C19.437 56.4909 19.4237 56.4984 19.4063 56.4933L19.0317 56.3881L18.5389 54.9045L18.2218 55.0912L18.0179 55.8155L18.1243 55.8531C18.1488 55.8601 18.1527 55.8875 18.1403 55.9181L18.0804 56.0902C18.0754 56.1076 18.062 56.1152 18.0446 56.1103L17.446 55.9418C17.4181 55.9341 17.4099 55.9089 17.4232 55.8749L17.4829 55.7028C17.486 55.6924 17.4969 55.6802 17.519 55.6829L17.6223 55.7045L18.237 53.5202L18.1306 53.4824C18.1059 53.4756 18.1023 53.4482 18.1149 53.4177L18.1747 53.2456C18.1796 53.2281 18.1929 53.2206 18.2104 53.2255L18.8089 53.3939C18.8368 53.4017 18.845 53.4267 18.8317 53.4609L18.7721 53.633C18.7689 53.6434 18.758 53.6553 18.7362 53.6531L18.6327 53.6315L18.3578 54.608L19.5495 53.8895L19.4431 53.8519C19.4189 53.8451 19.415 53.8177 19.4276 53.7872L19.4872 53.615C19.4921 53.5976 19.5057 53.5901 19.5231 53.5949L20.1987 53.7852Z" fill="#FFFFFE"/>
<path fill-rule="evenodd" clip-rule="evenodd" d="M26.6061 54.527C26.6354 54.5285 26.6485 54.551 26.6432 54.5874L26.6226 54.7682C26.6221 54.7794 26.6143 54.7935 26.592 54.7959L26.49 54.7978L25.7501 57.1818C25.7241 57.2606 25.6563 57.3045 25.5765 57.3004L25.2934 57.2747C25.2536 57.2725 25.2405 57.2463 25.2315 57.2058L24.8485 55.0545L24.8444 55.0543L24.2519 57.0599C24.2298 57.1316 24.1772 57.2308 24.0502 57.2206L23.7782 57.1954C23.7457 57.1939 23.7249 57.1745 23.7166 57.1268L23.2492 54.6288L23.1409 54.6158C23.1152 54.6143 23.1057 54.5884 23.1111 54.5559L23.1314 54.375C23.1321 54.3566 23.1438 54.3464 23.1622 54.3474L23.7615 54.3787C23.7906 54.3801 23.8039 54.4027 23.7986 54.4388L23.7782 54.6199C23.7775 54.6308 23.7692 54.6448 23.7474 54.6475L23.6454 54.6495L24 56.7918L24.0034 56.792L24.6393 54.592C24.6749 54.4664 24.7389 54.4259 24.826 54.4342L25.0325 54.456C25.0686 54.4616 25.0822 54.4805 25.0907 54.528L25.4968 56.8698L25.5001 56.8701L26.0977 54.7775L25.9894 54.7646C25.9637 54.7632 25.954 54.737 25.9593 54.7045L25.9797 54.5234C25.9806 54.5052 25.9923 54.495 26.0104 54.496L26.6061 54.527Z" fill="#FFFFFE"/>
<path fill-rule="evenodd" clip-rule="evenodd" d="M28.8856 56.8999C28.9109 56.8979 28.9239 56.9222 28.923 56.9551L28.9276 57.1375C28.929 57.1554 28.9191 57.1673 28.9009 57.169L28.2813 57.2208C28.2522 57.2233 28.2362 57.2029 28.2364 57.1663L28.2321 56.9842C28.2313 56.9733 28.2372 56.9581 28.2585 56.9527L28.363 56.9367L28.1729 54.6756L28.0597 54.6778C28.0343 54.68 28.0216 54.6555 28.0224 54.6228L28.018 54.4405C28.0163 54.4223 28.0263 54.4107 28.0444 54.4092L28.6641 54.3568C28.6932 54.3547 28.7094 54.375 28.7087 54.4114L28.7133 54.5937C28.714 54.6044 28.7082 54.6196 28.6866 54.625L28.5821 54.6412L28.7724 56.9021L28.8856 56.8999Z" fill="#FFFFFE"/>
<path fill-rule="evenodd" clip-rule="evenodd" d="M32.3171 55.8526C32.4039 56.3023 32.1351 56.6948 31.5101 56.8153C31.1743 56.8798 30.8931 56.8599 30.6844 56.815L30.6012 56.3828C30.5952 56.3508 30.6165 56.3282 30.6602 56.3234L30.8771 56.2965C30.8914 56.2938 30.9106 56.2975 30.9188 56.3217L30.9634 56.5132C31.1385 56.5202 31.3106 56.5093 31.4248 56.4873C31.7499 56.4247 31.9819 56.2652 31.9246 55.9687C31.8636 55.6512 31.7297 55.6102 31.1421 55.5198C30.7135 55.4468 30.3993 55.2962 30.3229 54.8999C30.2371 54.4536 30.5193 54.0919 31.1227 53.9758C31.344 53.9331 31.5588 53.9139 31.7683 53.9256L31.8585 54.3932C31.8645 54.4252 31.8429 54.448 31.7993 54.4526L31.5826 54.4798C31.5683 54.4824 31.5489 54.4788 31.5404 54.4543L31.4963 54.263C31.3979 54.2708 31.3002 54.2822 31.2107 54.2994C30.8788 54.3634 30.6907 54.5588 30.738 54.8051C30.7877 55.0623 30.9552 55.1263 31.4783 55.207C32.0233 55.287 32.2483 55.4955 32.3171 55.8526Z" fill="#FFFFFE"/>
<path fill-rule="evenodd" clip-rule="evenodd" d="M34.9892 55.5612C35.7199 55.3156 35.7199 54.7556 35.5356 54.2075C35.3318 53.601 35.0518 53.2463 34.2585 53.5125L33.9589 53.6133L34.6515 55.6747L34.9892 55.5612ZM34.1601 53.2082C35.2287 52.8492 35.6806 53.2688 35.9516 54.0756C36.2884 55.0785 35.9242 55.5925 34.997 55.9038L34.2663 56.1493C34.2387 56.1588 34.2178 56.1425 34.2098 56.1071L34.1623 55.9312C34.1587 55.9207 34.1608 55.9047 34.1805 55.8943L34.2782 55.8538L33.5555 53.703L33.4462 53.7319C33.4222 53.7399 33.4038 53.7195 33.3967 53.6873L33.3492 53.5113C33.3434 53.4941 33.3502 53.4802 33.3674 53.4744L34.1601 53.2082Z" fill="#FFFFFE"/>
<path fill-rule="evenodd" clip-rule="evenodd" d="M37.7116 53.3202C37.9249 53.7457 38.3 54.2492 38.833 53.9816C39.2747 53.7598 39.2772 53.2866 38.9753 52.6856C38.7569 52.2499 38.3802 51.768 37.857 52.0305C37.3244 52.2982 37.4995 52.8977 37.7116 53.3202ZM39.362 52.4996C39.7943 53.3605 39.6229 53.9673 38.986 54.287C38.356 54.6034 37.7538 54.3687 37.3281 53.5207C37.0212 52.9098 36.916 52.1249 37.7087 51.7268C38.388 51.3859 38.9802 51.7394 39.362 52.4996Z" fill="#FFFFFE"/>
<mask id="mask0_8_2394" style="mask-type:luminance" maskUnits="userSpaceOnUse" x="0" y="34" width="44" height="19">
<path fill-rule="evenodd" clip-rule="evenodd" d="M0.287354 52.8509V34.944H43.9033V52.8509H0.287354Z" fill="white"/>
</mask>
<g mask="url(#mask0_8_2394)">
<path fill-rule="evenodd" clip-rule="evenodd" d="M43.74 50.9641C43.7608 50.9493 43.7843 50.9639 43.8006 50.9925L43.8968 51.1472C43.9075 51.1619 43.9048 51.1772 43.8898 51.1879L43.3919 51.5416C43.3683 51.5583 43.3436 51.5488 43.3257 51.5171L43.2292 51.3627C43.2226 51.3537 43.2205 51.3377 43.2362 51.3222L43.315 51.2572L42.2757 49.8633L42.6525 51.6119C42.666 51.6688 42.666 51.7314 42.6217 51.7629C42.5889 51.7862 42.5385 51.8218 42.5068 51.84C42.4721 51.8604 42.4481 51.864 42.4173 51.8458L40.8318 50.8887L41.7999 52.3331L41.8961 52.2739C41.9169 52.2592 41.9405 52.2735 41.9562 52.3023L42.0529 52.457C42.0634 52.4718 42.0607 52.4868 42.0462 52.4975L41.5599 52.8427C41.5361 52.8594 41.5114 52.8502 41.4934 52.8184L41.3969 52.664C41.3906 52.655 41.3885 52.6388 41.4042 52.6235L41.4854 52.5564L40.2372 50.6601L40.1438 50.7173C40.1232 50.7321 40.0995 50.7176 40.0835 50.689L39.987 50.5343C39.9766 50.5195 39.9792 50.5042 39.994 50.4936L40.3497 50.241C40.3647 50.2305 40.3797 50.2332 40.394 50.2407L42.2595 51.36L41.7982 49.2659C41.7911 49.2308 41.7996 49.2114 41.826 49.1925L42.1967 48.9292C42.2205 48.9125 42.2449 48.9217 42.2629 48.9537L42.3594 49.1081C42.3657 49.1171 42.3683 49.1331 42.3528 49.1488L42.2709 49.2158L43.6469 51.0216L43.74 50.9641Z" fill="#FFFFFE"/>
</g>
<mask id="mask1_8_2394" style="mask-type:luminance" maskUnits="userSpaceOnUse" x="0" y="34" width="44" height="19">
<path fill-rule="evenodd" clip-rule="evenodd" d="M0.287354 52.8509V34.944H43.9033V52.8509H0.287354Z" fill="white"/>
</mask>
<g mask="url(#mask1_8_2394)">
<path fill-rule="evenodd" clip-rule="evenodd" d="M2.1818 43.3428L5.12774 40.6211L5.79634 39.992L6.16943 40.6092C6.8121 41.6747 7.52846 42.6742 8.3064 43.6061L9.30592 42.697C7.95077 41.0621 6.84458 39.2252 6.03367 37.2339C5.72774 36.4834 5.46834 35.7188 5.2538 34.944L3.65113 39.0592L0.272705 39.5321C0.278038 39.5464 0.283129 39.5605 0.288463 39.5738L2.1818 43.3428Z" fill="#233881"/>
</g>
<path fill-rule="evenodd" clip-rule="evenodd" d="M41.885 5.50715V13.2332C39.8108 12.4718 37.3097 13.0783 35.9827 14.0555C35.9827 11.5042 35.9827 8.952 35.9827 6.40121C37.1482 5.2657 39.8959 4.75855 41.885 5.50715Z" fill="#FFFFFE"/>
<path fill-rule="evenodd" clip-rule="evenodd" d="M29.5093 5.52727V13.2533C31.582 12.4921 34.0836 13.0987 35.4111 14.0759C35.4111 11.5244 35.4111 8.97212 35.4111 6.42157C34.246 5.28606 31.4984 4.77867 29.5093 5.52727Z" fill="#FFFFFE"/>
<path fill-rule="evenodd" clip-rule="evenodd" d="M43.6634 11.6553L43.6464 11.6526C43.3497 11.6208 43.1235 11.6039 42.9693 11.5949V9.07491C43.1199 9.08388 43.3398 9.10036 43.6295 9.13139L43.6634 9.13236C44.2559 9.15903 44.3373 8.85697 44.3373 8.85697C44.2028 8.54448 43.9041 8.40339 43.6634 8.38376L43.6464 8.38182C43.3497 8.34982 43.1235 8.3326 42.9693 8.32339V6.19491H42.4452V13.9632C39.5907 13.3539 37.4329 13.6679 35.6956 14.9423C33.9594 13.6679 31.8018 13.3544 28.947 13.9632V6.19491H28.4229V8.32339C28.3129 8.32994 28.1674 8.34012 27.9832 8.35709V8.27806C27.9832 8.21891 27.9347 8.17067 27.8661 8.17115L27.1541 8.248C27.0966 8.25188 27.0522 8.29794 27.0522 8.35636V9.26715C27.0522 9.32654 27.101 9.37454 27.1744 9.37261L27.8838 9.30327C27.9385 9.2977 27.9832 9.25042 27.9832 9.19467V9.10812C28.1674 9.09067 28.3131 9.08048 28.4229 9.07418V11.5949C28.3129 11.6015 28.1674 11.6116 27.9832 11.6291V11.5484C27.9832 11.4892 27.9347 11.4422 27.8661 11.4422L27.1541 11.5193C27.0966 11.5222 27.0522 11.5692 27.0522 11.6284V12.5375C27.0522 12.5968 27.101 12.6453 27.1744 12.6439L27.8838 12.5721C27.9385 12.5685 27.9832 12.5219 27.9832 12.4652V12.3789C28.1674 12.3617 28.3131 12.3515 28.4229 12.3452V14.6201L28.7449 14.5455C31.6838 13.8604 33.8416 14.1564 35.5342 15.4766L35.6956 15.6041L35.8581 15.4766C37.5504 14.1564 39.7085 13.8606 42.6479 14.5455L42.9693 14.6201V12.3459C43.1199 12.3547 43.3398 12.3712 43.6295 12.4022L43.6634 12.4036C44.2559 12.4303 44.3373 12.128 44.3373 12.128C44.2028 11.8158 43.9041 11.6747 43.6634 11.6553Z" fill="#FFFFFE"/>
<path fill-rule="evenodd" clip-rule="evenodd" d="M50.2328 43.3428L47.2868 40.6211L46.6182 39.992L46.2451 40.6092C45.6025 41.6747 44.8861 42.6742 44.1082 43.6061L43.1086 42.697C44.4638 41.0621 45.57 39.2252 46.3809 37.2339C46.6868 36.4834 46.9462 35.7188 47.1608 34.944L48.7634 39.0592L52.1419 39.5321C52.1365 39.5464 52.1314 39.5605 52.1263 39.5738L50.2328 43.3428Z" fill="#233881"/>
<path fill-rule="evenodd" clip-rule="evenodd" d="M27.239 37.8039C28.4218 38.3954 29.4361 38.688 30.0492 38.6487C30.0676 38.6478 30.1127 38.6468 30.1316 38.6458C30.3413 38.6305 30.6116 38.5724 30.8133 38.4507C30.9971 38.3404 31.1193 38.223 31.224 38.0715C31.3452 37.8933 31.3978 37.7423 31.4077 37.5539C31.3309 37.5833 31.2548 37.6065 31.1837 37.6245C31.1648 37.6291 31.1183 37.6383 31.0994 37.6424C30.4123 37.7498 29.5525 37.6567 28.366 37.3353C28.1723 37.553 27.7728 37.6742 27.3481 37.5728C27.3125 37.6524 27.2766 37.7278 27.239 37.8039Z" fill="#FFFFFE"/>
<path fill-rule="evenodd" clip-rule="evenodd" d="M28.9201 31.3125C28.8893 31.3872 28.8561 31.4587 28.8149 31.5321C28.6384 31.8381 28.396 32.0657 28.1516 32.1859C28.1545 32.2642 28.1555 32.3423 28.1565 32.4213C28.6653 32.1998 29.1819 31.945 29.6961 31.6686C31.6042 30.6458 32.9504 29.5088 33.3681 28.6999C33.3785 28.6805 33.404 28.6344 33.4134 28.6145C33.5271 28.3964 33.6294 28.0895 33.6294 27.8141C33.6294 27.3462 33.4304 26.9384 33.1312 26.7202C32.7368 27.6368 32.0144 28.6747 31.0248 29.6461C30.3533 30.3062 29.634 30.8693 28.9201 31.3125Z" fill="#FFFFFE"/>
<path fill-rule="evenodd" clip-rule="evenodd" d="M28.6624 36.1292C28.4949 36.313 28.2042 36.4819 27.8629 36.5122C27.7936 36.5178 27.7317 36.5217 27.6653 36.5198C27.6454 36.5893 27.6241 36.6572 27.6013 36.7253C29.317 37.2044 30.7502 37.3076 31.4835 37.0725C31.5014 37.0676 31.548 37.0543 31.5659 37.0487C31.7771 36.9811 32.0379 36.8512 32.2137 36.6766C32.3727 36.5161 32.4685 36.3661 32.5366 36.1828C32.6146 35.9721 32.5892 35.792 32.5892 35.792C32.5172 35.8422 32.1596 35.9578 32.1596 35.9578C31.4874 36.2027 30.3385 36.2528 28.6624 36.1292Z" fill="#FFFFFE"/>
<path fill-rule="evenodd" clip-rule="evenodd" d="M33.5024 31.6793C32.8694 32.3755 31.2377 33.1486 29.076 33.6686C28.9375 33.8897 28.6811 34.0941 28.3538 34.2131C28.2595 34.248 28.1649 34.2727 28.0731 34.2892C28.0646 34.3627 28.0556 34.4313 28.0469 34.5038C28.2173 34.4979 28.3875 34.4899 28.5589 34.4805C30.7213 34.3593 32.4214 33.8972 33.1417 33.3408C33.1596 33.328 33.2028 33.2967 33.2192 33.2846C33.4134 33.1336 33.6379 32.8987 33.7543 32.649C33.86 32.4223 33.9017 32.2286 33.9036 32.0124C33.9048 31.7622 33.8566 31.5794 33.7438 31.392C33.6876 31.4705 33.6294 31.5435 33.5725 31.6056C33.5574 31.623 33.5186 31.6618 33.5024 31.6793Z" fill="#FFFFFE"/>
<path fill-rule="evenodd" clip-rule="evenodd" d="M29.7537 39.2078C29.0721 39.1922 28.0919 38.8834 26.947 38.3125C26.8936 38.4015 26.841 38.4868 26.785 38.5699C27.6662 39.0298 28.4597 39.3433 29.1084 39.4953C29.0771 39.5302 29.0442 39.5648 29.0051 39.6007C28.8689 39.7258 28.7234 39.8114 28.5203 39.8788C28.2965 39.9518 28.019 39.9484 27.8117 39.9132C27.7928 39.911 27.7487 39.9018 27.7307 39.8982C27.3467 39.8356 26.8371 39.6075 26.2558 39.2344C26.1874 39.3035 26.1188 39.3682 26.0493 39.4298C26.6553 39.8322 27.1971 40.0984 27.6241 40.2063C27.5133 40.2936 27.4015 40.3474 27.243 40.391C27.0551 40.4407 26.8282 40.4257 26.6577 40.3891C26.6425 40.3862 26.6076 40.3762 26.5923 40.3736C26.2975 40.3086 25.9167 40.1183 25.4868 39.8192C25.3901 39.8684 25.2917 39.9096 25.1942 39.945C25.0095 40 24.7496 40.0516 24.5584 40.0516C23.9867 40.0516 23.4442 39.7915 22.9608 39.3244C22.9414 39.3062 22.7998 39.4516 22.8192 39.4701C23.2987 39.9947 23.9256 40.2907 24.5465 40.2907C24.7477 40.2907 25.2364 40.2201 25.4177 40.1074C25.929 40.4621 26.3457 40.6305 26.6856 40.687C26.7021 40.6897 26.7421 40.6979 26.7586 40.7001C26.947 40.7299 27.1979 40.7338 27.4015 40.6676C27.5848 40.608 27.7169 40.5297 27.8405 40.4162C27.8907 40.3697 27.9414 40.32 27.9768 40.2727C28.1928 40.2967 28.4522 40.2907 28.6672 40.2216C28.8912 40.1486 29.0512 40.0526 29.2008 39.9151C29.3254 39.801 29.4432 39.6955 29.5014 39.5699C29.8371 39.5838 30.1014 39.5278 30.1014 39.5278C30.2277 39.5074 30.3722 39.4645 30.4929 39.3568C30.5792 39.2788 30.6374 39.2078 30.6747 39.1135C30.4083 39.1918 30.1179 39.2187 29.8798 39.2148C29.8529 39.2131 29.7828 39.2097 29.7537 39.2078Z" fill="#FFFFFE"/>
<path fill-rule="evenodd" clip-rule="evenodd" d="M30.8446 31.5695C30.2987 31.9038 29.7425 32.1903 29.1913 32.4242C29.1292 32.5316 29.0511 32.6395 28.9602 32.7404C28.7149 33.0126 28.4204 33.1893 28.1476 33.2504C28.1445 33.327 28.1396 33.4048 28.1365 33.481C28.4526 33.4095 28.7741 33.328 29.0953 33.2415C31.1842 32.6732 32.7515 31.8679 33.3404 31.1728C33.3547 31.1571 33.3905 31.1178 33.4039 31.1008C33.5634 30.9132 33.7328 30.6378 33.7954 30.3692C33.9006 29.9132 33.8182 29.5493 33.5767 29.2701C32.9862 30.0732 32.0259 30.8441 30.8446 31.5695Z" fill="#FFFFFE"/>
<path fill-rule="evenodd" clip-rule="evenodd" d="M33.3367 33.6737C33.3185 33.6885 33.2662 33.7263 33.2485 33.7399C32.5578 34.2737 31.0175 34.7035 29.0255 34.8744L29.0238 34.8754C28.8907 35.0046 28.7217 35.1561 28.5285 35.2465C28.3195 35.3438 28.1062 35.4019 27.9081 35.417C27.8941 35.4943 27.8778 35.5391 27.8623 35.6155C27.8754 35.617 27.8858 35.6175 27.9001 35.6196C30.0512 35.8749 31.8058 35.7164 32.6112 35.2926C32.6313 35.2827 32.679 35.2604 32.6975 35.2514C32.9161 35.1343 33.1767 34.9435 33.3348 34.7178C33.4778 34.5127 33.553 34.3294 33.5927 34.1173C33.6359 33.8708 33.6235 33.7021 33.5455 33.4972C33.4764 33.5648 33.4039 33.6221 33.3367 33.6737Z" fill="#FFFFFE"/>
<path fill-rule="evenodd" clip-rule="evenodd" d="M28.9702 29.5915C28.9712 29.847 28.8902 30.143 28.7293 30.4213C28.554 30.7234 28.3179 30.9525 28.0754 31.073C28.0834 31.1539 28.0914 31.2339 28.0985 31.3161C28.955 30.8475 29.84 30.1954 30.6512 29.3988C31.6209 28.4451 32.3273 27.4361 32.7135 26.5382C32.8202 26.2921 32.8728 25.9939 32.8514 25.6739C32.8063 25.0235 32.4665 24.4834 32.0333 24.304C32.0417 24.4276 32.0359 24.5576 32.0185 24.6904C31.9234 25.5956 31.0839 27.1503 29.6776 28.7973C29.4456 29.0686 29.2102 29.3358 28.9702 29.5915Z" fill="#FFFFFE"/>
<path fill-rule="evenodd" clip-rule="evenodd" d="M29.316 28.5711C30.7031 26.9067 31.5232 25.3423 31.6076 24.4356C31.6767 23.8669 31.5322 23.3399 31.2127 23.1539C31.187 23.9634 30.0886 25.9355 28.3472 28.1423C28.5104 28.449 28.4357 28.9648 28.171 29.4165C28.0825 29.569 28.0299 29.6218 27.8728 29.7789C27.8932 29.8778 27.9116 29.9828 27.9295 30.0836C28.3996 29.6259 28.867 29.1105 29.316 28.5711Z" fill="#FFFFFE"/>
<path fill-rule="evenodd" clip-rule="evenodd" d="M18.3387 29.5161C18.296 29.4994 18.2534 29.4844 18.2102 29.4725C18.2286 29.6652 18.2296 29.8739 18.2286 30.0904C18.2245 30.624 18.1549 31.1312 18.0454 31.5481C18.0175 31.6599 18.0667 31.7675 18.1624 31.8063C18.1927 31.8187 18.2269 31.8223 18.2584 31.8182L18.2604 31.8124C18.4308 31.4228 18.6512 30.9942 18.9161 30.5573C18.9651 30.4759 19.0134 30.3964 19.0621 30.3181C18.9731 29.9753 18.714 29.6686 18.3387 29.5161Z" fill="#1A1919"/>
<path fill-rule="evenodd" clip-rule="evenodd" d="M33.2193 33.2846C33.2028 33.2967 33.1596 33.328 33.1417 33.3408C32.4214 33.8972 30.7213 34.3593 28.5589 34.4805C28.3875 34.4899 28.2173 34.4979 28.0469 34.5038C28.0556 34.4313 28.0646 34.3627 28.0731 34.2892C28.165 34.2727 28.2595 34.248 28.3538 34.2131C28.6811 34.0941 28.9376 33.8897 29.076 33.6686C31.2377 33.1486 32.8694 32.3755 33.5024 31.6793C33.5187 31.6618 33.5574 31.623 33.5725 31.6056C33.6294 31.5435 33.6876 31.4705 33.7439 31.392C33.8566 31.5794 33.9048 31.7622 33.9036 32.0124C33.9017 32.2286 33.86 32.4223 33.7543 32.649C33.6379 32.8987 33.4134 33.1336 33.2193 33.2846ZM33.4134 28.6145C33.404 28.6344 33.3785 28.6805 33.3681 28.6999C32.9504 29.5089 31.6042 30.6458 29.6961 31.6686C29.1819 31.945 28.6653 32.1998 28.1565 32.4213C28.1555 32.3423 28.1545 32.2642 28.1516 32.1859C28.396 32.0657 28.6384 31.8381 28.8149 31.5321C28.8561 31.4587 28.8893 31.3872 28.9201 31.3125C29.6341 30.8693 30.3533 30.3062 31.0248 29.6461C32.0144 28.6747 32.7368 27.6368 33.1313 26.7202C33.4304 26.9384 33.6294 27.3462 33.6294 27.8141C33.6294 28.0895 33.5271 28.3964 33.4134 28.6145ZM33.7955 30.3692C33.733 30.6378 33.5635 30.9132 33.404 31.1009C33.3907 31.1178 33.3548 31.1571 33.3405 31.1728C32.7516 31.8679 31.1844 32.6732 29.0954 33.2415C28.7742 33.328 28.4527 33.4095 28.1366 33.481C28.1397 33.4048 28.1446 33.327 28.1477 33.2504C28.4205 33.1893 28.715 33.0126 28.9604 32.7404C29.0513 32.6395 29.1293 32.5316 29.1914 32.4242C29.7427 32.1903 30.2988 31.9038 30.8447 31.5695C32.0261 30.8441 32.9863 30.0732 33.5768 29.2701C33.8183 29.5493 33.9007 29.9132 33.7955 30.3692ZM32.0333 24.304C32.4665 24.4834 32.8064 25.0235 32.8515 25.6739C32.8728 25.9939 32.8202 26.2921 32.7136 26.5382C32.3274 27.4361 31.621 28.4451 30.6513 29.3988C29.8401 30.1954 28.955 30.8475 28.0985 31.3161C28.0915 31.2339 28.0835 31.1539 28.0755 31.073C28.3179 30.9525 28.5541 30.7234 28.7293 30.4213C28.8903 30.143 28.9713 29.847 28.9703 29.5915C29.2103 29.3358 29.4457 29.0686 29.6777 28.7973C31.084 27.1503 31.9235 25.5956 32.0185 24.6904C32.036 24.5576 32.0418 24.4276 32.0333 24.304ZM31.6076 24.4356C31.5233 25.3423 30.7031 26.9067 29.316 28.5712C28.867 29.1105 28.3996 29.6259 27.9296 30.0836C27.9116 29.9828 27.8932 29.8778 27.8728 29.7789C28.0299 29.6218 28.0825 29.569 28.171 29.4165C28.4357 28.9649 28.5104 28.449 28.3473 28.1423C30.0886 25.9355 31.187 23.9634 31.2127 23.1539C31.5322 23.3399 31.6767 23.8669 31.6076 24.4356ZM30.1317 38.6458C30.1128 38.6468 30.0677 38.6478 30.0493 38.6487C29.4362 38.688 28.4219 38.3954 27.2391 37.8039C27.2767 37.7278 27.3126 37.6524 27.3482 37.5729C27.773 37.6742 28.1725 37.553 28.3662 37.3353C29.5526 37.6567 30.4125 37.7498 31.0995 37.6424C31.1184 37.6383 31.165 37.6291 31.1839 37.6245C31.2549 37.6065 31.331 37.5833 31.4079 37.5539C31.3979 37.7423 31.3453 37.8933 31.2241 38.0715C31.1194 38.223 30.9972 38.3404 30.8134 38.4507C30.6117 38.5724 30.3414 38.6305 30.1317 38.6458ZM30.1014 39.5278C30.1014 39.5278 29.8372 39.5838 29.5014 39.5699C29.4433 39.6955 29.3254 39.801 29.2008 39.9152C29.0513 40.0526 28.8913 40.1486 28.6673 40.2216C28.4522 40.2907 28.1928 40.2967 27.9768 40.2727C27.9414 40.32 27.8908 40.3697 27.8406 40.4162C27.717 40.5297 27.5848 40.608 27.4016 40.6676C27.1979 40.7338 26.947 40.7299 26.7587 40.7001C26.7422 40.6979 26.7022 40.6897 26.6857 40.687C26.3458 40.6305 25.9291 40.4621 25.4178 40.1074C25.2365 40.2201 24.7477 40.2907 24.5465 40.2907C23.9257 40.2907 23.2988 39.9947 22.8193 39.4701C22.7999 39.4516 22.9414 39.3062 22.9608 39.3244C23.4442 39.7915 23.9868 40.0516 24.5584 40.0516C24.7497 40.0516 25.0096 40 25.1943 39.945C25.2917 39.9096 25.3902 39.8684 25.4869 39.8192C25.9167 40.1183 26.2976 40.3086 26.5924 40.3736C26.6076 40.3762 26.6425 40.3862 26.6578 40.3891C26.8282 40.4257 27.0551 40.4407 27.243 40.391C27.4016 40.3474 27.5133 40.2936 27.6241 40.2063C27.1972 40.0984 26.6554 39.8322 26.0493 39.4298C26.1189 39.3682 26.1875 39.3035 26.2559 39.2344C26.8372 39.6075 27.3468 39.8356 27.7308 39.8982C27.7487 39.9018 27.7928 39.911 27.8117 39.9132C28.019 39.9484 28.2966 39.9518 28.5204 39.8788C28.7235 39.8114 28.869 39.7258 29.0052 39.6007C29.0442 39.5648 29.0772 39.5302 29.1085 39.4953C28.4597 39.3433 27.6663 39.0298 26.7851 38.5699C26.8411 38.4868 26.8937 38.4015 26.947 38.3125C28.092 38.8834 29.0721 39.1922 29.7538 39.2078C29.7829 39.2097 29.853 39.2131 29.8799 39.2148C30.1179 39.2187 30.4084 39.1918 30.6748 39.1135C30.6374 39.2078 30.5793 39.2788 30.493 39.3569C30.3722 39.4645 30.2277 39.5074 30.1014 39.5278ZM32.5366 36.1828C32.4685 36.3661 32.3727 36.5161 32.2137 36.6766C32.0379 36.8512 31.7771 36.9811 31.5659 37.0487C31.548 37.0543 31.5014 37.0676 31.4835 37.0725C30.7502 37.3076 29.317 37.2044 27.6013 36.7253C27.6241 36.6572 27.6454 36.5893 27.6653 36.5198C27.7317 36.5217 27.7936 36.5178 27.8629 36.5122C28.2042 36.4819 28.4949 36.313 28.6624 36.1292C30.3385 36.2528 31.4874 36.2027 32.1596 35.9578C32.1596 35.9578 32.5172 35.8422 32.5892 35.792C32.5892 35.792 32.6147 35.9721 32.5366 36.1828ZM33.5928 34.1173C33.5531 34.3295 33.4779 34.5127 33.3349 34.7178C33.1768 34.9435 32.9162 35.1343 32.6976 35.2514C32.6791 35.2604 32.6314 35.2827 32.6113 35.2926C31.8059 35.7164 30.0513 35.8749 27.9002 35.6196C27.8859 35.6175 27.8755 35.617 27.8624 35.6155C27.8779 35.5392 27.8942 35.4943 27.9082 35.417C28.1063 35.4019 28.3196 35.3438 28.5286 35.2465C28.7218 35.1561 28.8908 35.0046 29.0239 34.8754L29.0256 34.8744C31.0176 34.7035 32.5579 34.2737 33.2486 33.7399C33.2663 33.7263 33.3187 33.6885 33.3368 33.6737C33.404 33.6221 33.4765 33.5648 33.5456 33.4972C33.6236 33.7021 33.636 33.8708 33.5928 34.1173ZM34.4731 31.9733C34.4498 31.6364 34.3429 31.3215 34.18 31.0652C34.3817 30.7685 34.4879 30.3925 34.4736 29.9682C34.459 29.5076 34.2942 29.0849 34.036 28.7699C34.2018 28.4764 34.2857 28.1304 34.2724 27.7392C34.2486 27.0487 33.9196 26.4485 33.4362 26.1341C33.4527 26.0022 33.4566 25.8742 33.4537 25.7348C33.4224 24.6975 32.9747 24.0439 32.2554 23.7653C32.1024 23.0204 31.6011 22.3329 31.1536 21.9971C30.6096 24.304 28.8968 26.5219 28.2794 27.3983C27.2862 28.8075 27.0542 30.1476 26.501 31.7646C25.8481 33.6722 25.3902 35.6994 23.6418 36.9001C23.6418 36.7101 23.6522 36.5147 23.6748 36.312C23.9628 33.713 26.0631 29.4822 25.3027 27.0153C25.2568 26.8659 25.2037 26.7193 25.1397 26.5772C24.3911 24.8861 22.6886 24.6228 20.9446 25.4095C19.8585 25.8987 18.7298 26.3127 18.2103 27.4977C18.0016 27.9748 17.9276 28.4625 17.9754 28.88C17.9858 28.9733 18.0365 29.0485 18.1162 29.0754C18.2246 29.1125 18.3477 29.0485 18.412 28.928C18.4602 28.8453 18.493 28.7295 18.5014 28.6019C18.5014 28.5966 18.5024 28.5918 18.5034 28.5864C18.5053 28.5583 18.5109 28.527 18.5223 28.4975C18.5773 28.3634 18.7218 28.2955 18.8467 28.3455C18.9713 28.3969 19.0261 28.5469 18.9722 28.6805C18.9628 28.7042 18.9514 28.7246 18.9361 28.7447C18.9044 28.7879 18.8733 28.8376 18.843 28.8904C18.7776 29.0109 18.7373 29.1302 18.7225 29.2274C18.7024 29.3665 18.7795 29.5089 18.9141 29.5661C18.923 29.5709 18.9371 29.5775 18.9465 29.5816C19.4394 29.7825 20.0261 29.5261 20.3788 29.0034C20.5082 28.8085 20.6314 28.5864 20.7424 28.3469C20.9167 27.9724 20.9077 27.5908 21.1914 27.2587C21.6682 26.7042 23.0597 26.3409 23.6648 27.0754C24.8416 28.5035 23.5332 30.3508 22.7174 31.5653C21.6901 33.095 20.26 34.8465 19.5412 36.569C17.6624 41.0701 20.869 45.4863 26.0399 45.4863C29.324 45.4863 31.3737 44.0558 32.539 42.3469C30.2961 42.1724 29.0767 40.721 29.0767 40.721C29.0767 40.721 29.5252 40.6756 29.8159 40.1884C29.8159 40.1884 30.0256 40.1641 30.2127 40.1401C30.6653 40.081 31.0796 39.8495 31.2525 39.3452C31.3991 38.9195 31.4079 38.6524 31.4079 38.6524C31.4079 38.6524 31.7099 38.5256 31.8859 38.1178C31.9853 37.8868 32.012 37.7721 32.013 37.5387C32.5322 37.3641 32.9291 36.9181 33.1473 36.3522C33.2619 36.0521 33.2847 35.9081 33.2578 35.6184C33.8421 35.3249 34.2818 34.4948 34.259 33.8218C34.252 33.5922 34.1943 33.385 34.1094 33.1893C34.3708 32.8853 34.5068 32.4611 34.4731 31.9733Z" fill="#1A1919"/>
<path fill-rule="evenodd" clip-rule="evenodd" d="M65.7465 1.5486V2.96727C65.7465 3.06036 65.6767 3.10691 65.5604 3.09503L64.979 3.06036C64.9441 3.06036 64.8976 3.03709 64.8862 2.96727L64.8624 2.62982V2.61842H63.0951V9.68824L63.4556 9.71151C63.5371 9.71151 63.5718 9.79297 63.5604 9.89745L63.5255 10.4788C63.5255 10.5372 63.4903 10.5719 63.4324 10.5719H61.444C61.3511 10.5719 61.3046 10.5023 61.316 10.3857L61.3512 9.8046C61.3512 9.76969 61.3742 9.72291 61.444 9.71151L61.7812 9.68824V2.61842H60.1415L60.1184 2.97866C60.1184 3.06036 60.0372 3.09503 59.9325 3.08363L59.3509 3.04848C59.2927 3.04848 59.2581 3.01382 59.2581 2.95588V1.5486H65.7465Z" fill="#233881"/>
<path fill-rule="evenodd" clip-rule="evenodd" d="M74.4095 9.71151C74.4909 9.71151 74.5256 9.79297 74.5139 9.89745L74.479 10.4788C74.479 10.5372 74.4444 10.5719 74.3859 10.5719H72.3976C72.3047 10.5719 72.2582 10.5023 72.2698 10.3857L72.3047 9.8046C72.3047 9.76969 72.328 9.72291 72.3976 9.71151L72.735 9.68824V6.56048H68.6882V9.68824L69.0487 9.71151C69.1304 9.71151 69.1651 9.79297 69.1535 9.89745L69.1185 10.4788C69.1185 10.5372 69.0834 10.5719 69.0254 10.5719H67.0371C66.944 10.5719 66.8977 10.5023 66.9091 10.3857L66.944 9.8046C66.944 9.76969 66.9675 9.72291 67.0371 9.71151L67.3745 9.68824V2.43224L67.0141 2.40921C66.9326 2.40921 66.8977 2.32775 66.9091 2.22303L66.944 1.64169C66.944 1.58351 66.9792 1.5486 67.0371 1.5486H69.0254C69.1185 1.5486 69.1651 1.61866 69.1535 1.73454L69.1185 2.31612C69.1185 2.35078 69.0955 2.39733 69.0254 2.40921L68.6882 2.43224V5.47879H72.735V2.43224L72.3745 2.40921C72.2931 2.40921 72.2582 2.32775 72.2698 2.22303L72.3047 1.64169C72.3047 1.58351 72.3394 1.5486 72.3976 1.5486H74.3859C74.479 1.5486 74.5256 1.61866 74.5139 1.73454L74.479 2.31612C74.479 2.35078 74.4558 2.39733 74.3859 2.40921L74.049 2.43224V9.68824L74.4095 9.71151Z" fill="#233881"/>
<path fill-rule="evenodd" clip-rule="evenodd" d="M81.817 9.06036C81.8752 9.06036 81.9098 9.09527 81.9098 9.15345V10.5719H76.2703C76.1772 10.5719 76.1309 10.5023 76.1426 10.3857L76.1772 9.8046C76.1772 9.76969 76.2007 9.72291 76.2703 9.71151L76.6078 9.68824V2.43224L76.2473 2.40921C76.1658 2.40921 76.1309 2.32775 76.1426 2.22303L76.1772 1.64169C76.1772 1.58351 76.2124 1.5486 76.2703 1.5486H81.7123V2.96727C81.7123 3.06036 81.6422 3.10691 81.5263 3.09503L80.945 3.06036C80.9101 3.06036 80.8638 3.03709 80.8519 2.96727L80.8286 2.62982H77.9333V5.38594H81.2121V6.45575H77.9333V9.49042H81.0262L81.0497 9.12994C81.0497 9.04848 81.1314 9.01357 81.2356 9.02521L81.817 9.06036Z" fill="#233881"/>
<path fill-rule="evenodd" clip-rule="evenodd" d="M95.2226 1.5486C95.3159 1.5486 95.3622 1.61866 95.3504 1.73454L95.3159 2.31612C95.3159 2.35078 95.2927 2.39733 95.2226 2.40921L94.8856 2.43224H94.8505V7.2463C94.8505 9.59515 93.9322 10.7115 91.5831 10.7115C89.3387 10.7115 88.3622 9.95563 88.3622 7.2463V2.43224L88.0015 2.40921C87.9201 2.40921 87.8849 2.32775 87.8968 2.22303L87.9317 1.64169C87.9317 1.58351 87.9664 1.5486 88.025 1.5486H90.0129C90.1062 1.5486 90.1528 1.61866 90.1407 1.73454L90.1062 2.31612C90.1062 2.35078 90.0827 2.39733 90.0129 2.40921L89.6764 2.43224V7.47879C89.6764 8.92072 90.1062 9.69988 91.5715 9.69988C93.1998 9.69988 93.5712 8.69988 93.5712 7.47879V2.43224L93.2112 2.40921C93.1298 2.40921 93.0946 2.32775 93.1062 2.22303L93.1414 1.64169C93.1414 1.58351 93.1763 1.5486 93.2345 1.5486H95.2226Z" fill="#233881"/>
<path fill-rule="evenodd" clip-rule="evenodd" d="M104.967 1.5486C105.06 1.5486 105.107 1.61866 105.095 1.73454L105.06 2.31612C105.06 2.35078 105.037 2.39733 104.967 2.40921L104.63 2.43224H104.525V10.5719H103.654C103.596 10.5719 103.56 10.5486 103.525 10.5023L98.7696 3.85091V9.68824H98.8739L99.2348 9.71151C99.316 9.71151 99.3512 9.79297 99.3393 9.89745L99.3049 10.4788C99.3049 10.5372 99.2695 10.5719 99.2116 10.5719H97.223C97.1301 10.5719 97.0836 10.5023 97.0952 10.3857L97.1301 9.8046C97.1301 9.76969 97.1534 9.72291 97.223 9.71151L97.5602 9.68824V2.43224L97.1994 2.40921C97.1185 2.40921 97.0836 2.32775 97.0952 2.22303L97.1301 1.64169C97.1301 1.58351 97.1648 1.5486 97.223 1.5486H98.5131C98.5834 1.5486 98.6181 1.58351 98.6535 1.63006L103.316 8.14182V2.43224L102.956 2.40921C102.874 2.40921 102.84 2.32775 102.851 2.22303L102.886 1.64169C102.886 1.58351 102.921 1.5486 102.979 1.5486H104.967Z" fill="#233881"/>
<path fill-rule="evenodd" clip-rule="evenodd" d="M109.096 9.71151C109.177 9.71151 109.212 9.79297 109.2 9.89745L109.166 10.4788C109.166 10.5372 109.13 10.5719 109.072 10.5719H107.084C106.991 10.5719 106.945 10.5023 106.956 10.3857L106.991 9.8046C106.991 9.76969 107.014 9.72291 107.084 9.71151L107.421 9.68824V2.43224L107.061 2.40921C106.98 2.40921 106.945 2.32775 106.956 2.22303L106.991 1.64169C106.991 1.58351 107.026 1.5486 107.084 1.5486H109.072C109.166 1.5486 109.212 1.61866 109.2 1.73454L109.166 2.31612C109.166 2.35078 109.142 2.39733 109.072 2.40921L108.735 2.43224V9.68824L109.096 9.71151Z" fill="#233881"/>
<path fill-rule="evenodd" clip-rule="evenodd" d="M118.549 1.5486C118.643 1.5486 118.689 1.61866 118.678 1.73454L118.643 2.31612C118.643 2.35078 118.62 2.39733 118.549 2.40921L118.212 2.43224L115.328 10.2928C115.271 10.4674 115.143 10.5719 114.956 10.5719L113.979 10.5372C113.945 10.5372 113.922 10.5253 113.898 10.4674L110.886 2.43224L110.526 2.40921C110.445 2.40921 110.41 2.32775 110.422 2.22303L110.457 1.64169C110.457 1.58351 110.491 1.5486 110.549 1.5486H112.561C112.654 1.5486 112.701 1.61866 112.689 1.73454L112.654 2.31612C112.654 2.35078 112.631 2.39733 112.561 2.40921L112.224 2.43224L114.561 8.9903H114.596L116.922 2.43224L116.561 2.40921C116.48 2.40921 116.445 2.32775 116.457 2.22303L116.491 1.64169C116.491 1.58351 116.526 1.5486 116.584 1.5486H118.549Z" fill="#233881"/>
<path fill-rule="evenodd" clip-rule="evenodd" d="M125.573 9.06036C125.632 9.06036 125.667 9.09527 125.667 9.15345V10.5719H120.026C119.934 10.5719 119.887 10.5023 119.899 10.3857L119.934 9.8046C119.934 9.76969 119.957 9.72291 120.026 9.71151L120.364 9.68824V2.43224L120.003 2.40921C119.922 2.40921 119.887 2.32775 119.899 2.22303L119.934 1.64169C119.934 1.58351 119.968 1.5486 120.026 1.5486H125.469V2.96727C125.469 3.06036 125.399 3.10691 125.283 3.09503L124.701 3.06036C124.666 3.06036 124.619 3.03709 124.608 2.96727L124.585 2.62982H121.69V5.38594H124.969V6.45575H121.69V9.49042H124.783L124.806 9.12994C124.806 9.04848 124.888 9.01357 124.992 9.02521L125.573 9.06036Z" fill="#233881"/>
<path fill-rule="evenodd" clip-rule="evenodd" d="M130.201 6.04872C131.458 6.04872 132.179 5.50206 132.179 4.24654C132.179 3.04848 131.492 2.57188 130.306 2.57188H129.19V6.04872H130.201ZM133.795 9.71151C133.876 9.71151 133.911 9.79297 133.899 9.89745L133.864 10.4788C133.864 10.5372 133.83 10.5719 133.772 10.5719H132.446L130.469 7.08363H129.19V9.68824L129.551 9.71151C129.631 9.71151 129.667 9.79297 129.655 9.89745L129.62 10.4788C129.62 10.5372 129.586 10.5719 129.528 10.5719H127.539C127.446 10.5719 127.399 10.5023 127.411 10.3857L127.446 9.8046C127.446 9.76969 127.47 9.72291 127.539 9.71151L127.876 9.68824V2.43224L127.516 2.40921C127.434 2.40921 127.399 2.32775 127.411 2.22303L127.446 1.64169C127.446 1.58351 127.481 1.5486 127.539 1.5486H130.167C132.434 1.5486 133.504 2.40921 133.504 4.24654C133.504 5.42085 132.888 6.42085 131.783 6.83927L133.434 9.68824L133.795 9.71151Z" fill="#233881"/>
<path fill-rule="evenodd" clip-rule="evenodd" d="M141.016 8.09527C141.016 9.56024 139.935 10.6298 137.899 10.6298C136.806 10.6298 135.934 10.3976 135.306 10.1299V8.72291C135.306 8.61842 135.388 8.56048 135.528 8.57188L136.225 8.61842C136.271 8.61842 136.329 8.64145 136.342 8.72291L136.365 9.35127C136.911 9.47879 137.458 9.54836 137.83 9.54836C138.888 9.54836 139.714 9.18812 139.714 8.22303C139.714 7.18812 139.318 6.97867 137.527 6.33963C136.225 5.85091 135.33 5.18812 135.33 3.89721C135.33 2.44388 136.434 1.47879 138.399 1.47879C139.12 1.47879 139.807 1.5486 140.458 1.71127V3.23491C140.458 3.33939 140.376 3.39757 140.237 3.38594L139.539 3.33939C139.492 3.33939 139.435 3.31588 139.423 3.23491L139.4 2.60654C139.085 2.57188 138.772 2.5486 138.481 2.5486C137.399 2.5486 136.69 3.04848 136.69 3.85091C136.69 4.68824 137.178 4.99054 138.772 5.56C140.435 6.14182 141.016 6.93236 141.016 8.09527Z" fill="#233881"/>
<path fill-rule="evenodd" clip-rule="evenodd" d="M144.784 9.71151C144.865 9.71151 144.9 9.79297 144.888 9.89745L144.854 10.4788C144.854 10.5372 144.819 10.5719 144.761 10.5719H142.772C142.679 10.5719 142.632 10.5023 142.644 10.3857L142.679 9.8046C142.679 9.76969 142.703 9.72291 142.772 9.71151L143.109 9.68824V2.43224L142.749 2.40921C142.667 2.40921 142.632 2.32775 142.644 2.22303L142.679 1.64169C142.679 1.58351 142.714 1.5486 142.772 1.5486H144.761C144.854 1.5486 144.9 1.61866 144.888 1.73454L144.854 2.31612C144.854 2.35078 144.83 2.39733 144.761 2.40921L144.423 2.43224V9.68824L144.784 9.71151Z" fill="#233881"/>
<path fill-rule="evenodd" clip-rule="evenodd" d="M152.772 1.5486V2.96727C152.772 3.06036 152.703 3.10691 152.586 3.09503L152.005 3.06036C151.97 3.06036 151.924 3.03709 151.912 2.96727L151.888 2.62982V2.61842H150.121V9.68824L150.482 9.71151C150.563 9.71151 150.598 9.79297 150.586 9.89745L150.551 10.4788C150.551 10.5372 150.517 10.5719 150.458 10.5719H148.47C148.377 10.5719 148.33 10.5023 148.342 10.3857L148.377 9.8046C148.377 9.76969 148.4 9.72291 148.47 9.71151L148.807 9.68824V2.61842H147.168L147.145 2.97866C147.145 3.06036 147.063 3.09503 146.958 3.08363L146.377 3.04848C146.319 3.04848 146.284 3.01382 146.284 2.95588V1.5486H152.772Z" fill="#233881"/>
<path fill-rule="evenodd" clip-rule="evenodd" d="M160.61 1.5486C160.702 1.5486 160.749 1.61866 160.738 1.73454L160.702 2.31612C160.702 2.35078 160.679 2.39733 160.61 2.40921L160.273 2.43224L157.738 7.39757V9.68824L158.098 9.71151C158.18 9.71151 158.215 9.79297 158.203 9.89745L158.168 10.4788C158.168 10.5372 158.134 10.5719 158.075 10.5719H156.087C155.994 10.5719 155.947 10.5023 155.959 10.3857L155.994 9.8046C155.994 9.76969 156.016 9.72291 156.087 9.71151L156.423 9.68824V7.37406L153.924 2.43224L153.575 2.40921C153.494 2.40921 153.458 2.32775 153.47 2.22303L153.505 1.64169C153.505 1.58351 153.54 1.5486 153.598 1.5486H155.587C155.679 1.5486 155.726 1.61866 155.715 1.73454L155.679 2.31612C155.679 2.35078 155.656 2.39733 155.587 2.40921L155.261 2.43224L157.075 6.17648H157.11L158.982 2.43224L158.621 2.40921C158.54 2.40921 158.505 2.32775 158.517 2.22303L158.552 1.64169C158.552 1.58351 158.587 1.5486 158.645 1.5486H160.61Z" fill="#233881"/>
<path fill-rule="evenodd" clip-rule="evenodd" d="M166.485 6.04873C166.485 7.57212 166.834 9.54836 168.741 9.54836C170.322 9.54836 171.008 8.19976 171.008 6.04873C171.008 4.49042 170.624 2.57188 168.752 2.57188C166.845 2.57188 166.485 4.53721 166.485 6.04873ZM172.38 6.07176C172.38 9.15345 171.02 10.6417 168.741 10.6417C166.485 10.6417 165.101 9.10691 165.101 6.07176C165.101 3.88557 165.927 1.49067 168.764 1.49067C171.194 1.49067 172.38 3.35127 172.38 6.07176Z" fill="#233881"/>
<path fill-rule="evenodd" clip-rule="evenodd" d="M179.346 1.5486V2.96727C179.346 3.06036 179.276 3.10691 179.16 3.09503L178.578 3.06036C178.543 3.06036 178.497 3.03709 178.485 2.96727L178.462 2.62982H175.555V5.38594H178.706V6.45575H175.555V9.68824L175.916 9.71151C175.997 9.71151 176.032 9.79297 176.02 9.89745L175.985 10.4788C175.985 10.5372 175.95 10.5719 175.892 10.5719H173.904C173.811 10.5719 173.765 10.5023 173.776 10.3857L173.811 9.8046C173.811 9.76969 173.834 9.72291 173.904 9.71151L174.241 9.68824V2.43224L173.881 2.40921C173.799 2.40921 173.765 2.32775 173.776 2.22303L173.811 1.64169C173.811 1.58351 173.846 1.5486 173.904 1.5486H179.346Z" fill="#233881"/>
<path fill-rule="evenodd" clip-rule="evenodd" d="M83.9153 14.7699C84.1209 14.7699 84.2237 14.9244 84.198 15.1813L84.1209 16.4664C84.1209 16.5438 84.0693 16.6465 83.9153 16.6722L83.1953 16.7236L78.8513 33.8184C78.6967 34.384 78.2341 34.7183 77.6685 34.7183L75.6637 34.6412C75.3805 34.6412 75.2777 34.4611 75.2004 34.1784L71.7044 19.1401H71.679L68.2344 33.5098C68.1056 34.0242 67.7716 34.744 66.8717 34.7183L64.9439 34.6412C64.7124 34.6412 64.5585 34.5125 64.4811 34.1784L60.2654 16.7236L59.4942 16.6722C59.3144 16.6722 59.2373 16.4926 59.2625 16.2608L59.3398 14.9758C59.3398 14.847 59.4174 14.7699 59.5454 14.7699H63.7871C63.9927 14.7699 64.0954 14.9244 64.07 15.1813L63.9927 16.4664C63.9927 16.5438 63.9413 16.6465 63.7871 16.6722L63.0671 16.7236L66.3577 31.7103H66.3834L70.0593 15.9525C70.2649 15.0528 70.702 14.7442 71.3192 14.7699L72.7844 14.847C73.0411 14.8727 73.1439 15.0015 73.2213 15.3355L76.9485 31.7103H76.9745L80.4191 16.7236L79.6479 16.6722C79.4681 16.6722 79.3907 16.4926 79.4164 16.2608L79.4935 14.9758C79.4935 14.847 79.5708 14.7699 79.6991 14.7699H83.9153Z" fill="#233881"/>
<path fill-rule="evenodd" clip-rule="evenodd" d="M98.1553 31.3762C98.2835 31.3762 98.3608 31.4533 98.3608 31.5821V34.7183H85.8937C85.6881 34.7183 85.5851 34.5639 85.6108 34.3069L85.6881 33.0216C85.6881 32.9445 85.7393 32.8415 85.8937 32.8158L86.6389 32.7644V16.7236L85.8421 16.6722C85.6622 16.6722 85.5851 16.4926 85.6108 16.2608L85.6881 14.9758C85.6881 14.847 85.765 14.7699 85.8937 14.7699H97.9242V17.9064C97.9242 18.1118 97.7696 18.2145 97.5128 18.1891L96.2275 18.1118C96.1502 18.1118 96.0474 18.0604 96.0214 17.9064L95.9705 17.1607H89.5698V23.2531H96.8188V25.6182H89.5698V32.3275H96.4076L96.459 31.5304C96.459 31.3508 96.6389 31.2735 96.8702 31.2991L98.1553 31.3762Z" fill="#233881"/>
<path fill-rule="evenodd" clip-rule="evenodd" d="M112.91 29.2429C112.91 32.4817 110.52 34.8468 106.021 34.8468C103.604 34.8468 101.676 34.3324 100.288 33.7411V30.631C100.288 30.3995 100.468 30.2708 100.777 30.2965L102.319 30.3995C102.422 30.3995 102.551 30.4512 102.576 30.631L102.627 32.0189C103.835 32.3018 105.044 32.4558 105.867 32.4558C108.207 32.4558 110.031 31.6592 110.031 29.5256C110.031 27.2376 109.157 26.775 105.198 25.361C102.319 24.2812 100.339 22.816 100.339 19.9627C100.339 16.7496 102.782 14.6158 107.126 14.6158C108.72 14.6158 110.236 14.7699 111.676 15.1297V18.4975C111.676 18.7287 111.496 18.8575 111.188 18.8315L109.646 18.7287C109.543 18.7287 109.414 18.6776 109.388 18.4975L109.337 17.1093C108.643 17.0322 107.949 16.9808 107.307 16.9808C104.916 16.9808 103.347 18.0861 103.347 19.8599C103.347 21.7105 104.427 22.3792 107.949 23.6385C111.625 24.9239 112.91 26.6722 112.91 29.2429Z" fill="#233881"/>
<path fill-rule="evenodd" clip-rule="evenodd" d="M128.282 14.7699V17.9064C128.282 18.1118 128.127 18.2145 127.87 18.1891L126.585 18.1118C126.508 18.1118 126.405 18.0604 126.379 17.9064L126.328 17.1607V17.135H122.42V32.7644L123.217 32.8158C123.398 32.8158 123.474 32.9959 123.449 33.2274L123.371 34.5125C123.371 34.6412 123.295 34.7183 123.166 34.7183H118.77C118.565 34.7183 118.462 34.5639 118.488 34.3069L118.565 33.0216C118.565 32.9445 118.616 32.8415 118.77 32.8158L119.516 32.7644V17.135H115.891L115.84 17.9319C115.84 18.1118 115.66 18.1891 115.429 18.1634L114.144 18.0861C114.014 18.0861 113.938 18.009 113.938 17.8805V14.7699H128.282Z" fill="#233881"/>
<path fill-rule="evenodd" clip-rule="evenodd" d="M142.702 31.3762C142.831 31.3762 142.908 31.4533 142.908 31.5821V34.7183H130.44C130.234 34.7183 130.131 34.5639 130.157 34.3069L130.234 33.0216C130.234 32.9445 130.286 32.8415 130.44 32.8158L131.186 32.7644V16.7236L130.389 16.6722C130.209 16.6722 130.131 16.4926 130.157 16.2608L130.234 14.9758C130.234 14.847 130.311 14.7699 130.44 14.7699H142.47V17.9064C142.47 18.1118 142.317 18.2145 142.059 18.1891L140.774 18.1118C140.697 18.1118 140.594 18.0604 140.568 17.9064L140.517 17.1607H134.116V23.2531H141.365V25.6182H134.116V32.3275H140.954L141.005 31.5304C141.005 31.3508 141.186 31.2735 141.417 31.2991L142.702 31.3762Z" fill="#233881"/>
<path fill-rule="evenodd" clip-rule="evenodd" d="M151.493 24.7183C154.269 24.7183 155.863 23.5101 155.863 20.7338C155.863 18.0861 154.346 17.0322 151.724 17.0322H149.256V24.7183H151.493ZM159.436 32.8158C159.616 32.8158 159.693 32.9959 159.667 33.2274L159.59 34.5125C159.59 34.6412 159.513 34.7183 159.384 34.7183H156.454L152.084 27.0063H149.256V32.7644L150.053 32.8158C150.233 32.8158 150.31 32.9959 150.285 33.2274L150.207 34.5125C150.207 34.6412 150.13 34.7183 150.002 34.7183H145.606C145.4 34.7183 145.297 34.5639 145.324 34.3069L145.4 33.0216C145.4 32.9445 145.452 32.8415 145.606 32.8158L146.352 32.7644V16.7236L145.555 16.6722C145.374 16.6722 145.297 16.4926 145.324 16.2608L145.4 14.9758C145.4 14.847 145.478 14.7699 145.606 14.7699H151.416C156.429 14.7699 158.793 16.6722 158.793 20.7338C158.793 23.3302 157.43 25.5408 154.989 26.4664L158.639 32.7644L159.436 32.8158Z" fill="#233881"/>
<path fill-rule="evenodd" clip-rule="evenodd" d="M179.152 14.7699C179.357 14.7699 179.46 14.9244 179.434 15.1813L179.357 16.4664C179.357 16.5438 179.306 16.6465 179.152 16.6722L178.407 16.7236H178.175V34.7183H176.247C176.118 34.7183 176.041 34.6667 175.964 34.5639L165.45 19.8599V32.7644H165.682L166.479 32.8158C166.659 32.8158 166.736 32.9959 166.71 33.2274L166.633 34.5125C166.633 34.6412 166.556 34.7183 166.427 34.7183H162.032C161.826 34.7183 161.723 34.5639 161.749 34.3069L161.826 33.0216C161.826 32.9445 161.877 32.8415 162.032 32.8158L162.777 32.7644V16.7236L161.98 16.6722C161.8 16.6722 161.723 16.4926 161.749 16.2608L161.826 14.9758C161.826 14.847 161.903 14.7699 162.032 14.7699H164.885C165.039 14.7699 165.116 14.847 165.193 14.9501L175.501 29.3457V16.7236L174.704 16.6722C174.525 16.6722 174.448 16.4926 174.473 16.2608L174.551 14.9758C174.551 14.847 174.627 14.7699 174.756 14.7699H179.152Z" fill="#233881"/>
<path fill-rule="evenodd" clip-rule="evenodd" d="M69.6822 49.7275L66.8228 41.6104H66.801L64.0948 49.7275H69.6822ZM74.4996 54.2368C74.6538 54.2368 74.7198 54.391 74.6977 54.5888L74.6318 55.6887C74.6318 55.7988 74.5656 55.8647 74.4781 55.8647H70.6284C70.4524 55.8647 70.3641 55.7326 70.3864 55.5127L70.4524 54.4128C70.4524 54.3469 70.496 54.2589 70.6284 54.2368L71.2441 54.193L70.3864 51.7513H63.4131L62.5993 54.193L63.281 54.2368C63.4349 54.2368 63.5011 54.391 63.479 54.5888L63.4131 55.6887C63.4131 55.7988 63.3471 55.8647 63.2371 55.8647H59.5195C59.3435 55.8647 59.2553 55.7326 59.2776 55.5127L59.3435 54.4128C59.3435 54.3469 59.3874 54.2589 59.5195 54.2368L60.1355 54.193L65.0625 40.4664L64.4027 40.4225C64.249 40.4225 64.1828 40.2686 64.2048 40.0705L64.2708 38.9707C64.2708 38.8606 64.337 38.7949 64.4473 38.7949H67.9445L73.84 54.193L74.4996 54.2368Z" fill="#233881"/>
<path fill-rule="evenodd" clip-rule="evenodd" d="M88.4453 38.7949C88.6206 38.7949 88.7091 38.9265 88.687 39.1467L88.6206 40.2463C88.6206 40.3125 88.5775 40.4005 88.4453 40.4225L87.807 40.4664H87.7411V49.5733C87.7411 54.017 86.0034 56.1287 81.5598 56.1287C77.3142 56.1287 75.4664 54.6987 75.4664 49.5733V40.4664L74.7847 40.4225C74.6305 40.4225 74.5646 40.2686 74.5867 40.0705L74.6524 38.9707C74.6524 38.8606 74.7188 38.7949 74.8286 38.7949H78.5901C78.7661 38.7949 78.8541 38.9265 78.8322 39.1467L78.7661 40.2463C78.7661 40.3125 78.7222 40.4005 78.5901 40.4225L77.9522 40.4664V50.0133C77.9522 52.7411 78.7661 54.215 81.5377 54.215C84.6177 54.215 85.3212 52.3231 85.3212 50.0133V40.4664L84.6395 40.4225C84.4853 40.4225 84.4194 40.2686 84.4414 40.0705L84.5076 38.9707C84.5076 38.8606 84.5736 38.7949 84.6834 38.7949H88.4453Z" fill="#233881"/>
<path fill-rule="evenodd" clip-rule="evenodd" d="M100.917 51.1791C100.917 53.951 98.8711 55.9745 95.0212 55.9745C92.9538 55.9745 91.3041 55.5345 90.116 55.0288V52.3673C90.116 52.1692 90.2701 52.0589 90.5341 52.0812L91.8537 52.1692C91.9417 52.1692 92.0517 52.2131 92.0738 52.3673L92.1174 53.5549C93.1518 53.7971 94.1855 53.9287 94.8893 53.9287C96.891 53.9287 98.4529 53.247 98.4529 51.4213C98.4529 49.4633 97.7055 49.0676 94.3179 47.8577C91.8537 46.9338 90.1601 45.68 90.1601 43.2383C90.1601 40.4885 92.2498 38.6625 95.9674 38.6625C97.3312 38.6625 98.6294 38.7949 99.8612 39.103V41.9845C99.8612 42.1823 99.7068 42.2921 99.4432 42.2703L98.1232 42.1823C98.035 42.1823 97.9247 42.1384 97.9031 41.9845L97.8595 40.7964C97.2651 40.7304 96.6709 40.6865 96.1215 40.6865C94.0755 40.6865 92.7339 41.6322 92.7339 43.1501C92.7339 44.7341 93.6578 45.3059 96.6709 46.3838C99.8166 47.4836 100.917 48.9794 100.917 51.1791Z" fill="#233881"/>
<path fill-rule="evenodd" clip-rule="evenodd" d="M114.378 38.7949V41.4785C114.378 41.6543 114.246 41.7425 114.026 41.7205L112.926 41.6543C112.86 41.6543 112.772 41.6104 112.751 41.4785L112.706 40.8405V40.8187H109.362V54.193L110.044 54.2368C110.198 54.2368 110.265 54.391 110.243 54.5888L110.176 55.6887C110.176 55.7988 110.111 55.8647 110 55.8647H106.239C106.063 55.8647 105.975 55.7326 105.997 55.5127L106.063 54.4128C106.063 54.3469 106.107 54.2589 106.239 54.2368L106.877 54.193V40.8187H103.775L103.732 41.5004C103.732 41.6543 103.577 41.7205 103.38 41.6984L102.279 41.6322C102.17 41.6322 102.104 41.5663 102.104 41.4565V38.7949H114.378Z" fill="#233881"/>
<path fill-rule="evenodd" clip-rule="evenodd" d="M121.306 47.3079C123.682 47.3079 125.046 46.2737 125.046 43.8979C125.046 41.6322 123.748 40.7304 121.504 40.7304H119.393V47.3079H121.306ZM128.103 54.2368C128.257 54.2368 128.323 54.391 128.302 54.5888L128.235 55.6887C128.235 55.7988 128.169 55.8647 128.059 55.8647H125.552L121.812 49.2654H119.393V54.193L120.075 54.2368C120.228 54.2368 120.294 54.391 120.272 54.5888L120.207 55.6887C120.207 55.7988 120.141 55.8647 120.03 55.8647H116.269C116.093 55.8647 116.005 55.7326 116.026 55.5127L116.093 54.4128C116.093 54.3469 116.137 54.2589 116.269 54.2368L116.907 54.193V40.4664L116.225 40.4225C116.071 40.4225 116.005 40.2686 116.026 40.0705L116.093 38.9707C116.093 38.8606 116.159 38.7949 116.269 38.7949H121.24C125.53 38.7949 127.554 40.4225 127.554 43.8979C127.554 46.1195 126.388 48.0116 124.298 48.8036L127.422 54.193L128.103 54.2368Z" fill="#233881"/>
<path fill-rule="evenodd" clip-rule="evenodd" d="M139.717 49.7275L136.857 41.6104H136.836L134.129 49.7275H139.717ZM144.534 54.2368C144.688 54.2368 144.754 54.391 144.732 54.5888L144.667 55.6887C144.667 55.7988 144.6 55.8647 144.512 55.8647H140.663C140.487 55.8647 140.399 55.7326 140.421 55.5127L140.487 54.4128C140.487 54.3469 140.53 54.2589 140.663 54.2368L141.279 54.193L140.421 51.7513H133.448L132.634 54.193L133.315 54.2368C133.47 54.2368 133.536 54.391 133.513 54.5888L133.448 55.6887C133.448 55.7988 133.381 55.8647 133.272 55.8647H129.554C129.378 55.8647 129.29 55.7326 129.312 55.5127L129.378 54.4128C129.378 54.3469 129.422 54.2589 129.554 54.2368L130.17 54.193L135.097 40.4664L134.438 40.4225C134.283 40.4225 134.218 40.2686 134.239 40.0705L134.306 38.9707C134.306 38.8606 134.371 38.7949 134.482 38.7949H137.979L143.874 54.193L144.534 54.2368Z" fill="#233881"/>
<path fill-rule="evenodd" clip-rule="evenodd" d="M156.852 53.0051C156.963 53.0051 157.028 53.071 157.028 53.1811V55.8647H146.359C146.183 55.8647 146.096 55.7326 146.117 55.5127L146.183 54.4128C146.183 54.3469 146.227 54.2589 146.359 54.2368L146.997 54.193V40.4664L146.315 40.4225C146.162 40.4225 146.096 40.2686 146.117 40.0705L146.183 38.9707C146.183 38.8606 146.249 38.7949 146.359 38.7949H150.121C150.297 38.7949 150.385 38.9265 150.363 39.1467L150.297 40.2463C150.297 40.3125 150.253 40.4005 150.121 40.4225L149.483 40.4664V53.8189H155.356L155.4 53.137C155.4 52.983 155.554 52.9171 155.752 52.9389L156.852 53.0051Z" fill="#233881"/>
<path fill-rule="evenodd" clip-rule="evenodd" d="M162.394 54.2368C162.548 54.2368 162.614 54.391 162.592 54.5888L162.526 55.6887C162.526 55.7988 162.46 55.8647 162.35 55.8647H158.589C158.412 55.8647 158.325 55.7326 158.347 55.5127L158.412 54.4128C158.412 54.3469 158.456 54.2589 158.589 54.2368L159.227 54.193V40.4664L158.545 40.4225C158.391 40.4225 158.325 40.2686 158.347 40.0705L158.412 38.9707C158.412 38.8606 158.479 38.7949 158.589 38.7949H162.35C162.526 38.7949 162.614 38.9265 162.592 39.1467L162.526 40.2463C162.526 40.3125 162.482 40.4005 162.35 40.4225L161.712 40.4664V54.193L162.394 54.2368Z" fill="#233881"/>
<path fill-rule="evenodd" clip-rule="evenodd" d="M174.427 49.7275L171.567 41.6104H171.545L168.839 49.7275H174.427ZM179.244 54.2368C179.398 54.2368 179.464 54.391 179.442 54.5888L179.376 55.6887C179.376 55.7988 179.31 55.8647 179.222 55.8647H175.372C175.197 55.8647 175.108 55.7326 175.13 55.5127L175.197 54.4128C175.197 54.3469 175.241 54.2589 175.372 54.2368L175.988 54.193L175.13 51.7513H168.157L167.344 54.193L168.025 54.2368C168.179 54.2368 168.245 54.391 168.224 54.5888L168.157 55.6887C168.157 55.7988 168.092 55.8647 167.981 55.8647H164.264C164.087 55.8647 163.999 55.7326 164.022 55.5127L164.087 54.4128C164.087 54.3469 164.132 54.2589 164.264 54.2368L164.88 54.193L169.807 40.4664L169.147 40.4225C168.994 40.4225 168.927 40.2686 168.95 40.0705L169.015 38.9707C169.015 38.8606 169.081 38.7949 169.191 38.7949H172.689L178.584 54.193L179.244 54.2368Z" fill="#233881"/>
<path fill-rule="evenodd" clip-rule="evenodd" d="M31.6248 9.13164H30.4966V7.32873H31.6008C31.6112 7.35806 31.6195 7.41406 31.6195 7.48873C31.6195 7.54739 31.6139 7.59806 31.6008 7.65406H30.8779V8.04339H31.4888C31.4995 8.07273 31.5075 8.12606 31.5075 8.20073C31.5075 8.25939 31.5019 8.30739 31.4888 8.36339H30.8779V8.80606H31.6248C31.6355 8.83564 31.6432 8.89164 31.6432 8.9663C31.6432 9.02497 31.6382 9.07564 31.6248 9.13164Z" fill="#233881"/>
<path fill-rule="evenodd" clip-rule="evenodd" d="M32.4751 7.62739C32.4164 7.62739 32.3444 7.63006 32.2991 7.63272V8.16606H32.4324C32.6513 8.16606 32.7471 8.08606 32.7471 7.88872C32.7471 7.69139 32.6513 7.62739 32.4751 7.62739ZM33.246 9.12897C33.1766 9.13963 33.1046 9.14497 33.022 9.14497C32.9471 9.14497 32.8726 9.1423 32.822 9.13163L32.4564 8.48339H32.2991V9.13163C32.2324 9.1423 32.1764 9.14497 32.1044 9.14497C32.0404 9.14497 31.9844 9.1423 31.9177 9.13163V7.32872C32.0404 7.32072 32.2964 7.31539 32.4511 7.31539C32.9044 7.31539 33.1313 7.47539 33.1313 7.89139C33.1313 8.11273 32.9977 8.33406 32.8113 8.41406L33.246 9.12897Z" fill="#233881"/>
<path fill-rule="evenodd" clip-rule="evenodd" d="M34.5633 9.13164H33.4351V7.32873H34.5393C34.55 7.35806 34.558 7.41406 34.558 7.48873C34.558 7.54739 34.5524 7.59806 34.5393 7.65406H33.8164V8.04339H34.4273C34.438 8.07273 34.446 8.12606 34.446 8.20073C34.446 8.25939 34.4404 8.30739 34.4273 8.36339H33.8164V8.80606H34.5633C34.574 8.83564 34.5817 8.89164 34.5817 8.9663C34.5817 9.02497 34.5766 9.07564 34.5633 9.13164Z" fill="#233881"/>
<path fill-rule="evenodd" clip-rule="evenodd" d="M31.0542 10.1149C31.0006 10.1149 30.9312 10.1176 30.8779 10.1202V10.6509H31.0435C31.2486 10.6509 31.3582 10.5976 31.3582 10.3789C31.3582 10.1922 31.2648 10.1149 31.0542 10.1149ZM31.0648 10.9709H30.8779V11.6165C30.8272 11.6245 30.7659 11.6298 30.6859 11.6298C30.6139 11.6298 30.5472 11.6245 30.4966 11.6165V9.816C30.6515 9.80824 30.8859 9.80024 31.0379 9.80024C31.4462 9.80024 31.7422 9.94157 31.7422 10.3656C31.7422 10.7789 31.4832 10.9709 31.0648 10.9709Z" fill="#233881"/>
<path fill-rule="evenodd" clip-rule="evenodd" d="M33.1058 11.6165H31.9775V9.81358H33.0818C33.0925 9.84291 33.1004 9.89891 33.1004 9.97358C33.1004 10.0322 33.0951 10.0829 33.0818 10.1389H32.3589V10.5282H32.9695C32.9804 10.5576 32.9882 10.6109 32.9882 10.6856C32.9882 10.7442 32.9831 10.7922 32.9695 10.8482H32.3589V11.2909H33.1058C33.1162 11.3205 33.1244 11.3765 33.1244 11.4512C33.1244 11.5098 33.1189 11.5605 33.1058 11.6165Z" fill="#233881"/>
<path fill-rule="evenodd" clip-rule="evenodd" d="M33.9257 10.1122C33.8671 10.1122 33.7951 10.1149 33.7497 10.1176V10.6509H33.8831C34.1017 10.6509 34.1977 10.5709 34.1977 10.3736C34.1977 10.1762 34.1017 10.1122 33.9257 10.1122ZM34.6964 11.6136C34.6273 11.6245 34.5551 11.6298 34.4724 11.6298C34.398 11.6298 34.3231 11.6271 34.2724 11.6165L33.9071 10.9682H33.7497V11.6165C33.6831 11.6271 33.6271 11.6298 33.5551 11.6298C33.4908 11.6298 33.4351 11.6271 33.3684 11.6165V9.81357C33.4908 9.80557 33.7471 9.80024 33.9017 9.80024C34.3551 9.80024 34.5817 9.96024 34.5817 10.3762C34.5817 10.5976 34.4487 10.8189 34.2617 10.8989L34.6964 11.6136Z" fill="#233881"/>
<path fill-rule="evenodd" clip-rule="evenodd" d="M38.3755 8.44873L38.2181 7.93939C38.1995 7.88072 38.1808 7.80606 38.1648 7.72339H38.1595C38.1461 7.80606 38.1248 7.88072 38.1061 7.93939L37.9568 8.44873H38.3755ZM39.0128 9.13163C38.9781 9.13963 38.8955 9.14497 38.8075 9.14497C38.7381 9.14497 38.6581 9.13697 38.6235 9.13163L38.4901 8.76606H37.8499L37.7246 9.13163C37.6661 9.13963 37.5966 9.14497 37.5272 9.14497C37.4579 9.14497 37.3779 9.13963 37.3379 9.13163L37.9675 7.32872C38.0048 7.32072 38.0928 7.31539 38.1515 7.31539C38.2235 7.31539 38.3088 7.32072 38.3381 7.32872L39.0128 9.13163Z" fill="#233881"/>
<path fill-rule="evenodd" clip-rule="evenodd" d="M39.7273 7.62739C39.6686 7.62739 39.5966 7.63006 39.5513 7.63272V8.16606H39.6846C39.9035 8.16606 39.9995 8.08606 39.9995 7.88872C39.9995 7.69139 39.9035 7.62739 39.7273 7.62739ZM40.4982 9.12897C40.4288 9.13963 40.3568 9.14497 40.2742 9.14497C40.1995 9.14497 40.1248 9.1423 40.0742 9.13163L39.7086 8.48339H39.5513V9.13163C39.4848 9.1423 39.4286 9.14497 39.3566 9.14497C39.2926 9.14497 39.2366 9.1423 39.1699 9.13163V7.32872C39.2926 7.32072 39.5486 7.31539 39.7033 7.31539C40.1566 7.31539 40.3835 7.47539 40.3835 7.89139C40.3835 8.11273 40.2502 8.33406 40.0635 8.41406L40.4982 9.12897Z" fill="#233881"/>
<path fill-rule="evenodd" clip-rule="evenodd" d="M38.2006 10.1389H37.723V11.6165C37.6724 11.6245 37.6006 11.6298 37.5339 11.6298C37.467 11.6298 37.395 11.6245 37.3417 11.6165V10.1389H36.8644C36.8537 10.1042 36.8457 10.0216 36.8457 9.97624C36.8457 9.93091 36.8564 9.84824 36.867 9.81358H38.2006C38.2113 9.84824 38.2193 9.93091 38.2193 9.97624C38.2193 10.0216 38.2113 10.1042 38.2006 10.1389Z" fill="#233881"/>
<path fill-rule="evenodd" clip-rule="evenodd" d="M39.5482 11.6165H38.4199V9.81358H39.5242C39.5348 9.84291 39.5428 9.89891 39.5428 9.97358C39.5428 10.0322 39.5375 10.0829 39.5242 10.1389H38.8015V10.5282H39.4122C39.4228 10.5576 39.4308 10.6109 39.4308 10.6856C39.4308 10.7442 39.4255 10.7922 39.4122 10.8482H38.8015V11.2909H39.5482C39.5588 11.3205 39.5668 11.3765 39.5668 11.4512C39.5668 11.5098 39.5615 11.5605 39.5482 11.6165Z" fill="#233881"/>
<path fill-rule="evenodd" clip-rule="evenodd" d="M40.3475 11.6431C40.1526 11.6431 39.9393 11.6058 39.7873 11.5365C39.7793 11.4991 39.7739 11.4511 39.7739 11.4085C39.7739 11.3445 39.7819 11.2831 39.8006 11.2109C39.9579 11.2751 40.1659 11.3151 40.3286 11.3151C40.5182 11.3151 40.6195 11.2269 40.6195 11.1071C40.6195 10.9736 40.5342 10.9176 40.2753 10.8376C39.9873 10.7496 39.7766 10.6109 39.7766 10.3016C39.7766 9.97091 40.0619 9.78691 40.4382 9.78691C40.6113 9.78691 40.7662 9.81357 40.8702 9.84824C40.8782 9.87757 40.8835 9.92557 40.8835 9.99491C40.8835 10.0456 40.8782 10.1229 40.8675 10.1656C40.7342 10.1309 40.5819 10.1122 40.4595 10.1122C40.2593 10.1122 40.1499 10.1789 40.1499 10.2856C40.1499 10.4109 40.2486 10.4616 40.4888 10.5362C40.7768 10.6269 40.9902 10.7629 40.9902 11.0829C40.9902 11.4322 40.7155 11.6431 40.3475 11.6431Z" fill="#233881"/>
<path fill-rule="evenodd" clip-rule="evenodd" d="M12.3452 8.34206C12.3852 8.45406 12.4252 8.57939 12.4441 8.68606H12.4494C12.4678 8.57939 12.5054 8.45406 12.5454 8.34206L12.7427 7.77139C12.7932 7.62472 12.8227 7.48339 12.8252 7.32872C12.8787 7.32072 12.9534 7.31539 13.0147 7.31539C13.0707 7.31539 13.1507 7.32072 13.1987 7.32872C13.1987 7.50715 13.1667 7.67806 13.0947 7.86739L12.6118 9.13163C12.5801 9.13963 12.5054 9.14497 12.4412 9.14497C12.3692 9.14497 12.3105 9.13963 12.2625 9.13163L11.7878 7.87273C11.7158 7.68339 11.6838 7.50715 11.6838 7.32872C11.7318 7.32072 11.7958 7.31539 11.8758 7.31539C11.9372 7.31539 12.0145 7.32072 12.0625 7.32872C12.0625 7.49406 12.0918 7.62472 12.1425 7.77139L12.3452 8.34206Z" fill="#233881"/>
<path fill-rule="evenodd" clip-rule="evenodd" d="M13.8476 9.13163C13.7932 9.13963 13.7274 9.14497 13.6416 9.14497C13.5644 9.14497 13.4928 9.13963 13.4385 9.13163V7.32872C13.4928 7.32072 13.5729 7.31539 13.6445 7.31539C13.7246 7.31539 13.7961 7.32072 13.8476 7.32872V9.13163Z" fill="#233881"/>
<path fill-rule="evenodd" clip-rule="evenodd" d="M15.3959 7.65406H14.9186V9.13164C14.8679 9.13964 14.7959 9.14497 14.7293 9.14497C14.6626 9.14497 14.5906 9.13964 14.5373 9.13164V7.65406H14.0599C14.0493 7.61939 14.041 7.53673 14.041 7.49139C14.041 7.44606 14.0519 7.36339 14.0626 7.32873H15.3959C15.4066 7.36339 15.4146 7.44606 15.4146 7.49139C15.4146 7.53673 15.4066 7.61939 15.3959 7.65406Z" fill="#233881"/>
<path fill-rule="evenodd" clip-rule="evenodd" d="M12.5893 10.9336L12.432 10.4242C12.4133 10.3656 12.3944 10.2909 12.3784 10.2082H12.3733C12.3598 10.2909 12.3387 10.3656 12.3198 10.4242L12.1707 10.9336H12.5893ZM13.2267 11.6165C13.192 11.6245 13.1093 11.6298 13.0213 11.6298C12.952 11.6298 12.872 11.6218 12.8373 11.6165L12.704 11.2509H12.0638L11.9384 11.6165C11.8798 11.6245 11.8104 11.6298 11.7411 11.6298C11.6718 11.6298 11.5918 11.6245 11.5518 11.6165L12.1813 9.81357C12.2184 9.80557 12.3067 9.80024 12.3651 9.80024C12.4373 9.80024 12.5227 9.80557 12.552 9.81357L13.2267 11.6165Z" fill="#233881"/>
<path fill-rule="evenodd" clip-rule="evenodd" d="M15.2614 11.6165C15.2294 11.6245 15.1574 11.6298 15.0827 11.6298C15.0027 11.6298 14.928 11.6218 14.896 11.6165L14.864 10.5336L14.4694 11.4458C14.44 11.4565 14.376 11.4618 14.336 11.4618C14.2878 11.4618 14.2294 11.4565 14.2 11.4485L13.8051 10.5336L13.7705 11.6165C13.7358 11.6245 13.6531 11.6298 13.5814 11.6298C13.5385 11.6298 13.4665 11.6245 13.4185 11.6165L13.4958 9.81357C13.5465 9.80824 13.5971 9.80024 13.6505 9.80024C13.7145 9.80024 13.7758 9.80557 13.8078 9.81357L14.336 11.0378L14.8667 9.81357C14.92 9.80557 14.9734 9.80024 15.0214 9.80024C15.0827 9.80024 15.1387 9.80557 15.1787 9.81357L15.2614 11.6165Z" fill="#233881"/>
<path fill-rule="evenodd" clip-rule="evenodd" d="M19.1529 9.13164H18.0247V7.32873H19.1289C19.1396 7.35806 19.1473 7.41406 19.1473 7.48873C19.1473 7.54739 19.142 7.59806 19.1289 7.65406H18.406V8.04339H19.0167C19.0276 8.07273 19.0353 8.12606 19.0353 8.20073C19.0353 8.25939 19.0302 8.30739 19.0167 8.36339H18.406V8.80606H19.1529C19.1636 8.83564 19.1713 8.89164 19.1713 8.9663C19.1713 9.02497 19.166 9.07564 19.1529 9.13164Z" fill="#233881"/>
<path fill-rule="evenodd" clip-rule="evenodd" d="M19.5737 8.64363L19.9151 8.17939L19.6031 7.74472C19.5017 7.60606 19.4377 7.47806 19.4164 7.32872C19.4591 7.32072 19.5471 7.31539 19.6031 7.31539C19.6697 7.31539 19.7471 7.32072 19.7924 7.32872C19.8057 7.44606 19.8724 7.54206 19.9417 7.64339L20.1284 7.91539L20.3204 7.64606C20.3844 7.55539 20.4457 7.44072 20.4564 7.32872C20.5017 7.32339 20.5817 7.31539 20.646 7.31539C20.7044 7.31539 20.7844 7.32072 20.8273 7.32872C20.806 7.49939 20.7366 7.63006 20.6271 7.78206L20.3444 8.17139L20.686 8.65139C20.806 8.81672 20.862 8.97963 20.8726 9.13163C20.8273 9.13963 20.7497 9.14497 20.6831 9.14497C20.6244 9.14497 20.5471 9.13963 20.4964 9.13163C20.4884 9.0143 20.4484 8.90206 20.3817 8.80072L20.1284 8.41939L19.8804 8.79297C19.8164 8.89163 19.7791 9.0143 19.7791 9.13163C19.7364 9.13963 19.6457 9.14497 19.5871 9.14497C19.5231 9.14497 19.4457 9.13697 19.4004 9.13163C19.4057 8.96897 19.4351 8.83273 19.5737 8.64363Z" fill="#233881"/>
<path fill-rule="evenodd" clip-rule="evenodd" d="M22.2224 7.70473C22.0944 7.66473 21.9344 7.63539 21.8064 7.63539C21.5022 7.63539 21.3048 7.85139 21.3048 8.23806C21.3048 8.59273 21.4597 8.82497 21.8037 8.82497C21.9317 8.82497 22.0757 8.7983 22.2037 8.7583C22.2224 8.80606 22.2357 8.88097 22.2357 8.93697C22.2357 8.9823 22.2331 9.0383 22.2277 9.0623C22.0944 9.12363 21.9237 9.1583 21.7664 9.1583C21.1928 9.1583 20.9102 8.81139 20.9102 8.24606C20.9102 7.69673 21.2142 7.30206 21.7824 7.30206C21.9211 7.30206 22.1024 7.33648 22.2304 7.39273C22.2384 7.41939 22.2411 7.47806 22.2411 7.51273C22.2411 7.59539 22.2304 7.67273 22.2224 7.70473Z" fill="#233881"/>
<path fill-rule="evenodd" clip-rule="evenodd" d="M18.6289 10.1149C18.3996 10.1149 18.2689 10.2909 18.2689 10.7149C18.2689 11.1392 18.3996 11.3151 18.6289 11.3151C18.8583 11.3151 18.9889 11.1392 18.9889 10.7149C18.9889 10.2909 18.8583 10.1149 18.6289 10.1149ZM18.6289 11.6431C18.1356 11.6431 17.8743 11.3016 17.8743 10.7149C17.8743 10.1282 18.1356 9.78691 18.6289 9.78691C19.1223 9.78691 19.3838 10.1282 19.3838 10.7149C19.3838 11.3016 19.1223 11.6431 18.6289 11.6431Z" fill="#233881"/>
<path fill-rule="evenodd" clip-rule="evenodd" d="M20.7024 11.6165H19.5981V9.81357C19.6488 9.80557 19.7181 9.80024 19.7848 9.80024C19.8595 9.80024 19.9315 9.80557 19.9795 9.81357V11.2909H20.7024C20.7128 11.3205 20.7211 11.3765 20.7211 11.4511C20.7211 11.5098 20.7155 11.5605 20.7024 11.6165Z" fill="#233881"/>
<path fill-rule="evenodd" clip-rule="evenodd" d="M22.2181 10.9309C22.2181 11.3898 22.0421 11.6431 21.5301 11.6431C21.0128 11.6431 20.8499 11.3898 20.8499 10.9309V9.81357C20.9034 9.80557 20.9728 9.80024 21.0365 9.80024C21.1114 9.80024 21.1781 9.80557 21.2314 9.81357V10.9576C21.2314 11.2031 21.3008 11.3416 21.5328 11.3416C21.7648 11.3416 21.8448 11.2031 21.8448 10.9576V9.81357C21.8928 9.80557 21.9728 9.80024 22.0341 9.80024C22.0928 9.80024 22.1728 9.80557 22.2181 9.81357V10.9309Z" fill="#233881"/>
</g>
<defs>
<clipPath id="clip0_8_2394">
<rect width="180" height="59" fill="white"/>
</clipPath>
</defs>
</svg>
