<svg width="180" height="59" viewBox="0 0 180 59" fill="none" xmlns="http://www.w3.org/2000/svg">
<g clip-path="url(#clip0_1_467)">
<path fill-rule="evenodd" clip-rule="evenodd" d="M46.7721 41.1607C42.3588 48.3915 34.6868 52.7059 26.2196 52.7059C17.7527 52.7059 10.0802 48.3915 5.66761 41.1605L1.04385 45.4366C3.62616 49.2996 7.08022 52.5462 11.1093 54.8715C15.6836 57.5127 20.9096 58.9091 26.2196 58.9091C31.5294 58.9091 36.7542 57.5127 41.3304 54.8715C45.2431 52.6133 48.7323 49.056 51.2892 45.3382L46.7721 41.1607Z" fill="#233881"/>
<path fill-rule="evenodd" clip-rule="evenodd" d="M6.1857 1.54448H46.2543V0.0225449H6.1857V1.54448Z" fill="#D5AB23"/>
<path fill-rule="evenodd" clip-rule="evenodd" d="M46.2543 16.0579C46.1779 20.5261 47.2281 38.2584 26.2201 50.6647C5.21164 38.2584 6.26182 20.5261 6.1857 16.0579V1.54448H46.2543V16.0579Z" fill="#233881"/>
<path fill-rule="evenodd" clip-rule="evenodd" d="M8.83392 31.6315C11.377 37.8708 16.3774 44.8521 26.2201 50.6647C36.063 44.8521 41.0635 37.8708 43.606 31.6315L26.2196 15.553L8.83392 31.6315Z" fill="#D5AB23"/>
<path fill-rule="evenodd" clip-rule="evenodd" d="M22.9554 5.50715V13.2332C20.8812 12.4718 18.3801 13.0783 17.0531 14.0555C17.0531 11.5042 17.0531 8.952 17.0531 6.40121C18.2186 5.2657 20.9663 4.75855 22.9554 5.50715Z" fill="#FFFFFE"/>
<path fill-rule="evenodd" clip-rule="evenodd" d="M10.5796 5.52727V13.2533C12.6523 12.4921 15.1539 13.0987 16.4814 14.0759C16.4814 11.5244 16.4814 8.97212 16.4814 6.42157C15.3163 5.28606 12.5687 4.77867 10.5796 5.52727Z" fill="#FFFFFE"/>
<path fill-rule="evenodd" clip-rule="evenodd" d="M24.7338 11.6553L24.7168 11.6526C24.4201 11.6208 24.1939 11.6039 24.0397 11.5949V9.07491C24.1903 9.08388 24.4102 9.10036 24.6999 9.13139L24.7338 9.13236C25.3263 9.15903 25.4077 8.85697 25.4077 8.85697C25.2732 8.54448 24.9745 8.40339 24.7338 8.38376L24.7168 8.38182C24.4201 8.34982 24.1939 8.3326 24.0397 8.32339V6.19491H23.5156V13.9632C20.6611 13.3539 18.5033 13.6679 16.766 14.9423C15.0298 13.6679 12.8722 13.3544 10.0174 13.9632V6.19491H9.49332V8.32339C9.38326 8.32994 9.2378 8.34012 9.05356 8.35709V8.27806C9.05356 8.21891 9.00532 8.17067 8.93647 8.17115L8.22447 8.248C8.16726 8.25188 8.12265 8.29794 8.12265 8.35636V9.26715C8.12265 9.32654 8.17138 9.37454 8.24483 9.37261L8.95417 9.30327C9.00895 9.2977 9.05356 9.25042 9.05356 9.19467V9.10812C9.2378 9.09067 9.3835 9.08048 9.49332 9.07418V11.5949C9.38326 11.6015 9.2378 11.6116 9.05356 11.6291V11.5484C9.05356 11.4892 9.00532 11.4422 8.93647 11.4422L8.22447 11.5193C8.16726 11.5222 8.12265 11.5692 8.12265 11.6284V12.5375C8.12265 12.5968 8.17138 12.6453 8.24483 12.6439L8.95417 12.5721C9.00895 12.5685 9.05356 12.5219 9.05356 12.4652V12.3789C9.2378 12.3617 9.3835 12.3515 9.49332 12.3452V14.6201L9.81526 14.5455C12.7542 13.8604 14.912 14.1564 16.6046 15.4766L16.766 15.6041L16.9285 15.4766C18.6206 14.1564 20.7789 13.8606 23.7183 14.5455L24.0397 14.6201V12.3459C24.1903 12.3547 24.4102 12.3712 24.6999 12.4022L24.7338 12.4036C25.3263 12.4303 25.4077 12.128 25.4077 12.128C25.2732 11.8158 24.9745 11.6747 24.7338 11.6553Z" fill="#FFFFFE"/>
<path fill-rule="evenodd" clip-rule="evenodd" d="M9.91369 51.2815C9.63345 51.6441 9.16096 51.7023 8.6572 51.313C8.38642 51.104 8.21502 50.8795 8.11078 50.6933L8.37987 50.345C8.39999 50.319 8.43126 50.3202 8.46351 50.3498L8.62739 50.4948C8.63878 50.5035 8.64896 50.5205 8.63635 50.5428L8.52193 50.7028C8.63248 50.839 8.75466 50.961 8.84678 51.032C9.10884 51.2344 9.38205 51.303 9.56678 51.064C9.7646 50.8078 9.7069 50.6805 9.38569 50.1794C9.15684 49.8095 9.06181 49.4742 9.3086 49.1547C9.58666 48.7949 10.0448 48.767 10.5314 49.143C10.7098 49.2807 10.8664 49.4293 10.9964 49.5942L10.705 49.9714C10.6851 49.9973 10.6538 49.9961 10.6213 49.9665L10.4577 49.8216C10.4461 49.8126 10.4361 49.7956 10.449 49.7736L10.5631 49.6136C10.4921 49.5447 10.4189 49.479 10.3469 49.4235C10.0793 49.2167 9.80799 49.2046 9.65454 49.4034C9.49454 49.6107 9.55757 49.7789 9.8429 50.2247C10.1433 50.6865 10.1362 50.9937 9.91369 51.2815Z" fill="#FFFFFE"/>
<path fill-rule="evenodd" clip-rule="evenodd" d="M12.7045 53.3973C12.7202 53.4063 12.7241 53.4216 12.7151 53.4371L12.4897 53.8194L10.9699 52.9239C10.9449 52.9091 10.9435 52.8829 10.9648 52.8533L11.0666 52.7023C11.0722 52.6931 11.086 52.6841 11.1066 52.6921L11.2012 52.7394L12.3532 50.784L12.2599 50.7205C12.2378 50.7076 12.2412 50.68 12.2611 50.6538L12.3629 50.5025C12.3721 50.487 12.3869 50.4829 12.4026 50.4924L13.8691 51.3564L13.6439 51.7387C13.6291 51.7639 13.6029 51.7651 13.5736 51.7438L13.422 51.6419C13.4128 51.6364 13.4041 51.6228 13.4121 51.6022L13.4594 51.5074L12.679 51.0478L12.2414 51.7903L13.1253 52.311L12.9551 52.5993L12.0715 52.0785L11.5898 52.8965L12.4232 53.3876L12.4868 53.2943C12.4999 53.2722 12.527 53.2756 12.5534 53.2955L12.7045 53.3973Z" fill="#FFFFFE"/>
<path fill-rule="evenodd" clip-rule="evenodd" d="M15.8868 54.8841C15.9035 54.8914 15.9093 54.9057 15.9023 54.9224L15.7263 55.3299L14.1062 54.6313C14.0795 54.6196 14.0749 54.5937 14.0926 54.5619L14.1745 54.3993C14.1789 54.3893 14.1915 54.3787 14.2129 54.384L14.3125 54.4192L15.2116 52.3348L15.111 52.2834C15.0875 52.2732 15.0875 52.2456 15.104 52.217L15.1859 52.0541C15.1932 52.0376 15.2075 52.0318 15.2242 52.039L16.7876 52.7132L16.6116 53.1207C16.6002 53.1476 16.5743 53.1522 16.5425 53.1345L16.3799 53.0526C16.3697 53.048 16.3593 53.0356 16.3646 53.0141L16.3995 52.9144L15.568 52.5556L15.2264 53.3474L16.1682 53.7537L16.0359 54.0611L15.0938 53.6545L14.7178 54.5265L15.6063 54.9098L15.6579 54.8092C15.6679 54.7857 15.6955 54.7857 15.7241 54.8022L15.8868 54.8841Z" fill="#FFFFFE"/>
<path fill-rule="evenodd" clip-rule="evenodd" d="M20.1985 53.7852C20.2264 53.793 20.2344 53.8179 20.2213 53.8519L20.1614 54.024C20.1583 54.0344 20.1474 54.0465 20.1256 54.0441L20.0223 54.0225L18.8834 54.6994L19.3828 56.1998L19.4858 56.2364C19.5105 56.2434 19.5139 56.2708 19.5016 56.3011L19.4419 56.4732C19.4368 56.4909 19.4235 56.4984 19.406 56.4933L19.0315 56.3881L18.5387 54.9045L18.2216 55.0912L18.0177 55.8155L18.1241 55.8531C18.1486 55.8601 18.1525 55.8875 18.1401 55.9181L18.0802 56.0902C18.0751 56.1076 18.0618 56.1152 18.0444 56.1103L17.4458 55.9418C17.4179 55.9341 17.4097 55.9089 17.423 55.8749L17.4827 55.7028C17.4858 55.6924 17.4967 55.6802 17.5188 55.6829L17.622 55.7045L18.2368 53.5202L18.1304 53.4824C18.1057 53.4756 18.102 53.4482 18.1147 53.4177L18.1745 53.2456C18.1794 53.2281 18.1927 53.2206 18.2102 53.2255L18.8087 53.3939C18.8366 53.4017 18.8448 53.4267 18.8315 53.4609L18.7719 53.633C18.7687 53.6434 18.7578 53.6553 18.736 53.6531L18.6325 53.6315L18.3576 54.608L19.5493 53.8895L19.4429 53.8519C19.4187 53.8451 19.4148 53.8177 19.4274 53.7872L19.487 53.615C19.4919 53.5976 19.5054 53.5901 19.5229 53.5949L20.1985 53.7852Z" fill="#FFFFFE"/>
<path fill-rule="evenodd" clip-rule="evenodd" d="M26.6061 54.527C26.6354 54.5285 26.6485 54.551 26.6431 54.5874L26.6225 54.7682C26.6221 54.7794 26.6143 54.7935 26.592 54.7959L26.4899 54.7978L25.7501 57.1818C25.7241 57.2606 25.6562 57.3045 25.5765 57.3004L25.2933 57.2747C25.2536 57.2725 25.2405 57.2463 25.2315 57.2058L24.8485 55.0545L24.8444 55.0543L24.2519 57.0599C24.2298 57.1316 24.1772 57.2308 24.0502 57.2206L23.7782 57.1954C23.7457 57.1939 23.7248 57.1745 23.7166 57.1268L23.2492 54.6288L23.1408 54.6158C23.1151 54.6143 23.1057 54.5884 23.111 54.5559L23.1314 54.375C23.1321 54.3566 23.1437 54.3464 23.1622 54.3474L23.7614 54.3787C23.7905 54.3801 23.8039 54.4027 23.7985 54.4388L23.7782 54.6199C23.7774 54.6308 23.7692 54.6448 23.7474 54.6475L23.6453 54.6495L24 56.7918L24.0034 56.792L24.6393 54.592C24.6749 54.4664 24.7389 54.4259 24.8259 54.4342L25.0325 54.456C25.0686 54.4616 25.0822 54.4805 25.0907 54.528L25.4967 56.8698L25.5001 56.8701L26.0977 54.7775L25.9893 54.7646C25.9636 54.7632 25.9539 54.737 25.9593 54.7045L25.9796 54.5234C25.9806 54.5052 25.9922 54.495 26.0104 54.496L26.6061 54.527Z" fill="#FFFFFE"/>
<path fill-rule="evenodd" clip-rule="evenodd" d="M28.8856 56.8999C28.9108 56.8979 28.9239 56.9222 28.9229 56.9551L28.9275 57.1375C28.9289 57.1554 28.919 57.1673 28.9008 57.169L28.2812 57.2208C28.2521 57.2233 28.2361 57.2029 28.2363 57.1663L28.232 56.9842C28.2313 56.9733 28.2371 56.9581 28.2584 56.9527L28.3629 56.9367L28.1728 54.6756L28.0596 54.6778C28.0342 54.68 28.0216 54.6555 28.0223 54.6228L28.0179 54.4405C28.0162 54.4223 28.0262 54.4107 28.0443 54.4092L28.664 54.3568C28.6931 54.3547 28.7093 54.375 28.7086 54.4114L28.7132 54.5937C28.7139 54.6044 28.7081 54.6196 28.6865 54.625L28.582 54.6412L28.7723 56.9021L28.8856 56.8999Z" fill="#FFFFFE"/>
<path fill-rule="evenodd" clip-rule="evenodd" d="M32.3171 55.8526C32.4039 56.3023 32.135 56.6948 31.51 56.8153C31.1743 56.8798 30.8931 56.8599 30.6843 56.815L30.6012 56.3828C30.5951 56.3508 30.6165 56.3282 30.6601 56.3234L30.8771 56.2965C30.8914 56.2938 30.9105 56.2975 30.9188 56.3217L30.9634 56.5132C31.1384 56.5202 31.3105 56.5093 31.4247 56.4873C31.7498 56.4247 31.9818 56.2652 31.9246 55.9687C31.8635 55.6512 31.7297 55.6102 31.142 55.5198C30.7134 55.4468 30.3992 55.2962 30.3229 54.8999C30.2371 54.4536 30.5192 54.0919 31.1226 53.9758C31.344 53.9331 31.5588 53.9139 31.7682 53.9256L31.8584 54.3932C31.8645 54.4252 31.8429 54.448 31.7992 54.4526L31.5825 54.4798C31.5682 54.4824 31.5488 54.4788 31.5403 54.4543L31.4962 54.263C31.3978 54.2708 31.3001 54.2822 31.2106 54.2994C30.8788 54.3634 30.6906 54.5588 30.7379 54.8051C30.7876 55.0623 30.9551 55.1263 31.4783 55.207C32.0232 55.287 32.2482 55.4955 32.3171 55.8526Z" fill="#FFFFFE"/>
<path fill-rule="evenodd" clip-rule="evenodd" d="M34.9891 55.5612C35.7198 55.3156 35.7198 54.7556 35.5355 54.2075C35.3316 53.601 35.0516 53.2463 34.2584 53.5125L33.9588 53.6133L34.6514 55.6747L34.9891 55.5612ZM34.16 53.2082C35.2286 52.8492 35.6805 53.2688 35.9515 54.0756C36.2882 55.0785 35.9241 55.5925 34.9968 55.9038L34.2662 56.1493C34.2385 56.1588 34.2177 56.1425 34.2097 56.1071L34.1622 55.9312C34.1585 55.9207 34.1607 55.9047 34.1804 55.8943L34.2781 55.8538L33.5554 53.703L33.4461 53.7319C33.4221 53.7399 33.4036 53.7195 33.3966 53.6873L33.3491 53.5113C33.3433 53.4941 33.3501 53.4802 33.3673 53.4744L34.16 53.2082Z" fill="#FFFFFE"/>
<path fill-rule="evenodd" clip-rule="evenodd" d="M37.7115 53.3202C37.9248 53.7457 38.2999 54.2492 38.833 53.9816C39.2746 53.7598 39.2771 53.2866 38.9753 52.6856C38.7568 52.2499 38.3801 51.768 37.857 52.0305C37.3243 52.2982 37.4994 52.8977 37.7115 53.3202ZM39.3619 52.4996C39.7942 53.3605 39.6228 53.9673 38.9859 54.287C38.3559 54.6034 37.7537 54.3687 37.328 53.5207C37.0211 52.9098 36.9159 52.1249 37.7086 51.7268C38.3879 51.3859 38.9801 51.7394 39.3619 52.4996Z" fill="#FFFFFE"/>
<mask id="mask0_1_467" style="mask-type:luminance" maskUnits="userSpaceOnUse" x="0" y="34" width="44" height="19">
<path fill-rule="evenodd" clip-rule="evenodd" d="M0.287262 52.8509V34.944H43.9032V52.8509H0.287262Z" fill="white"/>
</mask>
<g mask="url(#mask0_1_467)">
<path fill-rule="evenodd" clip-rule="evenodd" d="M43.7399 50.9641C43.7607 50.9493 43.7842 50.9639 43.8005 50.9925L43.8967 51.1472C43.9074 51.1619 43.9047 51.1772 43.8897 51.1879L43.3918 51.5416C43.3682 51.5583 43.3435 51.5488 43.3256 51.5171L43.2291 51.3627C43.2225 51.3537 43.2204 51.3377 43.2361 51.3222L43.3149 51.2572L42.2756 49.8633L42.6524 51.6119C42.6659 51.6688 42.6659 51.7314 42.6216 51.7629C42.5889 51.7862 42.5384 51.8218 42.5067 51.84C42.472 51.8604 42.448 51.864 42.4172 51.8458L40.8318 50.8887L41.7998 52.3331L41.896 52.2739C41.9168 52.2592 41.9404 52.2735 41.9561 52.3023L42.0529 52.457C42.0633 52.4718 42.0606 52.4868 42.0461 52.4975L41.5598 52.8427C41.536 52.8594 41.5113 52.8502 41.4933 52.8184L41.3969 52.664C41.3905 52.655 41.3884 52.6388 41.4041 52.6235L41.4853 52.5564L40.2371 50.6601L40.1438 50.7173C40.1232 50.7321 40.0994 50.7176 40.0834 50.689L39.9869 50.5343C39.9765 50.5195 39.9792 50.5042 39.9939 50.4936L40.3496 50.241C40.3646 50.2305 40.3796 50.2332 40.3939 50.2407L42.2594 51.36L41.7981 49.2659C41.791 49.2308 41.7995 49.2114 41.8259 49.1925L42.1966 48.9292C42.2204 48.9125 42.2448 48.9217 42.2628 48.9537L42.3593 49.1081C42.3656 49.1171 42.3682 49.1331 42.3527 49.1488L42.2708 49.2158L43.6468 51.0216L43.7399 50.9641Z" fill="#FFFFFE"/>
</g>
<mask id="mask1_1_467" style="mask-type:luminance" maskUnits="userSpaceOnUse" x="0" y="34" width="44" height="19">
<path fill-rule="evenodd" clip-rule="evenodd" d="M0.287262 52.8509V34.944H43.9032V52.8509H0.287262Z" fill="white"/>
</mask>
<g mask="url(#mask1_1_467)">
<path fill-rule="evenodd" clip-rule="evenodd" d="M2.1818 43.3428L5.12774 40.6211L5.79634 39.992L6.16943 40.6092C6.8121 41.6747 7.52846 42.6742 8.3064 43.6061L9.30592 42.697C7.95077 41.0621 6.84458 39.2252 6.03367 37.2339C5.72774 36.4834 5.46834 35.7188 5.2538 34.944L3.65113 39.0592L0.272705 39.5321C0.278038 39.5464 0.283129 39.5605 0.288463 39.5738L2.1818 43.3428Z" fill="#233881"/>
</g>
<path fill-rule="evenodd" clip-rule="evenodd" d="M41.8848 5.50715V13.2332C39.8107 12.4718 37.3096 13.0783 35.9825 14.0555C35.9825 11.5042 35.9825 8.952 35.9825 6.40121C37.1481 5.2657 39.8958 4.75855 41.8848 5.50715Z" fill="#FFFFFE"/>
<path fill-rule="evenodd" clip-rule="evenodd" d="M29.5091 5.52727V13.2533C31.5818 12.4921 34.0834 13.0987 35.4109 14.0759C35.4109 11.5244 35.4109 8.97212 35.4109 6.42157C34.2458 5.28606 31.4982 4.77867 29.5091 5.52727Z" fill="#FFFFFE"/>
<path fill-rule="evenodd" clip-rule="evenodd" d="M43.6633 11.6553L43.6463 11.6526C43.3496 11.6208 43.1234 11.6039 42.9692 11.5949V9.07491C43.1198 9.08388 43.3396 9.10036 43.6293 9.13139L43.6633 9.13236C44.2558 9.15903 44.3372 8.85697 44.3372 8.85697C44.2027 8.54448 43.904 8.40339 43.6633 8.38376L43.6463 8.38182C43.3496 8.34982 43.1234 8.3326 42.9692 8.32339V6.19491H42.4451V13.9632C39.5905 13.3539 37.4327 13.6679 35.6955 14.9423C33.9593 13.6679 31.8017 13.3544 28.9469 13.9632V6.19491H28.4228V8.32339C28.3127 8.32994 28.1673 8.34012 27.983 8.35709V8.27806C27.983 8.21891 27.9345 8.17067 27.8659 8.17115L27.1539 8.248C27.0965 8.25188 27.0521 8.29794 27.0521 8.35636V9.26715C27.0521 9.32654 27.1009 9.37454 27.1743 9.37261L27.8836 9.30327C27.9384 9.2977 27.983 9.25042 27.983 9.19467V9.10812C28.1673 9.09067 28.313 9.08048 28.4228 9.07418V11.5949C28.3127 11.6015 28.1673 11.6116 27.983 11.6291V11.5484C27.983 11.4892 27.9345 11.4422 27.8659 11.4422L27.1539 11.5193C27.0965 11.5222 27.0521 11.5692 27.0521 11.6284V12.5375C27.0521 12.5968 27.1009 12.6453 27.1743 12.6439L27.8836 12.5721C27.9384 12.5685 27.983 12.5219 27.983 12.4652V12.3789C28.1673 12.3617 28.313 12.3515 28.4228 12.3452V14.6201L28.7447 14.5455C31.6836 13.8604 33.8415 14.1564 35.5341 15.4766L35.6955 15.6041L35.8579 15.4766C37.5503 14.1564 39.7084 13.8606 42.6478 14.5455L42.9692 14.6201V12.3459C43.1198 12.3547 43.3396 12.3712 43.6293 12.4022L43.6633 12.4036C44.2558 12.4303 44.3372 12.128 44.3372 12.128C44.2027 11.8158 43.904 11.6747 43.6633 11.6553Z" fill="#FFFFFE"/>
<path fill-rule="evenodd" clip-rule="evenodd" d="M50.2327 43.3428L47.2868 40.6211L46.6182 39.992L46.2451 40.6092C45.6024 41.6747 44.886 42.6742 44.1081 43.6061L43.1086 42.697C44.4637 41.0621 45.5699 39.2252 46.3808 37.2339C46.6868 36.4834 46.9462 35.7188 47.1607 34.944L48.7634 39.0592L52.1418 39.5321C52.1365 39.5464 52.1314 39.5605 52.1263 39.5738L50.2327 43.3428Z" fill="#233881"/>
<path fill-rule="evenodd" clip-rule="evenodd" d="M27.239 37.8039C28.4218 38.3954 29.4361 38.688 30.0492 38.6487C30.0676 38.6478 30.1127 38.6468 30.1316 38.6458C30.3413 38.6305 30.6116 38.5724 30.8133 38.4507C30.9971 38.3404 31.1193 38.223 31.224 38.0715C31.3452 37.8933 31.3978 37.7423 31.4077 37.5539C31.3309 37.5833 31.2548 37.6065 31.1837 37.6245C31.1648 37.6291 31.1183 37.6383 31.0994 37.6424C30.4123 37.7498 29.5525 37.6567 28.366 37.3353C28.1723 37.553 27.7728 37.6742 27.3481 37.5728C27.3125 37.6524 27.2766 37.7278 27.239 37.8039Z" fill="#FFFFFE"/>
<path fill-rule="evenodd" clip-rule="evenodd" d="M28.92 31.3125C28.8892 31.3872 28.856 31.4587 28.8148 31.5321C28.6383 31.8381 28.3959 32.0657 28.1515 32.1859C28.1544 32.2642 28.1554 32.3423 28.1563 32.4213C28.6652 32.1998 29.1818 31.945 29.696 31.6686C31.6041 30.6458 32.9503 29.5089 33.368 28.6999C33.3784 28.6805 33.4039 28.6344 33.4133 28.6145C33.527 28.3964 33.6293 28.0895 33.6293 27.8141C33.6293 27.3462 33.4303 26.9384 33.1311 26.7202C32.7367 27.6369 32.0143 28.6747 31.0247 29.6461C30.3532 30.3062 29.6339 30.8693 28.92 31.3125Z" fill="#FFFFFE"/>
<path fill-rule="evenodd" clip-rule="evenodd" d="M28.6623 36.1292C28.4948 36.313 28.2041 36.4819 27.8628 36.5122C27.7934 36.5178 27.7316 36.5217 27.6652 36.5198C27.6453 36.5893 27.624 36.6572 27.6012 36.7253C29.3168 37.2044 30.75 37.3076 31.4834 37.0725C31.5013 37.0676 31.5479 37.0543 31.5658 37.0487C31.777 36.9811 32.0378 36.8512 32.2136 36.6766C32.3726 36.5161 32.4683 36.3661 32.5365 36.1828C32.6145 35.9721 32.5891 35.792 32.5891 35.792C32.5171 35.8422 32.1595 35.9578 32.1595 35.9578C31.4873 36.2027 30.3384 36.2528 28.6623 36.1292Z" fill="#FFFFFE"/>
<path fill-rule="evenodd" clip-rule="evenodd" d="M33.5023 31.6793C32.8693 32.3755 31.2376 33.1486 29.0759 33.6686C28.9375 33.8897 28.681 34.0941 28.3537 34.2131C28.2594 34.248 28.1648 34.2727 28.073 34.2892C28.0645 34.3627 28.0555 34.4313 28.0468 34.5038C28.2172 34.4979 28.3874 34.4899 28.5588 34.4805C30.7212 34.3593 32.4213 33.8972 33.1416 33.3408C33.1595 33.328 33.2027 33.2967 33.2191 33.2846C33.4133 33.1336 33.6378 32.8987 33.7542 32.649C33.8599 32.4223 33.9016 32.2286 33.9035 32.0124C33.9047 31.7622 33.8565 31.5794 33.7438 31.392C33.6875 31.4705 33.6293 31.5435 33.5724 31.6056C33.5573 31.623 33.5185 31.6618 33.5023 31.6793Z" fill="#FFFFFE"/>
<path fill-rule="evenodd" clip-rule="evenodd" d="M29.7537 39.2078C29.072 39.1922 28.0919 38.8834 26.9469 38.3125C26.8936 38.4015 26.841 38.4868 26.785 38.5699C27.6662 39.0298 28.4596 39.3433 29.1084 39.4953C29.0771 39.5302 29.0441 39.5648 29.0051 39.6007C28.8688 39.7258 28.7234 39.8114 28.5202 39.8788C28.2965 39.9518 28.0189 39.9484 27.8116 39.9132C27.7927 39.911 27.7486 39.9018 27.7307 39.8982C27.3467 39.8356 26.8371 39.6075 26.2557 39.2344C26.1874 39.3035 26.1188 39.3682 26.0492 39.4298C26.6553 39.8322 27.1971 40.0984 27.624 40.2063C27.5132 40.2936 27.4014 40.3474 27.2429 40.391C27.055 40.4407 26.8281 40.4257 26.6577 40.3891C26.6424 40.3862 26.6075 40.3762 26.5922 40.3736C26.2974 40.3086 25.9166 40.1183 25.4868 39.8192C25.39 39.8684 25.2916 39.9096 25.1942 39.945C25.0094 40 24.7496 40.0516 24.5583 40.0516C23.9867 40.0516 23.4441 39.7915 22.9607 39.3244C22.9413 39.3062 22.7997 39.4516 22.8191 39.4701C23.2987 39.9947 23.9256 40.2907 24.5464 40.2907C24.7476 40.2907 25.2364 40.2201 25.4177 40.1074C25.929 40.4621 26.3457 40.6305 26.6856 40.687C26.7021 40.6897 26.7421 40.6979 26.7585 40.7001C26.9469 40.7299 27.1978 40.7338 27.4014 40.6676C27.5847 40.608 27.7168 40.5297 27.8405 40.4162C27.8907 40.3697 27.9413 40.32 27.9767 40.2727C28.1927 40.2967 28.4521 40.2907 28.6671 40.2216C28.8911 40.1486 29.0511 40.0526 29.2007 39.9151C29.3253 39.801 29.4431 39.6955 29.5013 39.5699C29.8371 39.5838 30.1013 39.5278 30.1013 39.5278C30.2276 39.5074 30.3721 39.4645 30.4928 39.3568C30.5791 39.2788 30.6373 39.2078 30.6747 39.1135C30.4082 39.1918 30.1178 39.2187 29.8797 39.2148C29.8528 39.2131 29.7828 39.2097 29.7537 39.2078Z" fill="#FFFFFE"/>
<path fill-rule="evenodd" clip-rule="evenodd" d="M30.8446 31.5695C30.2987 31.9038 29.7425 32.1903 29.1913 32.4242C29.1292 32.5316 29.0511 32.6395 28.9602 32.7404C28.7149 33.0126 28.4204 33.1893 28.1476 33.2504C28.1445 33.327 28.1396 33.4049 28.1365 33.481C28.4526 33.4095 28.7741 33.328 29.0953 33.2415C31.1842 32.6732 32.7515 31.8679 33.3404 31.1729C33.3547 31.1571 33.3905 31.1178 33.4039 31.1009C33.5634 30.9132 33.7328 30.6378 33.7954 30.3692C33.9006 29.9132 33.8182 29.5493 33.5767 29.2701C32.9862 30.0732 32.0259 30.8441 30.8446 31.5695Z" fill="#FFFFFE"/>
<path fill-rule="evenodd" clip-rule="evenodd" d="M33.3367 33.6737C33.3185 33.6885 33.2662 33.7263 33.2485 33.7399C32.5578 34.2737 31.0175 34.7035 29.0255 34.8744L29.0238 34.8754C28.8907 35.0046 28.7217 35.1561 28.5285 35.2465C28.3195 35.3438 28.1062 35.4019 27.9081 35.417C27.8941 35.4943 27.8778 35.5391 27.8623 35.6155C27.8754 35.617 27.8858 35.6175 27.9001 35.6196C30.0512 35.8749 31.8058 35.7164 32.6112 35.2926C32.6313 35.2827 32.679 35.2604 32.6975 35.2514C32.9161 35.1343 33.1767 34.9435 33.3348 34.7178C33.4778 34.5127 33.553 34.3294 33.5927 34.1173C33.6359 33.8708 33.6235 33.7021 33.5455 33.4972C33.4764 33.5648 33.4039 33.6221 33.3367 33.6737Z" fill="#FFFFFE"/>
<path fill-rule="evenodd" clip-rule="evenodd" d="M28.9702 29.5915C28.9711 29.847 28.8902 30.143 28.7292 30.4213C28.5539 30.7234 28.3178 30.9525 28.0754 31.073C28.0834 31.1539 28.0914 31.2339 28.0984 31.3161C28.9549 30.8475 29.84 30.1954 30.6511 29.3988C31.6208 28.4451 32.3273 27.4361 32.7134 26.5382C32.8201 26.2921 32.8727 25.9939 32.8514 25.6739C32.8063 25.0235 32.4664 24.4834 32.0332 24.304C32.0417 24.4276 32.0359 24.5576 32.0184 24.6904C31.9234 25.5956 31.0839 27.1503 29.6776 28.7973C29.4456 29.0686 29.2102 29.3358 28.9702 29.5915Z" fill="#FFFFFE"/>
<path fill-rule="evenodd" clip-rule="evenodd" d="M29.3159 28.5711C30.703 26.9067 31.5231 25.3423 31.6075 24.4356C31.6766 23.8669 31.5321 23.3399 31.2126 23.1539C31.1869 23.9634 30.0885 25.9355 28.3471 28.1423C28.5103 28.449 28.4356 28.9648 28.1709 29.4165C28.0824 29.569 28.0298 29.6218 27.8727 29.7789C27.8931 29.8778 27.9115 29.9828 27.9294 30.0836C28.3995 29.6259 28.8669 29.1105 29.3159 28.5711Z" fill="#FFFFFE"/>
<path fill-rule="evenodd" clip-rule="evenodd" d="M18.3387 29.5161C18.296 29.4994 18.2533 29.4844 18.2102 29.4725C18.2286 29.6652 18.2296 29.8739 18.2286 30.0904C18.2245 30.624 18.1549 31.1312 18.0453 31.5481C18.0174 31.6599 18.0667 31.7675 18.1624 31.8063C18.1927 31.8187 18.2269 31.8223 18.2584 31.8182L18.2604 31.8124C18.4308 31.4228 18.6511 30.9942 18.9161 30.5573C18.9651 30.4759 19.0133 30.3964 19.062 30.3181C18.9731 29.9753 18.7139 29.6686 18.3387 29.5161Z" fill="#1A1919"/>
<path fill-rule="evenodd" clip-rule="evenodd" d="M33.2191 33.2846C33.2027 33.2967 33.1595 33.328 33.1416 33.3408C32.4213 33.8972 30.7212 34.3593 28.5588 34.4805C28.3874 34.4899 28.2172 34.4979 28.0468 34.5038C28.0555 34.4313 28.0645 34.3627 28.073 34.2892C28.1648 34.2727 28.2594 34.248 28.3537 34.2131C28.681 34.0941 28.9374 33.8897 29.0759 33.6686C31.2376 33.1486 32.8693 32.3755 33.5023 31.6793C33.5185 31.6618 33.5573 31.623 33.5724 31.6056C33.6293 31.5435 33.6875 31.4705 33.7437 31.392C33.8565 31.5794 33.9047 31.7622 33.9035 32.0124C33.9016 32.2286 33.8599 32.4223 33.7542 32.649C33.6378 32.8987 33.4133 33.1336 33.2191 33.2846ZM33.4133 28.6145C33.4039 28.6344 33.3784 28.6805 33.368 28.6999C32.9503 29.5089 31.6041 30.6458 29.696 31.6686C29.1818 31.945 28.6652 32.1998 28.1564 32.4213C28.1554 32.3423 28.1544 32.2642 28.1515 32.1859C28.3959 32.0657 28.6383 31.8381 28.8148 31.5321C28.856 31.4587 28.8892 31.3872 28.92 31.3125C29.6339 30.8693 30.3532 30.3062 31.0247 29.6461C32.0143 28.6747 32.7367 27.6368 33.1311 26.7202C33.4303 26.9384 33.6293 27.3462 33.6293 27.8141C33.6293 28.0895 33.527 28.3964 33.4133 28.6145ZM33.7954 30.3692C33.7328 30.6378 33.5634 30.9132 33.4039 31.1009C33.3905 31.1178 33.3547 31.1571 33.3404 31.1728C32.7515 31.8679 31.1842 32.6732 29.0953 33.2415C28.7741 33.328 28.4526 33.4095 28.1365 33.481C28.1396 33.4048 28.1445 33.327 28.1476 33.2504C28.4204 33.1893 28.7149 33.0126 28.9602 32.7404C29.0511 32.6395 29.1292 32.5316 29.1913 32.4242C29.7425 32.1903 30.2987 31.9038 30.8446 31.5695C32.0259 30.8441 32.9862 30.0732 33.5767 29.2701C33.8182 29.5493 33.9006 29.9132 33.7954 30.3692ZM32.0332 24.304C32.4664 24.4834 32.8063 25.0235 32.8514 25.6739C32.8727 25.9939 32.8201 26.2921 32.7134 26.5382C32.3273 27.4361 31.6208 28.4451 30.6511 29.3988C29.84 30.1954 28.9549 30.8475 28.0984 31.3161C28.0914 31.2339 28.0834 31.1539 28.0754 31.073C28.3178 30.9525 28.5539 30.7234 28.7292 30.4213C28.8902 30.143 28.9711 29.847 28.9702 29.5915C29.2102 29.3358 29.4456 29.0686 29.6776 28.7973C31.0839 27.1503 31.9234 25.5956 32.0184 24.6904C32.0359 24.5576 32.0417 24.4276 32.0332 24.304ZM31.6075 24.4356C31.5231 25.3423 30.703 26.9067 29.3159 28.5712C28.8669 29.1105 28.3995 29.6259 27.9294 30.0836C27.9115 29.9828 27.8931 29.8778 27.8727 29.7789C28.0298 29.6218 28.0824 29.569 28.1709 29.4165C28.4356 28.9649 28.5103 28.449 28.3471 28.1423C30.0885 25.9355 31.1869 23.9634 31.2126 23.1539C31.5321 23.3399 31.6766 23.8669 31.6075 24.4356ZM30.1316 38.6458C30.1127 38.6468 30.0676 38.6478 30.0492 38.6487C29.4361 38.688 28.4218 38.3954 27.239 37.8039C27.2766 37.7278 27.3125 37.6524 27.3481 37.5729C27.7728 37.6742 28.1724 37.553 28.3661 37.3353C29.5525 37.6567 30.4124 37.7498 31.0994 37.6424C31.1183 37.6383 31.1648 37.6291 31.1837 37.6245C31.2548 37.6065 31.3309 37.5833 31.4077 37.5539C31.3978 37.7423 31.3452 37.8933 31.224 38.0715C31.1193 38.223 30.9971 38.3404 30.8133 38.4507C30.6116 38.5724 30.3413 38.6305 30.1316 38.6458ZM30.1013 39.5278C30.1013 39.5278 29.8371 39.5838 29.5013 39.5699C29.4431 39.6955 29.3253 39.801 29.2007 39.9152C29.0511 40.0526 28.8911 40.1486 28.6671 40.2216C28.4521 40.2907 28.1927 40.2967 27.9767 40.2727C27.9413 40.32 27.8907 40.3697 27.8405 40.4162C27.7168 40.5297 27.5847 40.608 27.4014 40.6676C27.1978 40.7338 26.9469 40.7299 26.7585 40.7001C26.7421 40.6979 26.7021 40.6897 26.6856 40.687C26.3457 40.6305 25.929 40.4621 25.4177 40.1074C25.2364 40.2201 24.7476 40.2907 24.5464 40.2907C23.9256 40.2907 23.2987 39.9947 22.8191 39.4701C22.7997 39.4516 22.9413 39.3062 22.9607 39.3244C23.4441 39.7915 23.9867 40.0516 24.5583 40.0516C24.7496 40.0516 25.0094 40 25.1942 39.945C25.2916 39.9096 25.39 39.8684 25.4868 39.8192C25.9166 40.1183 26.2974 40.3086 26.5922 40.3736C26.6075 40.3762 26.6424 40.3862 26.6577 40.3891C26.8281 40.4257 27.055 40.4407 27.2429 40.391C27.4014 40.3474 27.5132 40.2936 27.624 40.2063C27.1971 40.0984 26.6553 39.8322 26.0492 39.4298C26.1188 39.3682 26.1874 39.3035 26.2557 39.2344C26.8371 39.6075 27.3467 39.8356 27.7307 39.8982C27.7486 39.9018 27.7927 39.911 27.8116 39.9132C28.0189 39.9484 28.2965 39.9518 28.5202 39.8788C28.7234 39.8114 28.8688 39.7258 29.0051 39.6007C29.0441 39.5648 29.0771 39.5302 29.1084 39.4953C28.4596 39.3433 27.6662 39.0298 26.785 38.5699C26.841 38.4868 26.8936 38.4015 26.9469 38.3125C28.0919 38.8834 29.072 39.1922 29.7537 39.2078C29.7828 39.2097 29.8528 39.2131 29.8797 39.2148C30.1178 39.2187 30.4082 39.1918 30.6747 39.1135C30.6373 39.2078 30.5791 39.2788 30.4928 39.3569C30.3721 39.4645 30.2276 39.5074 30.1013 39.5278ZM32.5365 36.1828C32.4684 36.3661 32.3726 36.5161 32.2136 36.6766C32.0378 36.8512 31.777 36.9811 31.5658 37.0487C31.5479 37.0543 31.5013 37.0676 31.4834 37.0725C30.7501 37.3076 29.3168 37.2044 27.6012 36.7253C27.624 36.6572 27.6453 36.5893 27.6652 36.5198C27.7316 36.5217 27.7934 36.5178 27.8628 36.5122C28.2041 36.4819 28.4948 36.313 28.6623 36.1292C30.3384 36.2528 31.4873 36.2027 32.1595 35.9578C32.1595 35.9578 32.5171 35.8422 32.5891 35.792C32.5891 35.792 32.6145 35.9721 32.5365 36.1828ZM33.5927 34.1173C33.553 34.3295 33.4778 34.5127 33.3348 34.7178C33.1767 34.9435 32.9161 35.1343 32.6974 35.2514C32.679 35.2604 32.6313 35.2827 32.6111 35.2926C31.8058 35.7164 30.0511 35.8749 27.9001 35.6196C27.8858 35.6175 27.8754 35.617 27.8623 35.6155C27.8778 35.5392 27.894 35.4943 27.9081 35.417C28.1062 35.4019 28.3195 35.3438 28.5285 35.2465C28.7217 35.1561 28.8907 35.0046 29.0237 34.8754L29.0254 34.8744C31.0174 34.7035 32.5578 34.2737 33.2485 33.7399C33.2662 33.7263 33.3185 33.6885 33.3367 33.6737C33.4039 33.6221 33.4764 33.5648 33.5454 33.4972C33.6235 33.7021 33.6359 33.8708 33.5927 34.1173ZM34.473 31.9733C34.4497 31.6364 34.3428 31.3215 34.1799 31.0652C34.3816 30.7685 34.4877 30.3925 34.4734 29.9682C34.4589 29.5076 34.2941 29.0849 34.0359 28.7699C34.2017 28.4764 34.2856 28.1304 34.2722 27.7392C34.2485 27.0487 33.9195 26.4485 33.4361 26.1341C33.4526 26.0022 33.4565 25.8742 33.4536 25.7348C33.4223 24.6975 32.9745 24.0439 32.2553 23.7653C32.1023 23.0204 31.601 22.3329 31.1534 21.9971C30.6094 24.304 28.8967 26.5219 28.2793 27.3983C27.2861 28.8075 27.0541 30.1476 26.5008 31.7646C25.848 33.6722 25.39 35.6994 23.6417 36.9001C23.6417 36.7101 23.6521 36.5147 23.6747 36.312C23.9627 33.713 26.063 29.4822 25.3025 27.0153C25.2567 26.8659 25.2036 26.7193 25.1396 26.5772C24.391 24.8861 22.6885 24.6228 20.9445 25.4095C19.8584 25.8987 18.7297 26.3127 18.2102 27.4977C18.0014 27.9748 17.9275 28.4625 17.9753 28.88C17.9857 28.9733 18.0364 29.0485 18.1161 29.0754C18.2245 29.1125 18.3476 29.0485 18.4119 28.928C18.4601 28.8453 18.4928 28.7295 18.5013 28.6019C18.5013 28.5966 18.5023 28.5918 18.5033 28.5864C18.5052 28.5583 18.5108 28.527 18.5222 28.4975C18.5772 28.3634 18.7217 28.2955 18.8465 28.3455C18.9711 28.3969 19.0259 28.5469 18.9721 28.6805C18.9627 28.7042 18.9513 28.7246 18.936 28.7447C18.9042 28.7879 18.8732 28.8376 18.8429 28.8904C18.7774 29.0109 18.7372 29.1302 18.7224 29.2274C18.7023 29.3665 18.7794 29.5089 18.9139 29.5661C18.9229 29.5709 18.937 29.5775 18.9464 29.5816C19.4393 29.7825 20.0259 29.5261 20.3787 29.0034C20.5081 28.8085 20.6313 28.5864 20.7423 28.3469C20.9166 27.9724 20.9076 27.5908 21.1913 27.2587C21.6681 26.7042 23.0596 26.3409 23.6647 27.0754C24.8414 28.5035 23.5331 30.3508 22.7173 31.5653C21.6899 33.095 20.2599 34.8465 19.5411 36.569C17.6623 41.0701 20.8688 45.4863 26.0397 45.4863C29.3239 45.4863 31.3736 44.0558 32.5389 42.3469C30.296 42.1724 29.0766 40.721 29.0766 40.721C29.0766 40.721 29.5251 40.6756 29.8157 40.1884C29.8157 40.1884 30.0254 40.1641 30.2126 40.1401C30.6652 40.081 31.0795 39.8495 31.2524 39.3452C31.399 38.9195 31.4077 38.6524 31.4077 38.6524C31.4077 38.6524 31.7098 38.5256 31.8858 38.1178C31.9852 37.8868 32.0119 37.7721 32.0128 37.5387C32.5321 37.3641 32.929 36.9181 33.1471 36.3522C33.2618 36.0521 33.2846 35.9081 33.2577 35.6184C33.8419 35.3249 34.2817 34.4948 34.2589 33.8218C34.2519 33.5922 34.1942 33.385 34.1093 33.1893C34.3707 32.8853 34.5067 32.4611 34.473 31.9733Z" fill="#1A1919"/>
<path fill-rule="evenodd" clip-rule="evenodd" d="M65.7464 1.5486V2.96727C65.7464 3.06036 65.6766 3.10691 65.5602 3.09503L64.9789 3.06036C64.944 3.06036 64.8975 3.03709 64.8861 2.96727L64.8623 2.62982V2.61842H63.095V9.68824L63.4555 9.71151C63.537 9.71151 63.5716 9.79297 63.5602 9.89745L63.5253 10.4788C63.5253 10.5372 63.4902 10.5719 63.4322 10.5719H61.4439C61.351 10.5719 61.3045 10.5023 61.3159 10.3857L61.351 9.8046C61.351 9.76969 61.3741 9.72291 61.4439 9.71151L61.7811 9.68824V2.61842H60.1413L60.1183 2.97866C60.1183 3.06036 60.0371 3.09503 59.9324 3.08363L59.3508 3.04848C59.2926 3.04848 59.2579 3.01382 59.2579 2.95588V1.5486H65.7464Z" fill="#233881"/>
<path fill-rule="evenodd" clip-rule="evenodd" d="M74.4095 9.71151C74.4909 9.71151 74.5256 9.79297 74.5139 9.89745L74.479 10.4788C74.479 10.5372 74.4444 10.5719 74.3859 10.5719H72.3976C72.3047 10.5719 72.2582 10.5023 72.2698 10.3857L72.3047 9.8046C72.3047 9.76969 72.328 9.72291 72.3976 9.71151L72.735 9.68824V6.56048H68.6882V9.68824L69.0487 9.71151C69.1304 9.71151 69.1651 9.79297 69.1535 9.89745L69.1185 10.4788C69.1185 10.5372 69.0834 10.5719 69.0254 10.5719H67.0371C66.944 10.5719 66.8977 10.5023 66.9091 10.3857L66.944 9.8046C66.944 9.76969 66.9675 9.72291 67.0371 9.71151L67.3745 9.68824V2.43224L67.0141 2.40921C66.9326 2.40921 66.8977 2.32775 66.9091 2.22303L66.944 1.64169C66.944 1.58351 66.9792 1.5486 67.0371 1.5486H69.0254C69.1185 1.5486 69.1651 1.61866 69.1535 1.73454L69.1185 2.31612C69.1185 2.35078 69.0955 2.39733 69.0254 2.40921L68.6882 2.43224V5.47879H72.735V2.43224L72.3745 2.40921C72.2931 2.40921 72.2582 2.32775 72.2698 2.22303L72.3047 1.64169C72.3047 1.58351 72.3394 1.5486 72.3976 1.5486H74.3859C74.479 1.5486 74.5256 1.61866 74.5139 1.73454L74.479 2.31612C74.479 2.35078 74.4558 2.39733 74.3859 2.40921L74.049 2.43224V9.68824L74.4095 9.71151Z" fill="#233881"/>
<path fill-rule="evenodd" clip-rule="evenodd" d="M81.817 9.06036C81.8752 9.06036 81.9098 9.09527 81.9098 9.15345V10.5719H76.2703C76.1772 10.5719 76.1309 10.5023 76.1426 10.3857L76.1772 9.8046C76.1772 9.76969 76.2007 9.72291 76.2703 9.71151L76.6078 9.68824V2.43224L76.2473 2.40921C76.1658 2.40921 76.1309 2.32775 76.1426 2.22303L76.1772 1.64169C76.1772 1.58351 76.2124 1.5486 76.2703 1.5486H81.7123V2.96727C81.7123 3.06036 81.6422 3.10691 81.5263 3.09503L80.945 3.06036C80.9101 3.06036 80.8638 3.03709 80.8519 2.96727L80.8286 2.62982H77.9333V5.38594H81.2121V6.45575H77.9333V9.49042H81.0262L81.0497 9.12994C81.0497 9.04848 81.1314 9.01357 81.2356 9.02521L81.817 9.06036Z" fill="#233881"/>
<path fill-rule="evenodd" clip-rule="evenodd" d="M95.2225 1.5486C95.3159 1.5486 95.3622 1.61866 95.3503 1.73454L95.3159 2.31612C95.3159 2.35078 95.2926 2.39733 95.2225 2.40921L94.8856 2.43224H94.8504V7.2463C94.8504 9.59515 93.9321 10.7115 91.583 10.7115C89.3387 10.7115 88.3622 9.95563 88.3622 7.2463V2.43224L88.0015 2.40921C87.92 2.40921 87.8848 2.32775 87.8967 2.22303L87.9316 1.64169C87.9316 1.58351 87.9663 1.5486 88.025 1.5486H90.0128C90.1062 1.5486 90.1527 1.61866 90.1406 1.73454L90.1062 2.31612C90.1062 2.35078 90.0827 2.39733 90.0128 2.40921L89.6764 2.43224V7.47879C89.6764 8.92072 90.1062 9.69988 91.5714 9.69988C93.1998 9.69988 93.5711 8.69988 93.5711 7.47879V2.43224L93.2111 2.40921C93.1297 2.40921 93.0945 2.32775 93.1062 2.22303L93.1413 1.64169C93.1413 1.58351 93.1762 1.5486 93.2344 1.5486H95.2225Z" fill="#233881"/>
<path fill-rule="evenodd" clip-rule="evenodd" d="M104.967 1.5486C105.06 1.5486 105.107 1.61866 105.095 1.73454L105.06 2.31612C105.06 2.35078 105.037 2.39733 104.967 2.40921L104.63 2.43224H104.526V10.5719H103.654C103.596 10.5719 103.56 10.5486 103.525 10.5023L98.7697 3.85091V9.68824H98.8739L99.2349 9.71151C99.3161 9.71151 99.3513 9.79297 99.3394 9.89745L99.305 10.4788C99.305 10.5372 99.2696 10.5719 99.2116 10.5719H97.223C97.1302 10.5719 97.0836 10.5023 97.0953 10.3857L97.1302 9.8046C97.1302 9.76969 97.1534 9.72291 97.223 9.71151L97.5602 9.68824V2.43224L97.1995 2.40921C97.1185 2.40921 97.0836 2.32775 97.0953 2.22303L97.1302 1.64169C97.1302 1.58351 97.1648 1.5486 97.223 1.5486H98.5132C98.5835 1.5486 98.6182 1.58351 98.6536 1.63006L103.316 8.14182V2.43224L102.956 2.40921C102.874 2.40921 102.84 2.32775 102.851 2.22303L102.886 1.64169C102.886 1.58351 102.921 1.5486 102.979 1.5486H104.967Z" fill="#233881"/>
<path fill-rule="evenodd" clip-rule="evenodd" d="M109.096 9.71151C109.177 9.71151 109.212 9.79297 109.2 9.89745L109.166 10.4788C109.166 10.5372 109.13 10.5719 109.072 10.5719H107.084C106.991 10.5719 106.945 10.5023 106.956 10.3857L106.991 9.8046C106.991 9.76969 107.014 9.72291 107.084 9.71151L107.421 9.68824V2.43224L107.061 2.40921C106.98 2.40921 106.945 2.32775 106.956 2.22303L106.991 1.64169C106.991 1.58351 107.026 1.5486 107.084 1.5486H109.072C109.166 1.5486 109.212 1.61866 109.2 1.73454L109.166 2.31612C109.166 2.35078 109.142 2.39733 109.072 2.40921L108.735 2.43224V9.68824L109.096 9.71151Z" fill="#233881"/>
<path fill-rule="evenodd" clip-rule="evenodd" d="M118.549 1.5486C118.643 1.5486 118.689 1.61866 118.678 1.73454L118.643 2.31612C118.643 2.35078 118.62 2.39733 118.549 2.40921L118.212 2.43224L115.328 10.2928C115.271 10.4674 115.143 10.5719 114.956 10.5719L113.979 10.5372C113.945 10.5372 113.921 10.5253 113.898 10.4674L110.886 2.43224L110.526 2.40921C110.445 2.40921 110.41 2.32775 110.422 2.22303L110.457 1.64169C110.457 1.58351 110.491 1.5486 110.549 1.5486H112.561C112.654 1.5486 112.701 1.61866 112.689 1.73454L112.654 2.31612C112.654 2.35078 112.631 2.39733 112.561 2.40921L112.224 2.43224L114.561 8.9903H114.596L116.922 2.43224L116.561 2.40921C116.48 2.40921 116.445 2.32775 116.456 2.22303L116.491 1.64169C116.491 1.58351 116.526 1.5486 116.584 1.5486H118.549Z" fill="#233881"/>
<path fill-rule="evenodd" clip-rule="evenodd" d="M125.573 9.06036C125.632 9.06036 125.667 9.09527 125.667 9.15345V10.5719H120.026C119.934 10.5719 119.887 10.5023 119.899 10.3857L119.934 9.8046C119.934 9.76969 119.957 9.72291 120.026 9.71151L120.364 9.68824V2.43224L120.003 2.40921C119.922 2.40921 119.887 2.32775 119.899 2.22303L119.934 1.64169C119.934 1.58351 119.968 1.5486 120.026 1.5486H125.469V2.96727C125.469 3.06036 125.399 3.10691 125.283 3.09503L124.701 3.06036C124.666 3.06036 124.619 3.03709 124.608 2.96727L124.585 2.62982H121.69V5.38594H124.969V6.45575H121.69V9.49042H124.783L124.806 9.12994C124.806 9.04848 124.888 9.01357 124.992 9.02521L125.573 9.06036Z" fill="#233881"/>
<path fill-rule="evenodd" clip-rule="evenodd" d="M130.201 6.04872C131.458 6.04872 132.179 5.50206 132.179 4.24654C132.179 3.04848 131.492 2.57188 130.306 2.57188H129.19V6.04872H130.201ZM133.795 9.71151C133.876 9.71151 133.911 9.79297 133.899 9.89745L133.864 10.4788C133.864 10.5372 133.83 10.5719 133.772 10.5719H132.446L130.469 7.08363H129.19V9.68824L129.551 9.71151C129.632 9.71151 129.667 9.79297 129.655 9.89745L129.62 10.4788C129.62 10.5372 129.586 10.5719 129.528 10.5719H127.539C127.446 10.5719 127.399 10.5023 127.411 10.3857L127.446 9.8046C127.446 9.76969 127.47 9.72291 127.539 9.71151L127.876 9.68824V2.43224L127.516 2.40921C127.434 2.40921 127.399 2.32775 127.411 2.22303L127.446 1.64169C127.446 1.58351 127.481 1.5486 127.539 1.5486H130.167C132.434 1.5486 133.504 2.40921 133.504 4.24654C133.504 5.42085 132.888 6.42085 131.784 6.83927L133.434 9.68824L133.795 9.71151Z" fill="#233881"/>
<path fill-rule="evenodd" clip-rule="evenodd" d="M141.016 8.09527C141.016 9.56024 139.935 10.6298 137.899 10.6298C136.806 10.6298 135.934 10.3976 135.306 10.1299V8.72291C135.306 8.61842 135.388 8.56048 135.528 8.57188L136.225 8.61842C136.272 8.61842 136.329 8.64145 136.342 8.72291L136.365 9.35127C136.912 9.47879 137.458 9.54836 137.83 9.54836C138.888 9.54836 139.714 9.18812 139.714 8.22303C139.714 7.18812 139.318 6.97867 137.528 6.33963C136.225 5.85091 135.33 5.18812 135.33 3.89721C135.33 2.44388 136.434 1.47879 138.4 1.47879C139.12 1.47879 139.807 1.5486 140.458 1.71127V3.23491C140.458 3.33939 140.376 3.39757 140.237 3.38594L139.539 3.33939C139.492 3.33939 139.435 3.31588 139.423 3.23491L139.4 2.60654C139.085 2.57188 138.772 2.5486 138.481 2.5486C137.399 2.5486 136.69 3.04848 136.69 3.85091C136.69 4.68824 137.178 4.99054 138.772 5.56C140.435 6.14182 141.016 6.93236 141.016 8.09527Z" fill="#233881"/>
<path fill-rule="evenodd" clip-rule="evenodd" d="M144.784 9.71151C144.865 9.71151 144.9 9.79297 144.888 9.89745L144.854 10.4788C144.854 10.5372 144.819 10.5719 144.761 10.5719H142.772C142.679 10.5719 142.632 10.5023 142.644 10.3857L142.679 9.8046C142.679 9.76969 142.703 9.72291 142.772 9.71151L143.109 9.68824V2.43224L142.749 2.40921C142.667 2.40921 142.632 2.32775 142.644 2.22303L142.679 1.64169C142.679 1.58351 142.714 1.5486 142.772 1.5486H144.761C144.854 1.5486 144.9 1.61866 144.888 1.73454L144.854 2.31612C144.854 2.35078 144.83 2.39733 144.761 2.40921L144.423 2.43224V9.68824L144.784 9.71151Z" fill="#233881"/>
<path fill-rule="evenodd" clip-rule="evenodd" d="M152.772 1.5486V2.96727C152.772 3.06036 152.703 3.10691 152.586 3.09503L152.005 3.06036C151.97 3.06036 151.924 3.03709 151.912 2.96727L151.888 2.62982V2.61842H150.121V9.68824L150.482 9.71151C150.563 9.71151 150.598 9.79297 150.586 9.89745L150.551 10.4788C150.551 10.5372 150.517 10.5719 150.458 10.5719H148.47C148.377 10.5719 148.33 10.5023 148.342 10.3857L148.377 9.8046C148.377 9.76969 148.4 9.72291 148.47 9.71151L148.807 9.68824V2.61842H147.168L147.145 2.97866C147.145 3.06036 147.063 3.09503 146.958 3.08363L146.377 3.04848C146.319 3.04848 146.284 3.01382 146.284 2.95588V1.5486H152.772Z" fill="#233881"/>
<path fill-rule="evenodd" clip-rule="evenodd" d="M160.61 1.5486C160.702 1.5486 160.749 1.61866 160.738 1.73454L160.702 2.31612C160.702 2.35078 160.679 2.39733 160.61 2.40921L160.272 2.43224L157.738 7.39757V9.68824L158.098 9.71151C158.18 9.71151 158.215 9.79297 158.203 9.89745L158.168 10.4788C158.168 10.5372 158.134 10.5719 158.075 10.5719H156.087C155.994 10.5719 155.947 10.5023 155.959 10.3857L155.994 9.8046C155.994 9.76969 156.016 9.72291 156.087 9.71151L156.423 9.68824V7.37406L153.924 2.43224L153.575 2.40921C153.494 2.40921 153.458 2.32775 153.47 2.22303L153.505 1.64169C153.505 1.58351 153.54 1.5486 153.598 1.5486H155.587C155.679 1.5486 155.726 1.61866 155.715 1.73454L155.679 2.31612C155.679 2.35078 155.656 2.39733 155.587 2.40921L155.261 2.43224L157.075 6.17648H157.11L158.982 2.43224L158.621 2.40921C158.54 2.40921 158.505 2.32775 158.517 2.22303L158.552 1.64169C158.552 1.58351 158.587 1.5486 158.645 1.5486H160.61Z" fill="#233881"/>
<path fill-rule="evenodd" clip-rule="evenodd" d="M166.485 6.04873C166.485 7.57212 166.834 9.54836 168.741 9.54836C170.322 9.54836 171.008 8.19976 171.008 6.04873C171.008 4.49042 170.624 2.57188 168.752 2.57188C166.845 2.57188 166.485 4.53721 166.485 6.04873ZM172.38 6.07176C172.38 9.15345 171.02 10.6417 168.741 10.6417C166.485 10.6417 165.101 9.10691 165.101 6.07176C165.101 3.88557 165.927 1.49067 168.764 1.49067C171.194 1.49067 172.38 3.35127 172.38 6.07176Z" fill="#233881"/>
<path fill-rule="evenodd" clip-rule="evenodd" d="M179.346 1.5486V2.96727C179.346 3.06036 179.276 3.10691 179.16 3.09503L178.578 3.06036C178.543 3.06036 178.497 3.03709 178.485 2.96727L178.462 2.62982H175.555V5.38594H178.706V6.45575H175.555V9.68824L175.916 9.71151C175.997 9.71151 176.032 9.79297 176.02 9.89745L175.985 10.4788C175.985 10.5372 175.95 10.5719 175.892 10.5719H173.904C173.811 10.5719 173.765 10.5023 173.776 10.3857L173.811 9.8046C173.811 9.76969 173.834 9.72291 173.904 9.71151L174.241 9.68824V2.43224L173.881 2.40921C173.799 2.40921 173.765 2.32775 173.776 2.22303L173.811 1.64169C173.811 1.58351 173.846 1.5486 173.904 1.5486H179.346Z" fill="#233881"/>
<path fill-rule="evenodd" clip-rule="evenodd" d="M83.9154 14.7699C84.121 14.7699 84.2237 14.9244 84.198 15.1813L84.121 16.4664C84.121 16.5438 84.0693 16.6465 83.9154 16.6722L83.1954 16.7236L78.8514 33.8184C78.6967 34.384 78.2342 34.7183 77.6686 34.7183L75.6637 34.6412C75.3806 34.6412 75.2778 34.4611 75.2005 34.1784L71.7045 19.1401H71.679L68.2344 33.5098C68.1057 34.0242 67.7716 34.744 66.8717 34.7183L64.944 34.6412C64.7125 34.6412 64.5585 34.5125 64.4812 34.1784L60.2654 16.7236L59.4943 16.6722C59.3144 16.6722 59.2373 16.4926 59.2625 16.2608L59.3399 14.9758C59.3399 14.847 59.4174 14.7699 59.5454 14.7699H63.7871C63.9927 14.7699 64.0955 14.9244 64.07 15.1813L63.9927 16.4664C63.9927 16.5438 63.9413 16.6465 63.7871 16.6722L63.0671 16.7236L66.3578 31.7103H66.3835L70.0594 15.9525C70.265 15.0528 70.702 14.7442 71.3193 14.7699L72.7845 14.847C73.0412 14.8727 73.144 15.0015 73.2213 15.3355L76.9486 31.7103H76.9745L80.4191 16.7236L79.648 16.6722C79.4681 16.6722 79.3908 16.4926 79.4165 16.2608L79.4936 14.9758C79.4936 14.847 79.5709 14.7699 79.6991 14.7699H83.9154Z" fill="#233881"/>
<path fill-rule="evenodd" clip-rule="evenodd" d="M98.1551 31.3762C98.2834 31.3762 98.3607 31.4533 98.3607 31.5821V34.7183H85.8936C85.688 34.7183 85.585 34.5639 85.6107 34.3069L85.688 33.0216C85.688 32.9445 85.7391 32.8415 85.8936 32.8158L86.6388 32.7644V16.7236L85.8419 16.6722C85.6621 16.6722 85.585 16.4926 85.6107 16.2608L85.688 14.9758C85.688 14.847 85.7648 14.7699 85.8936 14.7699H97.9241V17.9064C97.9241 18.1118 97.7694 18.2145 97.5127 18.1891L96.2274 18.1118C96.15 18.1118 96.0473 18.0604 96.0213 17.9064L95.9704 17.1607H89.5697V23.2531H96.8187V25.6182H89.5697V32.3275H96.4075L96.4589 31.5304C96.4589 31.3508 96.6388 31.2735 96.8701 31.2991L98.1551 31.3762Z" fill="#233881"/>
<path fill-rule="evenodd" clip-rule="evenodd" d="M112.91 29.2429C112.91 32.4817 110.52 34.8468 106.021 34.8468C103.604 34.8468 101.676 34.3324 100.288 33.7411V30.631C100.288 30.3995 100.468 30.2708 100.777 30.2965L102.319 30.3995C102.422 30.3995 102.551 30.4511 102.576 30.631L102.627 32.0189C103.835 32.3018 105.044 32.4558 105.867 32.4558C108.207 32.4558 110.031 31.6591 110.031 29.5256C110.031 27.2376 109.157 26.775 105.198 25.361C102.319 24.2812 100.339 22.816 100.339 19.9627C100.339 16.7496 102.782 14.6158 107.126 14.6158C108.72 14.6158 110.236 14.7699 111.676 15.1297V18.4974C111.676 18.7287 111.496 18.8574 111.188 18.8315L109.646 18.7287C109.543 18.7287 109.414 18.6776 109.388 18.4974L109.337 17.1093C108.643 17.0322 107.949 16.9808 107.306 16.9808C104.916 16.9808 103.347 18.0861 103.347 19.8599C103.347 21.7105 104.427 22.3791 107.949 23.6385C111.625 24.9239 112.91 26.6722 112.91 29.2429Z" fill="#233881"/>
<path fill-rule="evenodd" clip-rule="evenodd" d="M128.282 14.7699V17.9064C128.282 18.1118 128.127 18.2145 127.87 18.1891L126.585 18.1118C126.508 18.1118 126.405 18.0604 126.379 17.9064L126.328 17.1607V17.135H122.42V32.7644L123.217 32.8158C123.398 32.8158 123.474 32.9959 123.449 33.2274L123.371 34.5125C123.371 34.6412 123.295 34.7183 123.166 34.7183H118.77C118.565 34.7183 118.462 34.5639 118.488 34.3069L118.565 33.0216C118.565 32.9445 118.616 32.8415 118.77 32.8158L119.516 32.7644V17.135H115.891L115.84 17.9319C115.84 18.1118 115.66 18.1891 115.429 18.1634L114.144 18.0861C114.014 18.0861 113.938 18.009 113.938 17.8805V14.7699H128.282Z" fill="#233881"/>
<path fill-rule="evenodd" clip-rule="evenodd" d="M142.702 31.3762C142.831 31.3762 142.908 31.4533 142.908 31.5821V34.7183H130.44C130.234 34.7183 130.131 34.5639 130.157 34.3069L130.234 33.0216C130.234 32.9445 130.286 32.8415 130.44 32.8158L131.186 32.7644V16.7236L130.389 16.6722C130.209 16.6722 130.131 16.4926 130.157 16.2608L130.234 14.9758C130.234 14.847 130.311 14.7699 130.44 14.7699H142.471V17.9064C142.471 18.1118 142.317 18.2145 142.059 18.1891L140.774 18.1118C140.697 18.1118 140.594 18.0604 140.569 17.9064L140.517 17.1607H134.116V23.2531H141.366V25.6182H134.116V32.3275H140.954L141.005 31.5304C141.005 31.3508 141.186 31.2735 141.417 31.2991L142.702 31.3762Z" fill="#233881"/>
<path fill-rule="evenodd" clip-rule="evenodd" d="M151.493 24.7183C154.269 24.7183 155.863 23.5101 155.863 20.7338C155.863 18.0861 154.346 17.0322 151.724 17.0322H149.256V24.7183H151.493ZM159.436 32.8158C159.616 32.8158 159.693 32.9959 159.667 33.2274L159.591 34.5125C159.591 34.6412 159.513 34.7183 159.384 34.7183H156.454L152.084 27.0063H149.256V32.7644L150.053 32.8158C150.233 32.8158 150.31 32.9959 150.285 33.2274L150.207 34.5125C150.207 34.6412 150.13 34.7183 150.002 34.7183H145.606C145.4 34.7183 145.297 34.5639 145.324 34.3069L145.4 33.0216C145.4 32.9445 145.452 32.8415 145.606 32.8158L146.352 32.7644V16.7236L145.555 16.6722C145.375 16.6722 145.297 16.4926 145.324 16.2608L145.4 14.9758C145.4 14.847 145.478 14.7699 145.606 14.7699H151.416C156.429 14.7699 158.793 16.6722 158.793 20.7338C158.793 23.3302 157.43 25.5408 154.989 26.4664L158.639 32.7644L159.436 32.8158Z" fill="#233881"/>
<path fill-rule="evenodd" clip-rule="evenodd" d="M179.152 14.7699C179.357 14.7699 179.46 14.9244 179.434 15.1813L179.357 16.4664C179.357 16.5438 179.306 16.6465 179.152 16.6722L178.407 16.7236H178.175V34.7183H176.247C176.118 34.7183 176.041 34.6667 175.964 34.5639L165.45 19.8599V32.7644H165.682L166.479 32.8158C166.659 32.8158 166.736 32.9959 166.71 33.2274L166.633 34.5125C166.633 34.6412 166.556 34.7183 166.427 34.7183H162.032C161.826 34.7183 161.723 34.5639 161.749 34.3069L161.826 33.0216C161.826 32.9445 161.877 32.8415 162.032 32.8158L162.777 32.7644V16.7236L161.98 16.6722C161.8 16.6722 161.723 16.4926 161.749 16.2608L161.826 14.9758C161.826 14.847 161.903 14.7699 162.032 14.7699H164.885C165.039 14.7699 165.116 14.847 165.193 14.9501L175.501 29.3457V16.7236L174.704 16.6722C174.525 16.6722 174.448 16.4926 174.473 16.2608L174.551 14.9758C174.551 14.847 174.627 14.7699 174.756 14.7699H179.152Z" fill="#233881"/>
<path fill-rule="evenodd" clip-rule="evenodd" d="M69.6822 49.7275L66.8228 41.6104H66.801L64.0948 49.7275H69.6822ZM74.4996 54.2368C74.6538 54.2368 74.7198 54.391 74.6977 54.5888L74.6318 55.6887C74.6318 55.7988 74.5656 55.8647 74.4781 55.8647H70.6284C70.4524 55.8647 70.3641 55.7326 70.3864 55.5127L70.4524 54.4128C70.4524 54.3469 70.496 54.2589 70.6284 54.2368L71.2441 54.193L70.3864 51.7513H63.4131L62.5993 54.193L63.281 54.2368C63.4349 54.2368 63.5011 54.391 63.479 54.5888L63.4131 55.6887C63.4131 55.7988 63.3471 55.8647 63.2371 55.8647H59.5195C59.3435 55.8647 59.2553 55.7326 59.2776 55.5127L59.3435 54.4128C59.3435 54.3469 59.3874 54.2589 59.5195 54.2368L60.1355 54.193L65.0625 40.4664L64.4027 40.4225C64.249 40.4225 64.1828 40.2686 64.2048 40.0705L64.2708 38.9707C64.2708 38.8606 64.337 38.7949 64.4473 38.7949H67.9445L73.84 54.193L74.4996 54.2368Z" fill="#233881"/>
<path fill-rule="evenodd" clip-rule="evenodd" d="M88.4453 38.7949C88.6206 38.7949 88.7091 38.9265 88.687 39.1467L88.6206 40.2463C88.6206 40.3125 88.5775 40.4005 88.4453 40.4225L87.807 40.4664H87.7411V49.5733C87.7411 54.017 86.0034 56.1287 81.5598 56.1287C77.3142 56.1287 75.4664 54.6987 75.4664 49.5733V40.4664L74.7847 40.4225C74.6305 40.4225 74.5646 40.2686 74.5867 40.0705L74.6524 38.9707C74.6524 38.8606 74.7188 38.7949 74.8286 38.7949H78.5901C78.7661 38.7949 78.8541 38.9265 78.8322 39.1467L78.7661 40.2463C78.7661 40.3125 78.7222 40.4005 78.5901 40.4225L77.9522 40.4664V50.0133C77.9522 52.7411 78.7661 54.215 81.5377 54.215C84.6177 54.215 85.3212 52.3231 85.3212 50.0133V40.4664L84.6395 40.4225C84.4853 40.4225 84.4194 40.2686 84.4414 40.0705L84.5076 38.9707C84.5076 38.8606 84.5736 38.7949 84.6834 38.7949H88.4453Z" fill="#233881"/>
<path fill-rule="evenodd" clip-rule="evenodd" d="M100.917 51.1791C100.917 53.951 98.871 55.9745 95.0211 55.9745C92.9537 55.9745 91.304 55.5345 90.1159 55.0288V52.3673C90.1159 52.1692 90.27 52.0589 90.534 52.0812L91.8536 52.1692C91.9416 52.1692 92.0516 52.2131 92.0737 52.3673L92.1173 53.5549C93.1517 53.7971 94.1854 53.9287 94.8892 53.9287C96.8909 53.9287 98.4528 53.247 98.4528 51.4213C98.4528 49.4633 97.7054 49.0676 94.3178 47.8577C91.8536 46.9338 90.16 45.68 90.16 43.2383C90.16 40.4885 92.2497 38.6625 95.9673 38.6625C97.3311 38.6625 98.6293 38.7949 99.8611 39.103V41.9845C99.8611 42.1823 99.7067 42.2921 99.4431 42.2703L98.1231 42.1823C98.0349 42.1823 97.9246 42.1384 97.903 41.9845L97.8594 40.7964C97.265 40.7304 96.6708 40.6865 96.1214 40.6865C94.0754 40.6865 92.7338 41.6322 92.7338 43.1501C92.7338 44.7341 93.6577 45.3059 96.6708 46.3838C99.8165 47.4836 100.917 48.9794 100.917 51.1791Z" fill="#233881"/>
<path fill-rule="evenodd" clip-rule="evenodd" d="M114.378 38.7949V41.4785C114.378 41.6543 114.246 41.7425 114.026 41.7205L112.926 41.6543C112.86 41.6543 112.772 41.6104 112.751 41.4785L112.706 40.8405V40.8187H109.362V54.193L110.044 54.2368C110.198 54.2368 110.265 54.391 110.243 54.5888L110.176 55.6887C110.176 55.7988 110.111 55.8647 110 55.8647H106.239C106.063 55.8647 105.975 55.7326 105.997 55.5127L106.063 54.4128C106.063 54.3469 106.107 54.2589 106.239 54.2368L106.877 54.193V40.8187H103.775L103.732 41.5004C103.732 41.6543 103.577 41.7205 103.38 41.6984L102.279 41.6322C102.17 41.6322 102.104 41.5663 102.104 41.4565V38.7949H114.378Z" fill="#233881"/>
<path fill-rule="evenodd" clip-rule="evenodd" d="M121.306 47.3079C123.682 47.3079 125.046 46.2737 125.046 43.8979C125.046 41.6322 123.748 40.7304 121.504 40.7304H119.392V47.3079H121.306ZM128.103 54.2368C128.257 54.2368 128.323 54.391 128.302 54.5888L128.235 55.6887C128.235 55.7988 128.169 55.8647 128.059 55.8647H125.552L121.812 49.2654H119.392V54.193L120.074 54.2368C120.228 54.2368 120.294 54.391 120.272 54.5888L120.207 55.6887C120.207 55.7988 120.141 55.8647 120.03 55.8647H116.269C116.093 55.8647 116.005 55.7326 116.026 55.5127L116.093 54.4128C116.093 54.3469 116.136 54.2589 116.269 54.2368L116.907 54.193V40.4664L116.225 40.4225C116.071 40.4225 116.005 40.2686 116.026 40.0705L116.093 38.9707C116.093 38.8606 116.159 38.7949 116.269 38.7949H121.24C125.53 38.7949 127.553 40.4225 127.553 43.8979C127.553 46.1195 126.388 48.0116 124.298 48.8036L127.422 54.193L128.103 54.2368Z" fill="#233881"/>
<path fill-rule="evenodd" clip-rule="evenodd" d="M139.717 49.7275L136.857 41.6104H136.836L134.129 49.7275H139.717ZM144.534 54.2368C144.688 54.2368 144.754 54.391 144.732 54.5888L144.667 55.6887C144.667 55.7988 144.601 55.8647 144.512 55.8647H140.663C140.487 55.8647 140.399 55.7326 140.421 55.5127L140.487 54.4128C140.487 54.3469 140.53 54.2589 140.663 54.2368L141.279 54.193L140.421 51.7513H133.448L132.634 54.193L133.315 54.2368C133.47 54.2368 133.536 54.391 133.513 54.5888L133.448 55.6887C133.448 55.7988 133.381 55.8647 133.272 55.8647H129.554C129.378 55.8647 129.29 55.7326 129.312 55.5127L129.378 54.4128C129.378 54.3469 129.422 54.2589 129.554 54.2368L130.17 54.193L135.097 40.4664L134.438 40.4225C134.283 40.4225 134.218 40.2686 134.239 40.0705L134.306 38.9707C134.306 38.8606 134.371 38.7949 134.482 38.7949H137.979L143.874 54.193L144.534 54.2368Z" fill="#233881"/>
<path fill-rule="evenodd" clip-rule="evenodd" d="M156.852 53.0051C156.963 53.0051 157.028 53.071 157.028 53.1811V55.8647H146.359C146.183 55.8647 146.096 55.7326 146.117 55.5127L146.183 54.4128C146.183 54.3469 146.227 54.2589 146.359 54.2368L146.997 54.193V40.4664L146.315 40.4225C146.162 40.4225 146.096 40.2686 146.117 40.0705L146.183 38.9707C146.183 38.8606 146.249 38.7949 146.359 38.7949H150.121C150.297 38.7949 150.385 38.9265 150.363 39.1467L150.297 40.2463C150.297 40.3125 150.253 40.4005 150.121 40.4225L149.483 40.4664V53.8189H155.356L155.4 53.137C155.4 52.983 155.554 52.9171 155.752 52.9389L156.852 53.0051Z" fill="#233881"/>
<path fill-rule="evenodd" clip-rule="evenodd" d="M162.394 54.2368C162.548 54.2368 162.614 54.391 162.592 54.5888L162.526 55.6887C162.526 55.7988 162.46 55.8647 162.35 55.8647H158.589C158.412 55.8647 158.325 55.7326 158.347 55.5127L158.412 54.4128C158.412 54.3469 158.456 54.2589 158.589 54.2368L159.227 54.193V40.4664L158.545 40.4225C158.391 40.4225 158.325 40.2686 158.347 40.0705L158.412 38.9707C158.412 38.8606 158.479 38.7949 158.589 38.7949H162.35C162.526 38.7949 162.614 38.9265 162.592 39.1467L162.526 40.2463C162.526 40.3125 162.482 40.4005 162.35 40.4225L161.712 40.4664V54.193L162.394 54.2368Z" fill="#233881"/>
<path fill-rule="evenodd" clip-rule="evenodd" d="M174.427 49.7275L171.567 41.6104H171.545L168.839 49.7275H174.427ZM179.244 54.2368C179.399 54.2368 179.464 54.391 179.442 54.5888L179.376 55.6887C179.376 55.7988 179.31 55.8647 179.222 55.8647H175.372C175.197 55.8647 175.108 55.7326 175.13 55.5127L175.197 54.4128C175.197 54.3469 175.241 54.2589 175.372 54.2368L175.988 54.193L175.13 51.7513H168.157L167.344 54.193L168.025 54.2368C168.179 54.2368 168.246 54.391 168.224 54.5888L168.157 55.6887C168.157 55.7988 168.092 55.8647 167.982 55.8647H164.264C164.088 55.8647 164 55.7326 164.022 55.5127L164.088 54.4128C164.088 54.3469 164.132 54.2589 164.264 54.2368L164.88 54.193L169.807 40.4664L169.147 40.4225C168.994 40.4225 168.927 40.2686 168.95 40.0705L169.015 38.9707C169.015 38.8606 169.081 38.7949 169.191 38.7949H172.689L178.585 54.193L179.244 54.2368Z" fill="#233881"/>
<path fill-rule="evenodd" clip-rule="evenodd" d="M31.6247 9.13164H30.4965V7.32873H31.6007C31.6112 7.35806 31.6194 7.41406 31.6194 7.48873C31.6194 7.54739 31.6138 7.59806 31.6007 7.65406H30.8778V8.04339H31.4887C31.4994 8.07273 31.5074 8.12606 31.5074 8.20073C31.5074 8.25939 31.5018 8.30739 31.4887 8.36339H30.8778V8.80606H31.6247C31.6354 8.83564 31.6432 8.89164 31.6432 8.9663C31.6432 9.02497 31.6381 9.07564 31.6247 9.13164Z" fill="#233881"/>
<path fill-rule="evenodd" clip-rule="evenodd" d="M32.4751 7.62739C32.4165 7.62739 32.3445 7.63006 32.2992 7.63272V8.16606H32.4325C32.6514 8.16606 32.7471 8.08606 32.7471 7.88872C32.7471 7.69139 32.6514 7.62739 32.4751 7.62739ZM33.2461 9.12897C33.1767 9.13963 33.1047 9.14497 33.0221 9.14497C32.9471 9.14497 32.8727 9.1423 32.8221 9.13163L32.4565 8.48339H32.2992V9.13163C32.2325 9.1423 32.1765 9.14497 32.1045 9.14497C32.0405 9.14497 31.9845 9.1423 31.9178 9.13163V7.32872C32.0405 7.32072 32.2965 7.31539 32.4512 7.31539C32.9045 7.31539 33.1314 7.47539 33.1314 7.89139C33.1314 8.11273 32.9978 8.33406 32.8114 8.41406L33.2461 9.12897Z" fill="#233881"/>
<path fill-rule="evenodd" clip-rule="evenodd" d="M34.5634 9.13164H33.4352V7.32873H34.5394C34.5501 7.35806 34.5581 7.41406 34.5581 7.48873C34.5581 7.54739 34.5525 7.59806 34.5394 7.65406H33.8165V8.04339H34.4274C34.4381 8.07273 34.4461 8.12606 34.4461 8.20073C34.4461 8.25939 34.4405 8.30739 34.4274 8.36339H33.8165V8.80606H34.5634C34.5741 8.83564 34.5818 8.89164 34.5818 8.9663C34.5818 9.02497 34.5767 9.07564 34.5634 9.13164Z" fill="#233881"/>
<path fill-rule="evenodd" clip-rule="evenodd" d="M31.0541 10.1149C31.0005 10.1149 30.9312 10.1176 30.8778 10.1202V10.6509H31.0434C31.2485 10.6509 31.3581 10.5976 31.3581 10.3789C31.3581 10.1922 31.2647 10.1149 31.0541 10.1149ZM31.0647 10.9709H30.8778V11.6165C30.8272 11.6245 30.7658 11.6298 30.6858 11.6298C30.6138 11.6298 30.5472 11.6245 30.4965 11.6165V9.816C30.6514 9.80824 30.8858 9.80024 31.0378 9.80024C31.4461 9.80024 31.7421 9.94157 31.7421 10.3656C31.7421 10.7789 31.4832 10.9709 31.0647 10.9709Z" fill="#233881"/>
<path fill-rule="evenodd" clip-rule="evenodd" d="M33.1057 11.6165H31.9774V9.81358H33.0817C33.0924 9.84291 33.1004 9.89891 33.1004 9.97358C33.1004 10.0322 33.095 10.0829 33.0817 10.1389H32.3588V10.5282H32.9694C32.9804 10.5576 32.9881 10.6109 32.9881 10.6856C32.9881 10.7442 32.983 10.7922 32.9694 10.8482H32.3588V11.2909H33.1057C33.1161 11.3205 33.1244 11.3765 33.1244 11.4512C33.1244 11.5098 33.1188 11.5605 33.1057 11.6165Z" fill="#233881"/>
<path fill-rule="evenodd" clip-rule="evenodd" d="M33.9258 10.1122C33.8671 10.1122 33.7951 10.1149 33.7498 10.1176V10.6509H33.8831C34.1018 10.6509 34.1978 10.5709 34.1978 10.3736C34.1978 10.1762 34.1018 10.1122 33.9258 10.1122ZM34.6965 11.6136C34.6274 11.6245 34.5551 11.6298 34.4725 11.6298C34.398 11.6298 34.3231 11.6271 34.2725 11.6165L33.9071 10.9682H33.7498V11.6165C33.6831 11.6271 33.6271 11.6298 33.5551 11.6298C33.4909 11.6298 33.4351 11.6271 33.3685 11.6165V9.81357C33.4909 9.80557 33.7471 9.80024 33.9018 9.80024C34.3551 9.80024 34.5818 9.96024 34.5818 10.3762C34.5818 10.5976 34.4487 10.8189 34.2618 10.8989L34.6965 11.6136Z" fill="#233881"/>
<path fill-rule="evenodd" clip-rule="evenodd" d="M38.3755 8.44873L38.2182 7.93939C38.1995 7.88072 38.1809 7.80606 38.1649 7.72339H38.1595C38.1462 7.80606 38.1249 7.88072 38.1062 7.93939L37.9569 8.44873H38.3755ZM39.0129 9.13163C38.9782 9.13963 38.8955 9.14497 38.8075 9.14497C38.7382 9.14497 38.6582 9.13697 38.6235 9.13163L38.4902 8.76606H37.85L37.7246 9.13163C37.6662 9.13963 37.5966 9.14497 37.5273 9.14497C37.458 9.14497 37.378 9.13963 37.338 9.13163L37.9675 7.32872C38.0049 7.32072 38.0929 7.31539 38.1515 7.31539C38.2235 7.31539 38.3089 7.32072 38.3382 7.32872L39.0129 9.13163Z" fill="#233881"/>
<path fill-rule="evenodd" clip-rule="evenodd" d="M39.7273 7.62739C39.6686 7.62739 39.5966 7.63006 39.5513 7.63272V8.16606H39.6846C39.9035 8.16606 39.9995 8.08606 39.9995 7.88872C39.9995 7.69139 39.9035 7.62739 39.7273 7.62739ZM40.4982 9.12897C40.4289 9.13963 40.3569 9.14497 40.2742 9.14497C40.1995 9.14497 40.1249 9.1423 40.0742 9.13163L39.7086 8.48339H39.5513V9.13163C39.4849 9.1423 39.4286 9.14497 39.3566 9.14497C39.2926 9.14497 39.2366 9.1423 39.17 9.13163V7.32872C39.2926 7.32072 39.5486 7.31539 39.7033 7.31539C40.1566 7.31539 40.3835 7.47539 40.3835 7.89139C40.3835 8.11273 40.2502 8.33406 40.0635 8.41406L40.4982 9.12897Z" fill="#233881"/>
<path fill-rule="evenodd" clip-rule="evenodd" d="M38.2007 10.1389H37.7232V11.6165C37.6725 11.6245 37.6007 11.6298 37.5341 11.6298C37.4672 11.6298 37.3952 11.6245 37.3418 11.6165V10.1389H36.8645C36.8538 10.1042 36.8458 10.0216 36.8458 9.97624C36.8458 9.93091 36.8565 9.84824 36.8672 9.81358H38.2007C38.2114 9.84824 38.2194 9.93091 38.2194 9.97624C38.2194 10.0216 38.2114 10.1042 38.2007 10.1389Z" fill="#233881"/>
<path fill-rule="evenodd" clip-rule="evenodd" d="M39.5481 11.6165H38.4199V9.81358H39.5241C39.5348 9.84291 39.5428 9.89891 39.5428 9.97358C39.5428 10.0322 39.5375 10.0829 39.5241 10.1389H38.8015V10.5282H39.4121C39.4228 10.5576 39.4308 10.6109 39.4308 10.6856C39.4308 10.7442 39.4255 10.7922 39.4121 10.8482H38.8015V11.2909H39.5481C39.5588 11.3205 39.5668 11.3765 39.5668 11.4512C39.5668 11.5098 39.5615 11.5605 39.5481 11.6165Z" fill="#233881"/>
<path fill-rule="evenodd" clip-rule="evenodd" d="M40.3474 11.6431C40.1525 11.6431 39.9391 11.6058 39.7871 11.5365C39.7791 11.4991 39.7738 11.4511 39.7738 11.4085C39.7738 11.3445 39.7818 11.2831 39.8005 11.2109C39.9578 11.2751 40.1658 11.3151 40.3285 11.3151C40.518 11.3151 40.6194 11.2269 40.6194 11.1071C40.6194 10.9736 40.534 10.9176 40.2751 10.8376C39.9871 10.7496 39.7765 10.6109 39.7765 10.3016C39.7765 9.97091 40.0618 9.78691 40.438 9.78691C40.6111 9.78691 40.766 9.81357 40.87 9.84824C40.878 9.87757 40.8834 9.92557 40.8834 9.99491C40.8834 10.0456 40.878 10.1229 40.8674 10.1656C40.734 10.1309 40.5818 10.1122 40.4594 10.1122C40.2591 10.1122 40.1498 10.1789 40.1498 10.2856C40.1498 10.4109 40.2485 10.4616 40.4887 10.5362C40.7767 10.6269 40.99 10.7629 40.99 11.0829C40.99 11.4322 40.7154 11.6431 40.3474 11.6431Z" fill="#233881"/>
<path fill-rule="evenodd" clip-rule="evenodd" d="M12.3452 8.34206C12.3852 8.45406 12.4252 8.57939 12.4441 8.68606H12.4494C12.4679 8.57939 12.5054 8.45406 12.5454 8.34206L12.7428 7.77139C12.7932 7.62472 12.8228 7.48339 12.8252 7.32872C12.8788 7.32072 12.9534 7.31539 13.0148 7.31539C13.0708 7.31539 13.1508 7.32072 13.1988 7.32872C13.1988 7.50715 13.1668 7.67806 13.0948 7.86739L12.6119 9.13163C12.5801 9.13963 12.5054 9.14497 12.4412 9.14497C12.3692 9.14497 12.3105 9.13963 12.2625 9.13163L11.7879 7.87273C11.7159 7.68339 11.6839 7.50715 11.6839 7.32872C11.7319 7.32072 11.7959 7.31539 11.8759 7.31539C11.9372 7.31539 12.0145 7.32072 12.0625 7.32872C12.0625 7.49406 12.0919 7.62472 12.1425 7.77139L12.3452 8.34206Z" fill="#233881"/>
<path fill-rule="evenodd" clip-rule="evenodd" d="M13.8476 9.13163C13.7933 9.13963 13.7275 9.14497 13.6417 9.14497C13.5644 9.14497 13.4929 9.13963 13.4385 9.13163V7.32872C13.4929 7.32072 13.573 7.31539 13.6445 7.31539C13.7246 7.31539 13.7961 7.32072 13.8476 7.32872V9.13163Z" fill="#233881"/>
<path fill-rule="evenodd" clip-rule="evenodd" d="M15.3959 7.65406H14.9186V9.13164C14.8679 9.13964 14.7959 9.14497 14.7292 9.14497C14.6626 9.14497 14.5906 9.13964 14.5372 9.13164V7.65406H14.0599C14.0492 7.61939 14.041 7.53673 14.041 7.49139C14.041 7.44606 14.0519 7.36339 14.0626 7.32873H15.3959C15.4066 7.36339 15.4146 7.44606 15.4146 7.49139C15.4146 7.53673 15.4066 7.61939 15.3959 7.65406Z" fill="#233881"/>
<path fill-rule="evenodd" clip-rule="evenodd" d="M12.5893 10.9336L12.432 10.4242C12.4133 10.3656 12.3944 10.2909 12.3784 10.2082H12.3733C12.3598 10.2909 12.3387 10.3656 12.3198 10.4242L12.1707 10.9336H12.5893ZM13.2267 11.6165C13.192 11.6245 13.1093 11.6298 13.0213 11.6298C12.952 11.6298 12.872 11.6218 12.8373 11.6165L12.704 11.2509H12.0638L11.9384 11.6165C11.8798 11.6245 11.8104 11.6298 11.7411 11.6298C11.6718 11.6298 11.5918 11.6245 11.5518 11.6165L12.1813 9.81357C12.2184 9.80557 12.3067 9.80024 12.3651 9.80024C12.4373 9.80024 12.5227 9.80557 12.552 9.81357L13.2267 11.6165Z" fill="#233881"/>
<path fill-rule="evenodd" clip-rule="evenodd" d="M15.2613 11.6165C15.2293 11.6245 15.1573 11.6298 15.0827 11.6298C15.0027 11.6298 14.928 11.6218 14.896 11.6165L14.864 10.5336L14.4693 11.4458C14.44 11.4565 14.376 11.4618 14.336 11.4618C14.2878 11.4618 14.2293 11.4565 14.2 11.4485L13.8051 10.5336L13.7704 11.6165C13.7358 11.6245 13.6531 11.6298 13.5813 11.6298C13.5384 11.6298 13.4664 11.6245 13.4184 11.6165L13.4958 9.81357C13.5464 9.80824 13.5971 9.80024 13.6504 9.80024C13.7144 9.80024 13.7758 9.80557 13.8078 9.81357L14.336 11.0378L14.8667 9.81357C14.92 9.80557 14.9733 9.80024 15.0213 9.80024C15.0827 9.80024 15.1387 9.80557 15.1787 9.81357L15.2613 11.6165Z" fill="#233881"/>
<path fill-rule="evenodd" clip-rule="evenodd" d="M19.153 9.13164H18.0247V7.32873H19.129C19.1396 7.35806 19.1474 7.41406 19.1474 7.48873C19.1474 7.54739 19.1421 7.59806 19.129 7.65406H18.4061V8.04339H19.0167C19.0276 8.07273 19.0354 8.12606 19.0354 8.20073C19.0354 8.25939 19.0303 8.30739 19.0167 8.36339H18.4061V8.80606H19.153C19.1636 8.83564 19.1714 8.89164 19.1714 8.9663C19.1714 9.02497 19.1661 9.07564 19.153 9.13164Z" fill="#233881"/>
<path fill-rule="evenodd" clip-rule="evenodd" d="M19.5738 8.64363L19.9151 8.17939L19.6031 7.74472C19.5018 7.60606 19.4378 7.47806 19.4165 7.32872C19.4591 7.32072 19.5471 7.31539 19.6031 7.31539C19.6698 7.31539 19.7471 7.32072 19.7925 7.32872C19.8058 7.44606 19.8725 7.54206 19.9418 7.64339L20.1285 7.91539L20.3205 7.64606C20.3845 7.55539 20.4458 7.44072 20.4565 7.32872C20.5018 7.32339 20.5818 7.31539 20.6461 7.31539C20.7045 7.31539 20.7845 7.32072 20.8274 7.32872C20.8061 7.49939 20.7367 7.63006 20.6271 7.78206L20.3445 8.17139L20.6861 8.65139C20.8061 8.81672 20.8621 8.97963 20.8727 9.13163C20.8274 9.13963 20.7498 9.14497 20.6831 9.14497C20.6245 9.14497 20.5471 9.13963 20.4965 9.13163C20.4885 9.0143 20.4485 8.90206 20.3818 8.80072L20.1285 8.41939L19.8805 8.79297C19.8165 8.89163 19.7791 9.0143 19.7791 9.13163C19.7365 9.13963 19.6458 9.14497 19.5871 9.14497C19.5231 9.14497 19.4458 9.13697 19.4005 9.13163C19.4058 8.96897 19.4351 8.83273 19.5738 8.64363Z" fill="#233881"/>
<path fill-rule="evenodd" clip-rule="evenodd" d="M22.2223 7.70473C22.0943 7.66473 21.9343 7.63539 21.8063 7.63539C21.5021 7.63539 21.3047 7.85139 21.3047 8.23806C21.3047 8.59273 21.4596 8.82497 21.8036 8.82497C21.9316 8.82497 22.0756 8.7983 22.2036 8.7583C22.2223 8.80606 22.2356 8.88097 22.2356 8.93697C22.2356 8.9823 22.233 9.0383 22.2276 9.0623C22.0943 9.12363 21.9236 9.1583 21.7663 9.1583C21.1927 9.1583 20.9101 8.81139 20.9101 8.24606C20.9101 7.69673 21.2141 7.30206 21.7823 7.30206C21.921 7.30206 22.1023 7.33648 22.2303 7.39273C22.2383 7.41939 22.241 7.47806 22.241 7.51273C22.241 7.59539 22.2303 7.67273 22.2223 7.70473Z" fill="#233881"/>
<path fill-rule="evenodd" clip-rule="evenodd" d="M18.6288 10.1149C18.3995 10.1149 18.2688 10.2909 18.2688 10.7149C18.2688 11.1392 18.3995 11.3151 18.6288 11.3151C18.8582 11.3151 18.9888 11.1392 18.9888 10.7149C18.9888 10.2909 18.8582 10.1149 18.6288 10.1149ZM18.6288 11.6431C18.1355 11.6431 17.8742 11.3016 17.8742 10.7149C17.8742 10.1282 18.1355 9.78691 18.6288 9.78691C19.1222 9.78691 19.3838 10.1282 19.3838 10.7149C19.3838 11.3016 19.1222 11.6431 18.6288 11.6431Z" fill="#233881"/>
<path fill-rule="evenodd" clip-rule="evenodd" d="M20.7023 11.6165H19.5981V9.81357C19.6487 9.80557 19.7181 9.80024 19.7847 9.80024C19.8594 9.80024 19.9314 9.80557 19.9794 9.81357V11.2909H20.7023C20.7127 11.3205 20.721 11.3765 20.721 11.4511C20.721 11.5098 20.7154 11.5605 20.7023 11.6165Z" fill="#233881"/>
<path fill-rule="evenodd" clip-rule="evenodd" d="M22.2182 10.9309C22.2182 11.3898 22.0422 11.6431 21.5302 11.6431C21.0129 11.6431 20.8499 11.3898 20.8499 10.9309V9.81357C20.9035 9.80557 20.9729 9.80024 21.0366 9.80024C21.1115 9.80024 21.1782 9.80557 21.2315 9.81357V10.9576C21.2315 11.2031 21.3009 11.3416 21.5329 11.3416C21.7649 11.3416 21.8449 11.2031 21.8449 10.9576V9.81357C21.8929 9.80557 21.9729 9.80024 22.0342 9.80024C22.0929 9.80024 22.1729 9.80557 22.2182 9.81357V10.9309Z" fill="#233881"/>
</g>
<defs>
<clipPath id="clip0_1_467">
<rect width="180" height="59" fill="white"/>
</clipPath>
</defs>
</svg>
