<svg width="180" height="59" viewBox="0 0 180 59" fill="none" xmlns="http://www.w3.org/2000/svg">
<g clip-path="url(#clip0_8_588)">
<path fill-rule="evenodd" clip-rule="evenodd" d="M46.7721 41.1608C42.3588 48.3916 34.6868 52.706 26.2196 52.706C17.7527 52.706 10.0802 48.3916 5.66761 41.1605L1.04385 45.4366C3.62616 49.2997 7.08022 52.5462 11.1093 54.8716C15.6836 57.5128 20.9096 58.9091 26.2196 58.9091C31.5294 58.9091 36.7542 57.5128 41.3304 54.8716C45.2431 52.6134 48.7323 49.056 51.2892 45.3382L46.7721 41.1608Z" fill="#233881"/>
<path fill-rule="evenodd" clip-rule="evenodd" d="M6.1857 1.54452H46.2543V0.022583H6.1857V1.54452Z" fill="#D5AB23"/>
<path fill-rule="evenodd" clip-rule="evenodd" d="M46.2543 16.058C46.1779 20.5261 47.2281 38.2585 26.2201 50.6648C5.21164 38.2585 6.26182 20.5261 6.1857 16.058V1.54456H46.2543V16.058Z" fill="#233881"/>
<path fill-rule="evenodd" clip-rule="evenodd" d="M8.83392 31.6315C11.377 37.8708 16.3774 44.8521 26.2201 50.6647C36.063 44.8521 41.0635 37.8708 43.606 31.6315L26.2196 15.553L8.83392 31.6315Z" fill="#D5AB23"/>
<path fill-rule="evenodd" clip-rule="evenodd" d="M22.9554 5.5072V13.2333C20.8812 12.4718 18.3801 13.0783 17.0531 14.0556C17.0531 11.5043 17.0531 8.95205 17.0531 6.40126C18.2186 5.26574 20.9663 4.75859 22.9554 5.5072Z" fill="#FFFFFE"/>
<path fill-rule="evenodd" clip-rule="evenodd" d="M10.5796 5.52728V13.2533C12.6523 12.4921 15.1539 13.0987 16.4814 14.0759C16.4814 11.5244 16.4814 8.97213 16.4814 6.42158C15.3163 5.28607 12.5687 4.77867 10.5796 5.52728Z" fill="#FFFFFE"/>
<path fill-rule="evenodd" clip-rule="evenodd" d="M24.7338 11.6553L24.7168 11.6526C24.4201 11.6209 24.1939 11.6039 24.0397 11.5949V9.07495C24.1903 9.08392 24.4102 9.1004 24.6999 9.13143L24.7338 9.1324C25.3263 9.15907 25.4077 8.85701 25.4077 8.85701C25.2732 8.54452 24.9745 8.40343 24.7338 8.38379L24.7168 8.38186C24.4201 8.34985 24.1939 8.33264 24.0397 8.32343V6.19495H23.5156V13.9632C20.6611 13.354 18.5033 13.6679 16.766 14.9423C15.0298 13.6679 12.8722 13.3545 10.0174 13.9632V6.19495H9.49332V8.32343C9.38326 8.32998 9.2378 8.34016 9.05356 8.35713V8.2781C9.05356 8.21895 9.00532 8.1707 8.93647 8.17119L8.22447 8.24804C8.16726 8.25192 8.12265 8.29798 8.12265 8.3564V9.26719C8.12265 9.32658 8.17138 9.37458 8.24483 9.37264L8.95417 9.30331C9.00895 9.29773 9.05356 9.25046 9.05356 9.1947V9.10816C9.2378 9.0907 9.3835 9.08052 9.49332 9.07422V11.5949C9.38326 11.6015 9.2378 11.6117 9.05356 11.6291V11.5484C9.05356 11.4892 9.00532 11.4422 8.93647 11.4422L8.22447 11.5193C8.16726 11.5222 8.12265 11.5692 8.12265 11.6284V12.5375C8.12265 12.5969 8.17138 12.6454 8.24483 12.6439L8.95417 12.5722C9.00895 12.5685 9.05356 12.522 9.05356 12.4652V12.3789C9.2378 12.3617 9.3835 12.3516 9.49332 12.3452V14.6202L9.81526 14.5455C12.7542 13.8604 14.912 14.1564 16.6046 15.4766L16.766 15.6042L16.9285 15.4766C18.6206 14.1564 20.7789 13.8606 23.7183 14.5455L24.0397 14.6202V12.346C24.1903 12.3547 24.4102 12.3712 24.6999 12.4022L24.7338 12.4037C25.3263 12.4303 25.4077 12.128 25.4077 12.128C25.2732 11.8158 24.9745 11.6747 24.7338 11.6553Z" fill="#FFFFFE"/>
<path fill-rule="evenodd" clip-rule="evenodd" d="M9.91369 51.2815C9.63345 51.6442 9.16096 51.7024 8.6572 51.313C8.38642 51.1041 8.21502 50.8796 8.11078 50.6934L8.37987 50.345C8.39999 50.3191 8.43126 50.3203 8.46351 50.3499L8.62739 50.4949C8.63878 50.5036 8.64896 50.5205 8.63635 50.5429L8.52193 50.7029C8.63248 50.8391 8.75466 50.961 8.84678 51.0321C9.10884 51.2345 9.38205 51.3031 9.56678 51.0641C9.7646 50.8078 9.7069 50.6805 9.38569 50.1795C9.15684 49.8095 9.06181 49.4742 9.3086 49.1547C9.58666 48.795 10.0448 48.7671 10.5314 49.1431C10.7098 49.2808 10.8664 49.4294 10.9964 49.5942L10.705 49.9715C10.6851 49.9974 10.6538 49.9962 10.6213 49.9666L10.4577 49.8216C10.4461 49.8127 10.4361 49.7957 10.449 49.7736L10.5631 49.6136C10.4921 49.5448 10.4189 49.4791 10.3469 49.4236C10.0793 49.2168 9.80799 49.2047 9.65454 49.4035C9.49454 49.6107 9.55757 49.779 9.8429 50.2248C10.1433 50.6866 10.1362 50.9938 9.91369 51.2815Z" fill="#FFFFFE"/>
<path fill-rule="evenodd" clip-rule="evenodd" d="M12.7045 53.3973C12.7202 53.4063 12.7241 53.4216 12.7151 53.4371L12.4897 53.8194L10.9699 52.9239C10.9449 52.9091 10.9435 52.8829 10.9648 52.8533L11.0666 52.7023C11.0722 52.6931 11.086 52.6841 11.1066 52.6921L11.2012 52.7394L12.3532 50.784L12.2599 50.7205C12.2378 50.7076 12.2412 50.68 12.2611 50.6538L12.3629 50.5025C12.3721 50.487 12.3869 50.4829 12.4026 50.4923L13.8691 51.3563L13.6439 51.7386C13.6291 51.7639 13.6029 51.7651 13.5736 51.7437L13.422 51.6419C13.4128 51.6363 13.4041 51.6228 13.4121 51.6022L13.4594 51.5074L12.679 51.0477L12.2414 51.7903L13.1253 52.311L12.9551 52.5993L12.0715 52.0785L11.5898 52.8965L12.4232 53.3876L12.4868 53.2943C12.4999 53.2722 12.527 53.2756 12.5534 53.2955L12.7045 53.3973Z" fill="#FFFFFE"/>
<path fill-rule="evenodd" clip-rule="evenodd" d="M15.8868 54.8842C15.9035 54.8915 15.9093 54.9058 15.9023 54.9225L15.7263 55.33L14.1062 54.6313C14.0795 54.6197 14.0749 54.5938 14.0926 54.562L14.1745 54.3993C14.1789 54.3894 14.1915 54.3787 14.2129 54.3841L14.3125 54.4192L15.2116 52.3349L15.111 52.2835C15.0875 52.2733 15.0875 52.2456 15.104 52.217L15.1859 52.0541C15.1932 52.0376 15.2075 52.0318 15.2242 52.0391L16.7876 52.7133L16.6116 53.1208C16.6002 53.1477 16.5743 53.1523 16.5425 53.1346L16.3799 53.0527C16.3697 53.0481 16.3593 53.0357 16.3646 53.0141L16.3995 52.9145L15.568 52.5557L15.2264 53.3475L16.1682 53.7538L16.0359 54.0612L15.0938 53.6546L14.7178 54.5266L15.6063 54.9099L15.6579 54.8093C15.6679 54.7858 15.6955 54.7858 15.7241 54.8022L15.8868 54.8842Z" fill="#FFFFFE"/>
<path fill-rule="evenodd" clip-rule="evenodd" d="M20.1985 53.7852C20.2264 53.793 20.2344 53.8179 20.2213 53.8519L20.1614 54.024C20.1583 54.0344 20.1474 54.0465 20.1256 54.0441L20.0223 54.0225L18.8834 54.6994L19.3828 56.1997L19.4858 56.2364C19.5105 56.2434 19.5139 56.2708 19.5016 56.3011L19.4419 56.4732C19.4368 56.4909 19.4235 56.4984 19.406 56.4933L19.0315 56.3881L18.5387 54.9045L18.2216 55.0911L18.0177 55.8155L18.1241 55.8531C18.1486 55.8601 18.1525 55.8875 18.1401 55.918L18.0802 56.0902C18.0751 56.1076 18.0618 56.1151 18.0444 56.1103L17.4458 55.9418C17.4179 55.934 17.4097 55.9088 17.423 55.8749L17.4827 55.7028C17.4858 55.6924 17.4967 55.6802 17.5188 55.6829L17.622 55.7045L18.2368 53.5202L18.1304 53.4824C18.1057 53.4756 18.102 53.4482 18.1147 53.4177L18.1745 53.2456C18.1794 53.2281 18.1927 53.2206 18.2102 53.2254L18.8087 53.3939C18.8366 53.4017 18.8448 53.4267 18.8315 53.4608L18.7719 53.633C18.7687 53.6434 18.7578 53.6553 18.736 53.6531L18.6325 53.6315L18.3576 54.608L19.5493 53.8894L19.4429 53.8519C19.4187 53.8451 19.4148 53.8177 19.4274 53.7871L19.487 53.615C19.4919 53.5976 19.5054 53.59 19.5229 53.5949L20.1985 53.7852Z" fill="#FFFFFE"/>
<path fill-rule="evenodd" clip-rule="evenodd" d="M26.6061 54.5271C26.6354 54.5286 26.6485 54.5511 26.6431 54.5875L26.6225 54.7683C26.6221 54.7795 26.6143 54.7935 26.592 54.796L26.4899 54.7979L25.7501 57.1819C25.7241 57.2607 25.6562 57.3046 25.5765 57.3004L25.2933 57.2747C25.2536 57.2726 25.2405 57.2464 25.2315 57.2059L24.8485 55.0546L24.8444 55.0544L24.2519 57.06C24.2298 57.1317 24.1772 57.2309 24.0502 57.2207L23.7782 57.1955C23.7457 57.194 23.7248 57.1746 23.7166 57.1269L23.2492 54.6289L23.1408 54.6158C23.1151 54.6144 23.1057 54.5884 23.111 54.556L23.1314 54.3751C23.1321 54.3567 23.1437 54.3465 23.1622 54.3475L23.7614 54.3787C23.7905 54.3802 23.8039 54.4028 23.7985 54.4389L23.7782 54.62C23.7774 54.6309 23.7692 54.6449 23.7474 54.6476L23.6453 54.6495L24 56.7918L24.0034 56.7921L24.6393 54.5921C24.6749 54.4665 24.7389 54.426 24.8259 54.4343L25.0325 54.4561C25.0686 54.4617 25.0822 54.4806 25.0907 54.5281L25.4967 56.8699L25.5001 56.8701L26.0977 54.7775L25.9893 54.7647C25.9636 54.7632 25.9539 54.7371 25.9593 54.7046L25.9796 54.5235C25.9806 54.5053 25.9922 54.4951 26.0104 54.4961L26.6061 54.5271Z" fill="#FFFFFE"/>
<path fill-rule="evenodd" clip-rule="evenodd" d="M28.8856 56.8999C28.9108 56.8979 28.9239 56.9222 28.9229 56.9551L28.9275 57.1375C28.9289 57.1554 28.919 57.1673 28.9008 57.169L28.2812 57.2208C28.2521 57.2233 28.2361 57.2029 28.2363 57.1663L28.232 56.9842C28.2313 56.9733 28.2371 56.9581 28.2584 56.9527L28.3629 56.9367L28.1728 54.6756L28.0596 54.6778C28.0342 54.68 28.0216 54.6555 28.0223 54.6228L28.0179 54.4405C28.0162 54.4223 28.0262 54.4107 28.0443 54.4092L28.664 54.3568C28.6931 54.3547 28.7093 54.375 28.7086 54.4114L28.7132 54.5937C28.7139 54.6044 28.7081 54.6196 28.6865 54.625L28.582 54.6412L28.7723 56.9021L28.8856 56.8999Z" fill="#FFFFFE"/>
<path fill-rule="evenodd" clip-rule="evenodd" d="M32.3171 55.8526C32.4039 56.3023 32.135 56.6948 31.51 56.8153C31.1743 56.8798 30.8931 56.8599 30.6843 56.815L30.6012 56.3828C30.5951 56.3508 30.6165 56.3283 30.6601 56.3234L30.8771 56.2965C30.8914 56.2938 30.9105 56.2975 30.9188 56.3217L30.9634 56.5132C31.1384 56.5203 31.3105 56.5094 31.4247 56.4873C31.7498 56.4247 31.9818 56.2652 31.9246 55.9687C31.8635 55.6512 31.7297 55.6102 31.142 55.5198C30.7134 55.4468 30.3992 55.2963 30.3229 54.8999C30.2371 54.4536 30.5192 54.0919 31.1226 53.9758C31.344 53.9331 31.5588 53.914 31.7682 53.9256L31.8584 54.3932C31.8645 54.4252 31.8429 54.448 31.7992 54.4526L31.5825 54.4798C31.5682 54.4824 31.5488 54.4788 31.5403 54.4543L31.4962 54.263C31.3978 54.2708 31.3001 54.2822 31.2106 54.2994C30.8788 54.3634 30.6906 54.5588 30.7379 54.8051C30.7876 55.0623 30.9551 55.1263 31.4783 55.207C32.0232 55.287 32.2482 55.4955 32.3171 55.8526Z" fill="#FFFFFE"/>
<path fill-rule="evenodd" clip-rule="evenodd" d="M34.9891 55.5613C35.7198 55.3157 35.7198 54.7557 35.5355 54.2076C35.3316 53.601 35.0516 53.2463 34.2584 53.5125L33.9588 53.6134L34.6514 55.6747L34.9891 55.5613ZM34.16 53.2083C35.2286 52.8493 35.6805 53.2689 35.9515 54.0757C36.2882 55.0786 35.9241 55.5925 34.9968 55.9038L34.2662 56.1494C34.2385 56.1588 34.2177 56.1426 34.2097 56.1072L34.1622 55.9312C34.1585 55.9208 34.1607 55.9048 34.1804 55.8943L34.2781 55.8539L33.5554 53.7031L33.4461 53.7319C33.4221 53.7399 33.4036 53.7196 33.3966 53.6873L33.3491 53.5113C33.3433 53.4941 33.3501 53.4803 33.3673 53.4745L34.16 53.2083Z" fill="#FFFFFE"/>
<path fill-rule="evenodd" clip-rule="evenodd" d="M37.7115 53.3202C37.9248 53.7457 38.2999 54.2492 38.833 53.9816C39.2746 53.7598 39.2771 53.2866 38.9753 52.6856C38.7568 52.2499 38.3801 51.768 37.857 52.0305C37.3243 52.2982 37.4994 52.8977 37.7115 53.3202ZM39.3619 52.4996C39.7942 53.3605 39.6228 53.9673 38.9859 54.287C38.3559 54.6034 37.7537 54.3687 37.328 53.5207C37.0211 52.9098 36.9159 52.1249 37.7086 51.7268C38.3879 51.3859 38.9801 51.7394 39.3619 52.4996Z" fill="#FFFFFE"/>
<mask id="mask0_8_588" style="mask-type:luminance" maskUnits="userSpaceOnUse" x="0" y="34" width="44" height="19">
<path fill-rule="evenodd" clip-rule="evenodd" d="M0.287262 52.851V34.9441H43.9032V52.851H0.287262Z" fill="white"/>
</mask>
<g mask="url(#mask0_8_588)">
<path fill-rule="evenodd" clip-rule="evenodd" d="M43.7399 50.9643C43.7607 50.9495 43.7842 50.964 43.8005 50.9926L43.8967 51.1473C43.9074 51.1621 43.9047 51.1773 43.8897 51.188L43.3918 51.5417C43.3682 51.5584 43.3435 51.549 43.3256 51.5172L43.2291 51.3628C43.2225 51.3538 43.2204 51.3378 43.2361 51.3223L43.3149 51.2573L42.2756 49.8634L42.6524 51.612C42.6659 51.669 42.6659 51.7315 42.6216 51.763C42.5889 51.7863 42.5384 51.8219 42.5067 51.8401C42.472 51.8605 42.448 51.8641 42.4172 51.8459L40.8318 50.8889L41.7998 52.3332L41.896 52.2741C41.9168 52.2593 41.9404 52.2736 41.9561 52.3024L42.0529 52.4571C42.0633 52.4719 42.0606 52.4869 42.0461 52.4976L41.5598 52.8428C41.536 52.8595 41.5113 52.8503 41.4933 52.8186L41.3969 52.6641C41.3905 52.6552 41.3884 52.6389 41.4041 52.6236L41.4853 52.5565L40.2371 50.6602L40.1438 50.7175C40.1232 50.7323 40.0994 50.7177 40.0834 50.6891L39.9869 50.5344C39.9765 50.5196 39.9792 50.5044 39.9939 50.4937L40.3496 50.2411C40.3646 50.2307 40.3796 50.2333 40.3939 50.2409L42.2594 51.3601L41.7981 49.2661C41.791 49.2309 41.7995 49.2115 41.8259 49.1926L42.1966 48.9293C42.2204 48.9126 42.2448 48.9218 42.2628 48.9538L42.3593 49.1082C42.3656 49.1172 42.3682 49.1332 42.3527 49.149L42.2708 49.2159L43.6468 51.0217L43.7399 50.9643Z" fill="#FFFFFE"/>
</g>
<mask id="mask1_8_588" style="mask-type:luminance" maskUnits="userSpaceOnUse" x="0" y="34" width="44" height="19">
<path fill-rule="evenodd" clip-rule="evenodd" d="M0.287262 52.851V34.9441H43.9032V52.851H0.287262Z" fill="white"/>
</mask>
<g mask="url(#mask1_8_588)">
<path fill-rule="evenodd" clip-rule="evenodd" d="M2.1818 43.3429L5.12774 40.6212L5.79634 39.9921L6.16943 40.6093C6.8121 41.6748 7.52846 42.6743 8.3064 43.6062L9.30592 42.6971C7.95077 41.0622 6.84458 39.2253 6.03367 37.234C5.72774 36.4835 5.46834 35.7189 5.2538 34.9441L3.65113 39.0592L0.272705 39.5322C0.278038 39.5465 0.283129 39.5606 0.288463 39.5739L2.1818 43.3429Z" fill="#233881"/>
</g>
<path fill-rule="evenodd" clip-rule="evenodd" d="M41.8848 5.5072V13.2333C39.8107 12.4718 37.3096 13.0783 35.9825 14.0556C35.9825 11.5043 35.9825 8.95205 35.9825 6.40126C37.1481 5.26574 39.8958 4.75859 41.8848 5.5072Z" fill="#FFFFFE"/>
<path fill-rule="evenodd" clip-rule="evenodd" d="M29.5091 5.52728V13.2533C31.5818 12.4921 34.0834 13.0987 35.4109 14.0759C35.4109 11.5244 35.4109 8.97213 35.4109 6.42158C34.2458 5.28607 31.4982 4.77867 29.5091 5.52728Z" fill="#FFFFFE"/>
<path fill-rule="evenodd" clip-rule="evenodd" d="M43.6633 11.6553L43.6463 11.6526C43.3496 11.6209 43.1234 11.6039 42.9692 11.5949V9.07495C43.1198 9.08392 43.3396 9.1004 43.6293 9.13143L43.6633 9.1324C44.2558 9.15907 44.3372 8.85701 44.3372 8.85701C44.2027 8.54452 43.904 8.40343 43.6633 8.38379L43.6463 8.38186C43.3496 8.34985 43.1234 8.33264 42.9692 8.32343V6.19495H42.4451V13.9632C39.5905 13.354 37.4327 13.6679 35.6955 14.9423C33.9593 13.6679 31.8017 13.3545 28.9469 13.9632V6.19495H28.4228V8.32343C28.3127 8.32998 28.1673 8.34016 27.983 8.35713V8.2781C27.983 8.21895 27.9345 8.1707 27.8659 8.17119L27.1539 8.24804C27.0965 8.25192 27.0521 8.29798 27.0521 8.3564V9.26719C27.0521 9.32658 27.1009 9.37458 27.1743 9.37264L27.8836 9.30331C27.9384 9.29773 27.983 9.25046 27.983 9.1947V9.10816C28.1673 9.0907 28.313 9.08052 28.4228 9.07422V11.5949C28.3127 11.6015 28.1673 11.6117 27.983 11.6291V11.5484C27.983 11.4892 27.9345 11.4422 27.8659 11.4422L27.1539 11.5193C27.0965 11.5222 27.0521 11.5692 27.0521 11.6284V12.5375C27.0521 12.5969 27.1009 12.6454 27.1743 12.6439L27.8836 12.5722C27.9384 12.5685 27.983 12.522 27.983 12.4652V12.3789C28.1673 12.3617 28.313 12.3516 28.4228 12.3452V14.6202L28.7447 14.5455C31.6836 13.8604 33.8415 14.1564 35.5341 15.4766L35.6955 15.6042L35.8579 15.4766C37.5503 14.1564 39.7084 13.8606 42.6478 14.5455L42.9692 14.6202V12.346C43.1198 12.3547 43.3396 12.3712 43.6293 12.4022L43.6633 12.4037C44.2558 12.4303 44.3372 12.128 44.3372 12.128C44.2027 11.8158 43.904 11.6747 43.6633 11.6553Z" fill="#FFFFFE"/>
<path fill-rule="evenodd" clip-rule="evenodd" d="M50.2327 43.3429L47.2868 40.6212L46.6182 39.9921L46.2451 40.6093C45.6024 41.6748 44.886 42.6743 44.1081 43.6062L43.1086 42.6971C44.4637 41.0622 45.5699 39.2253 46.3808 37.234C46.6868 36.4835 46.9462 35.7189 47.1607 34.9441L48.7634 39.0592L52.1418 39.5322C52.1365 39.5465 52.1314 39.5606 52.1263 39.5739L50.2327 43.3429Z" fill="#233881"/>
<path fill-rule="evenodd" clip-rule="evenodd" d="M27.239 37.8039C28.4218 38.3954 29.4361 38.6881 30.0492 38.6488C30.0676 38.6478 30.1127 38.6468 30.1316 38.6459C30.3413 38.6306 30.6116 38.5724 30.8133 38.4507C30.9971 38.3404 31.1193 38.2231 31.224 38.0716C31.3452 37.8934 31.3978 37.7424 31.4077 37.554C31.3309 37.5833 31.2548 37.6066 31.1837 37.6245C31.1648 37.6291 31.1183 37.6384 31.0994 37.6425C30.4123 37.7499 29.5525 37.6568 28.366 37.3353C28.1723 37.553 27.7728 37.6742 27.3481 37.5729C27.3125 37.6524 27.2766 37.7278 27.239 37.8039Z" fill="#FFFFFE"/>
<path fill-rule="evenodd" clip-rule="evenodd" d="M28.92 31.3126C28.8892 31.3872 28.856 31.4588 28.8148 31.5322C28.6383 31.8382 28.3959 32.0658 28.1515 32.186C28.1544 32.2643 28.1554 32.3424 28.1563 32.4214C28.6652 32.1999 29.1818 31.9451 29.696 31.6687C31.6041 30.6459 32.9503 29.5089 33.368 28.7C33.3784 28.6806 33.4039 28.6345 33.4133 28.6146C33.527 28.3965 33.6293 28.0895 33.6293 27.8142C33.6293 27.3463 33.4303 26.9385 33.1311 26.7203C32.7367 27.6369 32.0143 28.6748 31.0247 29.6462C30.3532 30.3063 29.6339 30.8694 28.92 31.3126Z" fill="#FFFFFE"/>
<path fill-rule="evenodd" clip-rule="evenodd" d="M28.6623 36.1292C28.4948 36.313 28.2041 36.4819 27.8628 36.5122C27.7934 36.5178 27.7316 36.5217 27.6652 36.5197C27.6453 36.5893 27.624 36.6572 27.6012 36.7253C29.3168 37.2044 30.75 37.3076 31.4834 37.0725C31.5013 37.0676 31.5479 37.0543 31.5658 37.0487C31.777 36.9811 32.0378 36.8511 32.2136 36.6766C32.3726 36.5161 32.4683 36.3661 32.5365 36.1828C32.6145 35.9721 32.5891 35.792 32.5891 35.792C32.5171 35.8422 32.1595 35.9578 32.1595 35.9578C31.4873 36.2027 30.3384 36.2528 28.6623 36.1292Z" fill="#FFFFFE"/>
<path fill-rule="evenodd" clip-rule="evenodd" d="M33.5023 31.6794C32.8693 32.3756 31.2376 33.1487 29.0759 33.6687C28.9375 33.8898 28.681 34.0942 28.3537 34.2132C28.2594 34.2481 28.1648 34.2728 28.073 34.2893C28.0645 34.3628 28.0555 34.4314 28.0468 34.5038C28.2172 34.498 28.3874 34.49 28.5588 34.4806C30.7212 34.3594 32.4213 33.8973 33.1416 33.3409C33.1595 33.3281 33.2027 33.2968 33.2191 33.2847C33.4133 33.1337 33.6378 32.8988 33.7542 32.6491C33.8599 32.4224 33.9016 32.2287 33.9035 32.0125C33.9047 31.7623 33.8565 31.5795 33.7438 31.3921C33.6875 31.4706 33.6293 31.5436 33.5724 31.6057C33.5573 31.6231 33.5185 31.6619 33.5023 31.6794Z" fill="#FFFFFE"/>
<path fill-rule="evenodd" clip-rule="evenodd" d="M29.7537 39.2078C29.072 39.1923 28.0919 38.8834 26.9469 38.3125C26.8936 38.4015 26.841 38.4868 26.785 38.57C27.6662 39.0298 28.4596 39.3433 29.1084 39.4953C29.0771 39.5302 29.0441 39.5649 29.0051 39.6007C28.8688 39.7258 28.7234 39.8114 28.5202 39.8788C28.2965 39.9518 28.0189 39.9484 27.8116 39.9132C27.7927 39.911 27.7486 39.9018 27.7307 39.8982C27.3467 39.8357 26.8371 39.6075 26.2557 39.2344C26.1874 39.3035 26.1188 39.3683 26.0492 39.4298C26.6553 39.8323 27.1971 40.0984 27.624 40.2063C27.5132 40.2936 27.4014 40.3474 27.2429 40.391C27.055 40.4407 26.8281 40.4257 26.6577 40.3891C26.6424 40.3862 26.6075 40.3763 26.5922 40.3736C26.2974 40.3086 25.9166 40.1183 25.4868 39.8192C25.39 39.8684 25.2916 39.9096 25.1942 39.945C25.0094 40 24.7496 40.0517 24.5583 40.0517C23.9867 40.0517 23.4441 39.7915 22.9607 39.3244C22.9413 39.3062 22.7997 39.4517 22.8191 39.4701C23.2987 39.9947 23.9256 40.2907 24.5464 40.2907C24.7476 40.2907 25.2364 40.2201 25.4177 40.1074C25.929 40.4621 26.3457 40.6306 26.6856 40.687C26.7021 40.6897 26.7421 40.698 26.7585 40.7001C26.9469 40.73 27.1978 40.7338 27.4014 40.6677C27.5847 40.608 27.7168 40.5297 27.8405 40.4163C27.8907 40.3697 27.9413 40.32 27.9767 40.2727C28.1927 40.2967 28.4521 40.2907 28.6671 40.2216C28.8911 40.1486 29.0511 40.0526 29.2007 39.9152C29.3253 39.801 29.4431 39.6955 29.5013 39.57C29.8371 39.5838 30.1013 39.5278 30.1013 39.5278C30.2276 39.5074 30.3721 39.4645 30.4928 39.3569C30.5791 39.2788 30.6373 39.2078 30.6747 39.1135C30.4082 39.1918 30.1178 39.2187 29.8797 39.2148C29.8528 39.2131 29.7828 39.2097 29.7537 39.2078Z" fill="#FFFFFE"/>
<path fill-rule="evenodd" clip-rule="evenodd" d="M30.8446 31.5695C30.2987 31.9038 29.7425 32.1904 29.1913 32.4243C29.1292 32.5317 29.0511 32.6396 28.9602 32.7404C28.7149 33.0127 28.4204 33.1894 28.1476 33.2505C28.1445 33.3271 28.1396 33.4049 28.1365 33.481C28.4526 33.4095 28.7741 33.3281 29.0953 33.2415C31.1842 32.6733 32.7515 31.868 33.3404 31.1729C33.3547 31.1572 33.3905 31.1179 33.4039 31.1009C33.5634 30.9133 33.7328 30.6379 33.7954 30.3693C33.9006 29.9133 33.8182 29.5494 33.5767 29.2701C32.9862 30.0733 32.0259 30.8442 30.8446 31.5695Z" fill="#FFFFFE"/>
<path fill-rule="evenodd" clip-rule="evenodd" d="M33.3367 33.6737C33.3185 33.6885 33.2662 33.7263 33.2485 33.7399C32.5578 34.2737 31.0175 34.7035 29.0255 34.8744L29.0238 34.8754C28.8907 35.0046 28.7217 35.1561 28.5285 35.2465C28.3195 35.3437 28.1062 35.4019 27.9081 35.417C27.8941 35.4943 27.8778 35.5391 27.8623 35.6155C27.8754 35.617 27.8858 35.6174 27.9001 35.6196C30.0512 35.8749 31.8058 35.7163 32.6112 35.2926C32.6313 35.2826 32.679 35.2603 32.6975 35.2514C32.9161 35.1343 33.1767 34.9435 33.3348 34.7178C33.4778 34.5127 33.553 34.3294 33.5927 34.1173C33.6359 33.8708 33.6235 33.702 33.5455 33.4972C33.4764 33.5648 33.4039 33.622 33.3367 33.6737Z" fill="#FFFFFE"/>
<path fill-rule="evenodd" clip-rule="evenodd" d="M28.9702 29.5916C28.9711 29.8471 28.8902 30.1431 28.7292 30.4214C28.5539 30.7235 28.3178 30.9526 28.0754 31.073C28.0834 31.154 28.0914 31.234 28.0984 31.3162C28.9549 30.8476 29.84 30.1955 30.6511 29.3989C31.6208 28.4452 32.3273 27.4362 32.7134 26.5383C32.8201 26.2922 32.8727 25.994 32.8514 25.674C32.8063 25.0236 32.4664 24.4835 32.0332 24.3041C32.0417 24.4277 32.0359 24.5577 32.0184 24.6905C31.9234 25.5957 31.0839 27.1504 29.6776 28.7974C29.4456 29.0687 29.2102 29.3358 28.9702 29.5916Z" fill="#FFFFFE"/>
<path fill-rule="evenodd" clip-rule="evenodd" d="M29.3159 28.5711C30.703 26.9067 31.5231 25.3423 31.6075 24.4356C31.6766 23.8669 31.5321 23.3399 31.2126 23.1539C31.1869 23.9634 30.0885 25.9355 28.3471 28.1423C28.5103 28.449 28.4356 28.9648 28.1709 29.4165C28.0824 29.569 28.0298 29.6218 27.8727 29.7789C27.8931 29.8778 27.9115 29.9828 27.9294 30.0836C28.3995 29.6259 28.8669 29.1105 29.3159 28.5711Z" fill="#FFFFFE"/>
<path fill-rule="evenodd" clip-rule="evenodd" d="M18.3387 29.5162C18.296 29.4994 18.2533 29.4844 18.2102 29.4725C18.2286 29.6653 18.2296 29.874 18.2286 30.0905C18.2245 30.624 18.1549 31.1312 18.0453 31.5482C18.0174 31.6599 18.0667 31.7676 18.1624 31.8064C18.1927 31.8187 18.2269 31.8224 18.2584 31.8182L18.2604 31.8124C18.4308 31.4228 18.6511 30.9942 18.9161 30.5574C18.9651 30.4759 19.0133 30.3964 19.062 30.3181C18.9731 29.9753 18.7139 29.6687 18.3387 29.5162Z" fill="#1A1919"/>
<path fill-rule="evenodd" clip-rule="evenodd" d="M33.2191 33.2846C33.2027 33.2967 33.1595 33.328 33.1416 33.3408C32.4213 33.8972 30.7212 34.3593 28.5588 34.4805C28.3874 34.4899 28.2172 34.4979 28.0468 34.5037C28.0555 34.4313 28.0645 34.3626 28.073 34.2892C28.1648 34.2727 28.2594 34.248 28.3537 34.2131C28.681 34.094 28.9374 33.8897 29.0759 33.6686C31.2376 33.1486 32.8693 32.3755 33.5023 31.6793C33.5185 31.6618 33.5573 31.623 33.5724 31.6056C33.6293 31.5435 33.6875 31.4705 33.7437 31.392C33.8565 31.5794 33.9047 31.7622 33.9035 32.0123C33.9016 32.2286 33.8599 32.4223 33.7542 32.649C33.6378 32.8986 33.4133 33.1336 33.2191 33.2846ZM33.4133 28.6145C33.4039 28.6344 33.3784 28.6805 33.368 28.6999C32.9503 29.5088 31.6041 30.6458 29.696 31.6686C29.1818 31.9449 28.6652 32.1997 28.1564 32.4213C28.1554 32.3423 28.1544 32.2642 28.1515 32.1859C28.3959 32.0657 28.6383 31.838 28.8148 31.5321C28.856 31.4586 28.8892 31.3871 28.92 31.3125C29.6339 30.8693 30.3532 30.3062 31.0247 29.646C32.0143 28.6746 32.7367 27.6368 33.1311 26.7202C33.4303 26.9384 33.6293 27.3462 33.6293 27.814C33.6293 28.0894 33.527 28.3963 33.4133 28.6145ZM33.7954 30.3692C33.7328 30.6378 33.5634 30.9132 33.4039 31.1008C33.3905 31.1178 33.3547 31.1571 33.3404 31.1728C32.7515 31.8679 31.1842 32.6732 29.0953 33.2414C28.7741 33.328 28.4526 33.4094 28.1365 33.4809C28.1396 33.4048 28.1445 33.327 28.1476 33.2504C28.4204 33.1893 28.7149 33.0126 28.9602 32.7403C29.0511 32.6395 29.1292 32.5316 29.1913 32.4242C29.7425 32.1903 30.2987 31.9037 30.8446 31.5694C32.0259 30.8441 32.9862 30.0732 33.5767 29.27C33.8182 29.5493 33.9006 29.9132 33.7954 30.3692ZM32.0332 24.304C32.4664 24.4834 32.8063 25.0235 32.8514 25.6739C32.8727 25.9939 32.8201 26.2921 32.7134 26.5382C32.3273 27.4361 31.6208 28.4451 30.6511 29.3988C29.84 30.1954 28.9549 30.8475 28.0984 31.3161C28.0914 31.2339 28.0834 31.1539 28.0754 31.0729C28.3178 30.9525 28.5539 30.7234 28.7292 30.4213C28.8902 30.143 28.9711 29.847 28.9702 29.5915C29.2102 29.3357 29.4456 29.0686 29.6776 28.7973C31.0839 27.1503 31.9234 25.5956 32.0184 24.6904C32.0359 24.5576 32.0417 24.4276 32.0332 24.304ZM31.6075 24.4356C31.5231 25.3423 30.703 26.9066 29.3159 28.5711C28.8669 29.1105 28.3995 29.6259 27.9294 30.0836C27.9115 29.9828 27.8931 29.8778 27.8727 29.7789C28.0298 29.6218 28.0824 29.5689 28.1709 29.4165C28.4356 28.9648 28.5103 28.4489 28.3471 28.1423C30.0885 25.9355 31.1869 23.9634 31.2126 23.1539C31.5321 23.3399 31.6766 23.8669 31.6075 24.4356ZM30.1316 38.6458C30.1127 38.6468 30.0676 38.6477 30.0492 38.6487C29.4361 38.688 28.4218 38.3954 27.239 37.8039C27.2766 37.7277 27.3125 37.6523 27.3481 37.5728C27.7728 37.6742 28.1724 37.5529 28.3661 37.3353C29.5525 37.6567 30.4124 37.7498 31.0994 37.6424C31.1183 37.6383 31.1648 37.6291 31.1837 37.6245C31.2548 37.6065 31.3309 37.5833 31.4077 37.5539C31.3978 37.7423 31.3452 37.8933 31.224 38.0715C31.1193 38.223 30.9971 38.3403 30.8133 38.4506C30.6116 38.5723 30.3413 38.6305 30.1316 38.6458ZM30.1013 39.5277C30.1013 39.5277 29.8371 39.5837 29.5013 39.5699C29.4431 39.6955 29.3253 39.8009 29.2007 39.9151C29.0511 40.0526 28.8911 40.1486 28.6671 40.2216C28.4521 40.2906 28.1927 40.2967 27.9767 40.2727C27.9413 40.32 27.8907 40.3697 27.8405 40.4162C27.7168 40.5297 27.5847 40.608 27.4014 40.6676C27.1978 40.7338 26.9469 40.7299 26.7585 40.7001C26.7421 40.6979 26.7021 40.6897 26.6856 40.687C26.3457 40.6305 25.929 40.462 25.4177 40.1074C25.2364 40.2201 24.7476 40.2906 24.5464 40.2906C23.9256 40.2906 23.2987 39.9946 22.8191 39.47C22.7997 39.4516 22.9413 39.3062 22.9607 39.3243C23.4441 39.7915 23.9867 40.0516 24.5583 40.0516C24.7496 40.0516 25.0094 40 25.1942 39.9449C25.2916 39.9096 25.39 39.8683 25.4868 39.8191C25.9166 40.1183 26.2974 40.3086 26.5922 40.3736C26.6075 40.3762 26.6424 40.3862 26.6577 40.3891C26.8281 40.4257 27.055 40.4407 27.2429 40.391C27.4014 40.3474 27.5132 40.2936 27.624 40.2063C27.1971 40.0984 26.6553 39.8322 26.0492 39.4298C26.1188 39.3682 26.1874 39.3035 26.2557 39.2344C26.8371 39.6075 27.3467 39.8356 27.7307 39.8982C27.7486 39.9018 27.7927 39.911 27.8116 39.9132C28.0189 39.9483 28.2965 39.9517 28.5202 39.8788C28.7234 39.8114 28.8688 39.7258 29.0051 39.6007C29.0441 39.5648 29.0771 39.5302 29.1084 39.4953C28.4596 39.3433 27.6662 39.0298 26.785 38.5699C26.841 38.4868 26.8936 38.4014 26.9469 38.3125C28.0919 38.8834 29.072 39.1922 29.7537 39.2077C29.7828 39.2097 29.8528 39.2131 29.8797 39.2148C30.1178 39.2186 30.4082 39.1917 30.6747 39.1134C30.6373 39.2077 30.5791 39.2788 30.4928 39.3568C30.3721 39.4645 30.2276 39.5074 30.1013 39.5277ZM32.5365 36.1828C32.4684 36.366 32.3726 36.5161 32.2136 36.6766C32.0378 36.8511 31.777 36.9811 31.5658 37.0487C31.5479 37.0543 31.5013 37.0676 31.4834 37.0725C30.7501 37.3076 29.3168 37.2043 27.6012 36.7253C27.624 36.6572 27.6453 36.5893 27.6652 36.5197C27.7316 36.5217 27.7934 36.5178 27.8628 36.5122C28.2041 36.4819 28.4948 36.3129 28.6623 36.1292C30.3384 36.2528 31.4873 36.2026 32.1595 35.9578C32.1595 35.9578 32.5171 35.8422 32.5891 35.792C32.5891 35.792 32.6145 35.9721 32.5365 36.1828ZM33.5927 34.1173C33.553 34.3294 33.4778 34.5127 33.3348 34.7178C33.1767 34.9435 32.9161 35.1343 32.6974 35.2514C32.679 35.2603 32.6313 35.2826 32.6111 35.2926C31.8058 35.7163 30.0511 35.8749 27.9001 35.6196C27.8858 35.6174 27.8754 35.617 27.8623 35.6155C27.8778 35.5391 27.894 35.4943 27.9081 35.4169C28.1062 35.4019 28.3195 35.3437 28.5285 35.2465C28.7217 35.1561 28.8907 35.0046 29.0237 34.8754L29.0254 34.8744C31.0174 34.7035 32.5578 34.2737 33.2485 33.7399C33.2662 33.7263 33.3185 33.6885 33.3367 33.6737C33.4039 33.622 33.4764 33.5648 33.5454 33.4972C33.6235 33.702 33.6359 33.8708 33.5927 34.1173ZM34.473 31.9733C34.4497 31.6363 34.3428 31.3214 34.1799 31.0652C34.3816 30.7685 34.4877 30.3925 34.4734 29.9682C34.4589 29.5076 34.2941 29.0848 34.0359 28.7699C34.2017 28.4763 34.2856 28.1304 34.2722 27.7391C34.2485 27.0487 33.9195 26.4485 33.4361 26.134C33.4526 26.0022 33.4565 25.8742 33.4536 25.7348C33.4223 24.6974 32.9745 24.0439 32.2553 23.7653C32.1023 23.0203 31.601 22.3328 31.1534 21.9971C30.6094 24.304 28.8967 26.5219 28.2793 27.3983C27.2861 28.8075 27.0541 30.1476 26.5008 31.7646C25.848 33.6722 25.39 35.6994 23.6417 36.9001C23.6417 36.71 23.6521 36.5146 23.6747 36.312C23.9627 33.7129 26.063 29.4822 25.3025 27.0153C25.2567 26.8659 25.2036 26.7193 25.1396 26.5772C24.391 24.886 22.6885 24.6228 20.9445 25.4094C19.8584 25.8986 18.7297 26.3127 18.2102 27.4977C18.0014 27.9748 17.9275 28.4625 17.9753 28.88C17.9857 28.9733 18.0364 29.0485 18.1161 29.0754C18.2245 29.1125 18.3476 29.0485 18.4119 28.928C18.4601 28.8453 18.4928 28.7294 18.5013 28.6019C18.5013 28.5966 18.5023 28.5917 18.5033 28.5864C18.5052 28.5583 18.5108 28.527 18.5222 28.4974C18.5772 28.3634 18.7217 28.2955 18.8465 28.3454C18.9711 28.3968 19.0259 28.5469 18.9721 28.6805C18.9627 28.7042 18.9513 28.7246 18.936 28.7447C18.9042 28.7879 18.8732 28.8376 18.8429 28.8904C18.7774 29.0109 18.7372 29.1302 18.7224 29.2274C18.7023 29.3665 18.7794 29.5088 18.9139 29.566C18.9229 29.5709 18.937 29.5774 18.9464 29.5816C19.4393 29.7825 20.0259 29.526 20.3787 29.0034C20.5081 28.8085 20.6313 28.5864 20.7423 28.3469C20.9166 27.9723 20.9076 27.5908 21.1913 27.2586C21.6681 26.7042 23.0596 26.3408 23.6647 27.0754C24.8414 28.5035 23.5331 30.3508 22.7173 31.5653C21.6899 33.095 20.2599 34.8465 19.5411 36.5689C17.6623 41.07 20.8688 45.4863 26.0397 45.4863C29.3239 45.4863 31.3736 44.0557 32.5389 42.3469C30.296 42.1723 29.0766 40.7209 29.0766 40.7209C29.0766 40.7209 29.5251 40.6756 29.8157 40.1883C29.8157 40.1883 30.0254 40.1641 30.2126 40.1401C30.6652 40.0809 31.0795 39.8494 31.2524 39.3452C31.399 38.9195 31.4077 38.6523 31.4077 38.6523C31.4077 38.6523 31.7098 38.5256 31.8858 38.1178C31.9852 37.8868 32.0119 37.7721 32.0128 37.5386C32.5321 37.3641 32.929 36.918 33.1471 36.3522C33.2618 36.0521 33.2846 35.9081 33.2577 35.6184C33.8419 35.3248 34.2817 34.4948 34.2589 33.8218C34.2519 33.5922 34.1942 33.385 34.1093 33.1893C34.3707 32.8853 34.5067 32.4611 34.473 31.9733Z" fill="#1A1919"/>
<path fill-rule="evenodd" clip-rule="evenodd" d="M65.7464 1.54871V2.96737C65.7464 3.06046 65.6766 3.10701 65.5602 3.09513L64.9789 3.06046C64.944 3.06046 64.8975 3.03719 64.8861 2.96737L64.8623 2.62992V2.61852H63.095V9.68834L63.4555 9.71162C63.537 9.71162 63.5716 9.79307 63.5602 9.89755L63.5253 10.4789C63.5253 10.5373 63.4902 10.572 63.4322 10.572H61.4439C61.351 10.572 61.3045 10.5024 61.3159 10.3858L61.351 9.80471C61.351 9.7698 61.3741 9.72301 61.4439 9.71162L61.7811 9.68834V2.61852H60.1413L60.1183 2.97877C60.1183 3.06046 60.0371 3.09513 59.9324 3.08374L59.3508 3.04858C59.2926 3.04858 59.2579 3.01392 59.2579 2.95598V1.54871H65.7464Z" fill="#233881"/>
<path fill-rule="evenodd" clip-rule="evenodd" d="M74.4095 9.71162C74.4909 9.71162 74.5256 9.79307 74.5139 9.89755L74.479 10.4789C74.479 10.5373 74.4444 10.572 74.3859 10.572H72.3976C72.3047 10.572 72.2582 10.5024 72.2698 10.3858L72.3047 9.80471C72.3047 9.7698 72.328 9.72301 72.3976 9.71162L72.735 9.68834V6.56059H68.6882V9.68834L69.0487 9.71162C69.1304 9.71162 69.1651 9.79307 69.1535 9.89755L69.1185 10.4789C69.1185 10.5373 69.0834 10.572 69.0254 10.572H67.0371C66.944 10.572 66.8977 10.5024 66.9091 10.3858L66.944 9.80471C66.944 9.7698 66.9675 9.72301 67.0371 9.71162L67.3745 9.68834V2.43234L67.0141 2.40931C66.9326 2.40931 66.8977 2.32786 66.9091 2.22313L66.944 1.6418C66.944 1.58362 66.9792 1.54871 67.0371 1.54871H69.0254C69.1185 1.54871 69.1651 1.61877 69.1535 1.73465L69.1185 2.31622C69.1185 2.35089 69.0955 2.39743 69.0254 2.40931L68.6882 2.43234V5.47889H72.735V2.43234L72.3745 2.40931C72.2931 2.40931 72.2582 2.32786 72.2698 2.22313L72.3047 1.6418C72.3047 1.58362 72.3394 1.54871 72.3976 1.54871H74.3859C74.479 1.54871 74.5256 1.61877 74.5139 1.73465L74.479 2.31622C74.479 2.35089 74.4558 2.39743 74.3859 2.40931L74.049 2.43234V9.68834L74.4095 9.71162Z" fill="#233881"/>
<path fill-rule="evenodd" clip-rule="evenodd" d="M81.817 9.06046C81.8752 9.06046 81.9098 9.09537 81.9098 9.15355V10.572H76.2703C76.1772 10.572 76.1309 10.5024 76.1426 10.3858L76.1772 9.80471C76.1772 9.7698 76.2007 9.72301 76.2703 9.71162L76.6078 9.68834V2.43234L76.2473 2.40931C76.1658 2.40931 76.1309 2.32786 76.1426 2.22313L76.1772 1.6418C76.1772 1.58362 76.2124 1.54871 76.2703 1.54871H81.7123V2.96737C81.7123 3.06046 81.6422 3.10701 81.5263 3.09513L80.945 3.06046C80.9101 3.06046 80.8638 3.03719 80.8519 2.96737L80.8286 2.62992H77.9333V5.38604H81.2121V6.45586H77.9333V9.49052H81.0262L81.0497 9.13004C81.0497 9.04858 81.1314 9.01368 81.2356 9.02531L81.817 9.06046Z" fill="#233881"/>
<path fill-rule="evenodd" clip-rule="evenodd" d="M95.2225 1.54871C95.3159 1.54871 95.3622 1.61877 95.3503 1.73465L95.3159 2.31622C95.3159 2.35089 95.2926 2.39743 95.2225 2.40931L94.8856 2.43234H94.8504V7.2464C94.8504 9.59525 93.9321 10.7116 91.583 10.7116C89.3387 10.7116 88.3622 9.95574 88.3622 7.2464V2.43234L88.0015 2.40931C87.92 2.40931 87.8848 2.32786 87.8967 2.22313L87.9316 1.6418C87.9316 1.58362 87.9663 1.54871 88.025 1.54871H90.0128C90.1062 1.54871 90.1527 1.61877 90.1406 1.73465L90.1062 2.31622C90.1062 2.35089 90.0827 2.39743 90.0128 2.40931L89.6764 2.43234V7.47889C89.6764 8.92083 90.1062 9.69998 91.5714 9.69998C93.1998 9.69998 93.5711 8.69998 93.5711 7.47889V2.43234L93.2111 2.40931C93.1297 2.40931 93.0945 2.32786 93.1062 2.22313L93.1413 1.6418C93.1413 1.58362 93.1762 1.54871 93.2344 1.54871H95.2225Z" fill="#233881"/>
<path fill-rule="evenodd" clip-rule="evenodd" d="M104.967 1.54871C105.06 1.54871 105.107 1.61877 105.095 1.73465L105.06 2.31622C105.06 2.35089 105.037 2.39743 104.967 2.40931L104.63 2.43234H104.526V10.572H103.654C103.596 10.572 103.56 10.5487 103.525 10.5024L98.7697 3.85101V9.68834H98.8739L99.2349 9.71162C99.3161 9.71162 99.3513 9.79307 99.3394 9.89755L99.305 10.4789C99.305 10.5373 99.2696 10.572 99.2116 10.572H97.223C97.1302 10.572 97.0836 10.5024 97.0953 10.3858L97.1302 9.80471C97.1302 9.7698 97.1534 9.72301 97.223 9.71162L97.5602 9.68834V2.43234L97.1995 2.40931C97.1185 2.40931 97.0836 2.32786 97.0953 2.22313L97.1302 1.6418C97.1302 1.58362 97.1648 1.54871 97.223 1.54871H98.5132C98.5835 1.54871 98.6182 1.58362 98.6536 1.63016L103.316 8.14192V2.43234L102.956 2.40931C102.874 2.40931 102.84 2.32786 102.851 2.22313L102.886 1.6418C102.886 1.58362 102.921 1.54871 102.979 1.54871H104.967Z" fill="#233881"/>
<path fill-rule="evenodd" clip-rule="evenodd" d="M109.096 9.71162C109.177 9.71162 109.212 9.79307 109.2 9.89755L109.166 10.4789C109.166 10.5373 109.13 10.572 109.072 10.572H107.084C106.991 10.572 106.945 10.5024 106.956 10.3858L106.991 9.80471C106.991 9.7698 107.014 9.72301 107.084 9.71162L107.421 9.68834V2.43234L107.061 2.40931C106.98 2.40931 106.945 2.32786 106.956 2.22313L106.991 1.6418C106.991 1.58362 107.026 1.54871 107.084 1.54871H109.072C109.166 1.54871 109.212 1.61877 109.2 1.73465L109.166 2.31622C109.166 2.35089 109.142 2.39743 109.072 2.40931L108.735 2.43234V9.68834L109.096 9.71162Z" fill="#233881"/>
<path fill-rule="evenodd" clip-rule="evenodd" d="M118.549 1.54871C118.643 1.54871 118.689 1.61877 118.678 1.73465L118.643 2.31622C118.643 2.35089 118.62 2.39743 118.549 2.40931L118.212 2.43234L115.328 10.2929C115.271 10.4675 115.143 10.572 114.956 10.572L113.979 10.5373C113.945 10.5373 113.921 10.5254 113.898 10.4675L110.886 2.43234L110.526 2.40931C110.445 2.40931 110.41 2.32786 110.422 2.22313L110.457 1.6418C110.457 1.58362 110.491 1.54871 110.549 1.54871H112.561C112.654 1.54871 112.701 1.61877 112.689 1.73465L112.654 2.31622C112.654 2.35089 112.631 2.39743 112.561 2.40931L112.224 2.43234L114.561 8.9904H114.596L116.922 2.43234L116.561 2.40931C116.48 2.40931 116.445 2.32786 116.456 2.22313L116.491 1.6418C116.491 1.58362 116.526 1.54871 116.584 1.54871H118.549Z" fill="#233881"/>
<path fill-rule="evenodd" clip-rule="evenodd" d="M125.573 9.06046C125.632 9.06046 125.667 9.09537 125.667 9.15355V10.572H120.026C119.934 10.572 119.887 10.5024 119.899 10.3858L119.934 9.80471C119.934 9.7698 119.957 9.72301 120.026 9.71162L120.364 9.68834V2.43234L120.003 2.40931C119.922 2.40931 119.887 2.32786 119.899 2.22313L119.934 1.6418C119.934 1.58362 119.968 1.54871 120.026 1.54871H125.469V2.96737C125.469 3.06046 125.399 3.10701 125.283 3.09513L124.701 3.06046C124.666 3.06046 124.619 3.03719 124.608 2.96737L124.585 2.62992H121.69V5.38604H124.969V6.45586H121.69V9.49052H124.783L124.806 9.13004C124.806 9.04858 124.888 9.01368 124.992 9.02531L125.573 9.06046Z" fill="#233881"/>
<path fill-rule="evenodd" clip-rule="evenodd" d="M130.201 6.04883C131.458 6.04883 132.179 5.50216 132.179 4.24665C132.179 3.04858 131.492 2.57198 130.306 2.57198H129.19V6.04883H130.201ZM133.795 9.71162C133.876 9.71162 133.911 9.79307 133.899 9.89755L133.864 10.4789C133.864 10.5373 133.83 10.572 133.772 10.572H132.446L130.469 7.08374H129.19V9.68834L129.551 9.71162C129.632 9.71162 129.667 9.79307 129.655 9.89755L129.62 10.4789C129.62 10.5373 129.586 10.572 129.528 10.572H127.539C127.446 10.572 127.399 10.5024 127.411 10.3858L127.446 9.80471C127.446 9.7698 127.47 9.72301 127.539 9.71162L127.876 9.68834V2.43234L127.516 2.40931C127.434 2.40931 127.399 2.32786 127.411 2.22313L127.446 1.6418C127.446 1.58362 127.481 1.54871 127.539 1.54871H130.167C132.434 1.54871 133.504 2.40931 133.504 4.24665C133.504 5.42095 132.888 6.42095 131.784 6.83937L133.434 9.68834L133.795 9.71162Z" fill="#233881"/>
<path fill-rule="evenodd" clip-rule="evenodd" d="M141.016 8.09537C141.016 9.56034 139.935 10.6299 137.899 10.6299C136.806 10.6299 135.934 10.3977 135.306 10.13V8.723C135.306 8.61852 135.388 8.56058 135.528 8.57197L136.225 8.61852C136.272 8.61852 136.329 8.64155 136.342 8.723L136.365 9.35137C136.912 9.47888 137.458 9.54846 137.83 9.54846C138.888 9.54846 139.714 9.18821 139.714 8.22312C139.714 7.18821 139.318 6.97876 137.528 6.33973C136.225 5.851 135.33 5.18822 135.33 3.89731C135.33 2.44397 136.434 1.47888 138.4 1.47888C139.12 1.47888 139.807 1.5487 140.458 1.71137V3.235C140.458 3.33949 140.376 3.39767 140.237 3.38603L139.539 3.33949C139.492 3.33949 139.435 3.31597 139.423 3.235L139.4 2.60664C139.085 2.57197 138.772 2.5487 138.481 2.5487C137.399 2.5487 136.69 3.04858 136.69 3.851C136.69 4.68834 137.178 4.99064 138.772 5.56009C140.435 6.14191 141.016 6.93246 141.016 8.09537Z" fill="#233881"/>
<path fill-rule="evenodd" clip-rule="evenodd" d="M144.784 9.71162C144.865 9.71162 144.9 9.79307 144.888 9.89755L144.854 10.4789C144.854 10.5373 144.819 10.572 144.761 10.572H142.772C142.679 10.572 142.632 10.5024 142.644 10.3858L142.679 9.80471C142.679 9.7698 142.703 9.72301 142.772 9.71162L143.109 9.68834V2.43234L142.749 2.40931C142.667 2.40931 142.632 2.32786 142.644 2.22313L142.679 1.6418C142.679 1.58362 142.714 1.54871 142.772 1.54871H144.761C144.854 1.54871 144.9 1.61877 144.888 1.73465L144.854 2.31622C144.854 2.35089 144.83 2.39743 144.761 2.40931L144.423 2.43234V9.68834L144.784 9.71162Z" fill="#233881"/>
<path fill-rule="evenodd" clip-rule="evenodd" d="M152.772 1.54871V2.96737C152.772 3.06046 152.703 3.10701 152.586 3.09513L152.005 3.06046C151.97 3.06046 151.924 3.03719 151.912 2.96737L151.888 2.62992V2.61852H150.121V9.68834L150.482 9.71162C150.563 9.71162 150.598 9.79307 150.586 9.89755L150.551 10.4789C150.551 10.5373 150.517 10.572 150.458 10.572H148.47C148.377 10.572 148.33 10.5024 148.342 10.3858L148.377 9.80471C148.377 9.7698 148.4 9.72301 148.47 9.71162L148.807 9.68834V2.61852H147.168L147.145 2.97877C147.145 3.06046 147.063 3.09513 146.958 3.08374L146.377 3.04858C146.319 3.04858 146.284 3.01392 146.284 2.95598V1.54871H152.772Z" fill="#233881"/>
<path fill-rule="evenodd" clip-rule="evenodd" d="M160.61 1.54871C160.702 1.54871 160.749 1.61877 160.738 1.73465L160.702 2.31622C160.702 2.35089 160.679 2.39743 160.61 2.40931L160.272 2.43234L157.738 7.39768V9.68834L158.098 9.71162C158.18 9.71162 158.215 9.79307 158.203 9.89755L158.168 10.4789C158.168 10.5373 158.134 10.572 158.075 10.572H156.087C155.994 10.572 155.947 10.5024 155.959 10.3858L155.994 9.80471C155.994 9.7698 156.016 9.72301 156.087 9.71162L156.423 9.68834V7.37416L153.924 2.43234L153.575 2.40931C153.494 2.40931 153.458 2.32786 153.47 2.22313L153.505 1.6418C153.505 1.58362 153.54 1.54871 153.598 1.54871H155.587C155.679 1.54871 155.726 1.61877 155.715 1.73465L155.679 2.31622C155.679 2.35089 155.656 2.39743 155.587 2.40931L155.261 2.43234L157.075 6.17659H157.11L158.982 2.43234L158.621 2.40931C158.54 2.40931 158.505 2.32786 158.517 2.22313L158.552 1.6418C158.552 1.58362 158.587 1.54871 158.645 1.54871H160.61Z" fill="#233881"/>
<path fill-rule="evenodd" clip-rule="evenodd" d="M166.485 6.04878C166.485 7.57218 166.834 9.54842 168.741 9.54842C170.322 9.54842 171.008 8.19981 171.008 6.04878C171.008 4.49048 170.624 2.57193 168.752 2.57193C166.845 2.57193 166.485 4.53727 166.485 6.04878ZM172.38 6.07181C172.38 9.15351 171.02 10.6418 168.741 10.6418C166.485 10.6418 165.101 9.10697 165.101 6.07181C165.101 3.88563 165.927 1.49072 168.764 1.49072C171.194 1.49072 172.38 3.35133 172.38 6.07181Z" fill="#233881"/>
<path fill-rule="evenodd" clip-rule="evenodd" d="M179.346 1.54871V2.96737C179.346 3.06046 179.276 3.10701 179.16 3.09513L178.578 3.06046C178.543 3.06046 178.497 3.03719 178.485 2.96737L178.462 2.62992H175.555V5.38604H178.706V6.45586H175.555V9.68834L175.916 9.71162C175.997 9.71162 176.032 9.79307 176.02 9.89755L175.985 10.4789C175.985 10.5373 175.95 10.572 175.892 10.572H173.904C173.811 10.572 173.765 10.5024 173.776 10.3858L173.811 9.80471C173.811 9.7698 173.834 9.72301 173.904 9.71162L174.241 9.68834V2.43234L173.881 2.40931C173.799 2.40931 173.765 2.32786 173.776 2.22313L173.811 1.6418C173.811 1.58362 173.846 1.54871 173.904 1.54871H179.346Z" fill="#233881"/>
<path fill-rule="evenodd" clip-rule="evenodd" d="M83.9154 14.77C84.121 14.77 84.2237 14.9244 84.198 15.1814L84.121 16.4665C84.121 16.5438 84.0693 16.6466 83.9154 16.6723L83.1954 16.7237L78.8514 33.8185C78.6967 34.3841 78.2342 34.7184 77.6686 34.7184L75.6637 34.6413C75.3806 34.6413 75.2778 34.4612 75.2005 34.1785L71.7045 19.1402H71.679L68.2344 33.5099C68.1057 34.0243 67.7716 34.7441 66.8717 34.7184L64.944 34.6413C64.7125 34.6413 64.5585 34.5126 64.4812 34.1785L60.2654 16.7237L59.4943 16.6723C59.3144 16.6723 59.2373 16.4927 59.2625 16.2609L59.3399 14.9758C59.3399 14.8471 59.4174 14.77 59.5454 14.77H63.7871C63.9927 14.77 64.0955 14.9244 64.07 15.1814L63.9927 16.4665C63.9927 16.5438 63.9413 16.6466 63.7871 16.6723L63.0671 16.7237L66.3578 31.7104H66.3835L70.0594 15.9526C70.265 15.0529 70.702 14.7443 71.3193 14.77L72.7845 14.8471C73.0412 14.8728 73.144 15.0015 73.2213 15.3356L76.9486 31.7104H76.9745L80.4191 16.7237L79.648 16.6723C79.4681 16.6723 79.3908 16.4927 79.4165 16.2609L79.4936 14.9758C79.4936 14.8471 79.5709 14.77 79.6991 14.77H83.9154Z" fill="#233881"/>
<path fill-rule="evenodd" clip-rule="evenodd" d="M98.1551 31.3763C98.2834 31.3763 98.3607 31.4534 98.3607 31.5821V34.7184H85.8936C85.688 34.7184 85.585 34.564 85.6107 34.307L85.688 33.0217C85.688 32.9446 85.7391 32.8415 85.8936 32.8158L86.6388 32.7644V16.7237L85.8419 16.6723C85.6621 16.6723 85.585 16.4927 85.6107 16.2609L85.688 14.9758C85.688 14.8471 85.7648 14.77 85.8936 14.77H97.9241V17.9065C97.9241 18.1118 97.7694 18.2146 97.5127 18.1892L96.2274 18.1118C96.15 18.1118 96.0473 18.0604 96.0213 17.9065L95.9704 17.1608H89.5697V23.2532H96.8187V25.6183H89.5697V32.3276H96.4075L96.4589 31.5305C96.4589 31.3509 96.6388 31.2735 96.8701 31.2992L98.1551 31.3763Z" fill="#233881"/>
<path fill-rule="evenodd" clip-rule="evenodd" d="M112.91 29.243C112.91 32.4818 110.52 34.8469 106.021 34.8469C103.604 34.8469 101.676 34.3325 100.288 33.7412V30.6311C100.288 30.3996 100.468 30.2709 100.777 30.2966L102.319 30.3996C102.422 30.3996 102.551 30.4512 102.576 30.6311L102.627 32.019C103.835 32.3019 105.044 32.4558 105.867 32.4558C108.207 32.4558 110.031 31.6592 110.031 29.5257C110.031 27.2377 109.157 26.7751 105.198 25.3611C102.319 24.2813 100.339 22.8161 100.339 19.9628C100.339 16.7497 102.782 14.6158 107.126 14.6158C108.72 14.6158 110.236 14.77 111.676 15.1298V18.4975C111.676 18.7288 111.496 18.8575 111.188 18.8316L109.646 18.7288C109.543 18.7288 109.414 18.6777 109.388 18.4975L109.337 17.1094C108.643 17.0323 107.949 16.9809 107.306 16.9809C104.916 16.9809 103.347 18.0861 103.347 19.86C103.347 21.7106 104.427 22.3792 107.949 23.6386C111.625 24.924 112.91 26.6723 112.91 29.243Z" fill="#233881"/>
<path fill-rule="evenodd" clip-rule="evenodd" d="M128.282 14.77V17.9065C128.282 18.1118 128.127 18.2146 127.87 18.1892L126.585 18.1118C126.508 18.1118 126.405 18.0604 126.379 17.9065L126.328 17.1608V17.1351H122.42V32.7644L123.217 32.8158C123.398 32.8158 123.474 32.996 123.449 33.2275L123.371 34.5126C123.371 34.6413 123.295 34.7184 123.166 34.7184H118.77C118.565 34.7184 118.462 34.564 118.488 34.307L118.565 33.0217C118.565 32.9446 118.616 32.8415 118.77 32.8158L119.516 32.7644V17.1351H115.891L115.84 17.932C115.84 18.1118 115.66 18.1892 115.429 18.1635L114.144 18.0861C114.014 18.0861 113.938 18.0091 113.938 17.8806V14.77H128.282Z" fill="#233881"/>
<path fill-rule="evenodd" clip-rule="evenodd" d="M142.702 31.3763C142.831 31.3763 142.908 31.4534 142.908 31.5821V34.7184H130.44C130.234 34.7184 130.131 34.564 130.157 34.307L130.234 33.0217C130.234 32.9446 130.286 32.8415 130.44 32.8158L131.186 32.7644V16.7237L130.389 16.6723C130.209 16.6723 130.131 16.4927 130.157 16.2609L130.234 14.9758C130.234 14.8471 130.311 14.77 130.44 14.77H142.471V17.9065C142.471 18.1118 142.317 18.2146 142.059 18.1892L140.774 18.1118C140.697 18.1118 140.594 18.0604 140.569 17.9065L140.517 17.1608H134.116V23.2532H141.366V25.6183H134.116V32.3276H140.954L141.005 31.5305C141.005 31.3509 141.186 31.2735 141.417 31.2992L142.702 31.3763Z" fill="#233881"/>
<path fill-rule="evenodd" clip-rule="evenodd" d="M151.493 24.7184C154.269 24.7184 155.863 23.5101 155.863 20.7339C155.863 18.0861 154.346 17.0323 151.724 17.0323H149.256V24.7184H151.493ZM159.436 32.8158C159.616 32.8158 159.693 32.996 159.667 33.2275L159.591 34.5126C159.591 34.6413 159.513 34.7184 159.384 34.7184H156.454L152.084 27.0064H149.256V32.7644L150.053 32.8158C150.233 32.8158 150.31 32.996 150.285 33.2275L150.207 34.5126C150.207 34.6413 150.13 34.7184 150.002 34.7184H145.606C145.4 34.7184 145.297 34.564 145.324 34.307L145.4 33.0217C145.4 32.9446 145.452 32.8415 145.606 32.8158L146.352 32.7644V16.7237L145.555 16.6723C145.375 16.6723 145.297 16.4927 145.324 16.2609L145.4 14.9758C145.4 14.8471 145.478 14.77 145.606 14.77H151.416C156.429 14.77 158.793 16.6723 158.793 20.7339C158.793 23.3303 157.43 25.5409 154.989 26.4665L158.639 32.7644L159.436 32.8158Z" fill="#233881"/>
<path fill-rule="evenodd" clip-rule="evenodd" d="M179.152 14.77C179.357 14.77 179.46 14.9244 179.434 15.1814L179.357 16.4665C179.357 16.5438 179.306 16.6466 179.152 16.6723L178.407 16.7237H178.175V34.7184H176.247C176.118 34.7184 176.041 34.6667 175.964 34.564L165.45 19.86V32.7644H165.682L166.479 32.8158C166.659 32.8158 166.736 32.996 166.71 33.2275L166.633 34.5126C166.633 34.6413 166.556 34.7184 166.427 34.7184H162.032C161.826 34.7184 161.723 34.564 161.749 34.307L161.826 33.0217C161.826 32.9446 161.877 32.8415 162.032 32.8158L162.777 32.7644V16.7237L161.98 16.6723C161.8 16.6723 161.723 16.4927 161.749 16.2609L161.826 14.9758C161.826 14.8471 161.903 14.77 162.032 14.77H164.885C165.039 14.77 165.116 14.8471 165.193 14.9501L175.501 29.3458V16.7237L174.704 16.6723C174.525 16.6723 174.448 16.4927 174.473 16.2609L174.551 14.9758C174.551 14.8471 174.627 14.77 174.756 14.77H179.152Z" fill="#233881"/>
<path fill-rule="evenodd" clip-rule="evenodd" d="M69.6822 49.7276L66.8228 41.6106H66.801L64.0948 49.7276H69.6822ZM74.4996 54.237C74.6538 54.237 74.7198 54.3912 74.6977 54.589L74.6318 55.6889C74.6318 55.7989 74.5656 55.8649 74.4781 55.8649H70.6284C70.4524 55.8649 70.3641 55.7327 70.3864 55.5129L70.4524 54.413C70.4524 54.347 70.496 54.259 70.6284 54.237L71.2441 54.1931L70.3864 51.7514H63.4131L62.5993 54.1931L63.281 54.237C63.4349 54.237 63.5011 54.3912 63.479 54.589L63.4131 55.6889C63.4131 55.7989 63.3471 55.8649 63.2371 55.8649H59.5195C59.3435 55.8649 59.2553 55.7327 59.2776 55.5129L59.3435 54.413C59.3435 54.347 59.3874 54.259 59.5195 54.237L60.1355 54.1931L65.0625 40.4666L64.4027 40.4227C64.249 40.4227 64.1828 40.2687 64.2048 40.0707L64.2708 38.9708C64.2708 38.8607 64.337 38.795 64.4473 38.795H67.9445L73.84 54.1931L74.4996 54.237Z" fill="#233881"/>
<path fill-rule="evenodd" clip-rule="evenodd" d="M88.4453 38.795C88.6206 38.795 88.7091 38.9267 88.687 39.1468L88.6206 40.2464C88.6206 40.3126 88.5775 40.4006 88.4453 40.4227L87.807 40.4666H87.7411V49.5735C87.7411 54.0171 86.0034 56.1289 81.5598 56.1289C77.3142 56.1289 75.4664 54.6988 75.4664 49.5735V40.4666L74.7847 40.4227C74.6305 40.4227 74.5646 40.2687 74.5867 40.0707L74.6524 38.9708C74.6524 38.8607 74.7188 38.795 74.8286 38.795H78.5901C78.7661 38.795 78.8541 38.9267 78.8322 39.1468L78.7661 40.2464C78.7661 40.3126 78.7222 40.4006 78.5901 40.4227L77.9522 40.4666V50.0135C77.9522 52.7412 78.7661 54.2152 81.5377 54.2152C84.6177 54.2152 85.3212 52.3233 85.3212 50.0135V40.4666L84.6395 40.4227C84.4853 40.4227 84.4194 40.2687 84.4414 40.0707L84.5076 38.9708C84.5076 38.8607 84.5736 38.795 84.6834 38.795H88.4453Z" fill="#233881"/>
<path fill-rule="evenodd" clip-rule="evenodd" d="M100.917 51.1792C100.917 53.9511 98.871 55.9746 95.0211 55.9746C92.9537 55.9746 91.304 55.5346 90.1159 55.0289V52.3673C90.1159 52.1693 90.27 52.059 90.534 52.0813L91.8536 52.1693C91.9416 52.1693 92.0516 52.2131 92.0737 52.3673L92.1173 53.555C93.1517 53.7971 94.1854 53.9288 94.8892 53.9288C96.8909 53.9288 98.4528 53.2471 98.4528 51.4214C98.4528 49.4633 97.7054 49.0677 94.3178 47.8577C91.8536 46.9339 90.16 45.6801 90.16 43.2384C90.16 40.4885 92.2497 38.6626 95.9673 38.6626C97.3311 38.6626 98.6293 38.795 99.8611 39.1031V41.9845C99.8611 42.1824 99.7067 42.2922 99.4431 42.2704L98.1231 42.1824C98.0349 42.1824 97.9246 42.1385 97.903 41.9845L97.8594 40.7964C97.265 40.7305 96.6708 40.6866 96.1214 40.6866C94.0754 40.6866 92.7338 41.6323 92.7338 43.1501C92.7338 44.7341 93.6577 45.306 96.6708 46.3838C99.8165 47.4837 100.917 48.9794 100.917 51.1792Z" fill="#233881"/>
<path fill-rule="evenodd" clip-rule="evenodd" d="M114.378 38.795V41.4787C114.378 41.6544 114.246 41.7427 114.026 41.7206L112.926 41.6544C112.86 41.6544 112.772 41.6106 112.751 41.4787L112.706 40.8406V40.8188H109.362V54.1931L110.044 54.237C110.198 54.237 110.265 54.3912 110.243 54.589L110.176 55.6889C110.176 55.7989 110.111 55.8649 110 55.8649H106.239C106.063 55.8649 105.975 55.7327 105.997 55.5129L106.063 54.413C106.063 54.347 106.107 54.259 106.239 54.237L106.877 54.1931V40.8188H103.775L103.732 41.5005C103.732 41.6544 103.577 41.7206 103.38 41.6986L102.279 41.6324C102.17 41.6324 102.104 41.5664 102.104 41.4566V38.795H114.378Z" fill="#233881"/>
<path fill-rule="evenodd" clip-rule="evenodd" d="M121.306 47.308C123.682 47.308 125.046 46.2738 125.046 43.8981C125.046 41.6324 123.748 40.7306 121.504 40.7306H119.392V47.308H121.306ZM128.103 54.237C128.257 54.237 128.323 54.3912 128.302 54.589L128.235 55.6889C128.235 55.7989 128.169 55.8649 128.059 55.8649H125.552L121.812 49.2656H119.392V54.1931L120.074 54.237C120.228 54.237 120.294 54.3912 120.272 54.589L120.207 55.6889C120.207 55.7989 120.141 55.8649 120.03 55.8649H116.269C116.093 55.8649 116.005 55.7327 116.026 55.5129L116.093 54.413C116.093 54.347 116.136 54.259 116.269 54.237L116.907 54.1931V40.4666L116.225 40.4227C116.071 40.4227 116.005 40.2687 116.026 40.0707L116.093 38.9708C116.093 38.8607 116.159 38.795 116.269 38.795H121.24C125.53 38.795 127.553 40.4227 127.553 43.8981C127.553 46.1196 126.388 48.0118 124.298 48.8038L127.422 54.1931L128.103 54.237Z" fill="#233881"/>
<path fill-rule="evenodd" clip-rule="evenodd" d="M139.717 49.7276L136.857 41.6106H136.836L134.129 49.7276H139.717ZM144.534 54.237C144.688 54.237 144.754 54.3912 144.732 54.589L144.667 55.6889C144.667 55.7989 144.601 55.8649 144.512 55.8649H140.663C140.487 55.8649 140.399 55.7327 140.421 55.5129L140.487 54.413C140.487 54.347 140.53 54.259 140.663 54.237L141.279 54.1931L140.421 51.7514H133.448L132.634 54.1931L133.315 54.237C133.47 54.237 133.536 54.3912 133.513 54.589L133.448 55.6889C133.448 55.7989 133.381 55.8649 133.272 55.8649H129.554C129.378 55.8649 129.29 55.7327 129.312 55.5129L129.378 54.413C129.378 54.347 129.422 54.259 129.554 54.237L130.17 54.1931L135.097 40.4666L134.438 40.4227C134.283 40.4227 134.218 40.2687 134.239 40.0707L134.306 38.9708C134.306 38.8607 134.371 38.795 134.482 38.795H137.979L143.874 54.1931L144.534 54.237Z" fill="#233881"/>
<path fill-rule="evenodd" clip-rule="evenodd" d="M156.852 53.0052C156.963 53.0052 157.028 53.0712 157.028 53.1812V55.8649H146.359C146.183 55.8649 146.096 55.7327 146.117 55.5129L146.183 54.413C146.183 54.347 146.227 54.259 146.359 54.237L146.997 54.1931V40.4666L146.315 40.4227C146.162 40.4227 146.096 40.2687 146.117 40.0707L146.183 38.9708C146.183 38.8607 146.249 38.795 146.359 38.795H150.121C150.297 38.795 150.385 38.9267 150.363 39.1468L150.297 40.2464C150.297 40.3126 150.253 40.4006 150.121 40.4227L149.483 40.4666V53.819H155.356L155.4 53.1371C155.4 52.9832 155.554 52.9172 155.752 52.939L156.852 53.0052Z" fill="#233881"/>
<path fill-rule="evenodd" clip-rule="evenodd" d="M162.394 54.237C162.548 54.237 162.614 54.3912 162.592 54.589L162.526 55.6889C162.526 55.7989 162.46 55.8649 162.35 55.8649H158.589C158.412 55.8649 158.325 55.7327 158.347 55.5129L158.412 54.413C158.412 54.347 158.456 54.259 158.589 54.237L159.227 54.1931V40.4666L158.545 40.4227C158.391 40.4227 158.325 40.2687 158.347 40.0707L158.412 38.9708C158.412 38.8607 158.479 38.795 158.589 38.795H162.35C162.526 38.795 162.614 38.9267 162.592 39.1468L162.526 40.2464C162.526 40.3126 162.482 40.4006 162.35 40.4227L161.712 40.4666V54.1931L162.394 54.237Z" fill="#233881"/>
<path fill-rule="evenodd" clip-rule="evenodd" d="M174.427 49.7276L171.567 41.6106H171.545L168.839 49.7276H174.427ZM179.244 54.237C179.399 54.237 179.464 54.3912 179.442 54.589L179.376 55.6889C179.376 55.7989 179.31 55.8649 179.222 55.8649H175.372C175.197 55.8649 175.108 55.7327 175.13 55.5129L175.197 54.413C175.197 54.347 175.241 54.259 175.372 54.237L175.988 54.1931L175.13 51.7514H168.157L167.344 54.1931L168.025 54.237C168.179 54.237 168.246 54.3912 168.224 54.589L168.157 55.6889C168.157 55.7989 168.092 55.8649 167.982 55.8649H164.264C164.088 55.8649 164 55.7327 164.022 55.5129L164.088 54.413C164.088 54.347 164.132 54.259 164.264 54.237L164.88 54.1931L169.807 40.4666L169.147 40.4227C168.994 40.4227 168.927 40.2687 168.95 40.0707L169.015 38.9708C169.015 38.8607 169.081 38.795 169.191 38.795H172.689L178.585 54.1931L179.244 54.237Z" fill="#233881"/>
<path fill-rule="evenodd" clip-rule="evenodd" d="M31.6247 9.13177H30.4965V7.32886H31.6007C31.6112 7.35819 31.6194 7.41419 31.6194 7.48886C31.6194 7.54752 31.6138 7.59819 31.6007 7.65419H30.8778V8.04352H31.4887C31.4994 8.07286 31.5074 8.12619 31.5074 8.20086C31.5074 8.25952 31.5018 8.30752 31.4887 8.36352H30.8778V8.80619H31.6247C31.6354 8.83577 31.6432 8.89177 31.6432 8.96643C31.6432 9.0251 31.6381 9.07577 31.6247 9.13177Z" fill="#233881"/>
<path fill-rule="evenodd" clip-rule="evenodd" d="M32.4751 7.62743C32.4165 7.62743 32.3445 7.6301 32.2992 7.63276V8.1661H32.4325C32.6514 8.1661 32.7471 8.0861 32.7471 7.88876C32.7471 7.69143 32.6514 7.62743 32.4751 7.62743ZM33.2461 9.12901C33.1767 9.13967 33.1047 9.14501 33.0221 9.14501C32.9471 9.14501 32.8727 9.14234 32.8221 9.13167L32.4565 8.48343H32.2992V9.13167C32.2325 9.14234 32.1765 9.14501 32.1045 9.14501C32.0405 9.14501 31.9845 9.14234 31.9178 9.13167V7.32876C32.0405 7.32076 32.2965 7.31543 32.4512 7.31543C32.9045 7.31543 33.1314 7.47543 33.1314 7.89143C33.1314 8.11276 32.9978 8.3341 32.8114 8.4141L33.2461 9.12901Z" fill="#233881"/>
<path fill-rule="evenodd" clip-rule="evenodd" d="M34.5634 9.13177H33.4352V7.32886H34.5394C34.5501 7.35819 34.5581 7.41419 34.5581 7.48886C34.5581 7.54752 34.5525 7.59819 34.5394 7.65419H33.8165V8.04352H34.4274C34.4381 8.07286 34.4461 8.12619 34.4461 8.20086C34.4461 8.25952 34.4405 8.30752 34.4274 8.36352H33.8165V8.80619H34.5634C34.5741 8.83577 34.5818 8.89177 34.5818 8.96643C34.5818 9.0251 34.5767 9.07577 34.5634 9.13177Z" fill="#233881"/>
<path fill-rule="evenodd" clip-rule="evenodd" d="M31.0541 10.115C31.0005 10.115 30.9312 10.1176 30.8778 10.1203V10.651H31.0434C31.2485 10.651 31.3581 10.5976 31.3581 10.379C31.3581 10.1923 31.2647 10.115 31.0541 10.115ZM31.0647 10.971H30.8778V11.6165C30.8272 11.6245 30.7658 11.6299 30.6858 11.6299C30.6138 11.6299 30.5472 11.6245 30.4965 11.6165V9.81605C30.6514 9.80829 30.8858 9.80029 31.0378 9.80029C31.4461 9.80029 31.7421 9.94163 31.7421 10.3656C31.7421 10.779 31.4832 10.971 31.0647 10.971Z" fill="#233881"/>
<path fill-rule="evenodd" clip-rule="evenodd" d="M33.1057 11.6166H31.9774V9.81372H33.0817C33.0924 9.84305 33.1004 9.89905 33.1004 9.97372C33.1004 10.0324 33.095 10.0831 33.0817 10.1391H32.3588V10.5284H32.9694C32.9804 10.5577 32.9881 10.6111 32.9881 10.6857C32.9881 10.7444 32.983 10.7924 32.9694 10.8484H32.3588V11.2911H33.1057C33.1161 11.3206 33.1244 11.3766 33.1244 11.4513C33.1244 11.51 33.1188 11.5606 33.1057 11.6166Z" fill="#233881"/>
<path fill-rule="evenodd" clip-rule="evenodd" d="M33.9258 10.1123C33.8671 10.1123 33.7951 10.115 33.7498 10.1176V10.651H33.8831C34.1018 10.651 34.1978 10.571 34.1978 10.3736C34.1978 10.1763 34.1018 10.1123 33.9258 10.1123ZM34.6965 11.6136C34.6274 11.6245 34.5551 11.6299 34.4725 11.6299C34.398 11.6299 34.3231 11.6272 34.2725 11.6165L33.9071 10.9683H33.7498V11.6165C33.6831 11.6272 33.6271 11.6299 33.5551 11.6299C33.4909 11.6299 33.4351 11.6272 33.3685 11.6165V9.81363C33.4909 9.80563 33.7471 9.80029 33.9018 9.80029C34.3551 9.80029 34.5818 9.96029 34.5818 10.3763C34.5818 10.5976 34.4487 10.819 34.2618 10.899L34.6965 11.6136Z" fill="#233881"/>
<path fill-rule="evenodd" clip-rule="evenodd" d="M38.3755 8.44876L38.2182 7.93943C38.1995 7.88076 38.1809 7.8061 38.1649 7.72343H38.1595C38.1462 7.8061 38.1249 7.88076 38.1062 7.93943L37.9569 8.44876H38.3755ZM39.0129 9.13167C38.9782 9.13967 38.8955 9.14501 38.8075 9.14501C38.7382 9.14501 38.6582 9.13701 38.6235 9.13167L38.4902 8.7661H37.85L37.7246 9.13167C37.6662 9.13967 37.5966 9.14501 37.5273 9.14501C37.458 9.14501 37.378 9.13967 37.338 9.13167L37.9675 7.32876C38.0049 7.32076 38.0929 7.31543 38.1515 7.31543C38.2235 7.31543 38.3089 7.32076 38.3382 7.32876L39.0129 9.13167Z" fill="#233881"/>
<path fill-rule="evenodd" clip-rule="evenodd" d="M39.7273 7.62743C39.6686 7.62743 39.5966 7.6301 39.5513 7.63276V8.1661H39.6846C39.9035 8.1661 39.9995 8.0861 39.9995 7.88876C39.9995 7.69143 39.9035 7.62743 39.7273 7.62743ZM40.4982 9.12901C40.4289 9.13967 40.3569 9.14501 40.2742 9.14501C40.1995 9.14501 40.1249 9.14234 40.0742 9.13167L39.7086 8.48343H39.5513V9.13167C39.4849 9.14234 39.4286 9.14501 39.3566 9.14501C39.2926 9.14501 39.2366 9.14234 39.17 9.13167V7.32876C39.2926 7.32076 39.5486 7.31543 39.7033 7.31543C40.1566 7.31543 40.3835 7.47543 40.3835 7.89143C40.3835 8.11276 40.2502 8.3341 40.0635 8.4141L40.4982 9.12901Z" fill="#233881"/>
<path fill-rule="evenodd" clip-rule="evenodd" d="M38.2007 10.1391H37.7232V11.6166C37.6725 11.6246 37.6007 11.63 37.5341 11.63C37.4672 11.63 37.3952 11.6246 37.3418 11.6166V10.1391H36.8645C36.8538 10.1044 36.8458 10.0217 36.8458 9.97639C36.8458 9.93105 36.8565 9.84839 36.8672 9.81372H38.2007C38.2114 9.84839 38.2194 9.93105 38.2194 9.97639C38.2194 10.0217 38.2114 10.1044 38.2007 10.1391Z" fill="#233881"/>
<path fill-rule="evenodd" clip-rule="evenodd" d="M39.5481 11.6166H38.4199V9.81372H39.5241C39.5348 9.84305 39.5428 9.89905 39.5428 9.97372C39.5428 10.0324 39.5375 10.0831 39.5241 10.1391H38.8015V10.5284H39.4121C39.4228 10.5577 39.4308 10.6111 39.4308 10.6857C39.4308 10.7444 39.4255 10.7924 39.4121 10.8484H38.8015V11.2911H39.5481C39.5588 11.3206 39.5668 11.3766 39.5668 11.4513C39.5668 11.51 39.5615 11.5606 39.5481 11.6166Z" fill="#233881"/>
<path fill-rule="evenodd" clip-rule="evenodd" d="M40.3474 11.6432C40.1525 11.6432 39.9391 11.6059 39.7871 11.5366C39.7791 11.4992 39.7738 11.4512 39.7738 11.4086C39.7738 11.3446 39.7818 11.2832 39.8005 11.211C39.9578 11.2752 40.1658 11.3152 40.3285 11.3152C40.518 11.3152 40.6194 11.227 40.6194 11.1072C40.6194 10.9737 40.534 10.9177 40.2751 10.8377C39.9871 10.7497 39.7765 10.611 39.7765 10.3017C39.7765 9.97099 40.0618 9.78699 40.438 9.78699C40.6111 9.78699 40.766 9.81365 40.87 9.84832C40.878 9.87765 40.8834 9.92565 40.8834 9.99499C40.8834 10.0457 40.878 10.123 40.8674 10.1657C40.734 10.131 40.5818 10.1123 40.4594 10.1123C40.2591 10.1123 40.1498 10.179 40.1498 10.2857C40.1498 10.411 40.2485 10.4617 40.4887 10.5363C40.7767 10.627 40.99 10.763 40.99 11.083C40.99 11.4323 40.7154 11.6432 40.3474 11.6432Z" fill="#233881"/>
<path fill-rule="evenodd" clip-rule="evenodd" d="M12.3452 8.3421C12.3852 8.4541 12.4252 8.57943 12.4441 8.6861H12.4494C12.4679 8.57943 12.5054 8.4541 12.5454 8.3421L12.7428 7.77143C12.7932 7.62476 12.8228 7.48343 12.8252 7.32876C12.8788 7.32076 12.9534 7.31543 13.0148 7.31543C13.0708 7.31543 13.1508 7.32076 13.1988 7.32876C13.1988 7.50719 13.1668 7.6781 13.0948 7.86743L12.6119 9.13167C12.5801 9.13967 12.5054 9.14501 12.4412 9.14501C12.3692 9.14501 12.3105 9.13967 12.2625 9.13167L11.7879 7.87276C11.7159 7.68343 11.6839 7.50719 11.6839 7.32876C11.7319 7.32076 11.7959 7.31543 11.8759 7.31543C11.9372 7.31543 12.0145 7.32076 12.0625 7.32876C12.0625 7.4941 12.0919 7.62476 12.1425 7.77143L12.3452 8.3421Z" fill="#233881"/>
<path fill-rule="evenodd" clip-rule="evenodd" d="M13.8476 9.13167C13.7933 9.13967 13.7275 9.14501 13.6417 9.14501C13.5644 9.14501 13.4929 9.13967 13.4385 9.13167V7.32876C13.4929 7.32076 13.573 7.31543 13.6445 7.31543C13.7246 7.31543 13.7961 7.32076 13.8476 7.32876V9.13167Z" fill="#233881"/>
<path fill-rule="evenodd" clip-rule="evenodd" d="M15.3959 7.65419H14.9186V9.13177C14.8679 9.13977 14.7959 9.1451 14.7292 9.1451C14.6626 9.1451 14.5906 9.13977 14.5372 9.13177V7.65419H14.0599C14.0492 7.61952 14.041 7.53686 14.041 7.49152C14.041 7.44619 14.0519 7.36352 14.0626 7.32886H15.3959C15.4066 7.36352 15.4146 7.44619 15.4146 7.49152C15.4146 7.53686 15.4066 7.61952 15.3959 7.65419Z" fill="#233881"/>
<path fill-rule="evenodd" clip-rule="evenodd" d="M12.5893 10.9336L12.432 10.4243C12.4133 10.3656 12.3944 10.291 12.3784 10.2083H12.3733C12.3598 10.291 12.3387 10.3656 12.3198 10.4243L12.1707 10.9336H12.5893ZM13.2267 11.6165C13.192 11.6245 13.1093 11.6299 13.0213 11.6299C12.952 11.6299 12.872 11.6219 12.8373 11.6165L12.704 11.251H12.0638L11.9384 11.6165C11.8798 11.6245 11.8104 11.6299 11.7411 11.6299C11.6718 11.6299 11.5918 11.6245 11.5518 11.6165L12.1813 9.81363C12.2184 9.80563 12.3067 9.80029 12.3651 9.80029C12.4373 9.80029 12.5227 9.80563 12.552 9.81363L13.2267 11.6165Z" fill="#233881"/>
<path fill-rule="evenodd" clip-rule="evenodd" d="M15.2613 11.6165C15.2293 11.6245 15.1573 11.6299 15.0827 11.6299C15.0027 11.6299 14.928 11.6219 14.896 11.6165L14.864 10.5336L14.4693 11.4459C14.44 11.4565 14.376 11.4619 14.336 11.4619C14.2878 11.4619 14.2293 11.4565 14.2 11.4485L13.8051 10.5336L13.7704 11.6165C13.7358 11.6245 13.6531 11.6299 13.5813 11.6299C13.5384 11.6299 13.4664 11.6245 13.4184 11.6165L13.4958 9.81363C13.5464 9.80829 13.5971 9.80029 13.6504 9.80029C13.7144 9.80029 13.7758 9.80563 13.8078 9.81363L14.336 11.0379L14.8667 9.81363C14.92 9.80563 14.9733 9.80029 15.0213 9.80029C15.0827 9.80029 15.1387 9.80563 15.1787 9.81363L15.2613 11.6165Z" fill="#233881"/>
<path fill-rule="evenodd" clip-rule="evenodd" d="M19.153 9.13177H18.0247V7.32886H19.129C19.1396 7.35819 19.1474 7.41419 19.1474 7.48886C19.1474 7.54752 19.1421 7.59819 19.129 7.65419H18.4061V8.04352H19.0167C19.0276 8.07286 19.0354 8.12619 19.0354 8.20086C19.0354 8.25952 19.0303 8.30752 19.0167 8.36352H18.4061V8.80619H19.153C19.1636 8.83577 19.1714 8.89177 19.1714 8.96643C19.1714 9.0251 19.1661 9.07577 19.153 9.13177Z" fill="#233881"/>
<path fill-rule="evenodd" clip-rule="evenodd" d="M19.5738 8.64367L19.9151 8.17943L19.6031 7.74476C19.5018 7.6061 19.4378 7.4781 19.4165 7.32876C19.4591 7.32076 19.5471 7.31543 19.6031 7.31543C19.6698 7.31543 19.7471 7.32076 19.7925 7.32876C19.8058 7.4461 19.8725 7.5421 19.9418 7.64343L20.1285 7.91543L20.3205 7.6461C20.3845 7.55543 20.4458 7.44076 20.4565 7.32876C20.5018 7.32343 20.5818 7.31543 20.6461 7.31543C20.7045 7.31543 20.7845 7.32076 20.8274 7.32876C20.8061 7.49943 20.7367 7.6301 20.6271 7.7821L20.3445 8.17143L20.6861 8.65143C20.8061 8.81676 20.8621 8.97967 20.8727 9.13167C20.8274 9.13967 20.7498 9.14501 20.6831 9.14501C20.6245 9.14501 20.5471 9.13967 20.4965 9.13167C20.4885 9.01434 20.4485 8.9021 20.3818 8.80076L20.1285 8.41943L19.8805 8.79301C19.8165 8.89167 19.7791 9.01434 19.7791 9.13167C19.7365 9.13967 19.6458 9.14501 19.5871 9.14501C19.5231 9.14501 19.4458 9.13701 19.4005 9.13167C19.4058 8.96901 19.4351 8.83276 19.5738 8.64367Z" fill="#233881"/>
<path fill-rule="evenodd" clip-rule="evenodd" d="M22.2223 7.70479C22.0943 7.66479 21.9343 7.63546 21.8063 7.63546C21.5021 7.63546 21.3047 7.85146 21.3047 8.23812C21.3047 8.59279 21.4596 8.82503 21.8036 8.82503C21.9316 8.82503 22.0756 8.79837 22.2036 8.75837C22.2223 8.80612 22.2356 8.88103 22.2356 8.93703C22.2356 8.98237 22.233 9.03837 22.2276 9.06237C22.0943 9.1237 21.9236 9.15837 21.7663 9.15837C21.1927 9.15837 20.9101 8.81146 20.9101 8.24612C20.9101 7.69679 21.2141 7.30212 21.7823 7.30212C21.921 7.30212 22.1023 7.33655 22.2303 7.39279C22.2383 7.41946 22.241 7.47812 22.241 7.51279C22.241 7.59546 22.2303 7.67279 22.2223 7.70479Z" fill="#233881"/>
<path fill-rule="evenodd" clip-rule="evenodd" d="M18.6288 10.115C18.3995 10.115 18.2688 10.291 18.2688 10.715C18.2688 11.1392 18.3995 11.3152 18.6288 11.3152C18.8582 11.3152 18.9888 11.1392 18.9888 10.715C18.9888 10.291 18.8582 10.115 18.6288 10.115ZM18.6288 11.6432C18.1355 11.6432 17.8742 11.3017 17.8742 10.715C17.8742 10.1283 18.1355 9.78699 18.6288 9.78699C19.1222 9.78699 19.3838 10.1283 19.3838 10.715C19.3838 11.3017 19.1222 11.6432 18.6288 11.6432Z" fill="#233881"/>
<path fill-rule="evenodd" clip-rule="evenodd" d="M20.7023 11.6165H19.5981V9.81363C19.6487 9.80563 19.7181 9.80029 19.7847 9.80029C19.8594 9.80029 19.9314 9.80563 19.9794 9.81363V11.291H20.7023C20.7127 11.3205 20.721 11.3765 20.721 11.4512C20.721 11.5099 20.7154 11.5605 20.7023 11.6165Z" fill="#233881"/>
<path fill-rule="evenodd" clip-rule="evenodd" d="M22.2182 10.931C22.2182 11.3899 22.0422 11.6432 21.5302 11.6432C21.0129 11.6432 20.8499 11.3899 20.8499 10.931V9.81363C20.9035 9.80563 20.9729 9.80029 21.0366 9.80029C21.1115 9.80029 21.1782 9.80563 21.2315 9.81363V10.9576C21.2315 11.2032 21.3009 11.3416 21.5329 11.3416C21.7649 11.3416 21.8449 11.2032 21.8449 10.9576V9.81363C21.8929 9.80563 21.9729 9.80029 22.0342 9.80029C22.0929 9.80029 22.1729 9.80563 22.2182 9.81363V10.931Z" fill="#233881"/>
</g>
<defs>
<clipPath id="clip0_8_588">
<rect width="180" height="59" fill="white"/>
</clipPath>
</defs>
</svg>
