<svg width="188" height="67" viewBox="0 0 188 67" fill="none" xmlns="http://www.w3.org/2000/svg">
<g clip-path="url(#clip0_8_3807)" filter="url(#filter0_d_8_3807)">
<path fill-rule="evenodd" clip-rule="evenodd" d="M50.7722 41.1608C46.3589 48.3916 38.6869 52.706 30.2197 52.706C21.7528 52.706 14.0803 48.3916 9.6677 41.1605L5.04395 45.4366C7.62625 49.2997 11.0803 52.5462 15.1094 54.8716C19.6837 57.5128 24.9096 58.9091 30.2197 58.9091C35.5295 58.9091 40.7542 57.5128 45.3305 54.8716C49.2432 52.6134 52.7324 49.056 55.2893 45.3382L50.7722 41.1608Z" fill="#233881"/>
<path fill-rule="evenodd" clip-rule="evenodd" d="M10.1858 1.54452H50.2544V0.022583H10.1858V1.54452Z" fill="#D5AB23"/>
<path fill-rule="evenodd" clip-rule="evenodd" d="M50.2544 16.058C50.178 20.5261 51.2282 38.2585 30.2202 50.6648C9.21173 38.2585 10.2619 20.5261 10.1858 16.058V1.54456H50.2544V16.058Z" fill="#233881"/>
<path fill-rule="evenodd" clip-rule="evenodd" d="M12.834 31.6315C15.377 37.8708 20.3775 44.8521 30.2202 50.6647C40.0631 44.8521 45.0636 37.8708 47.6061 31.6315L30.2197 15.553L12.834 31.6315Z" fill="#D5AB23"/>
<path fill-rule="evenodd" clip-rule="evenodd" d="M26.9555 5.5072V13.2333C24.8813 12.4718 22.3803 13.0783 21.0532 14.0556C21.0532 11.5043 21.0532 8.95205 21.0532 6.40126C22.2188 5.26574 24.9664 4.75859 26.9555 5.5072Z" fill="#FFFFFE"/>
<path fill-rule="evenodd" clip-rule="evenodd" d="M14.5798 5.52728V13.2533C16.6526 12.4921 19.1541 13.0987 20.4817 14.0759C20.4817 11.5244 20.4817 8.97213 20.4817 6.42158C19.3166 5.28607 16.5689 4.77867 14.5798 5.52728Z" fill="#FFFFFE"/>
<path fill-rule="evenodd" clip-rule="evenodd" d="M28.734 11.6553L28.717 11.6526C28.4203 11.6209 28.1941 11.6039 28.0399 11.5949V9.07495C28.1904 9.08392 28.4103 9.1004 28.7 9.13143L28.734 9.1324C29.3264 9.15907 29.4079 8.85701 29.4079 8.85701C29.2733 8.54452 28.9747 8.40343 28.734 8.38379L28.717 8.38186C28.4203 8.34985 28.1941 8.33264 28.0399 8.32343V6.19495H27.5158V13.9632C24.6612 13.354 22.5034 13.6679 20.7662 14.9423C19.03 13.6679 16.8724 13.3545 14.0176 13.9632V6.19495H13.4935V8.32343C13.3834 8.32998 13.238 8.34016 13.0537 8.35713V8.2781C13.0537 8.21895 13.0055 8.1707 12.9366 8.17119L12.2246 8.24804C12.1674 8.25192 12.1228 8.29798 12.1228 8.3564V9.26719C12.1228 9.32658 12.1715 9.37458 12.245 9.37264L12.9543 9.30331C13.0091 9.29773 13.0537 9.25046 13.0537 9.1947V9.10816C13.238 9.0907 13.3837 9.08052 13.4935 9.07422V11.5949C13.3834 11.6015 13.238 11.6117 13.0537 11.6291V11.5484C13.0537 11.4892 13.0055 11.4422 12.9366 11.4422L12.2246 11.5193C12.1674 11.5222 12.1228 11.5692 12.1228 11.6284V12.5375C12.1228 12.5969 12.1715 12.6454 12.245 12.6439L12.9543 12.5722C13.0091 12.5685 13.0537 12.522 13.0537 12.4652V12.3789C13.238 12.3617 13.3837 12.3516 13.4935 12.3452V14.6202L13.8154 14.5455C16.7543 13.8604 18.9121 14.1564 20.6047 15.4766L20.7662 15.6042L20.9286 15.4766C22.6207 14.1564 24.779 13.8606 27.7184 14.5455L28.0399 14.6202V12.346C28.1904 12.3547 28.4103 12.3712 28.7 12.4022L28.734 12.4037C29.3264 12.4303 29.4079 12.128 29.4079 12.128C29.2733 11.8158 28.9747 11.6747 28.734 11.6553Z" fill="#FFFFFE"/>
<path fill-rule="evenodd" clip-rule="evenodd" d="M13.9137 51.2815C13.6335 51.6442 13.161 51.7024 12.6573 51.313C12.3865 51.1041 12.2151 50.8796 12.1108 50.6934L12.3799 50.345C12.4001 50.3191 12.4313 50.3203 12.4636 50.3499L12.6274 50.4949C12.6388 50.5036 12.649 50.5205 12.6364 50.5429L12.522 50.7029C12.6325 50.8391 12.7547 50.961 12.8468 51.0321C13.1089 51.2345 13.3821 51.3031 13.5668 51.0641C13.7647 50.8078 13.707 50.6805 13.3857 50.1795C13.1569 49.8095 13.0619 49.4742 13.3087 49.1547C13.5867 48.795 14.0449 48.7671 14.5314 49.1431C14.7099 49.2808 14.8665 49.4294 14.9964 49.5942L14.705 49.9715C14.6851 49.9974 14.6539 49.9962 14.6214 49.9666L14.4577 49.8216C14.4461 49.8127 14.4362 49.7957 14.449 49.7736L14.5632 49.6136C14.4922 49.5448 14.419 49.4791 14.347 49.4236C14.0793 49.2168 13.8081 49.2047 13.6546 49.4035C13.4946 49.6107 13.5576 49.779 13.843 50.2248C14.1433 50.6866 14.1363 50.9938 13.9137 51.2815Z" fill="#FFFFFE"/>
<path fill-rule="evenodd" clip-rule="evenodd" d="M16.7045 53.3973C16.7203 53.4063 16.7241 53.4216 16.7152 53.4371L16.4897 53.8194L14.9699 52.9239C14.945 52.9091 14.9435 52.8829 14.9649 52.8533L15.0667 52.7023C15.0723 52.6931 15.0861 52.6841 15.1067 52.6921L15.2012 52.7394L16.3532 50.784L16.2599 50.7205C16.2378 50.7076 16.2412 50.68 16.2611 50.6538L16.3629 50.5025C16.3721 50.487 16.3869 50.4829 16.4027 50.4923L17.8691 51.3563L17.6439 51.7386C17.6291 51.7639 17.6029 51.7651 17.5736 51.7437L17.4221 51.6419C17.4129 51.6363 17.4041 51.6228 17.4121 51.6022L17.4594 51.5074L16.679 51.0477L16.2415 51.7903L17.1253 52.311L16.9552 52.5993L16.0715 52.0785L15.5898 52.8965L16.4233 53.3876L16.4868 53.2943C16.4999 53.2722 16.527 53.2756 16.5535 53.2955L16.7045 53.3973Z" fill="#FFFFFE"/>
<path fill-rule="evenodd" clip-rule="evenodd" d="M19.8868 54.8842C19.9035 54.8915 19.9093 54.9058 19.9023 54.9225L19.7263 55.33L18.1062 54.6313C18.0795 54.6197 18.0749 54.5938 18.0926 54.562L18.1745 54.3993C18.1789 54.3894 18.1915 54.3787 18.2128 54.3841L18.3125 54.4192L19.2116 52.3349L19.111 52.2835C19.0875 52.2733 19.0875 52.2456 19.104 52.217L19.1859 52.0541C19.1932 52.0376 19.2075 52.0318 19.2242 52.0391L20.7876 52.7133L20.6116 53.1208C20.6002 53.1477 20.5743 53.1523 20.5425 53.1346L20.3799 53.0527C20.3697 53.0481 20.3592 53.0357 20.3646 53.0141L20.3995 52.9145L19.568 52.5557L19.2264 53.3475L20.1682 53.7538L20.0359 54.0612L19.0938 53.6546L18.7178 54.5266L19.6063 54.9099L19.6579 54.8093C19.6679 54.7858 19.6955 54.7858 19.7241 54.8022L19.8868 54.8842Z" fill="#FFFFFE"/>
<path fill-rule="evenodd" clip-rule="evenodd" d="M24.1987 53.7852C24.2266 53.793 24.2346 53.8179 24.2215 53.8519L24.1617 54.024C24.1585 54.0344 24.1476 54.0465 24.1258 54.0441L24.0225 54.0225L22.8836 54.6994L23.383 56.1997L23.486 56.2364C23.5107 56.2434 23.5141 56.2708 23.5018 56.3011L23.4421 56.4732C23.437 56.4909 23.4237 56.4984 23.4063 56.4933L23.0317 56.3881L22.5389 54.9045L22.2218 55.0911L22.0179 55.8155L22.1243 55.8531C22.1488 55.8601 22.1527 55.8875 22.1403 55.918L22.0804 56.0902C22.0754 56.1076 22.062 56.1151 22.0446 56.1103L21.446 55.9418C21.4181 55.934 21.4099 55.9088 21.4232 55.8749L21.4829 55.7028C21.486 55.6924 21.4969 55.6802 21.519 55.6829L21.6223 55.7045L22.237 53.5202L22.1306 53.4824C22.1059 53.4756 22.1023 53.4482 22.1149 53.4177L22.1747 53.2456C22.1796 53.2281 22.1929 53.2206 22.2104 53.2254L22.8089 53.3939C22.8368 53.4017 22.845 53.4267 22.8317 53.4608L22.7721 53.633C22.7689 53.6434 22.758 53.6553 22.7362 53.6531L22.6327 53.6315L22.3578 54.608L23.5495 53.8894L23.4431 53.8519C23.4189 53.8451 23.415 53.8177 23.4276 53.7871L23.4872 53.615C23.4921 53.5976 23.5057 53.59 23.5231 53.5949L24.1987 53.7852Z" fill="#FFFFFE"/>
<path fill-rule="evenodd" clip-rule="evenodd" d="M30.6061 54.5271C30.6354 54.5286 30.6485 54.5511 30.6432 54.5875L30.6226 54.7683C30.6221 54.7795 30.6143 54.7935 30.592 54.796L30.49 54.7979L29.7501 57.1819C29.7241 57.2607 29.6563 57.3046 29.5765 57.3004L29.2934 57.2747C29.2536 57.2726 29.2405 57.2464 29.2315 57.2059L28.8485 55.0546L28.8444 55.0544L28.2519 57.06C28.2298 57.1317 28.1772 57.2309 28.0502 57.2207L27.7782 57.1955C27.7457 57.194 27.7249 57.1746 27.7166 57.1269L27.2492 54.6289L27.1409 54.6158C27.1152 54.6144 27.1057 54.5884 27.1111 54.556L27.1314 54.3751C27.1321 54.3567 27.1438 54.3465 27.1622 54.3475L27.7615 54.3787C27.7906 54.3802 27.8039 54.4028 27.7986 54.4389L27.7782 54.62C27.7775 54.6309 27.7692 54.6449 27.7474 54.6476L27.6454 54.6495L28 56.7918L28.0034 56.7921L28.6393 54.5921C28.6749 54.4665 28.7389 54.426 28.826 54.4343L29.0325 54.4561C29.0686 54.4617 29.0822 54.4806 29.0907 54.5281L29.4968 56.8699L29.5001 56.8701L30.0977 54.7775L29.9894 54.7647C29.9637 54.7632 29.954 54.7371 29.9593 54.7046L29.9797 54.5235C29.9806 54.5053 29.9923 54.4951 30.0104 54.4961L30.6061 54.5271Z" fill="#FFFFFE"/>
<path fill-rule="evenodd" clip-rule="evenodd" d="M32.8856 56.8999C32.9109 56.8979 32.9239 56.9222 32.923 56.9551L32.9276 57.1375C32.929 57.1554 32.9191 57.1673 32.9009 57.169L32.2813 57.2208C32.2522 57.2233 32.2362 57.2029 32.2364 57.1663L32.2321 56.9842C32.2313 56.9733 32.2372 56.9581 32.2585 56.9527L32.363 56.9367L32.1729 54.6756L32.0597 54.6778C32.0343 54.68 32.0216 54.6555 32.0224 54.6228L32.018 54.4405C32.0163 54.4223 32.0263 54.4107 32.0444 54.4092L32.6641 54.3568C32.6932 54.3547 32.7094 54.375 32.7087 54.4114L32.7133 54.5937C32.714 54.6044 32.7082 54.6196 32.6866 54.625L32.5821 54.6412L32.7724 56.9021L32.8856 56.8999Z" fill="#FFFFFE"/>
<path fill-rule="evenodd" clip-rule="evenodd" d="M36.3171 55.8526C36.4039 56.3023 36.1351 56.6948 35.5101 56.8153C35.1743 56.8798 34.8931 56.8599 34.6844 56.815L34.6012 56.3828C34.5952 56.3508 34.6165 56.3283 34.6602 56.3234L34.8771 56.2965C34.8914 56.2938 34.9106 56.2975 34.9188 56.3217L34.9634 56.5132C35.1385 56.5203 35.3106 56.5094 35.4248 56.4873C35.7499 56.4247 35.9819 56.2652 35.9246 55.9687C35.8636 55.6512 35.7297 55.6102 35.1421 55.5198C34.7135 55.4468 34.3993 55.2963 34.3229 54.8999C34.2371 54.4536 34.5193 54.0919 35.1227 53.9758C35.344 53.9331 35.5588 53.914 35.7683 53.9256L35.8585 54.3932C35.8645 54.4252 35.8429 54.448 35.7993 54.4526L35.5826 54.4798C35.5683 54.4824 35.5489 54.4788 35.5404 54.4543L35.4963 54.263C35.3979 54.2708 35.3002 54.2822 35.2107 54.2994C34.8788 54.3634 34.6907 54.5588 34.738 54.8051C34.7877 55.0623 34.9552 55.1263 35.4783 55.207C36.0233 55.287 36.2483 55.4955 36.3171 55.8526Z" fill="#FFFFFE"/>
<path fill-rule="evenodd" clip-rule="evenodd" d="M38.9892 55.5613C39.7199 55.3157 39.7199 54.7557 39.5356 54.2076C39.3318 53.601 39.0518 53.2463 38.2585 53.5125L37.9589 53.6134L38.6515 55.6747L38.9892 55.5613ZM38.1601 53.2083C39.2287 52.8493 39.6806 53.2689 39.9516 54.0757C40.2884 55.0786 39.9242 55.5925 38.997 55.9038L38.2663 56.1494C38.2387 56.1588 38.2178 56.1426 38.2098 56.1072L38.1623 55.9312C38.1587 55.9208 38.1608 55.9048 38.1805 55.8943L38.2782 55.8539L37.5555 53.7031L37.4462 53.7319C37.4222 53.7399 37.4038 53.7196 37.3967 53.6873L37.3492 53.5113C37.3434 53.4941 37.3502 53.4803 37.3674 53.4745L38.1601 53.2083Z" fill="#FFFFFE"/>
<path fill-rule="evenodd" clip-rule="evenodd" d="M41.7116 53.3202C41.9249 53.7457 42.3 54.2492 42.833 53.9816C43.2747 53.7598 43.2772 53.2866 42.9753 52.6856C42.7569 52.2499 42.3802 51.768 41.857 52.0305C41.3244 52.2982 41.4995 52.8977 41.7116 53.3202ZM43.362 52.4996C43.7943 53.3605 43.6229 53.9673 42.986 54.287C42.356 54.6034 41.7538 54.3687 41.3281 53.5207C41.0212 52.9098 40.916 52.1249 41.7087 51.7268C42.388 51.3859 42.9802 51.7394 43.362 52.4996Z" fill="#FFFFFE"/>
<mask id="mask0_8_3807" style="mask-type:luminance" maskUnits="userSpaceOnUse" x="4" y="34" width="44" height="19">
<path fill-rule="evenodd" clip-rule="evenodd" d="M4.28735 52.851V34.9441H47.9033V52.851H4.28735Z" fill="white"/>
</mask>
<g mask="url(#mask0_8_3807)">
<path fill-rule="evenodd" clip-rule="evenodd" d="M47.74 50.9643C47.7608 50.9495 47.7843 50.964 47.8006 50.9926L47.8968 51.1473C47.9075 51.1621 47.9048 51.1773 47.8898 51.188L47.3919 51.5417C47.3683 51.5584 47.3436 51.549 47.3257 51.5172L47.2292 51.3628C47.2226 51.3538 47.2205 51.3378 47.2362 51.3223L47.315 51.2573L46.2757 49.8634L46.6525 51.612C46.666 51.669 46.666 51.7315 46.6217 51.763C46.5889 51.7863 46.5385 51.8219 46.5068 51.8401C46.4721 51.8605 46.4481 51.8641 46.4173 51.8459L44.8318 50.8889L45.7999 52.3332L45.8961 52.2741C45.9169 52.2593 45.9405 52.2736 45.9562 52.3024L46.0529 52.4571C46.0634 52.4719 46.0607 52.4869 46.0462 52.4976L45.5599 52.8428C45.5361 52.8595 45.5114 52.8503 45.4934 52.8186L45.3969 52.6641C45.3906 52.6552 45.3885 52.6389 45.4042 52.6236L45.4854 52.5565L44.2372 50.6602L44.1438 50.7175C44.1232 50.7323 44.0995 50.7177 44.0835 50.6891L43.987 50.5344C43.9766 50.5196 43.9792 50.5044 43.994 50.4937L44.3497 50.2411C44.3647 50.2307 44.3797 50.2333 44.394 50.2409L46.2595 51.3601L45.7982 49.2661C45.7911 49.2309 45.7996 49.2115 45.826 49.1926L46.1967 48.9293C46.2205 48.9126 46.2449 48.9218 46.2629 48.9538L46.3594 49.1082C46.3657 49.1172 46.3683 49.1332 46.3528 49.149L46.2709 49.2159L47.6469 51.0217L47.74 50.9643Z" fill="#FFFFFE"/>
</g>
<mask id="mask1_8_3807" style="mask-type:luminance" maskUnits="userSpaceOnUse" x="4" y="34" width="44" height="19">
<path fill-rule="evenodd" clip-rule="evenodd" d="M4.28735 52.851V34.9441H47.9033V52.851H4.28735Z" fill="white"/>
</mask>
<g mask="url(#mask1_8_3807)">
<path fill-rule="evenodd" clip-rule="evenodd" d="M6.1818 43.3429L9.12774 40.6212L9.79634 39.9921L10.1694 40.6093C10.8121 41.6748 11.5285 42.6743 12.3064 43.6062L13.3059 42.6971C11.9508 41.0622 10.8446 39.2253 10.0337 37.234C9.72774 36.4835 9.46834 35.7189 9.2538 34.9441L7.65113 39.0592L4.27271 39.5322C4.27804 39.5465 4.28313 39.5606 4.28846 39.5739L6.1818 43.3429Z" fill="#233881"/>
</g>
<path fill-rule="evenodd" clip-rule="evenodd" d="M45.885 5.5072V13.2333C43.8108 12.4718 41.3097 13.0783 39.9827 14.0556C39.9827 11.5043 39.9827 8.95205 39.9827 6.40126C41.1482 5.26574 43.8959 4.75859 45.885 5.5072Z" fill="#FFFFFE"/>
<path fill-rule="evenodd" clip-rule="evenodd" d="M33.5093 5.52728V13.2533C35.582 12.4921 38.0836 13.0987 39.4111 14.0759C39.4111 11.5244 39.4111 8.97213 39.4111 6.42158C38.246 5.28607 35.4984 4.77867 33.5093 5.52728Z" fill="#FFFFFE"/>
<path fill-rule="evenodd" clip-rule="evenodd" d="M47.6634 11.6553L47.6464 11.6526C47.3497 11.6209 47.1235 11.6039 46.9693 11.5949V9.07495C47.1199 9.08392 47.3398 9.1004 47.6295 9.13143L47.6634 9.1324C48.2559 9.15907 48.3373 8.85701 48.3373 8.85701C48.2028 8.54452 47.9041 8.40343 47.6634 8.38379L47.6464 8.38186C47.3497 8.34985 47.1235 8.33264 46.9693 8.32343V6.19495H46.4452V13.9632C43.5907 13.354 41.4329 13.6679 39.6956 14.9423C37.9594 13.6679 35.8018 13.3545 32.947 13.9632V6.19495H32.4229V8.32343C32.3129 8.32998 32.1674 8.34016 31.9832 8.35713V8.2781C31.9832 8.21895 31.9347 8.1707 31.8661 8.17119L31.1541 8.24804C31.0966 8.25192 31.0522 8.29798 31.0522 8.3564V9.26719C31.0522 9.32658 31.101 9.37458 31.1744 9.37264L31.8838 9.30331C31.9385 9.29773 31.9832 9.25046 31.9832 9.1947V9.10816C32.1674 9.0907 32.3131 9.08052 32.4229 9.07422V11.5949C32.3129 11.6015 32.1674 11.6117 31.9832 11.6291V11.5484C31.9832 11.4892 31.9347 11.4422 31.8661 11.4422L31.1541 11.5193C31.0966 11.5222 31.0522 11.5692 31.0522 11.6284V12.5375C31.0522 12.5969 31.101 12.6454 31.1744 12.6439L31.8838 12.5722C31.9385 12.5685 31.9832 12.522 31.9832 12.4652V12.3789C32.1674 12.3617 32.3131 12.3516 32.4229 12.3452V14.6202L32.7449 14.5455C35.6838 13.8604 37.8416 14.1564 39.5342 15.4766L39.6956 15.6042L39.8581 15.4766C41.5504 14.1564 43.7085 13.8606 46.6479 14.5455L46.9693 14.6202V12.346C47.1199 12.3547 47.3398 12.3712 47.6295 12.4022L47.6634 12.4037C48.2559 12.4303 48.3373 12.128 48.3373 12.128C48.2028 11.8158 47.9041 11.6747 47.6634 11.6553Z" fill="#FFFFFE"/>
<path fill-rule="evenodd" clip-rule="evenodd" d="M54.2328 43.3429L51.2868 40.6212L50.6182 39.9921L50.2451 40.6093C49.6025 41.6748 48.8861 42.6743 48.1082 43.6062L47.1086 42.6971C48.4638 41.0622 49.57 39.2253 50.3809 37.234C50.6868 36.4835 50.9462 35.7189 51.1608 34.9441L52.7634 39.0592L56.1419 39.5322C56.1365 39.5465 56.1314 39.5606 56.1263 39.5739L54.2328 43.3429Z" fill="#233881"/>
<path fill-rule="evenodd" clip-rule="evenodd" d="M31.239 37.8039C32.4218 38.3954 33.4361 38.6881 34.0492 38.6488C34.0676 38.6478 34.1127 38.6468 34.1316 38.6459C34.3413 38.6306 34.6116 38.5724 34.8133 38.4507C34.9971 38.3404 35.1193 38.2231 35.224 38.0716C35.3452 37.8934 35.3978 37.7424 35.4077 37.554C35.3309 37.5833 35.2548 37.6066 35.1837 37.6245C35.1648 37.6291 35.1183 37.6384 35.0994 37.6425C34.4123 37.7499 33.5525 37.6568 32.366 37.3353C32.1723 37.553 31.7728 37.6742 31.3481 37.5729C31.3125 37.6524 31.2766 37.7278 31.239 37.8039Z" fill="#FFFFFE"/>
<path fill-rule="evenodd" clip-rule="evenodd" d="M32.9201 31.3126C32.8893 31.3872 32.8561 31.4588 32.8149 31.5322C32.6384 31.8382 32.396 32.0658 32.1516 32.186C32.1545 32.2643 32.1555 32.3424 32.1565 32.4214C32.6653 32.1999 33.1819 31.9451 33.6961 31.6687C35.6042 30.6459 36.9504 29.5089 37.3681 28.7C37.3785 28.6806 37.404 28.6345 37.4134 28.6146C37.5271 28.3965 37.6294 28.0895 37.6294 27.8142C37.6294 27.3463 37.4304 26.9385 37.1312 26.7203C36.7368 27.6369 36.0144 28.6748 35.0248 29.6462C34.3533 30.3063 33.634 30.8694 32.9201 31.3126Z" fill="#FFFFFE"/>
<path fill-rule="evenodd" clip-rule="evenodd" d="M32.6624 36.1292C32.4949 36.313 32.2042 36.4819 31.8629 36.5122C31.7936 36.5178 31.7317 36.5217 31.6653 36.5197C31.6454 36.5893 31.6241 36.6572 31.6013 36.7253C33.317 37.2044 34.7502 37.3076 35.4835 37.0725C35.5014 37.0676 35.548 37.0543 35.5659 37.0487C35.7771 36.9811 36.0379 36.8511 36.2137 36.6766C36.3727 36.5161 36.4685 36.3661 36.5366 36.1828C36.6146 35.9721 36.5892 35.792 36.5892 35.792C36.5172 35.8422 36.1596 35.9578 36.1596 35.9578C35.4874 36.2027 34.3385 36.2528 32.6624 36.1292Z" fill="#FFFFFE"/>
<path fill-rule="evenodd" clip-rule="evenodd" d="M37.5024 31.6794C36.8694 32.3756 35.2377 33.1487 33.076 33.6687C32.9375 33.8898 32.6811 34.0942 32.3538 34.2132C32.2595 34.2481 32.1649 34.2728 32.0731 34.2893C32.0646 34.3628 32.0556 34.4314 32.0469 34.5038C32.2173 34.498 32.3875 34.49 32.5589 34.4806C34.7213 34.3594 36.4214 33.8973 37.1417 33.3409C37.1596 33.3281 37.2028 33.2968 37.2192 33.2847C37.4134 33.1337 37.6379 32.8988 37.7543 32.6491C37.86 32.4224 37.9017 32.2287 37.9036 32.0125C37.9048 31.7623 37.8566 31.5795 37.7438 31.3921C37.6876 31.4706 37.6294 31.5436 37.5725 31.6057C37.5574 31.6231 37.5186 31.6619 37.5024 31.6794Z" fill="#FFFFFE"/>
<path fill-rule="evenodd" clip-rule="evenodd" d="M33.7537 39.2078C33.0721 39.1923 32.0919 38.8834 30.947 38.3125C30.8936 38.4015 30.841 38.4868 30.785 38.57C31.6662 39.0298 32.4597 39.3433 33.1084 39.4953C33.0771 39.5302 33.0442 39.5649 33.0051 39.6007C32.8689 39.7258 32.7234 39.8114 32.5203 39.8788C32.2965 39.9518 32.019 39.9484 31.8117 39.9132C31.7928 39.911 31.7487 39.9018 31.7307 39.8982C31.3467 39.8357 30.8371 39.6075 30.2558 39.2344C30.1874 39.3035 30.1188 39.3683 30.0493 39.4298C30.6553 39.8323 31.1971 40.0984 31.6241 40.2063C31.5133 40.2936 31.4015 40.3474 31.243 40.391C31.0551 40.4407 30.8282 40.4257 30.6577 40.3891C30.6425 40.3862 30.6076 40.3763 30.5923 40.3736C30.2975 40.3086 29.9167 40.1183 29.4868 39.8192C29.3901 39.8684 29.2917 39.9096 29.1942 39.945C29.0095 40 28.7496 40.0517 28.5584 40.0517C27.9867 40.0517 27.4442 39.7915 26.9608 39.3244C26.9414 39.3062 26.7998 39.4517 26.8192 39.4701C27.2987 39.9947 27.9256 40.2907 28.5465 40.2907C28.7477 40.2907 29.2364 40.2201 29.4177 40.1074C29.929 40.4621 30.3457 40.6306 30.6856 40.687C30.7021 40.6897 30.7421 40.698 30.7586 40.7001C30.947 40.73 31.1979 40.7338 31.4015 40.6677C31.5848 40.608 31.7169 40.5297 31.8405 40.4163C31.8907 40.3697 31.9414 40.32 31.9768 40.2727C32.1928 40.2967 32.4522 40.2907 32.6672 40.2216C32.8912 40.1486 33.0512 40.0526 33.2008 39.9152C33.3254 39.801 33.4432 39.6955 33.5014 39.57C33.8371 39.5838 34.1014 39.5278 34.1014 39.5278C34.2277 39.5074 34.3722 39.4645 34.4929 39.3569C34.5792 39.2788 34.6374 39.2078 34.6747 39.1135C34.4083 39.1918 34.1179 39.2187 33.8798 39.2148C33.8529 39.2131 33.7828 39.2097 33.7537 39.2078Z" fill="#FFFFFE"/>
<path fill-rule="evenodd" clip-rule="evenodd" d="M34.8446 31.5695C34.2987 31.9038 33.7425 32.1904 33.1913 32.4243C33.1292 32.5317 33.0511 32.6396 32.9602 32.7404C32.7149 33.0127 32.4204 33.1894 32.1476 33.2505C32.1445 33.3271 32.1396 33.4049 32.1365 33.481C32.4526 33.4095 32.7741 33.3281 33.0953 33.2415C35.1842 32.6733 36.7515 31.868 37.3404 31.1729C37.3547 31.1572 37.3905 31.1179 37.4039 31.1009C37.5634 30.9133 37.7328 30.6379 37.7954 30.3693C37.9006 29.9133 37.8182 29.5494 37.5767 29.2701C36.9862 30.0733 36.0259 30.8442 34.8446 31.5695Z" fill="#FFFFFE"/>
<path fill-rule="evenodd" clip-rule="evenodd" d="M37.3367 33.6737C37.3185 33.6885 37.2662 33.7263 37.2485 33.7399C36.5578 34.2737 35.0175 34.7035 33.0255 34.8744L33.0238 34.8754C32.8907 35.0046 32.7217 35.1561 32.5285 35.2465C32.3195 35.3437 32.1062 35.4019 31.9081 35.417C31.8941 35.4943 31.8778 35.5391 31.8623 35.6155C31.8754 35.617 31.8858 35.6174 31.9001 35.6196C34.0512 35.8749 35.8058 35.7163 36.6112 35.2926C36.6313 35.2826 36.679 35.2603 36.6975 35.2514C36.9161 35.1343 37.1767 34.9435 37.3348 34.7178C37.4778 34.5127 37.553 34.3294 37.5927 34.1173C37.6359 33.8708 37.6235 33.702 37.5455 33.4972C37.4764 33.5648 37.4039 33.622 37.3367 33.6737Z" fill="#FFFFFE"/>
<path fill-rule="evenodd" clip-rule="evenodd" d="M32.9702 29.5916C32.9712 29.8471 32.8902 30.1431 32.7293 30.4214C32.554 30.7235 32.3179 30.9526 32.0754 31.073C32.0834 31.154 32.0914 31.234 32.0985 31.3162C32.955 30.8476 33.84 30.1955 34.6512 29.3989C35.6209 28.4452 36.3273 27.4362 36.7135 26.5383C36.8202 26.2922 36.8728 25.994 36.8514 25.674C36.8063 25.0236 36.4665 24.4835 36.0333 24.3041C36.0417 24.4277 36.0359 24.5577 36.0185 24.6905C35.9234 25.5957 35.0839 27.1504 33.6776 28.7974C33.4456 29.0687 33.2102 29.3358 32.9702 29.5916Z" fill="#FFFFFE"/>
<path fill-rule="evenodd" clip-rule="evenodd" d="M33.316 28.5711C34.7031 26.9067 35.5232 25.3423 35.6076 24.4356C35.6767 23.8669 35.5322 23.3399 35.2127 23.1539C35.187 23.9634 34.0886 25.9355 32.3472 28.1423C32.5104 28.449 32.4357 28.9648 32.171 29.4165C32.0825 29.569 32.0299 29.6218 31.8728 29.7789C31.8932 29.8778 31.9116 29.9828 31.9295 30.0836C32.3996 29.6259 32.867 29.1105 33.316 28.5711Z" fill="#FFFFFE"/>
<path fill-rule="evenodd" clip-rule="evenodd" d="M22.3387 29.5162C22.296 29.4994 22.2534 29.4844 22.2102 29.4725C22.2286 29.6653 22.2296 29.874 22.2286 30.0905C22.2245 30.624 22.1549 31.1312 22.0454 31.5482C22.0175 31.6599 22.0667 31.7676 22.1624 31.8064C22.1927 31.8187 22.2269 31.8224 22.2584 31.8182L22.2604 31.8124C22.4308 31.4228 22.6512 30.9942 22.9161 30.5574C22.9651 30.4759 23.0134 30.3964 23.0621 30.3181C22.9731 29.9753 22.714 29.6687 22.3387 29.5162Z" fill="#1A1919"/>
<path fill-rule="evenodd" clip-rule="evenodd" d="M37.2193 33.2846C37.2028 33.2967 37.1596 33.328 37.1417 33.3408C36.4214 33.8972 34.7213 34.3593 32.5589 34.4805C32.3875 34.4899 32.2173 34.4979 32.0469 34.5037C32.0556 34.4313 32.0646 34.3626 32.0731 34.2892C32.165 34.2727 32.2595 34.248 32.3538 34.2131C32.6811 34.094 32.9376 33.8897 33.076 33.6686C35.2377 33.1486 36.8694 32.3755 37.5024 31.6793C37.5187 31.6618 37.5574 31.623 37.5725 31.6056C37.6294 31.5435 37.6876 31.4705 37.7439 31.392C37.8566 31.5794 37.9048 31.7622 37.9036 32.0123C37.9017 32.2286 37.86 32.4223 37.7543 32.649C37.6379 32.8986 37.4134 33.1336 37.2193 33.2846ZM37.4134 28.6145C37.404 28.6344 37.3785 28.6805 37.3681 28.6999C36.9504 29.5088 35.6042 30.6458 33.6961 31.6686C33.1819 31.9449 32.6653 32.1997 32.1565 32.4213C32.1555 32.3423 32.1545 32.2642 32.1516 32.1859C32.396 32.0657 32.6384 31.838 32.8149 31.5321C32.8561 31.4586 32.8893 31.3871 32.9201 31.3125C33.6341 30.8693 34.3533 30.3062 35.0248 29.646C36.0144 28.6746 36.7368 27.6368 37.1313 26.7202C37.4304 26.9384 37.6294 27.3462 37.6294 27.814C37.6294 28.0894 37.5271 28.3963 37.4134 28.6145ZM37.7955 30.3692C37.733 30.6378 37.5635 30.9132 37.404 31.1008C37.3907 31.1178 37.3548 31.1571 37.3405 31.1728C36.7516 31.8679 35.1844 32.6732 33.0954 33.2414C32.7742 33.328 32.4527 33.4094 32.1366 33.4809C32.1397 33.4048 32.1446 33.327 32.1477 33.2504C32.4205 33.1893 32.715 33.0126 32.9604 32.7403C33.0513 32.6395 33.1293 32.5316 33.1914 32.4242C33.7427 32.1903 34.2988 31.9037 34.8447 31.5694C36.0261 30.8441 36.9863 30.0732 37.5768 29.27C37.8183 29.5493 37.9007 29.9132 37.7955 30.3692ZM36.0333 24.304C36.4665 24.4834 36.8064 25.0235 36.8515 25.6739C36.8728 25.9939 36.8202 26.2921 36.7136 26.5382C36.3274 27.4361 35.621 28.4451 34.6513 29.3988C33.8401 30.1954 32.955 30.8475 32.0985 31.3161C32.0915 31.2339 32.0835 31.1539 32.0755 31.0729C32.3179 30.9525 32.5541 30.7234 32.7293 30.4213C32.8903 30.143 32.9713 29.847 32.9703 29.5915C33.2103 29.3357 33.4457 29.0686 33.6777 28.7973C35.084 27.1503 35.9235 25.5956 36.0185 24.6904C36.036 24.5576 36.0418 24.4276 36.0333 24.304ZM35.6076 24.4356C35.5233 25.3423 34.7031 26.9066 33.316 28.5711C32.867 29.1105 32.3996 29.6259 31.9296 30.0836C31.9116 29.9828 31.8932 29.8778 31.8728 29.7789C32.0299 29.6218 32.0825 29.5689 32.171 29.4165C32.4357 28.9648 32.5104 28.4489 32.3473 28.1423C34.0886 25.9355 35.187 23.9634 35.2127 23.1539C35.5322 23.3399 35.6767 23.8669 35.6076 24.4356ZM34.1317 38.6458C34.1128 38.6468 34.0677 38.6477 34.0493 38.6487C33.4362 38.688 32.4219 38.3954 31.2391 37.8039C31.2767 37.7277 31.3126 37.6523 31.3482 37.5728C31.773 37.6742 32.1725 37.5529 32.3662 37.3353C33.5526 37.6567 34.4125 37.7498 35.0995 37.6424C35.1184 37.6383 35.165 37.6291 35.1839 37.6245C35.2549 37.6065 35.331 37.5833 35.4079 37.5539C35.3979 37.7423 35.3453 37.8933 35.2241 38.0715C35.1194 38.223 34.9972 38.3403 34.8134 38.4506C34.6117 38.5723 34.3414 38.6305 34.1317 38.6458ZM34.1014 39.5277C34.1014 39.5277 33.8372 39.5837 33.5014 39.5699C33.4433 39.6955 33.3254 39.8009 33.2008 39.9151C33.0513 40.0526 32.8913 40.1486 32.6673 40.2216C32.4522 40.2906 32.1928 40.2967 31.9768 40.2727C31.9414 40.32 31.8908 40.3697 31.8406 40.4162C31.717 40.5297 31.5848 40.608 31.4016 40.6676C31.1979 40.7338 30.947 40.7299 30.7587 40.7001C30.7422 40.6979 30.7022 40.6897 30.6857 40.687C30.3458 40.6305 29.9291 40.462 29.4178 40.1074C29.2365 40.2201 28.7477 40.2906 28.5465 40.2906C27.9257 40.2906 27.2988 39.9946 26.8193 39.47C26.7999 39.4516 26.9414 39.3062 26.9608 39.3243C27.4442 39.7915 27.9868 40.0516 28.5584 40.0516C28.7497 40.0516 29.0096 40 29.1943 39.9449C29.2917 39.9096 29.3902 39.8683 29.4869 39.8191C29.9167 40.1183 30.2976 40.3086 30.5924 40.3736C30.6076 40.3762 30.6425 40.3862 30.6578 40.3891C30.8282 40.4257 31.0551 40.4407 31.243 40.391C31.4016 40.3474 31.5133 40.2936 31.6241 40.2063C31.1972 40.0984 30.6554 39.8322 30.0493 39.4298C30.1189 39.3682 30.1875 39.3035 30.2559 39.2344C30.8372 39.6075 31.3468 39.8356 31.7308 39.8982C31.7487 39.9018 31.7928 39.911 31.8117 39.9132C32.019 39.9483 32.2966 39.9517 32.5204 39.8788C32.7235 39.8114 32.869 39.7258 33.0052 39.6007C33.0442 39.5648 33.0772 39.5302 33.1085 39.4953C32.4597 39.3433 31.6663 39.0298 30.7851 38.5699C30.8411 38.4868 30.8937 38.4014 30.947 38.3125C32.092 38.8834 33.0721 39.1922 33.7538 39.2077C33.7829 39.2097 33.853 39.2131 33.8799 39.2148C34.1179 39.2186 34.4084 39.1917 34.6748 39.1134C34.6374 39.2077 34.5793 39.2788 34.493 39.3568C34.3722 39.4645 34.2277 39.5074 34.1014 39.5277ZM36.5366 36.1828C36.4685 36.366 36.3727 36.5161 36.2137 36.6766C36.0379 36.8511 35.7771 36.9811 35.5659 37.0487C35.548 37.0543 35.5014 37.0676 35.4835 37.0725C34.7502 37.3076 33.317 37.2043 31.6013 36.7253C31.6241 36.6572 31.6454 36.5893 31.6653 36.5197C31.7317 36.5217 31.7936 36.5178 31.8629 36.5122C32.2042 36.4819 32.4949 36.3129 32.6624 36.1292C34.3385 36.2528 35.4874 36.2026 36.1596 35.9578C36.1596 35.9578 36.5172 35.8422 36.5892 35.792C36.5892 35.792 36.6147 35.9721 36.5366 36.1828ZM37.5928 34.1173C37.5531 34.3294 37.4779 34.5127 37.3349 34.7178C37.1768 34.9435 36.9162 35.1343 36.6976 35.2514C36.6791 35.2603 36.6314 35.2826 36.6113 35.2926C35.8059 35.7163 34.0513 35.8749 31.9002 35.6196C31.8859 35.6174 31.8755 35.617 31.8624 35.6155C31.8779 35.5391 31.8942 35.4943 31.9082 35.4169C32.1063 35.4019 32.3196 35.3437 32.5286 35.2465C32.7218 35.1561 32.8908 35.0046 33.0239 34.8754L33.0256 34.8744C35.0176 34.7035 36.5579 34.2737 37.2486 33.7399C37.2663 33.7263 37.3187 33.6885 37.3368 33.6737C37.404 33.622 37.4765 33.5648 37.5456 33.4972C37.6236 33.702 37.636 33.8708 37.5928 34.1173ZM38.4731 31.9733C38.4498 31.6363 38.3429 31.3214 38.18 31.0652C38.3817 30.7685 38.4879 30.3925 38.4736 29.9682C38.459 29.5076 38.2942 29.0848 38.036 28.7699C38.2018 28.4763 38.2857 28.1304 38.2724 27.7391C38.2486 27.0487 37.9196 26.4485 37.4362 26.134C37.4527 26.0022 37.4566 25.8742 37.4537 25.7348C37.4224 24.6974 36.9747 24.0439 36.2554 23.7653C36.1024 23.0203 35.6011 22.3328 35.1536 21.9971C34.6096 24.304 32.8968 26.5219 32.2794 27.3983C31.2862 28.8075 31.0542 30.1476 30.501 31.7646C29.8481 33.6722 29.3902 35.6994 27.6418 36.9001C27.6418 36.71 27.6522 36.5146 27.6748 36.312C27.9628 33.7129 30.0631 29.4822 29.3027 27.0153C29.2568 26.8659 29.2037 26.7193 29.1397 26.5772C28.3911 24.886 26.6886 24.6228 24.9446 25.4094C23.8585 25.8986 22.7298 26.3127 22.2103 27.4977C22.0016 27.9748 21.9276 28.4625 21.9754 28.88C21.9858 28.9733 22.0365 29.0485 22.1162 29.0754C22.2246 29.1125 22.3477 29.0485 22.412 28.928C22.4602 28.8453 22.493 28.7294 22.5014 28.6019C22.5014 28.5966 22.5024 28.5917 22.5034 28.5864C22.5053 28.5583 22.5109 28.527 22.5223 28.4974C22.5773 28.3634 22.7218 28.2955 22.8467 28.3454C22.9713 28.3968 23.0261 28.5469 22.9722 28.6805C22.9628 28.7042 22.9514 28.7246 22.9361 28.7447C22.9044 28.7879 22.8733 28.8376 22.843 28.8904C22.7776 29.0109 22.7373 29.1302 22.7225 29.2274C22.7024 29.3665 22.7795 29.5088 22.9141 29.566C22.923 29.5709 22.9371 29.5774 22.9465 29.5816C23.4394 29.7825 24.0261 29.526 24.3788 29.0034C24.5082 28.8085 24.6314 28.5864 24.7424 28.3469C24.9167 27.9723 24.9077 27.5908 25.1914 27.2586C25.6682 26.7042 27.0597 26.3408 27.6648 27.0754C28.8416 28.5035 27.5332 30.3508 26.7174 31.5653C25.6901 33.095 24.26 34.8465 23.5412 36.5689C21.6624 41.07 24.869 45.4863 30.0399 45.4863C33.324 45.4863 35.3737 44.0557 36.539 42.3469C34.2961 42.1723 33.0767 40.7209 33.0767 40.7209C33.0767 40.7209 33.5252 40.6756 33.8159 40.1883C33.8159 40.1883 34.0256 40.1641 34.2127 40.1401C34.6653 40.0809 35.0796 39.8494 35.2525 39.3452C35.3991 38.9195 35.4079 38.6523 35.4079 38.6523C35.4079 38.6523 35.7099 38.5256 35.8859 38.1178C35.9853 37.8868 36.012 37.7721 36.013 37.5386C36.5322 37.3641 36.9291 36.918 37.1473 36.3522C37.2619 36.0521 37.2847 35.9081 37.2578 35.6184C37.8421 35.3248 38.2818 34.4948 38.259 33.8218C38.252 33.5922 38.1943 33.385 38.1094 33.1893C38.3708 32.8853 38.5068 32.4611 38.4731 31.9733Z" fill="#1A1919"/>
<path fill-rule="evenodd" clip-rule="evenodd" d="M69.7465 1.54871V2.96737C69.7465 3.06046 69.6767 3.10701 69.5604 3.09513L68.979 3.06046C68.9441 3.06046 68.8976 3.03719 68.8862 2.96737L68.8624 2.62992V2.61852H67.0951V9.68834L67.4556 9.71162C67.5371 9.71162 67.5718 9.79307 67.5604 9.89755L67.5255 10.4789C67.5255 10.5373 67.4903 10.572 67.4324 10.572H65.444C65.3511 10.572 65.3046 10.5024 65.316 10.3858L65.3512 9.80471C65.3512 9.7698 65.3742 9.72301 65.444 9.71162L65.7812 9.68834V2.61852H64.1415L64.1184 2.97877C64.1184 3.06046 64.0372 3.09513 63.9325 3.08374L63.3509 3.04858C63.2927 3.04858 63.2581 3.01392 63.2581 2.95598V1.54871H69.7465Z" fill="#233881"/>
<path fill-rule="evenodd" clip-rule="evenodd" d="M78.4095 9.71162C78.4909 9.71162 78.5256 9.79307 78.5139 9.89755L78.479 10.4789C78.479 10.5373 78.4444 10.572 78.3859 10.572H76.3976C76.3047 10.572 76.2582 10.5024 76.2698 10.3858L76.3047 9.80471C76.3047 9.7698 76.328 9.72301 76.3976 9.71162L76.735 9.68834V6.56059H72.6882V9.68834L73.0487 9.71162C73.1304 9.71162 73.1651 9.79307 73.1535 9.89755L73.1185 10.4789C73.1185 10.5373 73.0834 10.572 73.0254 10.572H71.0371C70.944 10.572 70.8977 10.5024 70.9091 10.3858L70.944 9.80471C70.944 9.7698 70.9675 9.72301 71.0371 9.71162L71.3745 9.68834V2.43234L71.0141 2.40931C70.9326 2.40931 70.8977 2.32786 70.9091 2.22313L70.944 1.6418C70.944 1.58362 70.9792 1.54871 71.0371 1.54871H73.0254C73.1185 1.54871 73.1651 1.61877 73.1535 1.73465L73.1185 2.31622C73.1185 2.35089 73.0955 2.39743 73.0254 2.40931L72.6882 2.43234V5.47889H76.735V2.43234L76.3745 2.40931C76.2931 2.40931 76.2582 2.32786 76.2698 2.22313L76.3047 1.6418C76.3047 1.58362 76.3394 1.54871 76.3976 1.54871H78.3859C78.479 1.54871 78.5256 1.61877 78.5139 1.73465L78.479 2.31622C78.479 2.35089 78.4558 2.39743 78.3859 2.40931L78.049 2.43234V9.68834L78.4095 9.71162Z" fill="#233881"/>
<path fill-rule="evenodd" clip-rule="evenodd" d="M85.817 9.06046C85.8752 9.06046 85.9098 9.09537 85.9098 9.15355V10.572H80.2703C80.1772 10.572 80.1309 10.5024 80.1426 10.3858L80.1772 9.80471C80.1772 9.7698 80.2007 9.72301 80.2703 9.71162L80.6078 9.68834V2.43234L80.2473 2.40931C80.1658 2.40931 80.1309 2.32786 80.1426 2.22313L80.1772 1.6418C80.1772 1.58362 80.2124 1.54871 80.2703 1.54871H85.7123V2.96737C85.7123 3.06046 85.6422 3.10701 85.5263 3.09513L84.945 3.06046C84.9101 3.06046 84.8638 3.03719 84.8519 2.96737L84.8286 2.62992H81.9333V5.38604H85.2121V6.45586H81.9333V9.49052H85.0262L85.0497 9.13004C85.0497 9.04858 85.1314 9.01368 85.2356 9.02531L85.817 9.06046Z" fill="#233881"/>
<path fill-rule="evenodd" clip-rule="evenodd" d="M99.2226 1.54871C99.3159 1.54871 99.3622 1.61877 99.3504 1.73465L99.3159 2.31622C99.3159 2.35089 99.2927 2.39743 99.2226 2.40931L98.8856 2.43234H98.8505V7.2464C98.8505 9.59525 97.9322 10.7116 95.5831 10.7116C93.3387 10.7116 92.3622 9.95574 92.3622 7.2464V2.43234L92.0015 2.40931C91.9201 2.40931 91.8849 2.32786 91.8968 2.22313L91.9317 1.6418C91.9317 1.58362 91.9664 1.54871 92.025 1.54871H94.0129C94.1062 1.54871 94.1528 1.61877 94.1407 1.73465L94.1062 2.31622C94.1062 2.35089 94.0827 2.39743 94.0129 2.40931L93.6764 2.43234V7.47889C93.6764 8.92083 94.1062 9.69998 95.5715 9.69998C97.1998 9.69998 97.5712 8.69998 97.5712 7.47889V2.43234L97.2112 2.40931C97.1298 2.40931 97.0946 2.32786 97.1062 2.22313L97.1414 1.6418C97.1414 1.58362 97.1763 1.54871 97.2345 1.54871H99.2226Z" fill="#233881"/>
<path fill-rule="evenodd" clip-rule="evenodd" d="M108.967 1.54871C109.06 1.54871 109.107 1.61877 109.095 1.73465L109.06 2.31622C109.06 2.35089 109.037 2.39743 108.967 2.40931L108.63 2.43234H108.525V10.572H107.654C107.596 10.572 107.56 10.5487 107.525 10.5024L102.77 3.85101V9.68834H102.874L103.235 9.71162C103.316 9.71162 103.351 9.79307 103.339 9.89755L103.305 10.4789C103.305 10.5373 103.27 10.572 103.212 10.572H101.223C101.13 10.572 101.084 10.5024 101.095 10.3858L101.13 9.80471C101.13 9.7698 101.153 9.72301 101.223 9.71162L101.56 9.68834V2.43234L101.199 2.40931C101.118 2.40931 101.084 2.32786 101.095 2.22313L101.13 1.6418C101.13 1.58362 101.165 1.54871 101.223 1.54871H102.513C102.583 1.54871 102.618 1.58362 102.654 1.63016L107.316 8.14192V2.43234L106.956 2.40931C106.874 2.40931 106.84 2.32786 106.851 2.22313L106.886 1.6418C106.886 1.58362 106.921 1.54871 106.979 1.54871H108.967Z" fill="#233881"/>
<path fill-rule="evenodd" clip-rule="evenodd" d="M113.096 9.71162C113.177 9.71162 113.212 9.79307 113.2 9.89755L113.166 10.4789C113.166 10.5373 113.13 10.572 113.072 10.572H111.084C110.991 10.572 110.945 10.5024 110.956 10.3858L110.991 9.80471C110.991 9.7698 111.014 9.72301 111.084 9.71162L111.421 9.68834V2.43234L111.061 2.40931C110.98 2.40931 110.945 2.32786 110.956 2.22313L110.991 1.6418C110.991 1.58362 111.026 1.54871 111.084 1.54871H113.072C113.166 1.54871 113.212 1.61877 113.2 1.73465L113.166 2.31622C113.166 2.35089 113.142 2.39743 113.072 2.40931L112.735 2.43234V9.68834L113.096 9.71162Z" fill="#233881"/>
<path fill-rule="evenodd" clip-rule="evenodd" d="M122.549 1.54871C122.643 1.54871 122.689 1.61877 122.678 1.73465L122.643 2.31622C122.643 2.35089 122.62 2.39743 122.549 2.40931L122.212 2.43234L119.328 10.2929C119.271 10.4675 119.143 10.572 118.956 10.572L117.979 10.5373C117.945 10.5373 117.922 10.5254 117.898 10.4675L114.886 2.43234L114.526 2.40931C114.445 2.40931 114.41 2.32786 114.422 2.22313L114.457 1.6418C114.457 1.58362 114.491 1.54871 114.549 1.54871H116.561C116.654 1.54871 116.701 1.61877 116.689 1.73465L116.654 2.31622C116.654 2.35089 116.631 2.39743 116.561 2.40931L116.224 2.43234L118.561 8.9904H118.596L120.922 2.43234L120.561 2.40931C120.48 2.40931 120.445 2.32786 120.457 2.22313L120.491 1.6418C120.491 1.58362 120.526 1.54871 120.584 1.54871H122.549Z" fill="#233881"/>
<path fill-rule="evenodd" clip-rule="evenodd" d="M129.573 9.06046C129.632 9.06046 129.667 9.09537 129.667 9.15355V10.572H124.026C123.934 10.572 123.887 10.5024 123.899 10.3858L123.934 9.80471C123.934 9.7698 123.957 9.72301 124.026 9.71162L124.364 9.68834V2.43234L124.003 2.40931C123.922 2.40931 123.887 2.32786 123.899 2.22313L123.934 1.6418C123.934 1.58362 123.968 1.54871 124.026 1.54871H129.469V2.96737C129.469 3.06046 129.399 3.10701 129.283 3.09513L128.701 3.06046C128.666 3.06046 128.619 3.03719 128.608 2.96737L128.585 2.62992H125.69V5.38604H128.969V6.45586H125.69V9.49052H128.783L128.806 9.13004C128.806 9.04858 128.888 9.01368 128.992 9.02531L129.573 9.06046Z" fill="#233881"/>
<path fill-rule="evenodd" clip-rule="evenodd" d="M134.201 6.04883C135.458 6.04883 136.179 5.50216 136.179 4.24665C136.179 3.04858 135.492 2.57198 134.306 2.57198H133.19V6.04883H134.201ZM137.795 9.71162C137.876 9.71162 137.911 9.79307 137.899 9.89755L137.864 10.4789C137.864 10.5373 137.83 10.572 137.772 10.572H136.446L134.469 7.08374H133.19V9.68834L133.551 9.71162C133.631 9.71162 133.667 9.79307 133.655 9.89755L133.62 10.4789C133.62 10.5373 133.586 10.572 133.528 10.572H131.539C131.446 10.572 131.399 10.5024 131.411 10.3858L131.446 9.80471C131.446 9.7698 131.47 9.72301 131.539 9.71162L131.876 9.68834V2.43234L131.516 2.40931C131.434 2.40931 131.399 2.32786 131.411 2.22313L131.446 1.6418C131.446 1.58362 131.481 1.54871 131.539 1.54871H134.167C136.434 1.54871 137.504 2.40931 137.504 4.24665C137.504 5.42095 136.888 6.42095 135.783 6.83937L137.434 9.68834L137.795 9.71162Z" fill="#233881"/>
<path fill-rule="evenodd" clip-rule="evenodd" d="M145.016 8.09537C145.016 9.56034 143.935 10.6299 141.899 10.6299C140.806 10.6299 139.934 10.3977 139.306 10.13V8.723C139.306 8.61852 139.388 8.56058 139.528 8.57197L140.225 8.61852C140.271 8.61852 140.329 8.64155 140.342 8.723L140.365 9.35137C140.911 9.47888 141.458 9.54846 141.83 9.54846C142.888 9.54846 143.714 9.18821 143.714 8.22312C143.714 7.18821 143.318 6.97876 141.527 6.33973C140.225 5.851 139.33 5.18822 139.33 3.89731C139.33 2.44397 140.434 1.47888 142.399 1.47888C143.12 1.47888 143.807 1.5487 144.458 1.71137V3.235C144.458 3.33949 144.376 3.39767 144.237 3.38603L143.539 3.33949C143.492 3.33949 143.435 3.31597 143.423 3.235L143.4 2.60664C143.085 2.57197 142.772 2.5487 142.481 2.5487C141.399 2.5487 140.69 3.04858 140.69 3.851C140.69 4.68834 141.178 4.99064 142.772 5.56009C144.435 6.14191 145.016 6.93246 145.016 8.09537Z" fill="#233881"/>
<path fill-rule="evenodd" clip-rule="evenodd" d="M148.784 9.71162C148.865 9.71162 148.9 9.79307 148.888 9.89755L148.854 10.4789C148.854 10.5373 148.819 10.572 148.761 10.572H146.772C146.679 10.572 146.632 10.5024 146.644 10.3858L146.679 9.80471C146.679 9.7698 146.703 9.72301 146.772 9.71162L147.109 9.68834V2.43234L146.749 2.40931C146.667 2.40931 146.632 2.32786 146.644 2.22313L146.679 1.6418C146.679 1.58362 146.714 1.54871 146.772 1.54871H148.761C148.854 1.54871 148.9 1.61877 148.888 1.73465L148.854 2.31622C148.854 2.35089 148.83 2.39743 148.761 2.40931L148.423 2.43234V9.68834L148.784 9.71162Z" fill="#233881"/>
<path fill-rule="evenodd" clip-rule="evenodd" d="M156.772 1.54871V2.96737C156.772 3.06046 156.703 3.10701 156.586 3.09513L156.005 3.06046C155.97 3.06046 155.924 3.03719 155.912 2.96737L155.888 2.62992V2.61852H154.121V9.68834L154.482 9.71162C154.563 9.71162 154.598 9.79307 154.586 9.89755L154.551 10.4789C154.551 10.5373 154.517 10.572 154.458 10.572H152.47C152.377 10.572 152.33 10.5024 152.342 10.3858L152.377 9.80471C152.377 9.7698 152.4 9.72301 152.47 9.71162L152.807 9.68834V2.61852H151.168L151.145 2.97877C151.145 3.06046 151.063 3.09513 150.958 3.08374L150.377 3.04858C150.319 3.04858 150.284 3.01392 150.284 2.95598V1.54871H156.772Z" fill="#233881"/>
<path fill-rule="evenodd" clip-rule="evenodd" d="M164.61 1.54871C164.702 1.54871 164.749 1.61877 164.738 1.73465L164.702 2.31622C164.702 2.35089 164.679 2.39743 164.61 2.40931L164.273 2.43234L161.738 7.39768V9.68834L162.098 9.71162C162.18 9.71162 162.215 9.79307 162.203 9.89755L162.168 10.4789C162.168 10.5373 162.134 10.572 162.075 10.572H160.087C159.994 10.572 159.947 10.5024 159.959 10.3858L159.994 9.80471C159.994 9.7698 160.016 9.72301 160.087 9.71162L160.423 9.68834V7.37416L157.924 2.43234L157.575 2.40931C157.494 2.40931 157.458 2.32786 157.47 2.22313L157.505 1.6418C157.505 1.58362 157.54 1.54871 157.598 1.54871H159.587C159.679 1.54871 159.726 1.61877 159.715 1.73465L159.679 2.31622C159.679 2.35089 159.656 2.39743 159.587 2.40931L159.261 2.43234L161.075 6.17659H161.11L162.982 2.43234L162.621 2.40931C162.54 2.40931 162.505 2.32786 162.517 2.22313L162.552 1.6418C162.552 1.58362 162.587 1.54871 162.645 1.54871H164.61Z" fill="#233881"/>
<path fill-rule="evenodd" clip-rule="evenodd" d="M170.485 6.04878C170.485 7.57218 170.834 9.54842 172.741 9.54842C174.322 9.54842 175.008 8.19981 175.008 6.04878C175.008 4.49048 174.624 2.57193 172.752 2.57193C170.845 2.57193 170.485 4.53727 170.485 6.04878ZM176.38 6.07181C176.38 9.15351 175.02 10.6418 172.741 10.6418C170.485 10.6418 169.101 9.10697 169.101 6.07181C169.101 3.88563 169.927 1.49072 172.764 1.49072C175.194 1.49072 176.38 3.35133 176.38 6.07181Z" fill="#233881"/>
<path fill-rule="evenodd" clip-rule="evenodd" d="M183.346 1.54871V2.96737C183.346 3.06046 183.276 3.10701 183.16 3.09513L182.578 3.06046C182.543 3.06046 182.497 3.03719 182.485 2.96737L182.462 2.62992H179.555V5.38604H182.706V6.45586H179.555V9.68834L179.916 9.71162C179.997 9.71162 180.032 9.79307 180.02 9.89755L179.985 10.4789C179.985 10.5373 179.95 10.572 179.892 10.572H177.904C177.811 10.572 177.765 10.5024 177.776 10.3858L177.811 9.80471C177.811 9.7698 177.834 9.72301 177.904 9.71162L178.241 9.68834V2.43234L177.881 2.40931C177.799 2.40931 177.765 2.32786 177.776 2.22313L177.811 1.6418C177.811 1.58362 177.846 1.54871 177.904 1.54871H183.346Z" fill="#233881"/>
<path fill-rule="evenodd" clip-rule="evenodd" d="M87.9153 14.77C88.1209 14.77 88.2237 14.9244 88.198 15.1814L88.1209 16.4665C88.1209 16.5438 88.0693 16.6466 87.9153 16.6723L87.1953 16.7237L82.8513 33.8185C82.6967 34.3841 82.2341 34.7184 81.6685 34.7184L79.6637 34.6413C79.3805 34.6413 79.2777 34.4612 79.2004 34.1785L75.7044 19.1402H75.679L72.2344 33.5099C72.1056 34.0243 71.7716 34.7441 70.8717 34.7184L68.9439 34.6413C68.7124 34.6413 68.5585 34.5126 68.4811 34.1785L64.2654 16.7237L63.4942 16.6723C63.3144 16.6723 63.2373 16.4927 63.2625 16.2609L63.3398 14.9758C63.3398 14.8471 63.4174 14.77 63.5454 14.77H67.7871C67.9927 14.77 68.0954 14.9244 68.07 15.1814L67.9927 16.4665C67.9927 16.5438 67.9413 16.6466 67.7871 16.6723L67.0671 16.7237L70.3577 31.7104H70.3834L74.0593 15.9526C74.2649 15.0529 74.702 14.7443 75.3192 14.77L76.7844 14.8471C77.0411 14.8728 77.1439 15.0015 77.2213 15.3356L80.9485 31.7104H80.9745L84.4191 16.7237L83.6479 16.6723C83.4681 16.6723 83.3907 16.4927 83.4164 16.2609L83.4935 14.9758C83.4935 14.8471 83.5708 14.77 83.6991 14.77H87.9153Z" fill="#233881"/>
<path fill-rule="evenodd" clip-rule="evenodd" d="M102.155 31.3763C102.284 31.3763 102.361 31.4534 102.361 31.5821V34.7184H89.8937C89.6881 34.7184 89.5851 34.564 89.6108 34.307L89.6881 33.0217C89.6881 32.9446 89.7393 32.8415 89.8937 32.8158L90.6389 32.7644V16.7237L89.8421 16.6723C89.6622 16.6723 89.5851 16.4927 89.6108 16.2609L89.6881 14.9758C89.6881 14.8471 89.765 14.77 89.8937 14.77H101.924V17.9065C101.924 18.1118 101.77 18.2146 101.513 18.1892L100.228 18.1118C100.15 18.1118 100.047 18.0604 100.021 17.9065L99.9705 17.1608H93.5698V23.2532H100.819V25.6183H93.5698V32.3276H100.408L100.459 31.5305C100.459 31.3509 100.639 31.2735 100.87 31.2992L102.155 31.3763Z" fill="#233881"/>
<path fill-rule="evenodd" clip-rule="evenodd" d="M116.91 29.243C116.91 32.4818 114.52 34.8469 110.021 34.8469C107.604 34.8469 105.676 34.3325 104.288 33.7412V30.6311C104.288 30.3996 104.468 30.2709 104.777 30.2966L106.319 30.3996C106.422 30.3996 106.551 30.4512 106.576 30.6311L106.627 32.019C107.835 32.3019 109.044 32.4558 109.867 32.4558C112.207 32.4558 114.031 31.6592 114.031 29.5257C114.031 27.2377 113.157 26.7751 109.198 25.3611C106.319 24.2813 104.339 22.8161 104.339 19.9628C104.339 16.7497 106.782 14.6158 111.126 14.6158C112.72 14.6158 114.236 14.77 115.676 15.1298V18.4975C115.676 18.7288 115.496 18.8575 115.188 18.8316L113.646 18.7288C113.543 18.7288 113.414 18.6777 113.388 18.4975L113.337 17.1094C112.643 17.0323 111.949 16.9809 111.307 16.9809C108.916 16.9809 107.347 18.0861 107.347 19.86C107.347 21.7106 108.427 22.3792 111.949 23.6386C115.625 24.924 116.91 26.6723 116.91 29.243Z" fill="#233881"/>
<path fill-rule="evenodd" clip-rule="evenodd" d="M132.282 14.77V17.9065C132.282 18.1118 132.127 18.2146 131.87 18.1892L130.585 18.1118C130.508 18.1118 130.405 18.0604 130.379 17.9065L130.328 17.1608V17.1351H126.42V32.7644L127.217 32.8158C127.398 32.8158 127.474 32.996 127.449 33.2275L127.371 34.5126C127.371 34.6413 127.295 34.7184 127.166 34.7184H122.77C122.565 34.7184 122.462 34.564 122.488 34.307L122.565 33.0217C122.565 32.9446 122.616 32.8415 122.77 32.8158L123.516 32.7644V17.1351H119.891L119.84 17.932C119.84 18.1118 119.66 18.1892 119.429 18.1635L118.144 18.0861C118.014 18.0861 117.938 18.0091 117.938 17.8806V14.77H132.282Z" fill="#233881"/>
<path fill-rule="evenodd" clip-rule="evenodd" d="M146.702 31.3763C146.831 31.3763 146.908 31.4534 146.908 31.5821V34.7184H134.44C134.234 34.7184 134.131 34.564 134.157 34.307L134.234 33.0217C134.234 32.9446 134.286 32.8415 134.44 32.8158L135.186 32.7644V16.7237L134.389 16.6723C134.209 16.6723 134.131 16.4927 134.157 16.2609L134.234 14.9758C134.234 14.8471 134.311 14.77 134.44 14.77H146.47V17.9065C146.47 18.1118 146.317 18.2146 146.059 18.1892L144.774 18.1118C144.697 18.1118 144.594 18.0604 144.568 17.9065L144.517 17.1608H138.116V23.2532H145.365V25.6183H138.116V32.3276H144.954L145.005 31.5305C145.005 31.3509 145.186 31.2735 145.417 31.2992L146.702 31.3763Z" fill="#233881"/>
<path fill-rule="evenodd" clip-rule="evenodd" d="M155.493 24.7184C158.269 24.7184 159.863 23.5101 159.863 20.7339C159.863 18.0861 158.346 17.0323 155.724 17.0323H153.256V24.7184H155.493ZM163.436 32.8158C163.616 32.8158 163.693 32.996 163.667 33.2275L163.59 34.5126C163.59 34.6413 163.513 34.7184 163.384 34.7184H160.454L156.084 27.0064H153.256V32.7644L154.053 32.8158C154.233 32.8158 154.31 32.996 154.285 33.2275L154.207 34.5126C154.207 34.6413 154.13 34.7184 154.002 34.7184H149.606C149.4 34.7184 149.297 34.564 149.324 34.307L149.4 33.0217C149.4 32.9446 149.452 32.8415 149.606 32.8158L150.352 32.7644V16.7237L149.555 16.6723C149.374 16.6723 149.297 16.4927 149.324 16.2609L149.4 14.9758C149.4 14.8471 149.478 14.77 149.606 14.77H155.416C160.429 14.77 162.793 16.6723 162.793 20.7339C162.793 23.3303 161.43 25.5409 158.989 26.4665L162.639 32.7644L163.436 32.8158Z" fill="#233881"/>
<path fill-rule="evenodd" clip-rule="evenodd" d="M183.152 14.77C183.357 14.77 183.46 14.9244 183.434 15.1814L183.357 16.4665C183.357 16.5438 183.306 16.6466 183.152 16.6723L182.407 16.7237H182.175V34.7184H180.247C180.118 34.7184 180.041 34.6667 179.964 34.564L169.45 19.86V32.7644H169.682L170.479 32.8158C170.659 32.8158 170.736 32.996 170.71 33.2275L170.633 34.5126C170.633 34.6413 170.556 34.7184 170.427 34.7184H166.032C165.826 34.7184 165.723 34.564 165.749 34.307L165.826 33.0217C165.826 32.9446 165.877 32.8415 166.032 32.8158L166.777 32.7644V16.7237L165.98 16.6723C165.8 16.6723 165.723 16.4927 165.749 16.2609L165.826 14.9758C165.826 14.8471 165.903 14.77 166.032 14.77H168.885C169.039 14.77 169.116 14.8471 169.193 14.9501L179.501 29.3458V16.7237L178.704 16.6723C178.525 16.6723 178.448 16.4927 178.473 16.2609L178.551 14.9758C178.551 14.8471 178.627 14.77 178.756 14.77H183.152Z" fill="#233881"/>
<path fill-rule="evenodd" clip-rule="evenodd" d="M73.6822 49.7276L70.8228 41.6106H70.801L68.0948 49.7276H73.6822ZM78.4996 54.237C78.6538 54.237 78.7198 54.3912 78.6977 54.589L78.6318 55.6889C78.6318 55.7989 78.5656 55.8649 78.4781 55.8649H74.6284C74.4524 55.8649 74.3641 55.7327 74.3864 55.5129L74.4524 54.413C74.4524 54.347 74.496 54.259 74.6284 54.237L75.2441 54.1931L74.3864 51.7514H67.4131L66.5993 54.1931L67.281 54.237C67.4349 54.237 67.5011 54.3912 67.479 54.589L67.4131 55.6889C67.4131 55.7989 67.3471 55.8649 67.2371 55.8649H63.5195C63.3435 55.8649 63.2553 55.7327 63.2776 55.5129L63.3435 54.413C63.3435 54.347 63.3874 54.259 63.5195 54.237L64.1355 54.1931L69.0625 40.4666L68.4027 40.4227C68.249 40.4227 68.1828 40.2687 68.2048 40.0707L68.2708 38.9708C68.2708 38.8607 68.337 38.795 68.4473 38.795H71.9445L77.84 54.1931L78.4996 54.237Z" fill="#233881"/>
<path fill-rule="evenodd" clip-rule="evenodd" d="M92.4453 38.795C92.6206 38.795 92.7091 38.9267 92.687 39.1468L92.6206 40.2464C92.6206 40.3126 92.5775 40.4006 92.4453 40.4227L91.807 40.4666H91.7411V49.5735C91.7411 54.0171 90.0034 56.1289 85.5598 56.1289C81.3142 56.1289 79.4664 54.6988 79.4664 49.5735V40.4666L78.7847 40.4227C78.6305 40.4227 78.5646 40.2687 78.5867 40.0707L78.6524 38.9708C78.6524 38.8607 78.7188 38.795 78.8286 38.795H82.5901C82.7661 38.795 82.8541 38.9267 82.8322 39.1468L82.7661 40.2464C82.7661 40.3126 82.7222 40.4006 82.5901 40.4227L81.9522 40.4666V50.0135C81.9522 52.7412 82.7661 54.2152 85.5377 54.2152C88.6177 54.2152 89.3212 52.3233 89.3212 50.0135V40.4666L88.6395 40.4227C88.4853 40.4227 88.4194 40.2687 88.4414 40.0707L88.5076 38.9708C88.5076 38.8607 88.5736 38.795 88.6834 38.795H92.4453Z" fill="#233881"/>
<path fill-rule="evenodd" clip-rule="evenodd" d="M104.917 51.1792C104.917 53.9511 102.871 55.9746 99.0212 55.9746C96.9538 55.9746 95.3041 55.5346 94.116 55.0289V52.3673C94.116 52.1693 94.2701 52.059 94.5341 52.0813L95.8537 52.1693C95.9417 52.1693 96.0517 52.2131 96.0738 52.3673L96.1174 53.555C97.1518 53.7971 98.1855 53.9288 98.8893 53.9288C100.891 53.9288 102.453 53.2471 102.453 51.4214C102.453 49.4633 101.706 49.0677 98.3179 47.8577C95.8537 46.9339 94.1601 45.6801 94.1601 43.2384C94.1601 40.4885 96.2498 38.6626 99.9674 38.6626C101.331 38.6626 102.629 38.795 103.861 39.1031V41.9845C103.861 42.1824 103.707 42.2922 103.443 42.2704L102.123 42.1824C102.035 42.1824 101.925 42.1385 101.903 41.9845L101.859 40.7964C101.265 40.7305 100.671 40.6866 100.122 40.6866C98.0755 40.6866 96.7339 41.6323 96.7339 43.1501C96.7339 44.7341 97.6578 45.306 100.671 46.3838C103.817 47.4837 104.917 48.9794 104.917 51.1792Z" fill="#233881"/>
<path fill-rule="evenodd" clip-rule="evenodd" d="M118.378 38.795V41.4787C118.378 41.6544 118.246 41.7427 118.026 41.7206L116.926 41.6544C116.86 41.6544 116.772 41.6106 116.751 41.4787L116.706 40.8406V40.8188H113.362V54.1931L114.044 54.237C114.198 54.237 114.265 54.3912 114.243 54.589L114.176 55.6889C114.176 55.7989 114.111 55.8649 114 55.8649H110.239C110.063 55.8649 109.975 55.7327 109.997 55.5129L110.063 54.413C110.063 54.347 110.107 54.259 110.239 54.237L110.877 54.1931V40.8188H107.775L107.732 41.5005C107.732 41.6544 107.577 41.7206 107.38 41.6986L106.279 41.6324C106.17 41.6324 106.104 41.5664 106.104 41.4566V38.795H118.378Z" fill="#233881"/>
<path fill-rule="evenodd" clip-rule="evenodd" d="M125.306 47.308C127.682 47.308 129.046 46.2738 129.046 43.8981C129.046 41.6324 127.748 40.7306 125.504 40.7306H123.393V47.308H125.306ZM132.103 54.237C132.257 54.237 132.323 54.3912 132.302 54.589L132.235 55.6889C132.235 55.7989 132.169 55.8649 132.059 55.8649H129.552L125.812 49.2656H123.393V54.1931L124.075 54.237C124.228 54.237 124.294 54.3912 124.272 54.589L124.207 55.6889C124.207 55.7989 124.141 55.8649 124.03 55.8649H120.269C120.093 55.8649 120.005 55.7327 120.026 55.5129L120.093 54.413C120.093 54.347 120.137 54.259 120.269 54.237L120.907 54.1931V40.4666L120.225 40.4227C120.071 40.4227 120.005 40.2687 120.026 40.0707L120.093 38.9708C120.093 38.8607 120.159 38.795 120.269 38.795H125.24C129.53 38.795 131.554 40.4227 131.554 43.8981C131.554 46.1196 130.388 48.0118 128.298 48.8038L131.422 54.1931L132.103 54.237Z" fill="#233881"/>
<path fill-rule="evenodd" clip-rule="evenodd" d="M143.717 49.7276L140.857 41.6106H140.836L138.129 49.7276H143.717ZM148.534 54.237C148.688 54.237 148.754 54.3912 148.732 54.589L148.667 55.6889C148.667 55.7989 148.6 55.8649 148.512 55.8649H144.663C144.487 55.8649 144.399 55.7327 144.421 55.5129L144.487 54.413C144.487 54.347 144.53 54.259 144.663 54.237L145.279 54.1931L144.421 51.7514H137.448L136.634 54.1931L137.315 54.237C137.47 54.237 137.536 54.3912 137.513 54.589L137.448 55.6889C137.448 55.7989 137.381 55.8649 137.272 55.8649H133.554C133.378 55.8649 133.29 55.7327 133.312 55.5129L133.378 54.413C133.378 54.347 133.422 54.259 133.554 54.237L134.17 54.1931L139.097 40.4666L138.438 40.4227C138.283 40.4227 138.218 40.2687 138.239 40.0707L138.306 38.9708C138.306 38.8607 138.371 38.795 138.482 38.795H141.979L147.874 54.1931L148.534 54.237Z" fill="#233881"/>
<path fill-rule="evenodd" clip-rule="evenodd" d="M160.852 53.0052C160.963 53.0052 161.028 53.0712 161.028 53.1812V55.8649H150.359C150.183 55.8649 150.096 55.7327 150.117 55.5129L150.183 54.413C150.183 54.347 150.227 54.259 150.359 54.237L150.997 54.1931V40.4666L150.315 40.4227C150.162 40.4227 150.096 40.2687 150.117 40.0707L150.183 38.9708C150.183 38.8607 150.249 38.795 150.359 38.795H154.121C154.297 38.795 154.385 38.9267 154.363 39.1468L154.297 40.2464C154.297 40.3126 154.253 40.4006 154.121 40.4227L153.483 40.4666V53.819H159.356L159.4 53.1371C159.4 52.9832 159.554 52.9172 159.752 52.939L160.852 53.0052Z" fill="#233881"/>
<path fill-rule="evenodd" clip-rule="evenodd" d="M166.394 54.237C166.548 54.237 166.614 54.3912 166.592 54.589L166.526 55.6889C166.526 55.7989 166.46 55.8649 166.35 55.8649H162.589C162.412 55.8649 162.325 55.7327 162.347 55.5129L162.412 54.413C162.412 54.347 162.456 54.259 162.589 54.237L163.227 54.1931V40.4666L162.545 40.4227C162.391 40.4227 162.325 40.2687 162.347 40.0707L162.412 38.9708C162.412 38.8607 162.479 38.795 162.589 38.795H166.35C166.526 38.795 166.614 38.9267 166.592 39.1468L166.526 40.2464C166.526 40.3126 166.482 40.4006 166.35 40.4227L165.712 40.4666V54.1931L166.394 54.237Z" fill="#233881"/>
<path fill-rule="evenodd" clip-rule="evenodd" d="M178.427 49.7276L175.567 41.6106H175.545L172.839 49.7276H178.427ZM183.244 54.237C183.398 54.237 183.464 54.3912 183.442 54.589L183.376 55.6889C183.376 55.7989 183.31 55.8649 183.222 55.8649H179.372C179.197 55.8649 179.108 55.7327 179.13 55.5129L179.197 54.413C179.197 54.347 179.241 54.259 179.372 54.237L179.988 54.1931L179.13 51.7514H172.157L171.344 54.1931L172.025 54.237C172.179 54.237 172.245 54.3912 172.224 54.589L172.157 55.6889C172.157 55.7989 172.092 55.8649 171.981 55.8649H168.264C168.087 55.8649 167.999 55.7327 168.022 55.5129L168.087 54.413C168.087 54.347 168.132 54.259 168.264 54.237L168.88 54.1931L173.807 40.4666L173.147 40.4227C172.994 40.4227 172.927 40.2687 172.95 40.0707L173.015 38.9708C173.015 38.8607 173.081 38.795 173.191 38.795H176.689L182.584 54.1931L183.244 54.237Z" fill="#233881"/>
<path fill-rule="evenodd" clip-rule="evenodd" d="M35.6248 9.13177H34.4966V7.32886H35.6008C35.6112 7.35819 35.6195 7.41419 35.6195 7.48886C35.6195 7.54752 35.6139 7.59819 35.6008 7.65419H34.8779V8.04352H35.4888C35.4995 8.07286 35.5075 8.12619 35.5075 8.20086C35.5075 8.25952 35.5019 8.30752 35.4888 8.36352H34.8779V8.80619H35.6248C35.6355 8.83577 35.6432 8.89177 35.6432 8.96643C35.6432 9.0251 35.6382 9.07577 35.6248 9.13177Z" fill="#233881"/>
<path fill-rule="evenodd" clip-rule="evenodd" d="M36.4751 7.62743C36.4164 7.62743 36.3444 7.6301 36.2991 7.63276V8.1661H36.4324C36.6513 8.1661 36.7471 8.0861 36.7471 7.88876C36.7471 7.69143 36.6513 7.62743 36.4751 7.62743ZM37.246 9.12901C37.1766 9.13967 37.1046 9.14501 37.022 9.14501C36.9471 9.14501 36.8726 9.14234 36.822 9.13167L36.4564 8.48343H36.2991V9.13167C36.2324 9.14234 36.1764 9.14501 36.1044 9.14501C36.0404 9.14501 35.9844 9.14234 35.9177 9.13167V7.32876C36.0404 7.32076 36.2964 7.31543 36.4511 7.31543C36.9044 7.31543 37.1313 7.47543 37.1313 7.89143C37.1313 8.11276 36.9977 8.3341 36.8113 8.4141L37.246 9.12901Z" fill="#233881"/>
<path fill-rule="evenodd" clip-rule="evenodd" d="M38.5633 9.13177H37.4351V7.32886H38.5393C38.55 7.35819 38.558 7.41419 38.558 7.48886C38.558 7.54752 38.5524 7.59819 38.5393 7.65419H37.8164V8.04352H38.4273C38.438 8.07286 38.446 8.12619 38.446 8.20086C38.446 8.25952 38.4404 8.30752 38.4273 8.36352H37.8164V8.80619H38.5633C38.574 8.83577 38.5817 8.89177 38.5817 8.96643C38.5817 9.0251 38.5766 9.07577 38.5633 9.13177Z" fill="#233881"/>
<path fill-rule="evenodd" clip-rule="evenodd" d="M35.0542 10.115C35.0006 10.115 34.9312 10.1176 34.8779 10.1203V10.651H35.0435C35.2486 10.651 35.3582 10.5976 35.3582 10.379C35.3582 10.1923 35.2648 10.115 35.0542 10.115ZM35.0648 10.971H34.8779V11.6165C34.8272 11.6245 34.7659 11.6299 34.6859 11.6299C34.6139 11.6299 34.5472 11.6245 34.4966 11.6165V9.81605C34.6515 9.80829 34.8859 9.80029 35.0379 9.80029C35.4462 9.80029 35.7422 9.94163 35.7422 10.3656C35.7422 10.779 35.4832 10.971 35.0648 10.971Z" fill="#233881"/>
<path fill-rule="evenodd" clip-rule="evenodd" d="M37.1058 11.6166H35.9775V9.81372H37.0818C37.0925 9.84305 37.1004 9.89905 37.1004 9.97372C37.1004 10.0324 37.0951 10.0831 37.0818 10.1391H36.3589V10.5284H36.9695C36.9804 10.5577 36.9882 10.6111 36.9882 10.6857C36.9882 10.7444 36.9831 10.7924 36.9695 10.8484H36.3589V11.2911H37.1058C37.1162 11.3206 37.1244 11.3766 37.1244 11.4513C37.1244 11.51 37.1189 11.5606 37.1058 11.6166Z" fill="#233881"/>
<path fill-rule="evenodd" clip-rule="evenodd" d="M37.9257 10.1123C37.8671 10.1123 37.7951 10.115 37.7497 10.1176V10.651H37.8831C38.1017 10.651 38.1977 10.571 38.1977 10.3736C38.1977 10.1763 38.1017 10.1123 37.9257 10.1123ZM38.6964 11.6136C38.6273 11.6245 38.5551 11.6299 38.4724 11.6299C38.398 11.6299 38.3231 11.6272 38.2724 11.6165L37.9071 10.9683H37.7497V11.6165C37.6831 11.6272 37.6271 11.6299 37.5551 11.6299C37.4908 11.6299 37.4351 11.6272 37.3684 11.6165V9.81363C37.4908 9.80563 37.7471 9.80029 37.9017 9.80029C38.3551 9.80029 38.5817 9.96029 38.5817 10.3763C38.5817 10.5976 38.4487 10.819 38.2617 10.899L38.6964 11.6136Z" fill="#233881"/>
<path fill-rule="evenodd" clip-rule="evenodd" d="M42.3755 8.44876L42.2181 7.93943C42.1995 7.88076 42.1808 7.8061 42.1648 7.72343H42.1595C42.1461 7.8061 42.1248 7.88076 42.1061 7.93943L41.9568 8.44876H42.3755ZM43.0128 9.13167C42.9781 9.13967 42.8955 9.14501 42.8075 9.14501C42.7381 9.14501 42.6581 9.13701 42.6235 9.13167L42.4901 8.7661H41.8499L41.7246 9.13167C41.6661 9.13967 41.5966 9.14501 41.5272 9.14501C41.4579 9.14501 41.3779 9.13967 41.3379 9.13167L41.9675 7.32876C42.0048 7.32076 42.0928 7.31543 42.1515 7.31543C42.2235 7.31543 42.3088 7.32076 42.3381 7.32876L43.0128 9.13167Z" fill="#233881"/>
<path fill-rule="evenodd" clip-rule="evenodd" d="M43.7273 7.62743C43.6686 7.62743 43.5966 7.6301 43.5513 7.63276V8.1661H43.6846C43.9035 8.1661 43.9995 8.0861 43.9995 7.88876C43.9995 7.69143 43.9035 7.62743 43.7273 7.62743ZM44.4982 9.12901C44.4288 9.13967 44.3568 9.14501 44.2742 9.14501C44.1995 9.14501 44.1248 9.14234 44.0742 9.13167L43.7086 8.48343H43.5513V9.13167C43.4848 9.14234 43.4286 9.14501 43.3566 9.14501C43.2926 9.14501 43.2366 9.14234 43.1699 9.13167V7.32876C43.2926 7.32076 43.5486 7.31543 43.7033 7.31543C44.1566 7.31543 44.3835 7.47543 44.3835 7.89143C44.3835 8.11276 44.2502 8.3341 44.0635 8.4141L44.4982 9.12901Z" fill="#233881"/>
<path fill-rule="evenodd" clip-rule="evenodd" d="M42.2006 10.1391H41.723V11.6166C41.6724 11.6246 41.6006 11.63 41.5339 11.63C41.467 11.63 41.395 11.6246 41.3417 11.6166V10.1391H40.8644C40.8537 10.1044 40.8457 10.0217 40.8457 9.97639C40.8457 9.93105 40.8564 9.84839 40.867 9.81372H42.2006C42.2113 9.84839 42.2193 9.93105 42.2193 9.97639C42.2193 10.0217 42.2113 10.1044 42.2006 10.1391Z" fill="#233881"/>
<path fill-rule="evenodd" clip-rule="evenodd" d="M43.5482 11.6166H42.4199V9.81372H43.5242C43.5348 9.84305 43.5428 9.89905 43.5428 9.97372C43.5428 10.0324 43.5375 10.0831 43.5242 10.1391H42.8015V10.5284H43.4122C43.4228 10.5577 43.4308 10.6111 43.4308 10.6857C43.4308 10.7444 43.4255 10.7924 43.4122 10.8484H42.8015V11.2911H43.5482C43.5588 11.3206 43.5668 11.3766 43.5668 11.4513C43.5668 11.51 43.5615 11.5606 43.5482 11.6166Z" fill="#233881"/>
<path fill-rule="evenodd" clip-rule="evenodd" d="M44.3475 11.6432C44.1526 11.6432 43.9393 11.6059 43.7873 11.5366C43.7793 11.4992 43.7739 11.4512 43.7739 11.4086C43.7739 11.3446 43.7819 11.2832 43.8006 11.211C43.9579 11.2752 44.1659 11.3152 44.3286 11.3152C44.5182 11.3152 44.6195 11.227 44.6195 11.1072C44.6195 10.9737 44.5342 10.9177 44.2753 10.8377C43.9873 10.7497 43.7766 10.611 43.7766 10.3017C43.7766 9.97099 44.0619 9.78699 44.4382 9.78699C44.6113 9.78699 44.7662 9.81365 44.8702 9.84832C44.8782 9.87765 44.8835 9.92565 44.8835 9.99499C44.8835 10.0457 44.8782 10.123 44.8675 10.1657C44.7342 10.131 44.5819 10.1123 44.4595 10.1123C44.2593 10.1123 44.1499 10.179 44.1499 10.2857C44.1499 10.411 44.2486 10.4617 44.4888 10.5363C44.7768 10.627 44.9902 10.763 44.9902 11.083C44.9902 11.4323 44.7155 11.6432 44.3475 11.6432Z" fill="#233881"/>
<path fill-rule="evenodd" clip-rule="evenodd" d="M16.3452 8.3421C16.3852 8.4541 16.4252 8.57943 16.4441 8.6861H16.4494C16.4678 8.57943 16.5054 8.4541 16.5454 8.3421L16.7427 7.77143C16.7932 7.62476 16.8227 7.48343 16.8252 7.32876C16.8787 7.32076 16.9534 7.31543 17.0147 7.31543C17.0707 7.31543 17.1507 7.32076 17.1987 7.32876C17.1987 7.50719 17.1667 7.6781 17.0947 7.86743L16.6118 9.13167C16.5801 9.13967 16.5054 9.14501 16.4412 9.14501C16.3692 9.14501 16.3105 9.13967 16.2625 9.13167L15.7878 7.87276C15.7158 7.68343 15.6838 7.50719 15.6838 7.32876C15.7318 7.32076 15.7958 7.31543 15.8758 7.31543C15.9372 7.31543 16.0145 7.32076 16.0625 7.32876C16.0625 7.4941 16.0918 7.62476 16.1425 7.77143L16.3452 8.3421Z" fill="#233881"/>
<path fill-rule="evenodd" clip-rule="evenodd" d="M17.8476 9.13167C17.7932 9.13967 17.7274 9.14501 17.6416 9.14501C17.5644 9.14501 17.4928 9.13967 17.4385 9.13167V7.32876C17.4928 7.32076 17.5729 7.31543 17.6445 7.31543C17.7246 7.31543 17.7961 7.32076 17.8476 7.32876V9.13167Z" fill="#233881"/>
<path fill-rule="evenodd" clip-rule="evenodd" d="M19.3959 7.65419H18.9186V9.13177C18.8679 9.13977 18.7959 9.1451 18.7293 9.1451C18.6626 9.1451 18.5906 9.13977 18.5373 9.13177V7.65419H18.0599C18.0493 7.61952 18.041 7.53686 18.041 7.49152C18.041 7.44619 18.0519 7.36352 18.0626 7.32886H19.3959C19.4066 7.36352 19.4146 7.44619 19.4146 7.49152C19.4146 7.53686 19.4066 7.61952 19.3959 7.65419Z" fill="#233881"/>
<path fill-rule="evenodd" clip-rule="evenodd" d="M16.5893 10.9336L16.432 10.4243C16.4133 10.3656 16.3944 10.291 16.3784 10.2083H16.3733C16.3598 10.291 16.3387 10.3656 16.3198 10.4243L16.1707 10.9336H16.5893ZM17.2267 11.6165C17.192 11.6245 17.1093 11.6299 17.0213 11.6299C16.952 11.6299 16.872 11.6219 16.8373 11.6165L16.704 11.251H16.0638L15.9384 11.6165C15.8798 11.6245 15.8104 11.6299 15.7411 11.6299C15.6718 11.6299 15.5918 11.6245 15.5518 11.6165L16.1813 9.81363C16.2184 9.80563 16.3067 9.80029 16.3651 9.80029C16.4373 9.80029 16.5227 9.80563 16.552 9.81363L17.2267 11.6165Z" fill="#233881"/>
<path fill-rule="evenodd" clip-rule="evenodd" d="M19.2614 11.6165C19.2294 11.6245 19.1574 11.6299 19.0827 11.6299C19.0027 11.6299 18.928 11.6219 18.896 11.6165L18.864 10.5336L18.4694 11.4459C18.44 11.4565 18.376 11.4619 18.336 11.4619C18.2878 11.4619 18.2294 11.4565 18.2 11.4485L17.8051 10.5336L17.7705 11.6165C17.7358 11.6245 17.6531 11.6299 17.5814 11.6299C17.5385 11.6299 17.4665 11.6245 17.4185 11.6165L17.4958 9.81363C17.5465 9.80829 17.5971 9.80029 17.6505 9.80029C17.7145 9.80029 17.7758 9.80563 17.8078 9.81363L18.336 11.0379L18.8667 9.81363C18.92 9.80563 18.9734 9.80029 19.0214 9.80029C19.0827 9.80029 19.1387 9.80563 19.1787 9.81363L19.2614 11.6165Z" fill="#233881"/>
<path fill-rule="evenodd" clip-rule="evenodd" d="M23.1529 9.13177H22.0247V7.32886H23.1289C23.1396 7.35819 23.1473 7.41419 23.1473 7.48886C23.1473 7.54752 23.142 7.59819 23.1289 7.65419H22.406V8.04352H23.0167C23.0276 8.07286 23.0353 8.12619 23.0353 8.20086C23.0353 8.25952 23.0302 8.30752 23.0167 8.36352H22.406V8.80619H23.1529C23.1636 8.83577 23.1713 8.89177 23.1713 8.96643C23.1713 9.0251 23.166 9.07577 23.1529 9.13177Z" fill="#233881"/>
<path fill-rule="evenodd" clip-rule="evenodd" d="M23.5737 8.64367L23.9151 8.17943L23.6031 7.74476C23.5017 7.6061 23.4377 7.4781 23.4164 7.32876C23.4591 7.32076 23.5471 7.31543 23.6031 7.31543C23.6697 7.31543 23.7471 7.32076 23.7924 7.32876C23.8057 7.4461 23.8724 7.5421 23.9417 7.64343L24.1284 7.91543L24.3204 7.6461C24.3844 7.55543 24.4457 7.44076 24.4564 7.32876C24.5017 7.32343 24.5817 7.31543 24.646 7.31543C24.7044 7.31543 24.7844 7.32076 24.8273 7.32876C24.806 7.49943 24.7366 7.6301 24.6271 7.7821L24.3444 8.17143L24.686 8.65143C24.806 8.81676 24.862 8.97967 24.8726 9.13167C24.8273 9.13967 24.7497 9.14501 24.6831 9.14501C24.6244 9.14501 24.5471 9.13967 24.4964 9.13167C24.4884 9.01434 24.4484 8.9021 24.3817 8.80076L24.1284 8.41943L23.8804 8.79301C23.8164 8.89167 23.7791 9.01434 23.7791 9.13167C23.7364 9.13967 23.6457 9.14501 23.5871 9.14501C23.5231 9.14501 23.4457 9.13701 23.4004 9.13167C23.4057 8.96901 23.4351 8.83276 23.5737 8.64367Z" fill="#233881"/>
<path fill-rule="evenodd" clip-rule="evenodd" d="M26.2224 7.70479C26.0944 7.66479 25.9344 7.63546 25.8064 7.63546C25.5022 7.63546 25.3048 7.85146 25.3048 8.23812C25.3048 8.59279 25.4597 8.82503 25.8037 8.82503C25.9317 8.82503 26.0757 8.79837 26.2037 8.75837C26.2224 8.80612 26.2357 8.88103 26.2357 8.93703C26.2357 8.98237 26.2331 9.03837 26.2277 9.06237C26.0944 9.1237 25.9237 9.15837 25.7664 9.15837C25.1928 9.15837 24.9102 8.81146 24.9102 8.24612C24.9102 7.69679 25.2142 7.30212 25.7824 7.30212C25.9211 7.30212 26.1024 7.33655 26.2304 7.39279C26.2384 7.41946 26.2411 7.47812 26.2411 7.51279C26.2411 7.59546 26.2304 7.67279 26.2224 7.70479Z" fill="#233881"/>
<path fill-rule="evenodd" clip-rule="evenodd" d="M22.6289 10.115C22.3996 10.115 22.2689 10.291 22.2689 10.715C22.2689 11.1392 22.3996 11.3152 22.6289 11.3152C22.8583 11.3152 22.9889 11.1392 22.9889 10.715C22.9889 10.291 22.8583 10.115 22.6289 10.115ZM22.6289 11.6432C22.1356 11.6432 21.8743 11.3017 21.8743 10.715C21.8743 10.1283 22.1356 9.78699 22.6289 9.78699C23.1223 9.78699 23.3838 10.1283 23.3838 10.715C23.3838 11.3017 23.1223 11.6432 22.6289 11.6432Z" fill="#233881"/>
<path fill-rule="evenodd" clip-rule="evenodd" d="M24.7024 11.6165H23.5981V9.81363C23.6488 9.80563 23.7181 9.80029 23.7848 9.80029C23.8595 9.80029 23.9315 9.80563 23.9795 9.81363V11.291H24.7024C24.7128 11.3205 24.7211 11.3765 24.7211 11.4512C24.7211 11.5099 24.7155 11.5605 24.7024 11.6165Z" fill="#233881"/>
<path fill-rule="evenodd" clip-rule="evenodd" d="M26.2181 10.931C26.2181 11.3899 26.0421 11.6432 25.5301 11.6432C25.0128 11.6432 24.8499 11.3899 24.8499 10.931V9.81363C24.9034 9.80563 24.9728 9.80029 25.0365 9.80029C25.1114 9.80029 25.1781 9.80563 25.2314 9.81363V10.9576C25.2314 11.2032 25.3008 11.3416 25.5328 11.3416C25.7648 11.3416 25.8448 11.2032 25.8448 10.9576V9.81363C25.8928 9.80563 25.9728 9.80029 26.0341 9.80029C26.0928 9.80029 26.1728 9.80563 26.2181 9.81363V10.931Z" fill="#233881"/>
</g>
<defs>
<filter id="filter0_d_8_3807" x="0" y="0" width="188" height="67" filterUnits="userSpaceOnUse" color-interpolation-filters="sRGB">
<feFlood flood-opacity="0" result="BackgroundImageFix"/>
<feColorMatrix in="SourceAlpha" type="matrix" values="0 0 0 0 0 0 0 0 0 0 0 0 0 0 0 0 0 0 127 0" result="hardAlpha"/>
<feOffset dy="4"/>
<feGaussianBlur stdDeviation="2"/>
<feComposite in2="hardAlpha" operator="out"/>
<feColorMatrix type="matrix" values="0 0 0 0 0 0 0 0 0 0 0 0 0 0 0 0 0 0 0.25 0"/>
<feBlend mode="normal" in2="BackgroundImageFix" result="effect1_dropShadow_8_3807"/>
<feBlend mode="normal" in="SourceGraphic" in2="effect1_dropShadow_8_3807" result="shape"/>
</filter>
<clipPath id="clip0_8_3807">
<rect width="180" height="59" fill="white" transform="translate(4)"/>
</clipPath>
</defs>
</svg>
